<svg width="40" height="40" viewBox="0 0 40 40" fill="none" xmlns="http://www.w3.org/2000/svg">
<path d="M39.9988 19.9999C39.9988 8.95472 31.044 -0.000141144 19.9999 -0.000141144C8.95361 -0.000141144 -0.0012207 8.95472 -0.0012207 19.9999C-0.0012207 29.9824 7.31324 38.2555 16.874 39.7568V25.7802H11.7969V19.9999H16.874V15.5931C16.874 10.5804 19.8609 7.81176 24.4282 7.81176C26.6169 7.81176 28.9062 8.20291 28.9062 8.20291V13.1241H26.3828C23.8991 13.1241 23.1247 14.6661 23.1247 16.2477V19.9999H28.671L27.7847 25.7802H23.1247V39.7568C32.6855 38.2555 39.9988 29.9824 39.9988 19.9999Z" fill="#112152"/>
<path d="M27.7887 25.7798L28.675 19.9995H23.1286V16.2473C23.1286 14.6657 23.903 13.1237 26.3868 13.1237H28.9101V8.20253C28.9101 8.20253 26.6208 7.81138 24.4322 7.81138C19.8649 7.81138 16.878 10.58 16.878 15.5927V19.9995H11.8009V25.7798H16.878V39.7565C17.8966 39.9159 18.9401 39.9995 20.0039 39.9995C21.0666 39.9995 22.11 39.9159 23.1286 39.7565V25.7798H27.7887Z" fill="white"/>
</svg>
