<svg width="40" height="40" viewBox="0 0 40 40" fill="none" xmlns="http://www.w3.org/2000/svg">
<path d="M39.9988 20C39.9988 31.0451 31.0439 40 19.9999 40C8.9536 40 -0.0012207 31.0451 -0.0012207 20C-0.0012207 8.9537 8.9536 0 19.9999 0C31.0439 0 39.9988 8.9537 39.9988 20Z" fill="#112152"/>
<path d="M26.2173 12.4337C25.4575 12.4337 24.8425 13.0498 24.8425 13.8084C24.8425 14.5681 25.4575 15.1831 26.2173 15.1831C26.977 15.1831 27.592 14.5681 27.592 13.8084C27.592 13.0498 26.977 12.4337 26.2173 12.4337Z" fill="white"/>
<path d="M20.0975 23.671C18.0569 23.671 16.3973 22.0113 16.3973 19.9719C16.3973 17.9324 18.0569 16.2728 20.0975 16.2728C22.1369 16.2728 23.7954 17.9324 23.7954 19.9719C23.7954 22.0113 22.1369 23.671 20.0975 23.671ZM20.0975 14.1972C16.9128 14.1972 14.3217 16.7872 14.3217 19.9719C14.3217 23.1566 16.9128 25.7466 20.0975 25.7466C23.281 25.7466 25.8722 23.1566 25.8722 19.9719C25.8722 16.7872 23.281 14.1972 20.0975 14.1972Z" fill="white"/>
<path d="M15.3231 10.4532C12.6562 10.4532 10.4868 12.6227 10.4868 15.2907V24.6536C10.4868 27.3205 12.6562 29.4911 15.3231 29.4911H24.6861C27.3541 29.4911 29.5247 27.3205 29.5247 24.6536V15.2907C29.5247 12.6227 27.3541 10.4532 24.6861 10.4532H15.3231ZM24.6861 31.6968H15.3231C11.4398 31.6968 8.28003 28.537 8.28003 24.6536V15.2907C8.28003 11.4074 11.4398 8.24755 15.3231 8.24755H24.6861C28.5695 8.24755 31.7303 11.4074 31.7303 15.2907V24.6536C31.7303 28.537 28.5695 31.6968 24.6861 31.6968Z" fill="white"/>
</svg>
