<svg width="40" height="40" viewBox="0 0 40 40" fill="none" xmlns="http://www.w3.org/2000/svg">
<path d="M19.9994 40C31.0451 40 40 31.0463 40 20.0006C40 8.95373 31.0451 0 19.9994 0C8.95376 0 -0.0012207 8.95373 -0.0012207 20.0006C-0.0012207 31.0463 8.95376 40 19.9994 40Z" fill="#112152"/>
<path d="M8.32267 19.827C8.32267 19.827 18.323 15.7227 21.7907 14.2771C23.1206 13.6995 27.6288 11.8499 27.6288 11.8499C27.6288 11.8499 29.7099 11.0409 29.5362 13.0062C29.4784 13.8153 29.0166 16.6475 28.5536 19.7113C27.8603 24.0459 27.1091 28.7868 27.1091 28.7868C27.1091 28.7868 26.9934 30.1155 26.0107 30.347C25.028 30.5785 23.4099 29.538 23.1206 29.3065C22.8891 29.1328 18.7848 26.5321 17.2824 25.26C16.8773 24.914 16.4155 24.2195 17.3403 23.4104C19.4214 21.503 21.9064 19.1325 23.41 17.6302C24.1033 16.9369 24.7965 15.3176 21.9064 17.2829C17.8021 20.1152 13.7557 22.775 13.7557 22.775C13.7557 22.775 12.8309 23.3526 11.0971 22.8329C9.36324 22.312 7.34001 21.6187 7.34001 21.6187C7.34001 21.6187 5.95221 20.7518 8.32267 19.827Z" fill="white"/>
</svg>
