<svg width="40" height="40" viewBox="0 0 40 40" fill="none" xmlns="http://www.w3.org/2000/svg">
<path d="M39.9988 20.0011C39.9988 31.0452 31.0439 40 19.9999 40C8.95361 40 -0.0012207 31.0452 -0.0012207 20.0011C-0.0012207 8.95483 8.95361 0 19.9999 0C31.0439 0 39.9988 8.95483 39.9988 20.0011Z" fill="#112152"/>
<path d="M30.3875 17.6962C30.1829 17.7154 29.9771 17.7267 29.7713 17.7267C27.5171 17.7278 25.4154 16.5905 24.1798 14.7048V24.9959C24.1798 29.1958 20.7747 32.6021 16.5748 32.6021C12.3738 32.6021 8.96753 29.1958 8.96753 24.9959C8.96753 20.7949 12.3738 17.3898 16.5748 17.3898C16.7331 17.3898 16.888 17.4045 17.0451 17.4147V21.1623C16.888 21.1431 16.7342 21.1148 16.5748 21.1148C14.4302 21.1148 12.6926 22.8525 12.6926 24.9971C12.6926 27.1405 14.4302 28.8781 16.5748 28.8781C18.7183 28.8781 20.6119 27.1891 20.6119 25.0457L20.6492 7.56784H24.2352C24.5744 10.7819 27.1666 13.2939 30.3909 13.5302V17.6962" fill="white"/>
</svg>
