<svg width="200" height="200" viewBox="0 0 200 200" fill="none" xmlns="http://www.w3.org/2000/svg">
<path d="M200 0H0V200H200V0Z" fill="white"/>
<path d="M107.802 101.6L102.401 105.599L104.402 111.999L99.0004 108L93.6028 111.999L95.6021 105.599L90.2006 101.6H97.003L99.0004 95.2L101.002 101.6H107.802Z" fill="white"/>
<path d="M116.402 150.2V155.001H81.601V150.2H84.4008H84.6009H113.402H113.6H116.402Z" fill="white"/>
<path d="M84.4008 146.199V139.601H87.0025H91.6015H106.201H111.002H113.6V150.2H113.402H84.6009H84.4008V146.199Z" fill="white"/>
<path d="M117.6 84.9994V86.1982H124.601C124.801 86.1982 125.201 86.3983 125.201 86.7986V99.3987C125.201 101.798 124.403 104.198 123.002 105.999C121.601 107.798 119.802 109.199 117.602 109.799C117.204 113.6 115.803 117.2 113.404 120C111.004 122.8 107.804 124.999 104.204 126C103.805 128.199 103.805 130.401 104.406 132.4C104.804 134.6 105.805 136.801 107.005 139C107.208 139.201 107.005 139.601 106.805 139.799H106.605H92.0057C91.8036 139.799 91.4054 139.599 91.4054 139.199V138.998C92.6061 136.799 93.4047 134.598 94.0051 132.398C94.2072 131.199 94.4053 129.999 94.4053 128.798C94.4053 127.799 94.4053 126.999 94.2051 125.998C90.6048 124.999 87.4028 122.798 85.0032 119.998C82.6036 117.198 81.2027 113.798 80.8044 109.798C78.605 109.197 76.8039 107.798 75.403 105.997C74.0041 104.196 73.2035 101.796 73.2035 99.3968V86.7966C73.2035 86.5964 73.4057 86.1962 73.804 86.1962H80.8044V80.7967C80.8044 80.5965 81.0046 80.1963 81.4049 80.1963H117.604C117.806 80.1963 118.207 80.3964 118.207 80.7967V84.9974L117.6 84.9994ZM121.401 99.0004V90.2007H117.6V105.201C118.601 104.6 119.602 103.802 120.202 102.801C121.001 101.8 121.401 100.399 121.401 99.0004ZM102.401 105.599L107.802 101.598H101.002L99.0004 95.198L97.001 101.598H90.1986L95.8003 105.599L93.6008 111.999L99.0004 107.998L104.402 111.999L102.401 105.599ZM80.4023 105.201V90.2007H76.6018V99.0004C76.6018 100.401 77.002 101.8 77.8005 103.001C78.4009 104 79.4017 104.8 80.4023 105.201Z" fill="#FAE12C"/>
<path d="M106.201 140.599C105.801 140.599 105.402 140.199 105.402 139.799C105.402 139.599 105.603 139.198 105.801 139C104.6 136.601 103.802 134.599 103.401 132.6C102.801 130.198 102.801 127.999 103.201 125.8C103.201 125.399 103.599 125.199 103.801 125.199C107.202 124.201 110.2 122.199 112.601 119.399C114.799 116.6 116.2 113.4 116.602 109.799C116.602 109.399 116.8 109.199 117.202 109.001C119.201 108.4 121.001 107.2 122.201 105.6C123.6 103.801 124.201 101.8 124.201 99.6006V87.4006H117.4C117 87.4006 116.602 87.0004 116.602 86.6021V81.6028H81.2007V86.6021C81.2007 87.0024 80.8026 87.4006 80.4023 87.4006H73.6019V99.6006C73.6019 101.8 74.4004 103.801 75.6011 105.6C76.8019 107.202 78.6031 108.4 80.6004 109.001C81.0007 109.201 81.2007 109.401 81.2007 109.799C81.601 113.4 83.0019 116.6 85.2034 119.399C87.6029 122.199 90.6029 124.199 94.0011 125.199C94.4014 125.199 94.6014 125.599 94.6014 125.8C94.8036 126.798 95.0018 127.799 95.0018 128.8C95.0018 129.998 94.8016 131.199 94.6014 132.6C94.2032 134.599 93.4027 136.801 92.2019 139.198C92.402 139.398 92.6022 139.599 92.6022 139.999C92.6022 140.399 92.202 140.799 91.8017 140.799C91.0032 140.799 90.4028 140.199 90.4028 139.4C90.4028 139.2 90.4027 139 90.6028 138.6C91.8036 136.2 92.6041 134.199 93.0024 132.2C93.2045 131.001 93.4027 130 93.4027 128.8C93.4027 128.199 93.4027 127.401 93.2025 126.8C89.6022 125.601 86.4022 123.6 84.0006 120.6C81.6011 117.8 80.2021 114.2 79.6017 110.6C77.6004 109.799 75.6012 108.4 74.2003 106.601C72.5993 104.602 71.8007 102.002 71.8007 99.4004V86.8002C71.8007 85.9997 72.4011 85.4013 73.1996 85.4013H79.3996V81.0005C79.3996 80.2019 80 79.6016 80.8006 79.6016H116.998C117.799 79.6016 118.399 80.2019 118.399 81.0005V85.4013H124.599C125.398 85.4013 125.998 86.0017 125.998 86.8002V99.4004C125.998 102.002 125.199 104.4 123.598 106.601C122.199 108.4 120.398 109.801 118.197 110.6C117.799 114.2 116.197 117.8 113.798 120.6C111.396 123.6 108.198 125.599 104.596 126.8C104.196 128.601 104.396 130.401 104.796 132.4C105.196 134.199 105.997 136.4 107.198 138.8C107.598 139.4 107.398 140.401 106.597 140.799C106.597 140.799 106.597 140.799 106.395 140.799C106.601 140.399 106.401 140.599 106.201 140.599Z" fill="#112152"/>
<path d="M117.6 106.201C117.4 106.201 117.202 106.201 117.202 106.001C117 105.801 116.802 105.601 116.802 105.2V90.2006C116.802 89.8004 117.202 89.4021 117.6 89.4021H121.401C121.801 89.4021 122.201 89.8024 122.201 90.2006V99.0003C122.201 100.599 121.801 102.2 120.801 103.399C120.002 104.4 119.001 105.401 118.001 106.001C117.803 106.201 117.802 106.201 117.6 106.201ZM118.601 91.1993V103.599C119.001 103.199 119.201 102.999 119.602 102.601C120.4 101.6 120.602 100.401 120.602 99.2005V91.4014L118.601 91.1993Z" fill="#112152"/>
<path d="M80.4023 106.201C80.2021 106.201 80.2021 106.201 80.0019 106.001C78.8012 105.401 77.8026 104.4 77.002 103.399C76.0014 102 75.6011 100.599 75.6011 99.0003V90.2006C75.6011 89.8004 76.0013 89.4021 76.4016 89.4021H80.2021C80.6004 89.4021 81.0005 89.8024 81.0005 90.2006V105.2C81.0005 105.601 80.8005 105.801 80.6004 106.001C80.8025 106.201 80.6004 106.201 80.4023 106.201ZM77.4022 91.1993V98.9984C77.4022 100.197 77.8006 101.398 78.4009 102.399C78.6031 102.799 79.0033 103.199 79.4016 103.397V90.9972H77.4022V91.1993Z" fill="#112152"/>
<path d="M113.6 151C113.202 151 112.801 150.6 112.801 150.201V140.601H85.4014V150.201C85.4014 150.602 85.0012 151 84.6009 151C84.2027 151 83.8024 150.6 83.8024 150.201V139.601C83.8024 139.2 84.2027 138.8 84.6009 138.8H113.602C114.002 138.8 114.402 139.2 114.402 139.601V150.201C114.402 150.6 114.002 151 113.6 151Z" fill="#112152"/>
<path d="M116.402 155.799C116.003 155.799 115.603 155.399 115.603 154.999V150.998H82.4034V154.999C82.4034 155.399 82.0032 155.799 81.6029 155.799C81.2027 155.799 80.8044 155.399 80.8044 154.999V150.199C80.8044 149.799 81.2027 149.399 81.6029 149.399H116.604C117.002 149.399 117.402 149.799 117.402 150.199V154.999C117.402 155.399 117 155.799 116.402 155.799Z" fill="#112152"/>
<path d="M117.6 85.7998H96.4025C96.0023 85.7998 95.6021 85.3995 95.6021 84.9992C95.6021 84.599 96.0023 84.1987 96.4025 84.1987H117.6C118.001 84.1987 118.401 84.599 118.401 84.9992C118.401 85.3995 118.201 85.7998 117.6 85.7998Z" fill="#112152"/>
<path d="M92.0017 85.7998H87.601C87.2007 85.7998 86.8004 85.3995 86.8004 84.9992C86.8004 84.599 87.2007 84.1987 87.601 84.1987H92.0017C92.4 84.1987 92.8003 84.599 92.8003 84.9992C92.8003 85.3995 92.4 85.7998 92.0017 85.7998Z" fill="#112152"/>
<path d="M100.001 146.999H84.4008C84.0005 146.999 83.6024 146.599 83.6024 146.199C83.6024 145.799 84.0005 145.4 84.4008 145.4H100.001C100.401 145.4 100.799 145.801 100.799 146.199C100.799 146.599 100.601 146.999 100.001 146.999Z" fill="#112152"/>
<path d="M105.801 146.999H103.401C103.001 146.999 102.603 146.599 102.603 146.199C102.603 145.799 103.001 145.4 103.401 145.4H105.801C106.201 145.4 106.601 145.801 106.601 146.199C106.601 146.599 106.201 146.999 105.801 146.999Z" fill="#112152"/>
<path d="M99.0003 55.4001C98.6001 55.4001 98.2018 54.9998 98.2018 54.5996V45.1995C98.2018 44.7992 98.6001 44.3989 99.0003 44.3989C99.4006 44.3989 99.8008 44.7992 99.8008 45.1995V54.5996C100.001 54.9998 99.6007 55.4001 99.0003 55.4001Z" fill="#112152"/>
<path d="M128.201 71.2001C127.803 71.2001 127.601 71 127.403 70.7998C127.201 70.3996 127.403 69.8012 127.803 69.5991L136.601 64.7999C137.001 64.5998 137.601 64.7999 137.8 65.2002C138.002 65.6005 137.8 66.2009 137.401 66.399L128.602 71.2001C128.401 71.2001 128.201 71.2001 128.201 71.2001Z" fill="#112152"/>
<path d="M69.8013 71.2003C69.6012 71.2003 69.6013 71.2003 69.4011 71.0001L60.6034 66.201C60.2031 66.0009 60.0029 65.4005 60.2031 65.0022C60.4032 64.602 61.0016 64.4018 61.4039 64.6019L70.2036 69.4011C70.6018 69.6012 70.8039 70.2016 70.6018 70.5999C70.4017 71.0001 70.2016 71.2003 69.8013 71.2003Z" fill="#112152"/>
<path d="M115.001 60.9996C114.801 60.9996 114.6 60.9996 114.6 60.7995C114.2 60.5993 114 60.0009 114.4 59.6007L117.4 54.6014C117.6 54.2011 118.201 54.001 118.599 54.4013C118.999 54.6014 119.199 55.1998 118.801 55.6001L115.799 60.5993C115.601 60.7995 115.401 60.9996 115.001 60.9996Z" fill="#112152"/>
<path d="M137.201 87.0004H131.001C130.603 87.0004 130.203 86.6002 130.203 86.1999C130.203 85.7997 130.603 85.3994 131.001 85.3994H137.201C137.601 85.3994 138.002 85.7997 138.002 86.1999C138.002 86.6002 137.8 87.0004 137.201 87.0004Z" fill="#112152"/>
<path d="M66.8014 87.0004H60.6013C60.2011 87.0004 59.8008 86.6002 59.8008 86.1999C59.8008 85.7997 60.2011 85.3994 60.6013 85.3994H66.8014C67.1997 85.3994 67.6 85.7997 67.6 86.1999C67.602 86.6002 67.4018 87.0004 66.8014 87.0004Z" fill="#112152"/>
<path d="M83.0019 60.9998C82.6016 60.9998 82.4015 60.7997 82.2014 60.5995L79.2015 55.6003C79.0014 55.2 79.0013 54.5996 79.3996 54.4015C79.7999 54.2013 80.4003 54.2013 80.6004 54.6016L83.6024 59.6009C83.8005 60.0011 83.8005 60.6015 83.4003 60.7997C83.2021 60.9998 83.202 60.9998 83.0019 60.9998Z" fill="#112152"/>
<path d="M99.0003 69.199C98.6001 69.199 98.2018 68.7988 98.2018 68.3985V62.999C98.2018 62.5988 98.6001 62.1985 99.0003 62.1985C99.4006 62.1985 99.8008 62.5988 99.8008 62.999V68.3985C100.001 68.8007 99.6007 69.199 99.0003 69.199Z" fill="#112152"/>
<path d="M107.602 72.3989C107.4 72.3989 107.202 72.3989 107.202 72.1988C106.801 71.9987 106.601 71.3983 106.801 71L108.402 68.2002C108.603 67.7999 109.201 67.5998 109.603 67.7999C110.004 68.0001 110.204 68.6004 110.003 69.0007L108.402 71.8005C108.202 72.1988 107.802 72.3989 107.602 72.3989Z" fill="#112152"/>
<path d="M90.4007 72.399C90.0005 72.399 89.8004 72.1988 89.6002 71.9987L87.9992 68.9988C87.7991 68.5985 87.799 67.9981 88.3994 67.798C88.7997 67.5999 89.4001 67.5998 89.5983 68.1983L91.1993 70.9981C91.4014 71.3984 91.4014 71.9967 90.801 72.1969C90.803 72.399 90.6009 72.399 90.4007 72.399Z" fill="#112152"/>
<path d="M123.402 155.799H76.4016C76.0013 155.799 75.6011 155.399 75.6011 154.999C75.6011 154.599 76.0013 154.198 76.4016 154.198H123.402C123.8 154.198 124.201 154.599 124.201 154.999C124.201 155.399 123.8 155.799 123.402 155.799Z" fill="#112152"/>
<path d="M104.402 112.799C104.2 112.799 104.002 112.799 103.801 112.599L98.8022 109.001L94.0011 112.599C93.6028 112.799 93.2026 112.799 93.0005 112.599C92.6022 112.399 92.6022 111.999 92.6022 111.6L94.6014 105.801L89.6022 102.2C89.2039 102 89.2039 101.6 89.2039 101.202C89.404 100.801 89.6022 100.601 90.0025 100.601H96.2026L98.0017 94.8016C98.2038 94.4013 98.4019 94.2012 98.8022 94.2012C99.2024 94.2012 99.6007 94.4013 99.6007 94.8016L101.402 100.601H107.602C108 100.601 108.4 100.801 108.4 101.202C108.601 101.602 108.4 102.002 108 102.2L103.001 105.801L105.002 111.6C105.202 112.001 105.002 112.401 104.602 112.599C104.8 112.799 104.6 112.799 104.402 112.799ZM93.0005 102.401L96.2005 104.8C96.6008 105 96.6008 105.4 96.6008 105.801L95.4019 109.601L98.6001 107.202C99.0003 107.001 99.4006 107.001 99.6007 107.202L102.801 109.601L101.6 105.801C101.398 105.4 101.6 105 102 104.8L105.198 102.401H101.198C100.798 102.401 100.399 102.2 100.399 101.8L98.9983 97.9997L97.7996 101.8C97.5994 102.2 97.3993 102.401 97.001 102.401H93.0005Z" fill="#112152"/>
<path d="M102.401 123.4C102.002 123.4 101.8 123.2 101.602 123C101.4 122.6 101.602 122.001 102.002 121.801C111.202 116.602 111.603 113.202 111.801 111.2V111C111.801 110.6 112.201 110.2 112.801 110.2C113.202 110.2 113.6 110.6 113.6 111.198V111.398C113.4 113.798 113 117.599 102.999 123.398C102.801 123.4 102.603 123.4 102.401 123.4Z" fill="#112152"/>
</svg>
