<svg width="201" height="200" viewBox="0 0 201 200" fill="none" xmlns="http://www.w3.org/2000/svg">
<path d="M200.333 0H0.333374V200H200.333V0Z" fill="white"/>
<path d="M137.535 112.801H132.735V144.6H137.535V112.801Z" fill="white"/>
<path d="M113.535 125.001H108.734V144.6H113.535V125.001Z" fill="white"/>
<path d="M129.335 120.999H124.534V144.398H129.335V120.999Z" fill="white"/>
<path d="M105.534 133.999H100.735V144.6H105.534V133.999Z" fill="white"/>
<path d="M148.335 57.8013V152.799H79.1345C82.3346 152.799 84.9343 150.197 84.9343 146.999V78.9991V57.8013H121.734C129.936 57.8013 138.335 57.8013 148.335 57.8013ZM137.535 144.598V112.799H132.735V144.598H137.535ZM129.335 144.598V120.998H124.534V144.4H129.335V144.598ZM121.334 144.598V129.798H116.535V144.598H121.334ZM113.535 144.598V124.999H108.734V144.598H113.535ZM105.534 144.598V133.997H100.735V144.598H105.534ZM100.334 89.5999V82.001H92.7334V89.5999H100.334ZM100.334 74.8003V67.1994H92.7334V74.8003H100.334ZM97.5345 144.598V131.399H92.7334V144.598H97.5345Z" fill="#FAE12C"/>
<path d="M121.934 54.1992V57.7996H84.9343V78.9974H73.3348V140.199H52.7354C55.9355 140.199 58.5352 137.597 58.5352 134.397V66.3991V44.9993C82.7369 44.9993 97.7347 44.9993 121.934 44.9993V54.1992Z" fill="#FAE12C"/>
<path d="M121.334 129.8H116.535V144.6H121.334V129.8Z" fill="white"/>
<path d="M100.334 82.001H92.7335V89.5999H100.334V82.001Z" fill="white"/>
<path d="M100.334 67.1995H92.7335V74.8004H100.334V67.1995Z" fill="white"/>
<path d="M97.5345 131.399H92.7335V144.598H97.5345V131.399Z" fill="white"/>
<path d="M84.9343 78.9991V146.999C84.9343 150.197 82.3346 152.799 79.1345 152.799H78.9344C78.7323 152.799 78.5342 152.799 78.5342 152.799C75.7344 152.399 73.3347 149.999 73.3347 146.999V140.199V78.9971H84.9343V78.9991Z" fill="white"/>
<path d="M58.5351 66.199V134.199C58.5351 137.399 55.9354 139.999 52.7354 139.999H52.5352C52.3331 139.999 52.135 139.999 51.9349 139.999C48.9329 139.601 46.7335 137.199 46.7335 134.199V66.199H58.5351Z" fill="white"/>
<path d="M79.1345 153.8H78.5342C78.1339 153.8 77.7356 153.4 77.7356 152.999C77.7356 152.799 77.9338 152.399 77.9338 152.399C78.134 152.001 78.3341 152.001 78.5342 152.001C78.7343 152.001 78.7342 152.001 78.9344 152.001C79.3346 152.001 79.7329 152.399 79.7329 152.799C79.7349 153.2 79.7349 153.8 79.1345 153.8Z" fill="#112152"/>
<path d="M148.336 153.8H79.1345C78.7343 153.8 78.3361 153.4 78.3361 152.999C78.3361 152.601 78.7343 152.201 79.1345 152.201H147.335V58.8002H121.934C121.536 58.8002 121.136 58.4019 121.136 58.0016C121.136 57.6014 121.536 57.2031 121.934 57.2031H148.336C148.734 57.2031 149.134 57.6014 149.134 58.0016V152.999C149.134 153.4 148.734 153.8 148.336 153.8Z" fill="#112152"/>
<path d="M79.1345 153.8H78.9344C78.7323 153.8 78.5342 153.8 78.334 153.8C74.9338 153.4 72.3341 150.6 72.3341 147.2V140.399C72.3341 139.999 72.7344 139.601 73.1327 139.601C73.5329 139.601 73.9332 139.999 73.9332 140.399V147.2C73.9332 149.801 75.7324 151.799 78.334 152.199C78.5342 152.199 78.5341 152.199 78.7323 152.199C81.5321 152.199 83.7316 149.999 83.7316 147.2V79.2014C83.7316 78.8011 84.1318 78.4009 84.5321 78.4009C84.9323 78.4009 85.3306 78.8011 85.3306 79.2014V147.2C85.935 150.798 82.935 153.8 79.1345 153.8Z" fill="#112152"/>
<path d="M100.334 75.5991H92.7334C92.3352 75.5991 91.9349 75.2008 91.9349 74.8006V67.1996C91.9349 66.8014 92.3352 66.4011 92.7334 66.4011H100.334C100.735 66.4011 101.133 66.8014 101.133 67.1996V74.8006C101.133 75.2008 100.735 75.5991 100.334 75.5991ZM93.7341 73.7999H99.5358V68.0002H93.7341V73.7999Z" fill="#112152"/>
<path d="M120.133 71.1981H105.334C104.933 71.1981 104.533 70.7999 104.533 70.3996C104.533 69.9994 104.933 69.6011 105.334 69.6011H120.133C120.534 69.6011 120.934 69.9994 120.934 70.3996C120.936 70.7999 120.734 71.1981 120.133 71.1981Z" fill="#112152"/>
<path d="M135.135 75.2008H105.336C104.935 75.2008 104.535 74.8006 104.535 74.4003C104.535 74.0001 104.935 73.6018 105.336 73.6018H135.135C135.535 73.6018 135.935 74.0001 135.935 74.4003C135.935 74.8006 135.535 75.2008 135.135 75.2008Z" fill="#112152"/>
<path d="M100.334 90.4007H92.7334C92.3352 90.4007 91.9349 90.0004 91.9349 89.6001V82.0012C91.9349 81.6009 92.3352 81.2007 92.7334 81.2007H100.334C100.735 81.2007 101.133 81.6009 101.133 82.0012V89.6001C101.133 90.0004 100.735 90.4007 100.334 90.4007ZM93.7341 88.5995H99.5358V82.7997H93.7341V88.5995Z" fill="#112152"/>
<path d="M120.133 85.9999H105.334C104.933 85.9999 104.533 85.5997 104.533 85.1994C104.533 84.8012 104.933 84.4009 105.334 84.4009H120.133C120.534 84.4009 120.934 84.8012 120.934 85.1994C120.936 85.5997 120.734 85.9999 120.133 85.9999Z" fill="#112152"/>
<path d="M135.135 90.0004H105.336C104.935 90.0004 104.535 89.6001 104.535 89.2019C104.535 88.8016 104.935 88.4014 105.336 88.4014H135.135C135.535 88.4014 135.935 88.8016 135.935 89.2019C135.935 89.6001 135.535 90.0004 135.135 90.0004Z" fill="#112152"/>
<path d="M97.5345 145.4H92.7334C92.3352 145.4 91.9349 145 91.9349 144.6V131.401C91.9349 131.001 92.3352 130.601 92.7334 130.601H97.5345C97.9348 130.601 98.3331 131.001 98.3331 131.401V144.6C98.5352 145 98.1349 145.4 97.5345 145.4ZM93.7341 143.601H96.7359V132.2H93.7341V143.601Z" fill="#112152"/>
<path d="M105.534 145.401H100.735C100.334 145.401 99.9341 145 99.9341 144.6V133.999C99.9341 133.601 100.334 133.201 100.735 133.201H105.534C105.934 133.201 106.334 133.601 106.334 133.999V144.6C106.534 145 106.134 145.401 105.534 145.401ZM101.535 143.601H104.535V134.802H101.535V143.601Z" fill="#112152"/>
<path d="M113.535 145.4H108.734C108.333 145.4 107.935 145 107.935 144.6V125.001C107.935 124.601 108.333 124.2 108.734 124.2H113.535C113.933 124.2 114.333 124.601 114.333 125.001V144.6C114.335 145 113.933 145.4 113.535 145.4ZM109.534 143.601H112.536V125.801H109.534V143.601Z" fill="#112152"/>
<path d="M121.334 145.4H116.535C116.135 145.4 115.734 145 115.734 144.6V129.8C115.734 129.4 116.135 129.002 116.535 129.002H121.334C121.734 129.002 122.134 129.4 122.134 129.8V144.6C122.335 145 121.934 145.4 121.334 145.4ZM117.535 143.601H120.535V130.599H117.535V143.601Z" fill="#112152"/>
<path d="M129.335 145.4H124.534C124.134 145.4 123.736 145 123.736 144.6V121C123.736 120.602 124.134 120.202 124.534 120.202H129.335C129.733 120.202 130.134 120.602 130.134 121V144.402C130.336 145 129.936 145.4 129.335 145.4ZM125.535 143.601H128.535V121.999H125.535V143.601Z" fill="#112152"/>
<path d="M137.535 145.4H132.735C132.335 145.4 131.935 145 131.935 144.6V112.801C131.935 112.401 132.335 112.001 132.735 112.001H137.535C137.935 112.001 138.335 112.401 138.335 112.801V144.6C138.335 145 137.935 145.4 137.535 145.4ZM133.534 143.601H136.536V113.6H133.534V143.601Z" fill="#112152"/>
<path d="M151.736 118.799C151.335 118.799 150.935 118.401 150.935 118.001V55.2018H121.934C121.536 55.2018 121.136 54.8016 121.136 54.4013C121.136 54.0031 121.536 53.6028 121.934 53.6028H151.736C152.134 53.6028 152.534 54.0031 152.534 54.4013V118.003C152.734 118.401 152.334 118.799 151.736 118.799Z" fill="#112152"/>
<path d="M52.7354 140.999H52.135C51.7348 140.999 51.3345 140.599 51.3345 140.201C51.3345 139.999 51.5366 139.801 51.5366 139.601C51.7368 139.398 51.9368 139.398 52.137 139.398C52.3371 139.398 52.3371 139.398 52.5373 139.398C52.9356 139.398 53.3358 139.799 53.3358 140.199C53.3339 140.599 53.3338 140.999 52.7354 140.999Z" fill="#112152"/>
<path d="M73.3347 141H52.7354C52.3351 141 51.9368 140.599 51.9368 140.201C51.9368 139.801 52.3351 139.401 52.7354 139.401H72.5342V79.0012C72.5342 78.6029 72.9345 78.2027 73.3347 78.2027H84.1338V57.8034C84.1338 57.4032 84.5341 57.0029 84.9324 57.0029H120.934V46.0018H59.5339V66.2009C59.5339 66.6012 59.1336 67.0014 58.7353 67.0014C58.335 67.0014 57.9348 66.6012 57.9348 66.2009V45.0031C57.9348 44.6029 58.335 44.2026 58.7353 44.2026H122.134C122.535 44.2026 122.933 44.6029 122.933 45.0031V57.8034C122.933 58.2017 122.535 58.602 122.134 58.602H86.1351V78.8011C86.1351 79.2014 85.7349 79.5996 85.3346 79.5996H74.3354V139.801C74.3354 140.599 73.9351 141 73.3347 141Z" fill="#112152"/>
<path d="M52.7354 141H52.5352C52.3331 141 52.135 141 51.9349 141C48.5327 140.599 45.9349 137.8 45.9349 134.399V66.4011C45.9349 66.0009 46.3352 65.6006 46.7335 65.6006H58.335C58.7352 65.6006 59.1335 66.0009 59.1335 66.4011V134.399C59.5338 138 56.5358 141 52.7354 141ZM47.7342 67.1996V134.399C47.7342 137.001 49.5333 138.998 52.135 139.399C52.3351 139.399 52.3351 139.399 52.5352 139.399C55.335 139.399 57.5345 137.199 57.5345 134.399V67.1996H47.7342Z" fill="#112152"/>
</svg>
