<svg width="20" height="20" viewBox="0 0 20 20" fill="none" xmlns="http://www.w3.org/2000/svg">
<g clip-path="url(#clip0_28_854)">
<path d="M10 0C4.47768 0 0 4.47768 0 10C0 15.5223 4.47768 20 10 20C15.5223 20 20 15.5223 20 10C20 4.47768 15.5223 0 10 0ZM10 18.3036C5.41518 18.3036 1.69643 14.5848 1.69643 10C1.69643 5.41518 5.41518 1.69643 10 1.69643C14.5848 1.69643 18.3036 5.41518 18.3036 10C18.3036 14.5848 14.5848 18.3036 10 18.3036ZM10.125 6.41295C11.308 6.41295 12.1116 7.16741 12.2009 8.27455C12.2076 8.3683 12.2857 8.43973 12.3795 8.43973H13.6451C13.7031 8.43973 13.75 8.39286 13.75 8.33482C13.75 6.39955 12.2232 5.04464 10.1183 5.04464C7.66518 5.04464 6.25 6.70089 6.25 9.4375V10.6049C6.25 13.3214 7.66518 14.9554 10.1183 14.9554C12.2165 14.9554 13.75 13.6429 13.75 11.7991C13.75 11.7411 13.7031 11.6942 13.6451 11.6942H12.3772C12.2835 11.6942 12.2076 11.7656 12.1987 11.8571C12.1049 12.8862 11.3036 13.5938 10.1228 13.5938C8.66518 13.5938 7.84375 12.5246 7.84375 10.6116V9.4375C7.84598 7.49554 8.66964 6.41295 10.125 6.41295Z" fill="white"/>
</g>
<defs>
<clipPath id="clip0_28_854">
<rect width="20" height="20" fill="white"/>
</clipPath>
</defs>
</svg>
