<svg width="160" height="160" viewBox="0 0 160 160" fill="none" xmlns="http://www.w3.org/2000/svg">
<path d="M0 80C0 124.183 35.8172 160 80 160C124.183 160 160 124.183 160 80C160 35.8172 124.183 0 80 0C35.8172 0 0 35.8172 0 80Z" fill="white"/>
<path d="M80.1607 47.9989C89.3506 47.9989 96.8004 55.4487 96.8004 64.6385C96.8004 73.8284 89.3506 81.2782 80.1608 81.2782H54.7203C45.5305 81.2782 38.0806 73.8284 38.0806 64.6385C38.0806 55.4487 45.5304 47.9989 54.7203 47.9989H80.1607ZM44.0797 73.2793C45.2726 73.2793 46.2395 72.3116 46.2395 71.1187C46.2395 69.9259 45.2726 68.9582 44.0797 68.9582C42.8869 68.9582 41.9199 69.9259 41.9199 71.1187C41.9199 72.3116 42.8869 73.2793 44.0797 73.2793ZM44.1598 65.2789C45.3084 65.2789 46.2395 64.3478 46.2395 63.1992C46.2395 62.0506 45.3084 61.1194 44.1598 61.1194H43.9997C42.8511 61.1194 41.9199 62.0506 41.9199 63.1992C41.9199 64.3478 42.8511 65.2789 43.9997 65.2789H44.1598ZM44.0797 57.2785C45.2726 57.2785 46.2395 56.3116 46.2395 55.1187C46.2395 53.9259 45.2726 52.9589 44.0797 52.9589C42.8869 52.9589 41.9199 53.9259 41.9199 55.1187C41.9199 56.3116 42.8869 57.2785 44.0797 57.2785Z" fill="#FAE12C"/>
<path d="M111.52 101.118H110.64C107.15 101.118 104.32 98.2891 104.32 94.799C104.32 91.309 107.15 88.4797 110.64 88.4797H112.401C115.891 88.4797 118.72 91.309 118.72 94.799C118.72 98.2891 115.891 101.118 112.401 101.118H111.52Z" fill="#FAE12C"/>
<path d="M111.185 73.9144C111.296 74.0202 111.359 74.1669 111.359 74.3204C111.359 74.6298 111.108 74.8806 110.799 74.8806H110.4H109.161C108.45 74.8806 107.892 74.2736 107.95 73.5658C108.035 72.5496 109.258 72.0835 109.997 72.7859L111.185 73.9144Z" fill="white"/>
<path d="M111.359 74.3314C111.359 74.1718 111.428 74.0201 111.549 73.9158L112.945 72.7106C113.727 72.0352 114.943 72.5615 114.986 73.594C115.015 74.2957 114.454 74.8806 113.752 74.8806H112.64H111.908C111.605 74.8806 111.359 74.6347 111.359 74.3314Z" fill="white"/>
<path d="M111.44 74.8804C112.103 74.8804 112.64 75.4173 112.64 76.0796V76.1588C112.64 76.7773 112.138 77.2787 111.52 77.2787C110.901 77.2787 110.4 76.7773 110.4 76.1588V75.8394C110.4 75.3097 110.829 74.8804 111.359 74.8804H111.44Z" fill="white"/>
<path d="M111.499 77.2791C112.145 77.2791 112.686 77.771 112.747 78.4148L113.248 83.7278C113.351 84.8178 112.494 85.7598 111.399 85.7598C110.277 85.7598 109.411 84.7721 109.558 83.6594L110.256 78.3686C110.338 77.7451 110.87 77.2791 111.499 77.2791Z" fill="white"/>
<path d="M118.72 88.4798H104.32C102.287 88.4798 100.639 86.8319 100.639 84.7991V76.3495C100.639 74.8853 101.542 73.5727 102.91 73.0493L106.021 71.8584C107.011 71.4792 108.058 72.2649 107.97 73.3219L107.951 73.5529C107.892 74.2677 108.456 74.8806 109.173 74.8806C109.85 74.8806 110.399 75.4296 110.399 76.1068V77.2789L109.557 83.6593C109.411 84.7719 110.277 85.7597 111.399 85.7597C112.494 85.7597 113.351 84.8176 113.248 83.7277L112.639 77.2789V76.0556C112.639 75.4066 113.165 74.8806 113.814 74.8806C114.482 74.8806 115.016 74.3242 114.988 73.6566L114.974 73.3182C114.929 72.2408 116.002 71.4695 117.009 71.855L120.057 73.0216C121.467 73.5617 122.399 74.916 122.399 76.4268V84.8007C122.399 86.8326 120.752 88.4798 118.72 88.4798Z" fill="#FAE12C"/>
<path d="M77.5989 110.22C77.5989 112.351 75.8714 114.079 73.7404 114.079H63.8588C61.7278 114.079 60.0003 112.351 60.0003 110.22C60.0003 108.598 61.0153 107.149 62.5401 106.594L63.5507 106.227C64.6312 105.834 65.8362 106.004 66.7659 106.68C67.9782 107.562 69.621 107.562 70.8334 106.68C71.763 106.004 72.968 105.834 74.0485 106.227L75.0591 106.594C76.5839 107.149 77.5989 108.598 77.5989 110.22Z" fill="#FAE12C"/>
<path d="M99.9993 110.221C99.9993 112.351 98.2718 114.079 96.1409 114.079H86.259C84.1281 114.079 82.4006 112.351 82.4006 110.221C82.4006 108.598 83.4158 107.149 84.9407 106.594L85.9537 106.226C87.0334 105.834 88.2377 106.004 89.1664 106.68C90.3776 107.562 92.0203 107.562 93.2319 106.68C94.1612 106.004 95.3666 105.834 96.4467 106.226L97.4592 106.594C98.9841 107.149 99.9993 108.598 99.9993 110.221Z" fill="#FAE12C"/>
<path d="M55.8393 110.204C55.8393 112.344 54.1043 114.079 51.964 114.079H42.2744C40.1342 114.079 38.3991 112.344 38.3991 110.204C38.3991 108.588 39.4013 107.142 40.914 106.575L41.7637 106.256C42.8597 105.845 44.0889 106.013 45.0354 106.701C46.2353 107.574 47.8567 107.591 49.0745 106.743L49.1574 106.686C50.1353 106.005 51.3853 105.848 52.501 106.266L53.3245 106.575C54.8371 107.142 55.8393 108.588 55.8393 110.204Z" fill="#FAE12C"/>
<path d="M51.5195 97.7593C51.5195 99.9992 49.9201 103.999 47.1999 103.999C44.4797 103.999 42.8787 99.9992 42.8787 97.7593C42.8787 95.3578 44.7984 93.4381 47.1999 93.4381C49.5999 93.4381 51.5195 95.3578 51.5195 97.7593Z" fill="white"/>
<path d="M73.2794 97.7593C73.2794 99.9992 71.6799 103.999 68.9598 103.999C66.2396 103.999 64.6386 99.9992 64.6386 97.7593C64.6386 95.3578 66.5582 93.4381 68.9598 93.4381C71.1996 93.4381 73.2794 95.3578 73.2794 97.7593Z" fill="white"/>
<path d="M95.6797 97.7593C95.6797 99.9992 94.0802 103.999 91.3601 103.999C88.6399 103.999 87.0389 99.9992 87.0389 97.7593C87.0389 95.3578 88.9585 93.4381 91.3601 93.4381C93.76 93.4381 95.6797 95.3578 95.6797 97.7593Z" fill="white"/>
<path d="M117.281 61.4398C117.281 64.4786 115.199 69.9205 111.36 69.9205C107.681 69.9205 105.441 64.4786 105.441 61.4398C105.441 58.2377 108.001 55.5192 111.36 55.5192C114.719 55.6793 117.281 58.2377 117.281 61.4398Z" fill="white"/>
<path d="M41.9197 55.1189C41.9197 56.3117 42.8867 57.2787 44.0795 57.2787C45.2724 57.2787 46.2394 56.3117 46.2394 55.1189C46.2394 53.9261 45.2724 52.9591 44.0795 52.9591C42.8867 52.9591 41.9197 53.9261 41.9197 55.1189Z" fill="white"/>
<path d="M44.1596 60.9597H43.9995C42.8509 60.9597 41.9197 61.8909 41.9197 63.0395C41.9197 64.1881 42.8509 65.1192 43.9995 65.1192H44.1596C45.3082 65.1192 46.2394 64.1881 46.2394 63.0395C46.2394 61.8909 45.3082 60.9597 44.1596 60.9597Z" fill="white"/>
<path d="M41.9197 71.2799C41.9197 72.4728 42.8867 73.4397 44.0795 73.4397C45.2724 73.4397 46.2394 72.4728 46.2394 71.2799C46.2394 70.0871 45.2724 69.1201 44.0795 69.1201C42.8867 69.1201 41.9197 70.0871 41.9197 71.2799Z" fill="white"/>
<path d="M80.9595 61.4396L81.6221 64.1703C81.9716 65.6108 81.1592 67.0788 79.7531 67.5478L76.4479 68.65C76.2273 68.7236 75.8738 68.5855 75.8419 68.3552C75.8385 68.33 75.8365 68.3066 75.831 68.2818C75.1294 65.1093 76.7613 61.9459 79.6733 60.7797C80.2067 60.5661 80.7778 60.8945 80.9595 61.4396Z" fill="white"/>
<path d="M92.319 66.5584C93.4381 70.7179 91.0382 75.0391 86.7186 76.1598C83.8615 76.9285 80.9289 75.9614 79.0093 73.9324C77.5238 72.3622 78.8001 70.0941 80.8833 69.5175L82.2449 69.1406C83.5706 68.7737 84.3531 67.4071 83.9984 66.0781C83.2148 63.2036 85.2018 60.1193 87.9048 61.3726C90.0168 62.352 91.6829 64.1976 92.319 66.5584Z" fill="white"/>
<path d="M96.9591 81.4386C97.9181 81.4386 98.7186 82.2391 98.7186 83.1982C98.7186 84.1572 97.9181 84.9577 96.9591 84.9577H37.9191C36.9601 84.9577 36.1595 84.1572 36.1595 83.1982C36.1595 82.2391 36.9601 81.4386 37.9191 81.4386H38.2393H96.799H96.9591Z" fill="white"/>
<path d="M96.9589 44.3185C96.9589 44.3185 96.9589 44.3185 96.9589 44.3185C97.918 44.3185 98.7184 45.119 98.7184 46.0781C98.7184 47.0371 97.918 47.8376 96.9589 47.8376H96.6403H38.0806H37.7604C36.7998 47.8376 36.0009 47.0371 36.0009 46.0781C36.0009 45.119 36.7998 44.3185 37.7604 44.3185C37.9205 44.3185 96.9589 44.3185 96.9589 44.3185Z" fill="white"/>
<path d="M55.8392 114.718H38.399C38.0788 114.718 37.7602 114.399 37.7602 114.079V107.679C37.7602 107.089 38.5224 106.928 39.0715 106.712L43.0429 105.149C43.358 105.025 43.6993 104.817 43.9908 104.99C44.1097 105.06 44.218 105.159 44.331 105.238L44.5081 105.362C46.2215 106.561 48.5018 106.561 50.2151 105.362L50.3911 105.239C50.5049 105.159 50.6154 105.057 50.7473 105.013C51.0392 104.916 51.3478 105.019 51.6339 105.131L56.4811 107.039C56.8014 107.201 56.9615 107.359 56.9615 107.679V112.749C56.9615 113.6 56.6904 114.718 55.8392 114.718ZM39.1376 110.042C39.0839 111.813 40.5052 113.278 42.2775 113.278H52.0592C53.7931 113.278 55.1988 111.873 55.1988 110.139C55.1988 108.847 54.4081 107.688 53.2061 107.216L52.7348 107.031C51.4818 106.539 50.0635 106.732 48.9869 107.54L47.9004 108.355C47.6474 108.545 47.3264 108.781 47.0109 108.758C46.7621 108.741 46.6195 108.565 46.4199 108.415L45.2544 107.541C44.1778 106.734 42.7566 106.55 41.5102 107.058L41.0933 107.227C39.942 107.696 39.1752 108.799 39.1376 110.042Z" fill="#112152"/>
<path d="M52.9591 114.718H41.2795C40.9593 114.718 40.6391 114.399 40.6391 114.079V110.08C40.6391 109.759 40.9593 109.441 41.2795 109.441C41.5997 109.441 41.9199 109.759 41.9199 110.08C41.9199 111.936 43.4245 113.44 45.2805 113.44H48.7996C50.6556 113.44 52.1602 111.936 52.1602 110.08C52.1602 109.759 52.4804 109.441 52.8006 109.441C53.1208 109.441 53.441 109.759 53.441 110.08V113.128C53.441 113.753 53.5849 114.718 52.9591 114.718Z" fill="#112152"/>
<path d="M47.2001 104.799C43.8395 104.799 42.08 100.319 42.08 97.761C42.08 95.0408 44.3198 92.6409 47.2001 92.6409C49.9202 92.6409 52.3202 94.8807 52.3202 97.761C52.3202 100.318 50.5606 104.799 47.2001 104.799ZM47.2001 94.2387C45.2804 94.2387 43.5193 95.8381 43.5193 97.9179C43.5193 99.8375 44.9602 103.518 47.2001 103.518C49.4399 103.518 50.8793 99.8375 50.8793 97.9179C50.8793 95.8381 49.1197 94.2387 47.2001 94.2387Z" fill="#112152"/>
<path d="M77.5989 114.718H59.9986C59.6784 114.718 59.3582 114.399 59.3582 114.079V107.679C59.3582 107.089 60.1205 106.928 60.6696 106.712L64.6458 105.147C64.9577 105.024 65.295 104.818 65.5843 104.987C65.7056 105.058 65.8155 105.16 65.9307 105.241L66.1136 105.368C67.8215 106.564 70.0945 106.563 71.8021 105.368L71.9858 105.239C72.0997 105.159 72.21 105.057 72.3421 105.013C72.6348 104.916 72.9447 105.019 73.2315 105.132L78.0776 107.039C78.3978 107.201 78.5579 107.359 78.5579 107.679V112.899C78.5579 113.655 78.3543 114.718 77.5989 114.718ZM60.7388 110.042C60.6851 111.813 62.1064 113.278 63.8785 113.278H73.6603C75.3943 113.278 76.8 111.873 76.8 110.139C76.8 108.847 76.0093 107.688 74.8073 107.216L74.3357 107.031C73.0829 106.539 71.6648 106.732 70.5881 107.539L69.4995 108.355C69.2469 108.545 68.9264 108.781 68.6113 108.758C68.363 108.741 68.2209 108.565 68.0218 108.416L66.8574 107.542C65.7807 106.734 64.3591 106.55 63.1122 107.058L62.6948 107.227C61.5433 107.696 60.7765 108.799 60.7388 110.042Z" fill="#112152"/>
<path d="M74.5603 114.718H62.8807C62.5605 114.718 62.2403 114.399 62.2403 114.079V110.08C62.2403 109.759 62.5605 109.441 62.8807 109.441C63.2009 109.441 63.5195 109.759 63.5195 110.08C63.5195 111.936 65.0241 113.44 66.8801 113.44H70.3992C72.2552 113.44 73.7598 111.936 73.7598 110.08C73.7598 109.759 74.08 109.441 74.4002 109.441C74.7204 109.441 75.0406 109.759 75.0406 110.08V112.993C75.0406 113.689 75.2559 114.718 74.5603 114.718Z" fill="#112152"/>
<path d="M68.7997 104.799C65.4391 104.799 63.6796 100.319 63.6796 97.761C63.6796 95.0408 65.9194 92.6409 68.7997 92.6409C71.5199 92.6409 73.9199 94.8807 73.9199 97.761C73.9199 100.318 72.1603 104.799 68.7997 104.799ZM68.7997 94.2387C66.8801 94.2387 65.1205 95.8381 65.1205 97.9179C65.1205 99.8375 66.5599 103.518 68.7997 103.518C71.0396 103.518 72.4789 99.8375 72.4789 97.9179C72.4789 95.8381 70.8795 94.2387 68.7997 94.2387Z" fill="#112152"/>
<path d="M99.9993 114.718H82.399C82.0788 114.718 81.7586 114.399 81.7586 114.079V107.679C81.7586 107.089 82.5227 106.928 83.0723 106.712L87.0428 105.148C87.357 105.025 87.6971 104.817 87.988 104.989C88.1079 105.059 88.2169 105.159 88.3308 105.239L88.5058 105.362C90.2186 106.561 92.4985 106.561 94.2115 105.362L94.3879 105.239C94.5017 105.159 94.6123 105.057 94.7442 105.013C95.0361 104.916 95.3446 105.019 95.6307 105.131L100.478 107.039C100.798 107.201 100.958 107.359 100.958 107.679V112.899C100.958 113.655 100.755 114.718 99.9993 114.718ZM83.2011 110.139C83.2011 111.873 84.6067 113.278 86.3407 113.278H96.2208C97.9548 113.278 99.3604 111.873 99.3604 110.139C99.3604 108.847 98.5698 107.688 97.3677 107.216L96.8965 107.031C95.6435 106.539 94.2252 106.732 93.1486 107.54L92.0621 108.355C91.8091 108.545 91.4881 108.781 91.1725 108.758C90.9237 108.741 90.7811 108.565 90.5816 108.415L89.413 107.539C88.3363 106.732 86.9182 106.539 85.6654 107.031L85.1938 107.216C83.9917 107.688 83.2011 108.847 83.2011 110.139Z" fill="#112152"/>
<path d="M96.959 114.718H85.2794C84.9608 114.718 84.6406 114.399 84.6406 114.079V110.08C84.6406 109.759 84.9608 109.441 85.2794 109.441C85.5996 109.441 85.9198 109.759 85.9198 110.08C85.9198 111.936 87.4244 113.44 89.2804 113.44H92.7995C94.6555 113.44 96.1601 111.936 96.1601 110.08C96.1601 109.759 96.4787 109.441 96.7989 109.441C97.1191 109.441 97.4378 109.759 97.4378 110.08V112.992C97.4378 113.688 97.655 114.718 96.959 114.718Z" fill="#112152"/>
<path d="M91.3598 104.799C87.9992 104.799 86.2397 100.319 86.2397 97.761C86.2397 95.0408 88.4795 92.6409 91.3598 92.6409C94.08 92.6409 96.4784 94.8807 96.4784 97.761C96.3198 100.318 94.7188 104.799 91.3598 104.799ZM91.3598 94.2387C89.4386 94.2387 87.6806 95.8381 87.6806 97.9179C87.6806 99.8375 89.12 103.518 91.3598 103.518C93.5997 103.518 95.039 99.8375 95.039 97.9179C94.8805 95.8381 93.2795 94.2387 91.3598 94.2387Z" fill="#112152"/>
<path d="M38.0805 82.0805C37.7603 82.0805 37.4401 81.7603 37.4401 81.4401V48.0008C37.4401 47.6805 37.7603 47.3604 38.0805 47.3604C38.4007 47.3604 38.7209 47.6805 38.7209 48.0008V80.0468C38.7209 80.8637 38.8974 82.0805 38.0805 82.0805Z" fill="#112152"/>
<path d="M96.8002 82.0805C96.48 82.0805 96.1614 81.7603 96.1614 81.4401V48.0008C96.1614 47.6805 96.48 47.3604 96.8002 47.3604C97.1204 47.3604 97.4391 47.6805 97.4391 48.0008V81.28C97.4391 81.7587 97.1204 82.0805 96.8002 82.0805Z" fill="#112152"/>
<path d="M96.9589 48.7979H37.919C36.4796 48.7979 35.3589 47.6788 35.3589 46.2395C35.3589 44.8001 36.478 43.6794 37.919 43.6794H96.9589C98.3998 43.6794 99.519 44.8001 99.519 46.2395C99.519 47.6788 98.3998 48.7979 96.9589 48.7979ZM37.9205 45.1188C37.2801 45.1188 36.8014 45.5991 36.8014 46.2395C36.8014 46.8783 37.2817 47.3586 37.9205 47.3586H96.9605C97.6009 47.3586 98.0812 46.8783 98.0812 46.2395C98.0812 45.5991 97.6009 45.1188 96.9605 45.1188H37.9205Z" fill="#112152"/>
<path d="M96.9589 85.7595H37.9189C36.4796 85.7595 35.3588 84.6388 35.3588 83.1995C35.3588 81.7602 36.478 80.6394 37.9189 80.6394H96.9589C98.3998 80.6394 99.5189 81.7602 99.5189 83.1995C99.5189 84.6388 98.3998 85.7595 96.9589 85.7595ZM37.9205 82.0803C37.28 82.0803 36.8013 82.5607 36.8013 83.1995C36.8013 83.8399 37.2816 84.3202 37.9205 84.3202H96.9605C97.6009 84.3202 98.0812 83.8399 98.0812 83.1995C98.0812 82.5607 97.6009 82.0803 96.9605 82.0803H37.9205Z" fill="#112152"/>
<path d="M84.7989 77.1204C80.9992 77.1204 77.6683 74.6128 76.5136 70.8378C76.4897 70.7597 76.4783 70.6782 76.4783 70.5964C76.4783 70.3678 76.5558 70.131 76.7441 70.0013C76.7715 69.9825 76.7989 69.9662 76.8263 69.9533C76.9088 69.9144 77.0033 69.909 77.0917 69.8864L77.7277 69.7238C81.1025 68.8607 83.1387 65.4252 82.2758 62.0503L82.1063 61.3875C82.088 61.3159 82.0787 61.2425 82.0787 61.1686C82.0787 60.9324 82.1583 60.6865 82.3541 60.5545C82.3857 60.5332 82.4173 60.5155 82.4489 60.5026C82.5187 60.4741 82.5963 60.4718 82.6702 60.4568C83.4196 60.3046 84.0358 60.1605 84.7989 60.1605C88.6398 60.1605 91.9988 62.719 93.1195 66.5599C93.7583 68.7998 93.4381 71.0396 92.319 73.121C91.6067 74.341 90.5717 75.367 89.3781 76.1172C88.0386 76.959 86.3809 77.1204 84.7989 77.1204ZM84.2523 69.4232C80.9882 70.2779 79.3424 74.247 82.5379 75.3305C83.2062 75.5571 83.913 75.6794 84.6404 75.6794C85.2792 75.6794 85.9212 75.5194 86.56 75.3608C88.3196 74.8805 89.9206 73.7598 90.8812 72.0003C91.8402 70.4008 92.162 68.4796 91.52 66.5599C90.7195 63.5195 87.8408 61.2797 84.6404 61.2797C83.9733 61.2797 83.6373 61.9015 83.8026 62.5478L85.1298 67.7371C85.2291 68.1252 85.4116 68.5327 85.2097 68.8787C85.0206 69.2031 84.6155 69.3281 84.2523 69.4232Z" fill="#112152"/>
<path d="M76.1596 69.4388C75.9546 69.4388 75.7467 69.3667 75.6225 69.2036C75.5607 69.1223 75.5192 69.0408 75.5192 68.9585C75.5192 68.6191 75.3117 68.3126 75.252 67.9785C74.9392 66.2277 75.2824 64.4999 76.1596 63.0378C77.0223 61.5991 78.4044 60.4195 80.0706 59.9639C80.4431 59.8621 80.887 59.7001 81.1998 59.9266C81.4627 60.1169 81.479 60.4783 81.5596 60.7928L82.9308 66.1414C83.0019 66.4187 83.143 66.7168 83.0302 66.9799C82.8624 67.3711 82.3516 67.4277 81.9478 67.5623L76.4686 69.3887C76.3689 69.4219 76.2646 69.4388 76.1596 69.4388ZM80.8052 64.1351C80.4731 62.6632 78.7985 61.7973 77.8098 62.9372C77.6107 63.1667 77.4321 63.4143 77.2804 63.6798C77.0257 64.0868 76.836 64.5101 76.7008 64.9445C76.2539 66.3808 77.8267 67.3901 79.2536 66.9142C80.404 66.5305 81.0721 65.318 80.8052 64.1351Z" fill="#112152"/>
<path d="M93.1196 54.7202H83.5182C83.1996 54.7202 82.8793 54.3999 82.8793 54.0797C82.8793 53.7595 83.1996 53.4409 83.5182 53.4409H93.1196C93.4383 53.4409 93.7584 53.7595 93.7584 54.0797C93.76 54.3983 93.5999 54.7202 93.1196 54.7202Z" fill="#112152"/>
<path d="M46.2397 57.9191H41.92C41.5998 57.9191 41.2796 57.5988 41.2796 57.2786V52.959C41.2796 52.6388 41.5998 52.3186 41.92 52.3186H46.2397C46.5599 52.3186 46.8801 52.6388 46.8801 52.959V57.2786C46.8801 57.5988 46.5599 57.9191 46.2397 57.9191ZM42.719 55.0396C42.719 55.8349 43.3637 56.4797 44.1591 56.4797C44.9545 56.4797 45.5993 55.8349 45.5993 55.0396C45.5993 54.2442 44.9545 53.5994 44.1591 53.5994C43.3637 53.5994 42.719 54.2442 42.719 55.0396Z" fill="#112152"/>
<path d="M67.5205 54.5584H49.4415C49.1213 54.5584 48.8011 54.2398 48.8011 53.9196C48.8011 53.5994 49.1213 53.2792 49.4415 53.2792H67.5205C67.8407 53.2792 68.1609 53.5994 68.1609 53.9196C68.1593 54.2398 67.8407 54.5584 67.5205 54.5584Z" fill="#112152"/>
<path d="M67.5205 57.1185H49.4415C49.1213 57.1185 48.8011 56.7983 48.8011 56.4796C48.8011 56.1594 49.1213 55.8392 49.4415 55.8392H67.5205C67.8407 55.8392 68.1609 56.1594 68.1609 56.4796C68.1593 56.7983 67.8407 57.1185 67.5205 57.1185Z" fill="#112152"/>
<path d="M46.2397 65.9193H41.92C41.5998 65.9193 41.2796 65.5991 41.2796 65.2789V61.1194C41.2796 60.7992 41.5998 60.479 41.92 60.479H46.2397C46.5599 60.479 46.8801 60.7992 46.8801 61.1194V65.2789C46.8801 65.5991 46.5599 65.9193 46.2397 65.9193ZM42.719 63.0391C42.719 63.834 43.3642 64.4784 44.1591 64.4784C44.954 64.4784 45.5993 63.834 45.5993 63.0391C45.5993 62.2441 44.954 61.5997 44.1591 61.5997C43.3642 61.5997 42.719 62.2441 42.719 63.0391Z" fill="#112152"/>
<path d="M67.5205 62.559H49.4415C49.1213 62.559 48.8011 62.2388 48.8011 61.9202C48.8011 61.6 49.1213 61.2798 49.4415 61.2798H67.5205C67.8407 61.2798 68.1609 61.6 68.1609 61.9202C68.1593 62.2388 67.8407 62.559 67.5205 62.559Z" fill="#112152"/>
<path d="M67.5205 65.1191H49.4415C49.1213 65.1191 48.8011 64.7989 48.8011 64.4787C48.8011 64.1601 49.1213 63.8398 49.4415 63.8398H67.5205C67.8407 63.8398 68.1609 64.1601 68.1609 64.4787C68.1593 64.7989 67.8407 65.1191 67.5205 65.1191Z" fill="#112152"/>
<path d="M46.2397 74.08H41.92C41.5998 74.08 41.2796 73.7598 41.2796 73.4396V69.12C41.2796 68.7998 41.5998 68.4796 41.92 68.4796H46.2397C46.5599 68.4796 46.8801 68.7998 46.8801 69.12V73.4396C46.8801 73.7583 46.5599 74.08 46.2397 74.08ZM42.719 71.199C42.719 71.9943 43.3637 72.6391 44.1591 72.6391C44.9545 72.6391 45.5993 71.9943 45.5993 71.199C45.5993 70.4036 44.9545 69.7589 44.1591 69.7589C43.3637 69.7589 42.719 70.4036 42.719 71.199Z" fill="#112152"/>
<path d="M67.5205 70.5593H49.4415C49.1213 70.5593 48.8011 70.239 48.8011 69.9204C48.8011 69.6002 49.1213 69.28 49.4415 69.28H67.5205C67.8407 69.28 68.1609 69.6002 68.1609 69.9204C68.1593 70.239 67.8407 70.5593 67.5205 70.5593Z" fill="#112152"/>
<path d="M67.5205 73.1192H49.4415C49.1213 73.1192 48.8011 72.799 48.8011 72.4788C48.8011 72.1602 49.1213 71.84 49.4415 71.84H67.5205C67.8407 71.84 68.1609 72.1602 68.1609 72.4788C68.1593 72.799 67.8407 73.1192 67.5205 73.1192Z" fill="#112152"/>
<path d="M111.52 70.7193C107.199 70.7193 104.959 64.6402 104.959 61.4397C104.959 57.7589 107.84 54.8787 111.52 54.8787C115.201 54.8787 118.08 57.7573 118.08 61.4397C118.078 64.7987 115.838 70.7193 111.52 70.7193ZM111.52 56.318C108.64 56.318 106.4 58.5578 106.4 61.4381C106.4 64.1582 108.16 69.2768 111.52 69.2768C114.879 69.2768 116.639 64.1582 116.639 61.4381C116.639 58.7195 114.24 56.318 111.52 56.318Z" fill="#112152"/>
<path d="M109.92 61.7585C109.494 61.7585 109.062 61.7453 108.664 61.596C108.033 61.3595 107.568 60.9343 107.199 60.3191C107.039 59.9989 107.199 59.5186 107.52 59.3601C107.84 59.2 108.32 59.3601 108.479 59.6803C108.598 59.8592 108.717 59.9934 108.836 60.0914C109.173 60.369 109.759 60.423 110.18 60.3086C110.729 60.1597 111.069 59.7793 111.495 59.4039C111.965 58.991 112.341 58.8111 112.798 59.0399C113.079 59.1825 113.414 59.4452 113.727 59.4166C114.112 59.3816 114.476 59.4066 114.783 59.4918C114.846 59.5092 114.906 59.5334 114.961 59.5688C115.226 59.7406 115.371 60.03 115.517 60.3207C115.677 60.6409 115.355 61.1212 115.036 61.2797C115.018 61.2889 115 61.2965 114.982 61.3026C114.415 61.4952 113.844 60.7694 113.277 60.9611C112.903 61.0859 112.529 61.1134 112.306 60.9671C112.181 60.885 112.102 60.8546 111.996 60.9611C111.521 61.5983 110.72 61.7585 109.92 61.7585Z" fill="#112152"/>
<path d="M114.561 64.16C114.225 64.16 113.885 63.9696 113.561 64.0543C113.47 64.078 113.375 64.1118 113.28 64.16C112.96 64.3201 112.479 64.16 112.321 63.8398C112.159 63.5196 112.321 63.0393 112.64 62.8808C112.96 62.7191 114.241 62.2404 115.041 63.0393C115.184 63.1831 115.263 63.3591 115.278 63.5238C115.308 63.8691 114.907 64.16 114.561 64.16Z" fill="#112152"/>
<path d="M108.32 64.1598C108.158 64.1598 108 64.1598 107.84 63.9981C107.821 63.9796 107.803 63.9605 107.787 63.941C107.344 63.4152 108.089 62.6925 108.775 62.6427C108.904 62.6332 109.033 62.6361 109.159 62.6469C109.885 62.7091 110.886 63.1879 110.56 63.8396C110.525 63.9093 110.474 63.9714 110.414 64.0243C109.98 64.4044 109.21 63.5925 108.8 63.9981C108.639 64.1598 108.48 64.1598 108.32 64.1598Z" fill="#112152"/>
<path d="M122.399 89.1185H100.64C100.32 89.1185 99.9994 88.7999 99.9994 88.4797V73.9183C99.9994 73.3288 100.762 73.1714 101.312 72.9607L108 70.4008C108.111 70.3448 108.202 70.3276 108.288 70.3356C108.659 70.3703 108.935 70.6953 109.199 70.9591C110.501 72.2618 112.595 72.3199 113.968 71.0916L114.561 70.5608C114.949 70.1691 115.624 70.5018 116.139 70.6989L122.88 73.2794C123.2 73.4395 123.36 73.5996 123.36 73.9183V87.2992C123.36 88.0551 123.155 89.1185 122.399 89.1185ZM101.439 79.7902C101.439 84.1472 104.971 87.6792 109.328 87.6792H113.71C118.067 87.6792 121.599 84.147 121.599 79.7899V78.102C121.599 75.8697 120.23 73.8658 118.15 73.0542C116.243 72.3098 114.079 72.7041 112.557 74.0733L111.839 74.7188C111.519 75.039 111.199 75.039 110.878 74.7188L110.434 74.2744C108.955 72.7953 106.741 72.3311 104.793 73.0915C102.77 73.8806 101.439 75.8294 101.439 78.0004V79.7902Z" fill="#112152"/>
<path d="M118.72 101.919H104.321C104 101.919 103.68 101.599 103.68 101.279V76.8002C103.68 76.48 104 76.1614 104.321 76.1614C104.639 76.1614 104.959 76.48 104.959 76.8002V93.8393C104.959 97.4182 107.861 100.319 111.44 100.319C115.019 100.319 117.92 97.4182 117.92 93.8393V76.8002C117.92 76.48 118.24 76.1614 118.56 76.1614C118.879 76.1614 119.199 76.48 119.199 76.8002V100.024C119.199 100.75 119.446 101.919 118.72 101.919Z" fill="#112152"/>
<path d="M110.4 75.5193H107.841C107.514 75.5193 107.208 75.2171 107.2 74.89C107.199 74.8384 107.199 74.7817 107.199 74.7188L107.361 70.8795C107.361 70.5593 107.68 70.239 108.16 70.239C108.48 70.239 108.8 70.5592 108.8 71.0395L108.732 72.3228C108.681 73.2778 109.442 74.0799 110.398 74.0799C110.718 74.0799 111.039 74.4001 111.039 74.7188C111.04 75.039 110.878 75.5193 110.4 75.5193Z" fill="#112152"/>
<path d="M115.039 75.5193H112.479C112.159 75.5193 111.841 75.1991 111.841 74.8805C111.841 74.5602 112.159 74.2401 112.479 74.2401C113.436 74.2401 114.197 73.438 114.146 72.4829L114.079 71.1997C114.079 70.8811 114.397 70.4008 114.718 70.4008C115.038 70.4008 115.518 70.7194 115.518 71.0396L115.678 74.8805C115.678 75.2152 115.398 75.5186 115.064 75.5193C115.055 75.5193 115.047 75.5193 115.039 75.5193Z" fill="#112152"/>
<path d="M112.639 78.0795C112.321 78.0795 112 77.7593 112 77.4391V75.9998C112 75.8229 111.857 75.6796 111.68 75.6796C111.503 75.6796 111.36 75.8229 111.36 75.9998V77.4391C111.36 77.7593 111.041 78.0795 110.721 78.0795C110.401 78.0795 110.082 77.7593 110.082 77.4391V74.8806C110.082 74.5604 110.401 74.2402 110.721 74.2402H112.803C113.121 74.2402 113.441 74.5604 113.441 74.8806V76.3659C113.441 77.0715 113.345 78.0795 112.639 78.0795Z" fill="#112152"/>
<path d="M113.44 86.56H109.28C109.119 86.56 108.8 86.3983 108.8 86.2398C108.8 86.0797 108.638 85.9196 108.638 85.601L109.759 77.1203C109.759 76.8001 110.079 76.4799 110.398 76.4799H112.479C112.8 76.4799 113.118 76.8001 113.118 77.1203L114.079 85.601C114.079 85.9045 113.898 86.3808 113.624 86.5118C113.557 86.5439 113.491 86.56 113.44 86.56ZM110.256 83.8357C110.163 84.5137 110.69 85.1175 111.375 85.1175C112.049 85.1175 112.573 84.5306 112.497 83.8608L111.886 78.4815C111.86 78.2524 111.666 78.0793 111.436 78.0793C111.209 78.0793 111.017 78.2468 110.987 78.4714L110.256 83.8357Z" fill="#112152"/>
<path d="M111.52 101.919C111.2 101.919 110.88 101.599 110.88 101.279V93.9186C110.88 93.5984 111.2 93.2798 111.52 93.2798C111.841 93.2798 112.159 93.5984 112.159 93.9186V101.279C112.159 101.599 111.841 101.919 111.52 101.919Z" fill="#112152"/>
</svg>
