<svg width="24" height="24" viewBox="0 0 24 24" fill="none" xmlns="http://www.w3.org/2000/svg">
<path d="M22.4997 2.56656H1.49969C1.38183 2.56656 1.2854 2.66299 1.2854 2.78084V4.49513C1.2854 4.61299 1.38183 4.70942 1.49969 4.70942H22.4997C22.6175 4.70942 22.714 4.61299 22.714 4.49513V2.78084C22.714 2.66299 22.6175 2.56656 22.4997 2.56656ZM22.4997 19.2808H1.49969C1.38183 19.2808 1.2854 19.3773 1.2854 19.4951V21.2094C1.2854 21.3273 1.38183 21.4237 1.49969 21.4237H22.4997C22.6175 21.4237 22.714 21.3273 22.714 21.2094V19.4951C22.714 19.3773 22.6175 19.2808 22.4997 19.2808ZM22.4997 10.9237H1.49969C1.38183 10.9237 1.2854 11.0201 1.2854 11.138V12.8523C1.2854 12.9701 1.38183 13.0666 1.49969 13.0666H22.4997C22.6175 13.0666 22.714 12.9701 22.714 12.8523V11.138C22.714 11.0201 22.6175 10.9237 22.4997 10.9237Z" fill="black" fill-opacity="0.85"/>
</svg>
