<svg width="136" height="114" viewBox="0 0 136 114" fill="none" xmlns="http://www.w3.org/2000/svg">
<path d="M78.9847 0L37.8833 41.1032L53.781 57.0009L37.8833 72.8986L78.9847 114L135.984 57.0009L78.9847 0Z" fill="#FFE002"/>
<path d="M20.1656 77.1647L0 57.001L20.1656 36.8354L40.3293 57.001L20.1656 77.1647Z" fill="#FAE12C"/>
<path d="M74.0818 69.3455C70.4249 69.3455 67.6901 68.1031 65.8737 65.6201C64.0592 63.1371 63.1501 59.8209 63.1501 55.6752C63.1501 51.5277 64.0573 48.2115 65.8737 45.7286C67.6883 43.2456 70.4249 42.0032 74.0818 42.0032C77.7368 42.0032 80.4716 43.2456 82.288 45.7286C84.1025 48.2115 85.0117 51.5277 85.0117 55.6752C85.0117 59.8228 84.1044 63.139 82.288 65.6201C80.4716 68.1049 77.7368 69.3455 74.0818 69.3455ZM70.1842 49.3021C69.3529 50.9167 68.9362 53.046 68.9362 55.6938C68.9362 58.3415 69.3529 60.4727 70.1842 62.0854C71.0156 63.7 72.3135 64.5054 74.0799 64.5054C75.8426 64.5054 77.1425 63.6982 77.9757 62.0854C78.807 60.4727 79.2236 58.3415 79.2236 55.6938C79.2236 53.046 78.807 50.9148 77.9757 49.3021C77.1443 47.6894 75.8445 46.8821 74.0799 46.8821C72.3154 46.8821 71.0174 47.6894 70.1842 49.3021Z" fill="white"/>
<path d="M86.7873 42.6084H97.4895V69.0434H91.8181V47.6373H86.7873V42.6084Z" fill="white"/>
</svg>
