<svg width="136" height="114" viewBox="0 0 136 114" fill="none" xmlns="http://www.w3.org/2000/svg">
<path d="M78.9848 0L37.8833 41.1032L53.781 57.0009L37.8833 72.8986L78.9848 114L135.984 57.0009L78.9848 0Z" fill="#FAE12C"/>
<path d="M20.1656 77.1647L0 57.001L20.1656 36.8354L40.3293 57.001L20.1656 77.1647Z" fill="#FAE12C"/>
<path d="M70.2601 69.3455C66.6032 69.3455 63.8684 68.1031 62.052 65.6201C60.2375 63.1371 59.3302 59.8209 59.3302 55.6752C59.3302 51.5277 60.2356 48.2115 62.052 45.7286C63.8666 43.2456 66.6032 42.0032 70.2601 42.0032C73.917 42.0032 76.6518 43.2456 78.4682 45.7286C80.2827 48.2115 81.1918 51.5277 81.1918 55.6752C81.1918 59.8228 80.2846 63.139 78.4682 65.6201C76.6518 68.1049 73.917 69.3455 70.2601 69.3455ZM66.3662 49.3021C65.5349 50.9167 65.1182 53.046 65.1182 55.6938C65.1182 58.3415 65.5349 60.4727 66.3662 62.0854C67.1976 63.7 68.4955 64.5054 70.2619 64.5054C72.0265 64.5054 73.3245 63.6982 74.1577 62.0854C74.9909 60.4727 75.4075 58.3415 75.4075 55.6938C75.4075 53.046 74.9909 50.9148 74.1577 49.3021C73.3263 47.6894 72.0283 46.8821 70.2619 46.8821C68.4955 46.8821 67.1976 47.6894 66.3662 49.3021Z" fill="white"/>
<path d="M95.0879 52.9146C95.7545 51.9685 96.0896 51.0557 96.0896 50.1725C96.0896 49.2911 95.8008 48.5523 95.2194 47.9598C94.6399 47.3673 93.8955 47.0711 92.9882 47.0711C91.3255 47.0711 89.748 48.2561 88.2612 50.6261L83.5322 47.8284C84.7672 45.912 86.1226 44.4622 87.5983 43.479C89.0722 42.4958 90.9515 42.0051 93.2327 42.0051C95.5138 42.0051 97.5172 42.7309 99.2466 44.1789C100.974 45.6287 101.835 47.6025 101.835 50.0984C101.835 51.4593 101.489 52.7647 100.795 54.0126C100.102 55.2606 98.8226 56.8567 96.9562 58.7971L92.1921 63.7519H102.631V69.0456H83.9859V64.6592L91.7403 56.7178C93.303 55.1254 94.4195 53.859 95.0879 52.9146Z" fill="white"/>
</svg>
