<svg width="250" height="250" viewBox="0 0 250 250" fill="none" xmlns="http://www.w3.org/2000/svg">
<path d="M250 0H0V250H250V0Z" fill="white"/>
<path d="M123.75 107.5C132.751 107.5 140.001 114.749 140.001 123.748C140.001 132.748 132.751 139.998 123.75 139.998C114.752 139.998 107.5 132.748 107.5 123.748C107.5 114.749 114.75 107.5 123.75 107.5Z" fill="white"/>
<path d="M85.0003 169.25H173.248C168.997 174.001 163.999 178.001 158.751 181.25H88.5001C85.248 179.249 82.251 177 79.4992 174.751L85.0003 169.25Z" fill="white"/>
<path d="M187.499 145.249C186.001 149.499 184.247 153.499 181.998 157.249H96.9981L105.999 148.248C111 151.748 116.999 153.997 123.498 153.997C131.748 153.997 139.248 150.748 144.749 145.249H187.499Z" fill="white"/>
<path d="M190.999 121.251C190.999 122.001 190.999 122.749 190.999 123.5C190.999 126.75 190.746 129.999 190.249 133.251H152.246C153.247 130.249 153.747 127.002 153.747 123.5C153.747 122.749 153.747 122.001 153.747 121.251H190.999Z" fill="white"/>
<path d="M88.5001 181.25H158.751C148.499 187.499 136.501 190.999 123.75 190.999C110.75 190.999 98.7492 187.499 88.5001 181.25Z" fill="#FAE12C"/>
<path d="M182.248 157.249C179.749 161.499 176.747 165.499 173.5 169.249H85.0003L97.0006 157.249H182.248Z" fill="#FAE12C"/>
<path d="M190.499 133.251C189.999 137.501 189 141.499 187.75 145.251H144.752C148.251 141.999 150.751 137.751 152.249 133.251H190.499Z" fill="#FAE12C"/>
<path d="M190.999 121.251H153.75C153.75 120.999 153.75 120.751 153.75 120.751L189.999 111C190.499 114.499 190.999 117.749 190.999 121.251Z" fill="#FAE12C"/>
<path d="M98.9993 141.249L72.4996 167.749C63.2511 156.999 57.4999 143.498 56.2491 128.749H93.7484C94.4989 133.251 96.5002 137.502 98.9993 141.249Z" fill="#FAE12C"/>
<path d="M187.499 101.498L151.248 111.247C147.248 102.246 138.748 95.4992 128.749 93.9982V56.4963C156.001 58.2499 178.749 76.5018 187.499 101.498Z" fill="#FAE12C"/>
<path d="M118.75 56.4993V94.0011C106.001 95.9999 95.9999 106.249 93.7509 119H56.2515C58.7507 85.4981 85.5005 58.7507 118.75 56.4993Z" fill="#FAE12C"/>
<path d="M190.999 122.499H153.75C153.25 122.499 152.499 122.002 152.499 121.501C152.499 121.001 152.997 120.5 153.497 120.5H190.747C191.247 120.5 191.747 121.001 191.747 121.501C191.75 122.002 191.75 122.499 190.999 122.499Z" fill="#112152"/>
<path d="M190.499 134.499H152.249C151.751 134.499 151.251 134.001 151.251 133.501C151.251 133.001 151.751 132.503 152.249 132.503H190.251C190.749 132.503 191.249 133.001 191.249 133.501C191.249 133.999 190.999 134.499 190.499 134.499Z" fill="#112152"/>
<path d="M187.499 146.5H144.749C144.249 146.5 143.498 146 143.498 145.499C143.498 144.999 143.999 144.501 144.496 144.501H187.497C187.995 144.501 188.495 144.999 188.495 145.499C188.5 146 188.25 146.5 187.499 146.5Z" fill="#112152"/>
<path d="M182.248 158.501H97.2507C96.7504 158.501 96.2501 158 96.2501 157.5C96.2501 157.002 96.7504 156.502 97.2507 156.502H182.248C182.749 156.502 183.249 157.002 183.249 157.5C183.252 158 182.749 158.501 182.248 158.501Z" fill="#112152"/>
<path d="M173.248 170.501H85.0003C84.5 170.501 83.7495 170 83.7495 169.5C83.7495 169.002 84.2498 168.502 84.7501 168.502H173C173.5 168.502 173.998 169.002 173.998 169.5C173.998 170 173.998 170.501 173.248 170.501Z" fill="#112152"/>
<path d="M158.751 182.499H88.5C87.9997 182.499 87.2492 181.999 87.2492 181.501C87.2492 181 87.7495 180.5 88.2498 180.5H158.498C158.998 180.5 159.749 181 159.749 181.501C159.749 181.999 159.249 182.499 158.751 182.499Z" fill="#112152"/>
<path d="M93.7509 119.75H56.2515C56.0013 119.75 55.7512 119.5 55.5011 119.5C55.2509 119.5 55.2509 118.999 55.2509 118.749C56.4992 102.249 63.4988 87.0012 75.2514 75.2486C87.0015 63.4984 102.251 56.4989 118.752 55.248C119.002 55.248 119.252 55.2481 119.503 55.5007C119.753 55.7509 119.753 55.9985 119.753 56.2512V93.7506C119.753 94.2509 119.252 94.7512 118.752 94.7512C106.502 96.7525 96.7528 106.499 94.754 118.749C94.7516 119.5 94.2488 119.75 93.7509 119.75ZM57.4998 117.498H92.7503C95.2494 104.998 105.001 95.2491 117.501 92.7499V57.4995C86.0009 60.5014 60.5018 86.0005 57.4998 117.498Z" fill="#112152"/>
<path d="M72.4996 168.749C72.2494 168.749 71.7492 168.499 71.7492 168.252C62.0003 157.002 56.2491 143.25 55.2484 128.501C55.2484 128.248 55.2484 128 55.4986 127.75C55.7488 127.498 55.999 127.498 56.2491 127.498H93.7484C94.2488 127.498 94.7491 127.998 94.7491 128.498C95.4995 132.996 97.2482 136.999 99.7498 140.746C100 141.247 100 141.747 99.7498 142.245L73.2501 168.497C73.2501 168.749 72.7498 168.749 72.4996 168.749ZM57.4999 129.751C58.7507 143.25 63.9991 155.751 72.4996 166L97.4984 141.001C95.2494 137.502 93.4983 133.749 92.7503 129.499H57.4999V129.751Z" fill="#112152"/>
<path d="M123.75 192.25C111.252 192.25 98.7517 188.75 87.9997 182.251C84.7501 180.249 81.7507 178 78.7512 175.499C78.501 175.249 78.2509 174.999 78.2509 174.748C78.2509 174.498 78.2508 174.248 78.501 173.998L105.251 147.498C105.751 146.998 106.249 146.998 106.749 147.498C111.75 150.998 117.499 152.999 123.748 152.999C131.498 152.999 138.748 150 143.999 144.749C147.246 141.497 149.747 137.499 151.248 133.249C152.246 130.247 152.747 127.248 152.747 123.998C152.747 123.247 152.747 122.499 152.747 121.749C152.747 121.499 152.747 121.251 152.747 121.251C152.747 120.751 152.997 120.25 153.497 120L189.748 109.999C189.998 109.999 190.499 109.999 190.747 110.251C190.999 110.502 191.247 110.749 191.247 111.002C191.997 114.502 192.248 118.001 192.498 121.501C192.498 122.252 192.498 123.25 192.498 124C192.498 127.252 192.247 130.502 191.747 133.749C191.247 137.999 190.249 142 188.745 146C187.247 150.25 185.498 154.25 183.247 158.248C180.745 162.748 177.746 166.748 174.246 170.498C169.996 175.249 164.997 179.246 159.496 182.746C148.499 188.75 136.249 192.25 123.75 192.25ZM81.2503 174.751C83.7495 176.752 86.5012 178.751 89.2505 180.5C99.4997 186.749 111.5 190.248 123.75 190.248C136.001 190.248 148.001 186.996 158.25 180.5C163.499 177.247 168.502 173.25 172.75 168.749C175.997 165.25 178.999 161.252 181.498 157.002C183.747 153.249 185.498 149.249 186.749 145.252C187.997 141.499 188.998 137.502 189.498 133.501C189.996 130.502 190.249 127.252 190.249 124C190.249 123.25 190.249 122.502 190.249 121.751C190.249 118.752 189.748 115.752 189.248 112.751L154.998 121.501C154.998 122.252 154.998 123 154.998 123.503C154.998 127.002 154.5 130.252 153.25 133.501C151.751 138.252 148.999 142.502 145.5 146.002C139.498 151.751 131.748 155.003 123.5 155.003C117.251 155.003 111.25 153.252 106.001 149.752L81.2503 174.751Z" fill="#112152"/>
<path d="M151.251 112.25C150.75 112.25 150.5 111.997 150.253 111.5C146.253 102.749 138.002 96.4973 128.504 94.7487C128.003 94.7487 127.503 94.2484 127.503 93.7481V56.2487C127.503 55.9961 127.753 55.7484 127.753 55.4982C128.006 55.2456 128.253 55.2456 128.506 55.2456C142.005 56.2462 154.756 61.247 165.505 69.4973C176.004 77.7452 184.007 88.4972 188.255 101.245C188.255 101.496 188.255 101.746 188.255 102.244C188.255 102.744 188.005 102.496 187.754 102.496L151.503 112.248H151.251V112.25ZM129.749 92.7499C139.25 94.7512 147.501 101 151.751 109.748L185.751 100.5C177.003 76.7495 155.251 59.9986 129.752 57.4995V92.7499H129.749Z" fill="#112152"/>
<path d="M123.75 141.249C114.002 141.249 106.252 133.499 106.252 123.75C106.252 114.002 114.002 106.251 123.75 106.251C133.502 106.251 141.252 114.002 141.252 123.75C141.249 133.499 133.502 141.249 123.75 141.249ZM123.75 108.5C115.25 108.5 108.5 115.252 108.5 123.75C108.5 132.251 115.25 139 123.75 139C132.251 139 139 132.251 139 123.75C138.998 115.25 132.251 108.5 123.75 108.5Z" fill="#112152"/>
<path d="M123 121.251V117.499C122.5 117.749 122.249 117.999 121.999 118.249C121.749 118.502 121.749 119 121.749 119.5C121.749 120.001 121.749 120.251 121.999 120.498C122.249 120.751 122.5 121.001 123 121.251ZM126.25 126.75C126.25 126.252 125.999 125.752 125.749 125.502C125.499 125.249 124.999 125.001 124.251 124.749V129.001C124.751 129.001 125.251 128.501 125.499 128.249C126.25 127.751 126.25 127.25 126.25 126.75ZM128.999 126.5C128.999 127.751 128.501 128.749 127.748 129.752C127 130.502 125.999 131.25 124.498 131.501V133.502H123V131.501C121.752 131.25 120.751 131 120 130.25C119.25 129.499 118.75 128.501 118.5 127L121.249 126.748C121.249 127.248 121.499 127.748 121.999 128.246C122.249 128.746 122.75 128.999 123 129.247V124.746C121.752 124.248 120.501 123.748 120 122.998C119.25 122.247 119 121.249 119 119.998C119 118.747 119.5 117.747 120 116.996C120.751 116.246 121.752 115.748 123 115.498V114.5H124.498V115.498C125.749 115.75 126.5 115.998 127.248 116.749C127.998 117.499 128.248 118.247 128.498 119.25L125.747 119.5C125.497 118.75 125.246 118.002 124.496 117.749V122.002C126.247 122.5 127.495 123 127.996 123.751C128.751 124.251 128.999 125.249 128.999 126.5Z" fill="#112152"/>
</svg>
