<svg width="200" height="200" viewBox="0 0 200 200" fill="none" xmlns="http://www.w3.org/2000/svg">
<path d="M200 0H0V200H200V0Z" fill="white"/>
<path d="M96.4006 133.799C98.0017 133.799 99.4006 135.2 99.4006 136.801C99.4006 138.4 97.9997 139.801 96.4006 139.801C94.8016 139.801 93.4007 138.4 93.4007 136.801C93.4007 135.2 94.7996 133.799 96.4006 133.799Z" fill="white"/>
<path d="M140.599 66.5994V82.3996H124.801L114.601 90.6009L117.2 82.3996H111.801V66.5994H120.2H124.801H140.599Z" fill="white"/>
<path d="M124.801 82.3998V136.199C124.801 140.4 121.401 143.8 117 143.8H75.8013C71.6006 143.8 68.0002 140.4 68.0002 136.199V52.8006C68.0002 48.5998 71.4004 45.0015 75.8013 45.0015H117.002C121.203 45.0015 124.803 48.4017 124.803 52.8006V66.5996H120.202V59.2007H72.8013V129.999H120.2V86.2003L114.4 90.7993L124.801 82.3998ZM99.6008 136.801C99.6008 135.2 98.2018 133.799 96.6008 133.799C94.9998 133.799 93.6009 135.2 93.6009 136.801C93.6009 138.4 95.0018 139.801 96.6008 139.801C98.1999 139.801 99.6008 138.4 99.6008 136.801Z" fill="white"/>
<path d="M120.2 86.2002V129.999H72.8013V59.0005H120.2V66.3993H111.801V82.1996H117.2L114.601 90.5991L120.2 86.2002ZM114.601 114.601C114.601 100.8 116.001 104 103.799 97.0012L101.8 95.2L96.6008 102.401L91.4014 95.2L89.4021 97.0012C77.2022 104 78.6031 100.6 78.6031 114.601C90.4008 117.4 102.601 117.4 114.601 114.601ZM96.6008 94.1994C102.401 94.1994 105.601 85.8019 105.601 81.1989C105.601 76.1997 101.6 72.1991 96.6008 72.1991C91.6015 72.1991 87.601 76.1997 87.601 81.1989C87.8011 86 91.0012 94.1994 96.6008 94.1994Z" fill="#FAE12C"/>
<path d="M103.799 97.2012C115.999 104.2 114.6 101.002 114.6 114.801C102.601 117.6 90.6009 117.6 78.401 114.801C78.401 101.002 77.0001 104.2 89.2 97.2012L93.6009 105.401L96.4007 102.601L99.0004 105.002L103.799 97.2012Z" fill="white"/>
<path d="M103.8 97.2013L99.0004 104.8L96.4007 102.401L101.8 95.2L103.8 97.2013Z" fill="white"/>
<path d="M105.601 81.1988C105.601 85.7998 102.401 94.1993 96.6008 94.1993C90.801 94.1993 87.601 85.8018 87.601 81.1988C87.601 76.1996 91.6015 72.199 96.6008 72.199C101.6 72.199 105.601 76.1996 105.601 81.1988Z" fill="white"/>
<path d="M91.2013 95.2L96.4007 102.401L93.6009 105.2L89.2 97.2013L91.2013 95.2Z" fill="white"/>
<path d="M117.2 144.8H75.8012C71.0001 144.8 67.2017 141 67.2017 136.199V52.8003C67.2017 47.9992 71.0021 44.1987 75.8012 44.1987H117.002C121.801 44.1987 125.602 47.9992 125.602 52.8003V66.5993C125.602 66.9996 125.201 67.3998 124.803 67.3998C124.403 67.3998 124.003 66.9996 124.003 66.5993V52.8003C124.003 48.9998 121.003 45.9979 117.202 45.9979H75.8012C72.0008 45.9979 69.0008 48.9998 69.0008 52.8003V136.199C69.0008 139.999 72.0008 143.001 75.8012 143.001H117.002C120.8 143.001 123.802 139.999 123.802 136.199V84.2007L115.003 91.1993C114.602 91.5995 114.002 91.4014 113.802 90.9992C113.402 90.5989 113.602 89.9985 114.002 89.8004L124.201 81.599C124.401 81.3989 124.801 81.3989 125.201 81.3989C125.602 81.5991 125.802 81.7972 125.802 82.1974V135.996C125.8 141 121.801 144.8 117.2 144.8Z" fill="#112152"/>
<path d="M120.2 130.801H72.8013C72.401 130.801 72.0008 130.401 72.0008 130.001V59.0024C72.0008 58.6021 72.401 58.2019 72.8013 58.2019H120.2C120.6 58.2019 121.001 58.6021 121.001 59.0024V66.4012C121.001 66.8015 120.6 67.1997 120.2 67.1997C119.8 67.1997 119.4 66.8015 119.4 66.4012V60.0011H73.6018V129.002H119.201V88.0013L115.001 91.4034C114.6 91.8017 114 91.6016 113.8 91.2013C113.4 90.8011 113.6 90.2007 114 90.0025L119.8 85.4036C120 85.2014 120.4 85.2015 120.799 85.2015C121.199 85.4036 121.399 85.6017 121.399 86.002V129.8C121.201 130.401 120.801 130.801 120.2 130.801Z" fill="#112152"/>
<path d="M97.2012 53.2006H90.4008C90.0005 53.2006 89.6003 52.8023 89.6003 52.4021C89.6003 52.0018 90.0005 51.6016 90.4008 51.6016H97.2012C97.6015 51.6016 98.0017 52.0018 98.0017 52.4021C98.0017 52.8003 97.7996 53.2006 97.2012 53.2006Z" fill="#112152"/>
<path d="M102.401 53.2006H100.001C99.6008 53.2006 99.2005 52.8023 99.2005 52.4021C99.2005 52.0018 99.6008 51.6016 100.001 51.6016H102.401C102.801 51.6016 103.199 52.0018 103.199 52.4021C103.199 52.8003 103.001 53.2006 102.401 53.2006Z" fill="#112152"/>
<path d="M96.4007 140.6C94.2012 140.6 92.6002 138.8 92.6002 136.599C92.6002 134.4 94.3994 132.598 96.4007 132.598C98.6001 132.598 100.401 134.398 100.401 136.599C100.401 138.999 98.6001 140.6 96.4007 140.6ZM96.4007 134.602C95.2019 134.602 94.2012 135.6 94.2012 136.801C94.2012 138 95.2019 138.999 96.4007 138.999C97.5995 138.999 98.6001 138 98.6001 136.801C98.6001 135.598 97.5995 134.602 96.4007 134.602Z" fill="#112152"/>
<path d="M103.799 109.199H99.6007C99.2004 109.199 98.8002 108.801 98.8002 108.4C98.8002 108 99.2004 107.6 99.6007 107.6H103.799C104.2 107.6 104.6 108 104.6 108.4C104.6 108.801 104.4 109.199 103.799 109.199Z" fill="#112152"/>
<path d="M103.799 111.8H99.6007C99.2004 111.8 98.8002 111.4 98.8002 111.002C98.8002 110.602 99.2004 110.201 99.6007 110.201H103.799C104.2 110.201 104.6 110.602 104.6 111.002C104.6 111.4 104.4 111.8 103.799 111.8Z" fill="#112152"/>
<path d="M96.4006 117.6C90.2006 117.6 84.2007 117 78.2008 115.601C77.8006 115.601 77.6004 115.201 77.6004 114.8C77.6004 113.199 77.6004 112.001 77.6004 110.802C77.4003 102.803 77.6004 102.402 84.0006 99.0022C85.1994 98.4018 86.8004 97.4012 88.7997 96.4005C89.2 96.2004 89.8004 96.4005 89.9985 96.8008C90.1986 97.201 89.9985 97.8014 89.5983 97.9996C87.5989 99.0002 85.9979 100.001 84.7991 100.601C81.9993 102 80.3983 102.801 79.7999 104.001C79.1995 105.2 79.1995 107.001 79.1995 110.602C79.1995 111.602 79.1995 112.601 79.1995 113.8C90.3988 116.402 101.998 116.201 113.598 113.8C113.598 112.601 113.598 111.602 113.598 110.602C113.598 106.801 113.598 105.002 112.997 103.801C112.397 102.599 110.798 101.8 107.998 100.201C106.797 99.6006 105.198 98.5999 103.397 97.6033C102.997 97.4011 102.797 96.8028 102.997 96.4005C103.195 96.0022 103.796 95.8001 104.196 96.0023C105.995 97.0029 107.596 97.8014 108.795 98.6019C115.195 102.002 115.395 102.402 115.395 110.604C115.395 111.802 115.395 113.003 115.395 114.404C115.395 114.802 115.195 115.203 114.595 115.203C108.601 116.8 102.401 117.6 96.4006 117.6Z" fill="#112152"/>
<path d="M96.6008 95.1999C90.2007 95.1999 86.8005 86.2 86.8005 81.4009C86.8005 75.9994 91.2013 71.6006 96.6008 71.6006C102 71.6006 106.401 76.0014 106.401 81.4009C106.601 85.9999 103.199 95.1999 96.6008 95.1999ZM96.6008 73.1996C92.2 73.1996 88.5996 76.798 88.5996 81.1988C88.5996 85.3995 91.3995 93.2006 96.6008 93.2006C101.8 93.2006 104.6 85.1994 104.6 81.1988C104.8 76.8 101.2 73.1996 96.6008 73.1996Z" fill="#112152"/>
<path d="M99.0003 105.799C98.8002 105.799 98.6001 105.799 98.4 105.599L95.8003 103.199C95.4 102.799 95.4 102.399 95.6001 101.999L100.8 94.7999C101 94.5978 101.2 94.3997 101.4 94.3997C101.6 94.3997 102 94.3996 102 94.5998L104 96.3989C104.4 96.601 104.4 97.1995 104.2 97.6017L99.4006 105.401C99.8009 105.601 99.4006 105.799 99.0003 105.799C99.2005 105.799 99.2005 105.799 99.0003 105.799ZM97.5994 102.401L98.8002 103.6L102.601 97.3996L102 96.6011L97.5994 102.401Z" fill="#112152"/>
<path d="M93.6008 106.201C93.2005 106.201 93.0004 106.001 92.8003 105.801L88.4014 97.6016C88.2013 97.2013 88.2013 96.801 88.6015 96.6009L90.6009 94.8017C90.801 94.5996 91.0011 94.5996 91.2012 94.5996C91.4014 94.5996 91.6015 94.8017 91.8016 94.9999L97.001 102.201C97.2011 102.599 97.2011 102.999 97.001 103.399L94.2012 106.001C94.2012 106.001 93.8009 106.201 93.6008 106.201ZM90.4007 97.2013L93.9991 103.601L95.4 102.203L91.1993 96.4008L90.4007 97.2013Z" fill="#112152"/>
<path d="M94.4014 82.5998C94.2013 82.5998 94.0011 82.5998 94.0011 82.5998C92.4021 82.3977 91.0012 80.9988 90.4028 78.9995C90.2027 78.6012 90.6029 78.0008 91.0032 77.8007C91.4034 77.6005 92.0018 78.0028 92.2039 78.4011C92.6042 79.802 93.4027 80.6005 94.2032 80.8026C95.0038 81.0028 95.8043 80.6005 96.2026 79.802C97.6035 77.6025 98.0037 77.0021 99.0024 77.2003C99.8029 77.3984 99.6028 78.2009 99.6028 78.8013C100.601 78.2009 101.602 78.2009 102.202 78.4011C102.603 78.6032 103.201 79.0014 103.401 80.2002C103.401 80.6005 103.201 81.2009 102.601 81.2009C102.2 81.2009 101.602 81.0007 101.602 80.4023C101.602 80.2002 101.402 80.0021 101.402 80.0021C101.202 80.0021 100.802 80.0021 99.8009 80.6025C99.2005 81.0027 98.6021 81.0027 98.2019 80.8046C98.0017 80.6025 97.8016 80.6025 97.8016 80.4043L97.6015 80.6045C97.0011 82.0014 95.6002 82.5998 94.4014 82.5998Z" fill="#112152"/>
<path d="M114.6 91.5995C114.4 91.5995 114.2 91.5996 114 91.4014C113.6 91.1993 113.6 90.7991 113.6 90.4008L115.799 83.2001H111.599C111.198 83.2001 110.798 82.7999 110.798 82.3996V66.5993C110.798 66.1991 111.198 65.8008 111.599 65.8008H140.399C140.8 65.8008 141.2 66.1991 141.2 66.5993V82.3996C141.2 82.7999 140.8 83.2001 140.399 83.2001H124.999L114.799 91.4014C115.001 91.5996 114.801 91.5995 114.6 91.5995ZM112.801 81.4009H117.2C117.4 81.4009 117.801 81.6011 118.001 81.7992C118.201 82.0013 118.201 82.3996 118.201 82.5997L116.4 87.9992L124.401 81.601C124.601 81.4009 124.801 81.4009 125.001 81.4009H139.801V67.4018H112.801V81.4009Z" fill="#112152"/>
<path d="M132 71.1981H117.2C116.8 71.1981 116.4 70.7999 116.4 70.3996C116.4 69.9994 116.8 69.6011 117.2 69.6011H132C132.4 69.6011 132.8 69.9994 132.8 70.3996C132.8 70.7999 132.6 71.1981 132 71.1981Z" fill="#112152"/>
<path d="M135.8 74.6005H117.2C116.8 74.6005 116.4 74.2002 116.4 73.8C116.4 73.3997 116.8 73.0015 117.2 73.0015H135.8C136.201 73.0015 136.601 73.3997 136.601 73.8C136.601 74.2002 136.401 74.6005 135.8 74.6005Z" fill="#112152"/>
<path d="M135.8 77.8007H117.2C116.8 77.8007 116.4 77.4005 116.4 77.0022C116.4 76.602 116.8 76.2017 117.2 76.2017H135.8C136.201 76.2017 136.601 76.602 136.601 77.0022C136.601 77.3985 136.401 77.8007 135.8 77.8007Z" fill="#112152"/>
<path d="M108.4 149.999H67.4018C67.0015 149.999 66.6013 149.599 66.6013 149.201C66.6013 148.801 67.0015 148.4 67.4018 148.4H108.4C108.801 148.4 109.201 148.801 109.201 149.201C109.201 149.599 108.801 149.999 108.4 149.999Z" fill="#112152"/>
<path d="M114 153.8H84.2008C83.8005 153.8 83.4003 153.4 83.4003 152.999C83.4003 152.601 83.8005 152.201 84.2008 152.201H114C114.4 152.201 114.801 152.601 114.801 152.999C114.801 153.4 114.4 153.8 114 153.8Z" fill="#112152"/>
<path d="M120.801 153.8H117.002C116.602 153.8 116.202 153.4 116.202 152.999C116.202 152.601 116.602 152.201 117.002 152.201H120.801C121.201 152.201 121.601 152.601 121.601 152.999C121.601 153.4 121.201 153.8 120.801 153.8Z" fill="#112152"/>
<path d="M71.4004 153.6H57.1992C56.7989 153.6 56.3987 153.2 56.3987 152.8C56.3987 152.399 56.7989 152.001 57.1992 152.001H71.4004C71.8007 152.001 72.2009 152.399 72.2009 152.8C72.2009 153.2 72.0008 153.6 71.4004 153.6Z" fill="#112152"/>
</svg>
