<svg width="201" height="200" viewBox="0 0 201 200" fill="none" xmlns="http://www.w3.org/2000/svg">
<path d="M200.667 0H0.666656V200H200.667V0Z" fill="white"/>
<path d="M148.668 83.3995V146.599C148.668 148.999 146.668 151.001 144.268 151.001H93.6679C92.4689 151.001 91.268 150.401 90.4673 149.601C91.0668 149.2 91.4672 148.8 91.6684 148.4C91.6684 148.4 91.6684 148.4 91.8695 148.199C92.0707 147.999 92.0706 147.999 92.0706 147.798C92.0706 147.798 92.0706 147.798 92.0706 147.597C92.0706 147.597 92.0706 147.597 92.0706 147.398C92.0706 147.197 92.2698 147.197 92.2698 146.998C92.2698 146.998 92.2698 146.998 92.2698 146.799C92.2698 146.597 92.2698 146.597 92.2698 146.398C92.2698 146.197 92.2698 145.797 92.0706 145.598C91.8694 144.797 91.0688 143.996 90.069 143.198C90.8696 142.598 91.6704 141.997 91.8695 141.397V141.196V140.997V140.796V140.594V140.395V140.194C91.8695 138.993 91.0688 137.995 89.6687 136.995C90.6685 136.195 91.4672 135.394 91.6684 134.596C91.6684 134.394 91.6684 134.394 91.6684 134.394V134.195V133.994C91.6684 132.793 90.8697 131.793 89.4695 130.793C89.4695 130.793 89.4696 130.793 89.6707 130.594C89.8719 130.594 89.8718 130.393 90.069 130.393L90.2701 130.192L90.4694 129.993L90.6704 129.794L90.8716 129.592C90.8716 129.592 90.8717 129.393 91.0709 129.393C91.0709 129.393 91.0708 129.192 91.2719 129.192C91.2719 129.192 91.2719 129.192 91.2719 128.991C91.2719 128.991 91.2719 128.991 91.2719 128.792V128.591V128.391V128.19C91.2719 128.19 91.2719 128.19 91.2719 127.989V127.788V127.589C91.2719 126.388 90.4733 125.39 89.0731 124.388C90.2741 123.59 91.0728 122.588 91.2719 121.789C91.2719 121.789 91.2719 121.789 91.2719 121.588C91.2719 121.588 91.2719 121.588 91.2719 121.387V121.188C91.2719 121.188 91.2719 121.188 91.2719 120.986V120.787V120.586V120.385C91.2719 120.186 91.0709 120.186 91.0709 119.985C91.0709 119.985 91.0709 119.985 91.0709 119.783C91.0709 119.783 91.0709 119.783 91.0709 119.584C91.0709 119.584 91.0709 119.584 91.0709 119.383C91.0709 119.182 90.8717 119.182 90.6725 118.983C90.6725 118.983 90.6725 118.983 90.4713 118.782C90.4713 118.782 90.4714 118.58 90.2722 118.58C90.2722 118.58 90.071 118.58 90.071 118.381C90.071 118.381 89.8718 118.381 89.8718 118.18C89.4715 117.78 88.8701 117.379 88.2706 116.979V83.3796C88.2706 80.9796 90.2702 78.98 92.6701 78.98H124.27H143.271C146.668 78.9999 148.668 80.9995 148.668 83.3995ZM142.466 99.0003V84.6005H95.6676V99.0003H142.466ZM141.667 143.6V132.401V129.8V124.398H133.868V129.8V132.401V143.6H141.667ZM141.667 121V113.201H133.868V121H141.667ZM141.667 108.799V105.198H133.868V108.799H141.667ZM129.267 143.6V135.8H121.466V143.6H129.267ZM129.267 132.401V124.601H121.466V132.401H129.267ZM129.267 121V113.201H121.466V121H129.267ZM129.267 108.799V105.198H121.466V108.799H129.267ZM116.867 143.6V135.8H109.068V143.6H116.867ZM116.867 132.401V124.601H109.068V132.401H116.867ZM116.867 121V113.201H109.068V121H116.867ZM116.867 108.799V105.198H109.068V108.799H116.867ZM104.268 143.6V135.8H96.4682V143.6H104.268ZM104.268 132.401V124.601H96.4682V132.401H104.268ZM104.268 121V113.201H96.4682V121H104.268ZM104.268 108.799V105.198H96.4682V108.799H104.268Z" fill="#FAE12C"/>
<path d="M142.267 84.6003H95.6676V99.0002H142.267V84.6003Z" fill="white"/>
<path d="M141.667 132.4V143.6H133.868V132.4V129.799V124.4H141.667V129.799V132.4Z" fill="white"/>
<path d="M141.667 113.199H133.868V121H141.667V113.199Z" fill="white"/>
<path d="M141.667 105.2H133.868V108.801H141.667V105.2Z" fill="white"/>
<path d="M129.267 135.8H121.466V143.6H129.267V135.8Z" fill="white"/>
<path d="M129.267 124.4H121.466V132.201H129.267V124.4Z" fill="white"/>
<path d="M129.267 113.199H121.466V121H129.267V113.199Z" fill="white"/>
<path d="M129.267 105.2H121.466V108.801H129.267V105.2Z" fill="white"/>
<path d="M125.268 58.8001V78.9997H93.6679C91.268 78.9997 89.2684 80.9993 89.2684 83.3993V117.2C87.667 116.399 85.4683 115.599 83.0683 115.2C82.8691 115.2 82.8691 115.2 82.67 115.2C82.4688 115.2 82.2697 115.2 81.8693 114.999C81.6702 114.999 81.2699 114.999 81.0707 114.8C80.8695 114.8 80.8694 114.8 80.6703 114.8C80.2719 114.8 79.8717 114.8 79.4693 114.599H79.2701H79.069C78.8679 114.599 78.8678 114.599 78.6686 114.599C78.4694 114.599 78.4695 114.599 78.2683 114.599C78.0691 114.599 77.87 114.599 77.6689 114.599C77.4677 114.599 77.2686 114.599 77.0674 114.599C76.8682 114.599 76.669 114.599 76.669 114.599C76.4679 114.599 76.2687 114.599 76.0675 114.599C75.8684 114.599 75.8684 114.599 75.6692 114.599C75.468 114.599 75.2689 114.599 75.0677 114.599C74.8665 114.599 74.8665 114.599 74.6693 114.599C74.4682 114.599 74.4682 114.599 74.269 114.599H74.0679C73.8667 114.599 73.8667 114.599 73.6675 114.599C73.4684 114.599 73.0681 114.599 72.8689 114.599C72.6677 114.599 72.6677 114.599 72.4686 114.599H72.2695C72.0683 114.599 72.0682 114.599 71.869 114.599C70.8692 114.599 69.8694 114.8 68.8696 114.999C68.6684 114.8 67.6686 114.8 66.868 114.599V49.2002C66.868 47.0014 68.6685 45.2009 70.8693 45.2009H111.47V54.8008C111.47 56.9996 113.268 58.8001 115.471 58.8001H125.268ZM86.0677 68.5991C86.0677 64.9982 83.2675 62.1999 79.6665 62.1999C76.0656 62.1999 73.2672 65.1993 73.2672 68.5991C73.2672 72.2001 76.0656 74.9984 79.6665 74.9984C83.0663 75.0004 86.0677 72.2001 86.0677 68.5991Z" fill="white"/>
<path d="M125.268 58.8001H115.668C113.469 58.8001 111.669 56.9996 111.669 54.8008V45.2009L125.268 58.8001Z" fill="white"/>
<path d="M116.668 135.8H108.866V143.6H116.668V135.8Z" fill="white"/>
<path d="M116.668 124.4H108.866V132.201H116.668V124.4Z" fill="white"/>
<path d="M116.668 113.199H108.866V121H116.668V113.199Z" fill="white"/>
<path d="M116.668 105.2H108.866V108.801H116.668V105.2Z" fill="white"/>
<path d="M104.268 135.8H96.4682V143.6H104.268V135.8Z" fill="white"/>
<path d="M104.268 124.4H96.4682V132.201H104.268V124.4Z" fill="white"/>
<path d="M104.268 113.199H96.4682V121H104.268V113.199Z" fill="white"/>
<path d="M104.268 105.2H96.4682V108.801H104.268V105.2Z" fill="white"/>
<path d="M58.0667 127.601V127.4C58.0667 126.199 58.8654 125.201 60.2656 124.199C62.4644 125.599 65.8641 126.8 70.2658 127.198C70.6661 127.198 71.0665 127.198 71.4648 127.4C71.666 127.4 71.8652 127.4 72.0663 127.4C72.2675 127.4 72.4646 127.4 72.6658 127.4C72.8669 127.4 72.8669 127.4 73.0661 127.4C73.2652 127.4 73.2672 127.4 73.4664 127.4C73.6655 127.4 73.6656 127.4 73.8647 127.4H74.0659H74.2671C74.4663 127.4 74.6674 127.4 74.6674 127.4C74.8666 127.4 75.0658 127.4 75.2669 127.4C75.4681 127.4 75.6673 127.4 75.8684 127.4C76.0676 127.4 76.2667 127.4 76.2667 127.4H76.4659H76.6671C76.8683 127.4 76.8682 127.4 77.0653 127.4C77.2665 127.4 77.2666 127.4 77.4658 127.4C77.6649 127.4 77.6669 127.4 77.8661 127.4C78.0672 127.4 78.2643 127.4 78.4655 127.4C78.6647 127.4 78.8658 127.4 79.067 127.4C79.4653 127.4 79.8657 127.4 80.268 127.198C84.4665 126.798 88.0674 125.599 90.2682 124.199C91.6684 125.199 92.467 126.199 92.467 127.4V127.601V127.8C92.467 127.8 92.467 127.8 92.467 128.001V128.202V128.401V128.603C92.467 128.603 92.467 128.603 92.467 128.804C92.467 128.804 92.467 128.804 92.467 129.003C92.467 129.003 92.467 129.204 92.2658 129.204C92.2658 129.204 92.2659 129.405 92.0667 129.405L91.8655 129.604L91.6643 129.806L91.4632 130.005L91.262 130.206C91.0608 130.206 91.0609 130.407 90.8637 130.407C90.8637 130.407 90.6625 130.407 90.6625 130.608C90.4614 130.608 90.4614 130.807 90.2622 130.807C89.6628 131.208 89.0612 131.407 88.2625 131.807C87.0616 132.207 85.6615 132.608 84.0642 133.008C83.2635 133.209 82.4628 133.209 81.8613 133.408C81.463 133.408 81.0626 133.608 80.6603 133.608C80.4611 133.608 80.4612 133.608 80.2621 133.608H80.0609C79.8597 133.608 79.8597 133.608 79.6606 133.608C79.2622 133.608 79.061 133.608 78.6607 133.608C78.4615 133.608 78.4616 133.608 78.2604 133.608C78.0612 133.608 77.6609 133.608 77.4617 133.608C77.2626 133.608 77.2606 133.608 77.0614 133.608C76.8623 133.608 76.6631 133.608 76.6631 133.608C76.4619 133.608 76.2628 133.608 76.0616 133.608C75.8624 133.608 75.6632 133.608 75.462 133.608C75.2609 133.608 75.0617 133.608 75.0617 133.608C74.8606 133.608 74.8606 133.608 74.6634 133.608C74.4622 133.608 74.0619 133.608 73.8628 133.608C73.6616 133.608 73.6616 133.608 73.4644 133.608C73.0641 133.608 72.8629 133.608 72.4626 133.608C72.2635 133.608 72.2634 133.608 72.0643 133.608H71.8631C71.6619 133.608 71.6619 133.608 71.4628 133.608C71.0644 133.608 70.6641 133.608 70.2638 133.408C69.4651 133.207 68.6645 133.207 68.065 133.008C67.8638 133.008 67.8638 133.008 67.6666 133.008C67.0651 132.809 66.4657 132.809 65.8662 132.608C65.4658 132.608 65.2666 132.407 64.8663 132.407C64.6652 132.407 64.6652 132.407 64.466 132.207C64.2649 132.207 64.0678 132.008 63.8666 132.008H63.6654C63.6654 132.008 63.4642 132.008 63.4642 131.807C63.2631 131.807 63.0638 131.608 62.8647 131.608C62.8647 131.608 62.6636 131.608 62.6636 131.407C62.4625 131.206 62.2633 131.206 62.0621 131.007C62.0621 131.007 61.8629 131.007 61.8629 130.805C61.6617 130.606 61.4626 130.606 61.2614 130.405C59.0666 129.6 58.2679 128.601 58.0667 127.601Z" fill="white"/>
<path d="M92.6661 133.6V133.801V134.002V134.201C92.2658 135.402 91.0649 136.402 89.4676 137.201C89.4676 137.201 89.2664 137.201 89.2664 137.402C89.2664 137.402 89.0652 137.402 89.0652 137.601C88.8641 137.601 88.6668 137.802 88.4657 137.802C87.8642 138.003 87.4659 138.202 86.8645 138.402C86.6633 138.402 86.6632 138.402 86.464 138.603C85.0659 139.003 83.6658 139.401 82.0644 139.603C81.8633 139.603 81.6662 139.603 81.465 139.603C81.0647 139.603 80.6643 139.603 80.4652 139.804C80.264 139.804 80.0648 139.804 79.8637 139.804C79.6625 139.804 79.6625 139.804 79.4634 139.804H79.2641C79.063 139.804 78.8638 139.804 78.8638 139.804C78.6627 139.804 78.6627 139.804 78.4635 139.804C78.2624 139.804 78.2624 139.804 78.0652 139.804C77.864 139.804 77.4637 139.804 77.2646 139.804C77.0654 139.804 77.0634 139.804 76.8662 139.804C76.665 139.804 76.4659 139.804 76.4659 139.804C76.2667 139.804 76.0655 139.804 75.8664 139.804C75.6652 139.804 75.466 139.804 75.2649 139.804C75.0637 139.804 74.8646 139.804 74.8646 139.804C74.6654 139.804 74.6654 139.804 74.4662 139.804C74.267 139.804 73.8648 139.804 73.6656 139.804C73.4664 139.804 73.4664 139.804 73.2672 139.804C73.0681 139.804 73.0661 139.804 72.8669 139.804C72.6658 139.804 72.4666 139.804 72.4666 139.804H72.2674C72.0662 139.804 72.0663 139.804 71.8671 139.804C71.6659 139.804 71.4668 139.804 71.2656 139.804C70.8673 139.804 70.4669 139.804 70.2657 139.603C70.0666 139.603 69.8675 139.603 69.6663 139.603C66.866 139.202 64.2649 138.402 62.4664 137.603C62.2653 137.404 62.0661 137.404 61.8669 137.203C61.8669 137.203 61.8669 137.203 61.6657 137.203C61.6657 137.203 61.4645 137.203 61.4645 137.003C61.2634 137.003 61.2634 136.802 61.0642 136.802L60.8632 136.601C59.465 135.601 58.6643 134.602 58.6643 133.403C58.6643 132.803 58.8655 132.403 59.0646 131.801C59.465 131.202 60.0645 130.602 60.8632 130.202C61.0643 130.403 61.2634 130.403 61.4645 130.602C61.4645 130.602 61.6657 130.602 61.6657 130.801C61.8669 131.003 62.0641 131.003 62.2653 131.202C62.2653 131.202 62.4664 131.202 62.4664 131.403C62.6676 131.403 62.8667 131.604 63.0659 131.604C63.0659 131.604 63.267 131.604 63.267 131.803H63.4682C63.6694 131.803 63.8686 132.004 64.0697 132.004C64.2689 132.004 64.2689 132.004 64.4681 132.204C64.8684 132.403 65.0695 132.403 65.4678 132.403C66.0693 132.604 66.6688 132.803 67.2683 132.803C67.4694 132.803 67.4695 132.803 67.6687 132.803C68.4674 133.002 69.268 133.002 69.8695 133.203C70.2678 133.203 70.6681 133.405 71.0684 133.405C71.2676 133.405 71.2676 133.405 71.4668 133.405H71.668C71.8691 133.405 71.8691 133.405 72.0683 133.405C72.4666 133.405 72.6678 133.405 73.0681 133.405C73.2693 133.405 73.2693 133.405 73.4684 133.405C73.6676 133.405 74.0679 133.405 74.2671 133.405C74.4663 133.405 74.4662 133.405 74.6674 133.405C74.8666 133.405 75.0658 133.405 75.0658 133.405C75.2669 133.405 75.4661 133.405 75.6672 133.405C75.8684 133.405 76.0655 133.405 76.2667 133.405C76.4658 133.405 76.6671 133.405 76.6671 133.405C76.8682 133.405 76.8682 133.405 77.0653 133.405C77.2665 133.405 77.6669 133.405 77.8661 133.405C78.0672 133.405 78.0672 133.405 78.2644 133.405C78.6647 133.405 78.8659 133.405 79.2662 133.405C79.4654 133.405 79.4653 133.405 79.6644 133.405H79.8656C80.0668 133.405 80.0668 133.405 80.2659 133.405C80.6643 133.405 81.0647 133.405 81.465 133.203C82.2637 133.002 83.0643 133.002 83.6638 132.803C85.2632 132.403 86.6632 132.002 87.8622 131.604C88.6629 131.403 89.2624 131.005 89.8639 130.604C90.063 130.604 90.0631 130.403 90.2622 130.403C91.8675 131.401 92.6661 132.401 92.6661 133.6Z" fill="#FAE12C"/>
<path d="M58.2679 141.2C58.0668 140.8 58.0667 140.401 58.0667 140.001C58.0667 138.8 58.8654 137.8 60.2656 136.8L60.4648 137.001C60.4648 137.001 60.666 137.201 60.8632 137.201C60.8632 137.201 61.0642 137.201 61.0642 137.402C61.0642 137.402 61.0642 137.402 61.2654 137.402C61.4666 137.601 61.6657 137.601 61.8669 137.802C63.6654 138.603 66.2665 139.401 69.0648 139.802C69.266 139.802 69.4652 139.802 69.6663 139.802C70.0667 139.802 70.465 139.802 70.6662 140.003C70.8673 140.003 71.0664 140.003 71.2656 140.003C71.4668 140.003 71.4667 140.003 71.6659 140.003H71.8671C72.0682 140.003 72.2674 140.003 72.2674 140.003C72.4666 140.003 72.4666 140.003 72.6658 140.003C72.8669 140.003 72.8669 140.003 73.0661 140.003C73.2672 140.003 73.6656 140.003 73.8647 140.003C74.0659 140.003 74.0659 140.003 74.265 140.003C74.4642 140.003 74.6654 140.003 74.6654 140.003C74.8646 140.003 75.0637 140.003 75.2649 140.003C75.466 140.003 75.6652 140.003 75.8664 140.003C76.0655 140.003 76.2647 140.003 76.2647 140.003C76.4639 140.003 76.4639 140.003 76.665 140.003C76.8662 140.003 77.2645 140.003 77.4637 140.003C77.6648 140.003 77.6648 140.003 77.864 140.003C78.0652 140.003 78.0652 140.003 78.2624 140.003C78.4635 140.003 78.6627 140.003 78.6627 140.003H78.8638C79.065 140.003 79.065 140.003 79.2641 140.003C79.4633 140.003 79.6625 140.003 79.8637 140.003C80.264 140.003 80.6624 140.003 80.8635 139.802C81.0647 139.802 81.2639 139.802 81.465 139.802C83.0643 139.601 84.4645 139.202 85.8646 138.802C86.0658 138.802 86.0657 138.802 86.2649 138.603C86.8644 138.402 87.4659 138.202 87.8642 138.003C88.0653 138.003 88.2645 137.802 88.4657 137.802C88.4657 137.802 88.6669 137.802 88.6669 137.601C88.6669 137.601 88.8661 137.601 88.8661 137.402C89.2664 137.201 89.6667 137.001 90.067 136.802C91.4672 137.802 92.2658 138.802 92.2658 140.003V140.202V140.403V140.602V140.804V141.005V141.204C91.6663 142.204 90.4673 143.204 88.6669 144.004C88.4657 144.004 88.2665 144.205 88.0654 144.205H87.8642C87.4659 144.407 86.8644 144.606 86.464 144.805C86.2649 144.805 86.265 144.805 86.0658 145.006C85.8646 145.006 85.8645 145.006 85.6654 145.205C85.4642 145.205 85.066 145.406 84.6656 145.406C83.6658 145.607 82.6659 145.807 81.6661 146.006C81.4649 146.006 81.2658 146.006 81.0646 146.006C80.8634 146.006 80.6643 146.006 80.4652 146.006C80.264 146.006 80.0649 146.006 80.0649 146.006C79.8637 146.006 79.6645 146.006 79.4634 146.006C79.2642 146.006 79.2642 146.006 79.065 146.006H78.8638C78.6627 146.006 78.4635 146.006 78.4635 146.006C78.2624 146.006 78.2624 146.006 78.0652 146.006C77.864 146.006 77.864 146.006 77.6649 146.006C77.4637 146.006 77.0634 146.006 76.8662 146.006C76.6651 146.006 76.6651 146.006 76.4659 146.006C76.2667 146.006 76.0656 146.006 76.0656 146.006C75.8664 146.006 75.6672 146.006 75.4661 146.006C75.2649 146.006 75.0657 146.006 74.8646 146.006C74.6654 146.006 74.4662 146.006 74.4662 146.006C74.267 146.006 74.2671 146.006 74.0659 146.006C73.8647 146.006 73.4664 146.006 73.2672 146.006C73.0661 146.006 73.0661 146.006 72.8669 146.006C72.6658 146.006 72.6658 146.006 72.4666 146.006C72.2675 146.006 72.0683 146.006 72.0683 146.006H71.8671C71.6659 146.006 71.666 146.006 71.4668 146.006C71.2676 146.006 71.0684 146.006 70.8672 146.006C70.6661 146.006 70.4669 146.006 70.4669 146.006C70.2658 146.006 70.0687 146.006 69.8675 146.006C69.6664 146.006 69.4672 146.006 69.266 146.006C67.8659 145.805 66.4677 145.605 65.2667 145.205C64.8664 145.205 64.6652 145.006 64.466 145.006C64.2649 145.006 64.2648 145.006 64.0677 144.805C63.8665 144.805 63.8665 144.805 63.6674 144.606C63.4662 144.606 63.4662 144.405 63.2671 144.405C63.0679 144.405 63.0659 144.203 62.8687 144.203C62.4684 144.002 62.2673 144.002 62.0681 143.803C62.0681 143.803 61.8688 143.803 61.8688 143.602C61.6677 143.602 61.4685 143.403 61.4685 143.403C59.6661 143 58.6663 142.001 58.2679 141.2Z" fill="white"/>
<path d="M92.6661 146.4C92.6661 146.599 92.6661 146.599 92.6661 146.8C92.6661 146.8 92.6661 146.8 92.6661 147C92.6661 147.201 92.6661 147.201 92.465 147.4C92.465 147.4 92.465 147.4 92.465 147.599C92.465 147.599 92.465 147.599 92.465 147.8C92.465 148.001 92.2639 148.001 92.2639 148.2C92.2639 148.2 92.2638 148.402 92.0646 148.402C89.8658 151.003 83.2634 153.002 75.6652 153.002C66.0653 153.002 58.4651 150.202 58.4651 146.603C58.4651 145.402 59.2637 144.404 60.6659 143.405C60.865 143.604 61.0642 143.604 61.4645 143.805C61.6657 143.805 61.865 144.004 61.865 144.004C61.865 144.004 62.0641 144.004 62.0641 144.205C62.2652 144.406 62.6655 144.406 62.8647 144.606C63.0638 144.606 63.0639 144.805 63.263 144.805C63.4622 144.805 63.4642 145.006 63.6633 145.006C63.8645 145.006 63.8646 145.006 64.0638 145.205C64.2629 145.205 64.2628 145.205 64.462 145.406C64.6612 145.406 65.0636 145.607 65.2627 145.607C66.4617 146.008 67.8619 146.207 69.262 146.406C69.4632 146.406 69.6623 146.406 69.8635 146.406C70.0647 146.406 70.2618 146.406 70.4629 146.406C70.6621 146.406 70.8634 146.406 70.8634 146.406C71.0645 146.406 71.2616 146.406 71.4628 146.406C71.6639 146.406 71.6639 146.406 71.8631 146.406H72.0643C72.2654 146.406 72.4626 146.406 72.4626 146.406C72.6618 146.406 72.6618 146.406 72.8629 146.406C73.0641 146.406 73.0641 146.406 73.2632 146.406C73.4644 146.406 73.8627 146.406 74.0619 146.406C74.2611 146.406 74.263 146.406 74.4622 146.406C74.6634 146.406 74.8606 146.406 74.8606 146.406C75.0617 146.406 75.2609 146.406 75.462 146.406C75.6632 146.406 75.8624 146.406 76.0616 146.406C76.2628 146.406 76.4619 146.406 76.4619 146.406C76.6631 146.406 76.663 146.406 76.8622 146.406C77.0614 146.406 77.4617 146.406 77.6609 146.406C77.862 146.406 77.862 146.406 78.0612 146.406C78.2603 146.406 78.2604 146.406 78.4595 146.406C78.6587 146.406 78.8598 146.406 78.8598 146.406H79.061C79.2622 146.406 79.2622 146.406 79.4613 146.406C79.6605 146.406 79.8597 146.406 80.0609 146.406C80.262 146.406 80.4612 146.406 80.4612 146.406C80.6603 146.406 80.8596 146.406 81.0607 146.406C81.2619 146.406 81.461 146.406 81.6622 146.406C82.662 146.207 83.6618 146.006 84.6616 145.807C85.062 145.807 85.2612 145.607 85.6615 145.607C85.8626 145.607 85.8626 145.607 86.0618 145.406C86.261 145.406 86.261 145.406 86.4601 145.205C87.0616 145.006 87.462 144.805 87.8603 144.606H88.0614C88.2625 144.606 88.4617 144.404 88.6629 144.404C89.2623 144.203 89.8639 143.805 90.4614 143.405C91.4612 144.203 92.2599 144.805 92.4611 145.805C92.6662 145.801 92.6661 146.201 92.6661 146.4Z" fill="#FAE12C"/>
<path d="M69.0668 114.8C70.0686 114.599 71.0685 114.599 72.0683 114.4C72.2695 114.4 72.2695 114.4 72.4667 114.4H72.6658C72.8669 114.4 72.8669 114.4 73.0661 114.4C73.2652 114.4 73.6656 114.4 73.8647 114.4C74.0659 114.4 74.0659 114.4 74.265 114.4H74.4643C74.6654 114.4 74.6655 114.4 74.8626 114.4C75.0638 114.4 75.0638 114.4 75.2629 114.4C75.4621 114.4 75.6633 114.4 75.8644 114.4C76.0636 114.4 76.0636 114.4 76.2628 114.4C76.462 114.4 76.6631 114.4 76.8643 114.4C77.0635 114.4 77.2625 114.4 77.2625 114.4C77.4637 114.4 77.6629 114.4 77.864 114.4C78.0652 114.4 78.2624 114.4 78.4636 114.4C78.4636 114.4 78.6627 114.4 78.8639 114.4C79.065 114.4 79.065 114.4 79.2642 114.4H79.4634H79.6645C80.0648 114.4 80.4652 114.4 80.8655 114.601C81.0667 114.601 81.0666 114.601 81.2658 114.601C81.465 114.601 81.8653 114.601 82.0645 114.802C82.2656 114.802 82.4649 114.802 82.8652 115.001C83.0644 115.001 83.0643 115.001 83.2634 115.001C86.6632 115.601 89.4636 116.802 91.0629 118.001C91.0629 118.001 91.2641 118.001 91.2641 118.202C91.2641 118.202 91.4652 118.202 91.4652 118.403C91.4652 118.403 91.6663 118.403 91.6663 118.602C91.6663 118.602 91.6663 118.602 91.8675 118.803C92.0686 119.002 92.0687 119.002 92.2658 119.204C92.2658 119.204 92.2658 119.204 92.2658 119.405C92.2658 119.405 92.2658 119.405 92.2658 119.604C92.2658 119.604 92.2658 119.604 92.2658 119.805C92.2658 120.006 92.467 120.006 92.467 120.205V120.407V120.608V120.807C92.467 120.807 92.467 120.807 92.467 121.008V121.209C92.467 121.209 92.467 121.209 92.467 121.408C92.467 121.408 92.467 121.408 92.467 121.61C91.8675 124.209 87.0676 126.609 80.4692 127.21C80.0689 127.21 79.6685 127.21 79.2682 127.411C79.067 127.411 78.8678 127.411 78.6667 127.411C78.4675 127.411 78.2663 127.411 78.0671 127.411C77.866 127.411 77.866 127.411 77.6668 127.411C77.4657 127.411 77.4657 127.411 77.2665 127.411C77.0674 127.411 77.0653 127.411 76.8682 127.411H76.6671H76.4659C76.2668 127.411 76.0656 127.411 76.0656 127.411C75.8665 127.411 75.6672 127.411 75.4661 127.411C75.2649 127.411 75.0657 127.411 74.8646 127.411C74.6654 127.411 74.4662 127.411 74.4662 127.411H74.2671H74.0659C73.8648 127.411 73.8648 127.411 73.6656 127.411C73.4665 127.411 73.4664 127.411 73.2673 127.411C73.0681 127.411 73.0661 127.411 72.867 127.411C72.6658 127.411 72.4666 127.411 72.2674 127.411C72.0663 127.411 71.8671 127.411 71.6659 127.411C71.2656 127.411 70.8673 127.411 70.467 127.21C65.667 126.611 61.6678 125.21 59.6662 123.609C58.8675 122.81 58.2679 122.01 58.2679 121.01C58.0668 118.2 62.6675 115.8 69.0668 114.8Z" fill="#FAE12C"/>
<path d="M79.6665 62.2C83.2675 62.2 86.0677 65.0002 86.0677 68.5992C86.0677 72.2001 83.2675 74.9984 79.6665 74.9984C76.0656 74.9984 73.2672 72.1982 73.2672 68.5992C73.2672 65.0002 76.0676 62.2 79.6665 62.2Z" fill="white"/>
<path d="M69.0668 114.8C62.6675 115.8 58.0688 117.999 58.0688 120.799C58.0688 121.6 58.4691 122.6 59.469 123.4L59.2678 123.199C59.0666 123.199 58.8674 123.199 58.6663 123.199C58.4671 123.199 58.2679 123.199 58.2679 123.199C58.0668 123.199 58.0668 123.199 57.8676 123.199C57.6665 123.199 57.6665 123.199 57.4673 123.199C57.2682 123.199 57.2661 123.199 57.069 123.199C56.8678 123.199 56.4675 123 56.2684 123C56.0692 123 56.0692 123 55.87 122.799C55.6688 122.799 55.6689 122.799 55.4697 122.598C55.2685 122.598 55.2684 122.598 55.0693 122.398H54.8701C54.669 122.398 54.669 122.398 54.4698 122.197C54.2687 122.197 54.0695 121.996 53.8683 121.996C53.6692 121.996 53.47 121.797 53.2688 121.797C53.2688 121.797 53.2689 121.797 53.0677 121.797C53.0677 121.797 53.0677 121.797 52.8666 121.797C52.8666 121.797 52.8665 121.797 52.6654 121.797C52.6654 121.797 52.4642 121.797 52.4642 121.596C52.4642 121.596 52.2651 121.596 52.2651 121.395C51.2652 120.795 50.6637 119.994 50.6637 119.196C50.6637 116.597 56.0651 114.595 62.8647 114.595C63.263 114.595 65.2646 114.796 66.864 114.995V115.796C67.6686 115.2 68.4673 114.999 69.0668 114.8Z" fill="white"/>
<path d="M59.4669 123.4C61.4665 125.201 65.4658 126.599 70.2658 127.001C66.0673 126.601 62.4664 125.4 60.2656 124.002C58.8654 125.001 58.0667 126.001 58.0667 127.2V127.401C57.8656 127.401 57.8656 127.401 57.6664 127.401C57.4673 127.401 57.0669 127.2 56.8678 127.2C56.6666 127.2 56.6666 127.2 56.4675 127.2C56.2663 127.2 56.2663 127.2 56.0691 127.001C55.868 127.001 55.868 127.001 55.6688 126.8C55.4677 126.8 55.4677 126.8 55.2685 126.599C54.8702 126.4 54.669 126.4 54.2687 126.198C54.2687 126.198 54.0675 126.198 54.0675 125.997C54.0675 125.997 53.8664 125.997 53.8664 125.798C53.8664 125.798 53.6672 125.798 53.6672 125.597C53.6672 125.597 53.466 125.597 53.466 125.396C52.0658 124.597 51.0661 123.797 51.0661 122.797C51.0661 121.996 51.6656 121.197 52.6654 120.598C52.6654 120.598 52.8666 120.598 52.8666 120.797C52.8666 120.797 53.0677 120.797 53.0677 120.998C53.0677 120.998 53.0676 120.998 53.2688 120.998C53.2688 120.998 53.2688 120.998 53.47 120.998C53.47 120.998 53.47 120.998 53.6712 120.998C53.8703 120.998 54.0694 121.199 54.2706 121.199C54.4718 121.199 54.6709 121.399 54.8721 121.399C55.0713 121.399 55.0713 121.399 55.2705 121.6H55.4716C55.6728 121.6 55.6728 121.6 55.8719 121.801C56.0731 121.801 56.0731 121.801 56.2703 122C56.4715 122 56.4714 122 56.6706 122.201C56.8718 122.201 57.2701 122.402 57.4693 122.402C57.6684 122.402 57.6704 122.402 57.8696 122.402C58.0707 122.402 58.0708 122.402 58.27 122.402C58.4692 122.402 58.4691 122.402 58.6682 122.402C58.8694 122.402 59.0687 122.402 59.0687 122.402C59.2698 122.402 59.4689 122.402 59.6681 122.402C59.2678 123.199 59.2677 123.4 59.4669 123.4Z" fill="white"/>
<path d="M60.2676 136.8C60.0665 136.8 59.8673 136.8 59.6661 136.8C59.2678 136.8 59.0666 136.8 58.6663 136.599C53.8663 135.999 50.6657 134.199 50.6657 132.199C50.6657 131.399 51.2672 130.6 52.267 130C52.6653 130.2 53.0656 130.401 53.466 130.6C53.466 130.6 53.6672 130.6 53.6672 130.799C53.6672 130.799 53.8664 130.799 53.8664 131H54.0675H54.2686C54.4698 131 54.4698 131 54.669 131.201C54.8701 131.201 54.8701 131.201 55.0673 131.401C55.2685 131.401 55.2684 131.401 55.4676 131.602C55.8679 131.602 56.0691 131.801 56.4675 131.801C56.6666 131.801 56.6666 131.801 56.8678 131.801C57.0689 131.801 57.2661 131.801 57.2661 131.801C57.4673 131.801 57.4673 131.801 57.6664 131.801C57.8656 131.801 58.0668 131.801 58.2679 131.801C57.8676 132.201 57.8676 132.801 57.8676 133.402C58.0668 134.8 58.8675 135.999 60.2676 136.8Z" fill="white"/>
<path d="M60.2676 136.8C58.8675 137.8 58.0688 138.8 58.0688 140.001C58.0688 140.401 58.0688 140.799 58.27 141.2C53.8684 140.6 50.6677 138.8 50.6677 137.001C50.6677 136.201 51.2693 135.4 52.2691 134.801C53.6692 135.8 56.0691 136.402 58.6682 136.8C59.0686 136.8 59.2697 136.8 59.6681 137.001C59.8672 136.8 60.0665 136.8 60.2676 136.8Z" fill="white"/>
<path d="M60.2676 130.401C59.469 131.001 58.8674 131.401 58.4691 132C58.2699 132 58.0688 132 57.8676 132C57.6665 132 57.6665 132 57.4673 132C57.2681 132 57.069 132 57.069 132C56.8678 132 56.8678 132 56.6686 132C56.2683 132 56.0691 131.799 55.6688 131.799C55.4676 131.799 55.4677 131.799 55.2685 131.6C55.0673 131.6 55.0673 131.6 54.8701 131.399C54.669 131.399 54.669 131.399 54.4698 131.2H54.2686H54.0675C54.0675 131.2 53.8664 131.2 53.8664 130.999C53.8664 130.999 53.6672 130.999 53.6672 130.797C51.6655 129.997 50.6657 128.997 50.6657 127.798C50.6657 126.999 51.2672 126.199 52.267 125.599C52.4662 125.8 52.6653 125.8 53.0657 125.999C53.0657 125.999 53.2669 125.999 53.2669 126.201C53.2669 126.201 53.468 126.201 53.468 126.402C53.468 126.402 53.6691 126.402 53.6691 126.601C53.6691 126.601 53.8683 126.601 53.8683 126.802C54.2687 127.003 54.4698 127.003 54.8701 127.202C55.0693 127.202 55.0693 127.202 55.2685 127.404C55.4697 127.404 55.4696 127.404 55.6688 127.605C55.87 127.605 55.8699 127.605 56.0691 127.804C56.2683 127.804 56.2683 127.804 56.4675 127.804C56.6666 127.804 57.069 128.005 57.2661 128.005C57.4673 128.005 57.4673 128.005 57.6664 128.005C58.2679 128.601 59.0666 129.6 60.2676 130.401Z" fill="white"/>
<path d="M142.466 99.7987H95.6676C95.2673 99.7987 94.867 99.3984 94.867 99V84.6002C94.867 84.1999 95.2673 83.7996 95.6676 83.7996H142.267C142.665 83.7996 143.065 84.1999 143.065 84.6002V99C143.269 99.4004 142.866 99.7987 142.466 99.7987ZM96.6675 98.0002H141.466V85.4009H96.6675V98.0002Z" fill="#112152"/>
<path d="M104.268 122H96.4682C96.0679 122 95.6696 121.6 95.6696 121.201V113.4C95.6696 113 96.0679 112.599 96.4682 112.599H104.268C104.668 112.599 105.066 113 105.066 113.4V121.201C105.267 121.6 104.867 122 104.268 122ZM97.2669 120.2H103.268V114.201H97.2669V120.2Z" fill="#112152"/>
<path d="M116.867 122H109.068C108.667 122 108.269 121.6 108.269 121.201V113.4C108.269 113 108.667 112.599 109.068 112.599H116.867C117.267 112.599 117.668 113 117.668 113.4V121.201C117.668 121.6 117.267 122 116.867 122ZM109.866 120.2H115.867V114.201H109.866V120.2Z" fill="#112152"/>
<path d="M129.267 122H121.466C121.067 122 120.667 121.6 120.667 121.201V113.4C120.667 113 121.067 112.599 121.466 112.599H129.267C129.666 112.599 130.066 113 130.066 113.4V121.201C130.267 121.6 129.867 122 129.267 122ZM122.268 120.2H128.269V114.201H122.268V120.2Z" fill="#112152"/>
<path d="M141.667 122H133.868C133.468 122 133.067 121.6 133.067 121.201V113.4C133.067 113 133.468 112.599 133.868 112.599H141.667C142.068 112.599 142.466 113 142.466 113.4V121.201C142.667 121.6 142.269 122 141.667 122ZM134.667 120.2H140.668V114.201H134.667V120.2Z" fill="#112152"/>
<path d="M104.268 133.199H96.4682C96.0679 133.199 95.6696 132.799 95.6696 132.4V124.601C95.6696 124.201 96.0679 123.8 96.4682 123.8H104.268C104.668 123.8 105.066 124.201 105.066 124.601V132.4C105.267 132.801 104.867 133.199 104.268 133.199ZM97.2669 131.401H103.268V125.4H97.2669V131.401Z" fill="#112152"/>
<path d="M116.867 133.199H109.068C108.667 133.199 108.269 132.799 108.269 132.4V124.601C108.269 124.201 108.667 123.8 109.068 123.8H116.867C117.267 123.8 117.668 124.201 117.668 124.601V132.4C117.668 132.801 117.267 133.199 116.867 133.199ZM109.866 131.401H115.867V125.4H109.866V131.401Z" fill="#112152"/>
<path d="M129.267 133.199H121.466C121.067 133.199 120.667 132.799 120.667 132.4V124.601C120.667 124.201 121.067 123.8 121.466 123.8H129.267C129.666 123.8 130.066 124.201 130.066 124.601V132.4C130.267 132.801 129.867 133.199 129.267 133.199ZM122.268 131.401H128.269V125.4H122.268V131.401Z" fill="#112152"/>
<path d="M141.667 144.601H133.868C133.468 144.601 133.067 144.201 133.067 143.801V124.601C133.067 124.201 133.468 123.8 133.868 123.8H141.667C142.068 123.8 142.466 124.201 142.466 124.601V143.801C142.667 144.199 142.269 144.601 141.667 144.601ZM134.667 142.801H140.668V125.4H134.667V142.801Z" fill="#112152"/>
<path d="M104.268 144.602H96.4682C96.0679 144.602 95.6696 144.201 95.6696 143.801V136.002C95.6696 135.601 96.0679 135.203 96.4682 135.203H104.268C104.668 135.203 105.066 135.603 105.066 136.002V143.801C105.267 144.199 104.867 144.602 104.268 144.602ZM97.2669 142.801H103.268V136.8H97.2669V142.801Z" fill="#112152"/>
<path d="M116.867 144.602H109.068C108.667 144.602 108.269 144.201 108.269 143.801V136.002C108.269 135.601 108.667 135.203 109.068 135.203H116.867C117.267 135.203 117.668 135.603 117.668 136.002V143.801C117.668 144.199 117.267 144.602 116.867 144.602ZM109.866 142.801H115.867V136.8H109.866V142.801Z" fill="#112152"/>
<path d="M129.267 144.602H121.466C121.067 144.602 120.667 144.201 120.667 143.801V136.002C120.667 135.601 121.067 135.203 121.466 135.203H129.267C129.666 135.203 130.066 135.603 130.066 136.002V143.801C130.267 144.199 129.867 144.602 129.267 144.602ZM122.268 142.801H128.269V136.8H122.268V142.801Z" fill="#112152"/>
<path d="M104.268 109.799H96.4682C96.0679 109.799 95.6696 109.399 95.6696 109V105.399C95.6696 104.999 96.0679 104.599 96.4682 104.599H104.268C104.668 104.599 105.066 104.999 105.066 105.399V109C105.267 109.401 104.867 109.799 104.268 109.799ZM97.2669 108H103.268V106.001H97.2669V108Z" fill="#112152"/>
<path d="M116.867 109.799H109.068C108.667 109.799 108.269 109.399 108.269 109V105.399C108.269 104.999 108.667 104.599 109.068 104.599H116.867C117.267 104.599 117.668 104.999 117.668 105.399V109C117.668 109.401 117.267 109.799 116.867 109.799ZM109.866 108H115.867V106.001H109.866V108Z" fill="#112152"/>
<path d="M129.267 109.799H121.466C121.067 109.799 120.667 109.399 120.667 109V105.399C120.667 104.999 121.067 104.599 121.466 104.599H129.267C129.666 104.599 130.066 104.999 130.066 105.399V109C130.267 109.401 129.867 109.799 129.267 109.799ZM122.268 108H128.269V106.001H122.268V108Z" fill="#112152"/>
<path d="M141.667 109.799H133.868C133.468 109.799 133.067 109.399 133.067 109V105.399C133.067 104.999 133.468 104.599 133.868 104.599H141.667C142.068 104.599 142.466 104.999 142.466 105.399V109C142.667 109.401 142.269 109.799 141.667 109.799ZM134.667 108H140.668V106.001H134.667V108Z" fill="#112152"/>
<path d="M138.268 94.3994C137.867 94.3994 137.469 93.999 137.469 93.5987V89.3983C137.469 88.9979 137.867 88.5996 138.268 88.5996C138.668 88.5996 139.066 88.9999 139.066 89.3983V93.5987C139.066 93.999 138.668 94.3994 138.268 94.3994Z" fill="#112152"/>
<path d="M133.266 94.3994C132.868 94.3994 132.468 93.999 132.468 93.5987V89.3983C132.468 88.9979 132.868 88.5996 133.266 88.5996C133.667 88.5996 134.067 88.9999 134.067 89.3983V93.5987C134.067 93.999 133.667 94.3994 133.266 94.3994Z" fill="#112152"/>
<path d="M128.267 94.3994C127.867 94.3994 127.467 93.999 127.467 93.5987V89.3983C127.467 88.9979 127.867 88.5996 128.267 88.5996C128.666 88.5996 129.066 88.9999 129.066 89.3983V93.5987C129.068 93.999 128.668 94.3994 128.267 94.3994Z" fill="#112152"/>
<path d="M123.268 94.3994C122.868 94.3994 122.47 93.999 122.47 93.5987V89.3983C122.47 88.9979 122.868 88.5996 123.268 88.5996C123.669 88.5996 124.067 88.9999 124.067 89.3983V93.5987C124.067 93.999 123.669 94.3994 123.268 94.3994Z" fill="#112152"/>
<path d="M118.267 94.3994C117.869 94.3994 117.468 93.999 117.468 93.5987V89.3983C117.468 88.9979 117.869 88.5996 118.267 88.5996C118.667 88.5996 119.066 88.9999 119.066 89.3983V93.5987C119.066 93.999 118.667 94.3994 118.267 94.3994Z" fill="#112152"/>
<path d="M91.6663 119.799C91.4652 119.799 91.266 119.598 91.0648 119.598C91.0648 119.598 91.0648 119.598 91.0648 119.399C91.0648 119.399 91.0649 119.399 90.8657 119.198C90.4654 118.797 89.8659 118.598 89.2644 118.198C88.8641 117.997 88.6649 117.397 88.8641 116.997C89.0652 116.597 89.6648 116.397 90.0651 116.597C90.8658 116.997 91.4652 117.395 91.8656 117.796L92.0668 117.997L92.2659 118.198L92.4671 118.399L92.6682 118.598C93.0686 118.999 93.0686 119.598 92.6682 119.799C92.0688 119.6 91.8675 119.799 91.6663 119.799Z" fill="#112152"/>
<path d="M92.0687 120.2C91.8675 120.2 91.4672 120 91.2681 119.799C91.0669 119.399 91.0668 118.799 91.4691 118.598C91.8695 118.399 92.469 118.399 92.6702 118.799C92.6702 118.799 92.6702 118.799 92.6702 118.999C92.8713 119.399 92.8713 120 92.469 120.2C92.469 120.2 92.2659 120.2 92.0687 120.2Z" fill="#112152"/>
<path d="M92.2658 120.6C91.8674 120.6 91.6663 120.399 91.4671 120.2V120C91.266 119.6 91.4671 118.999 91.8674 118.799C92.2658 118.598 92.8672 118.799 93.0664 119.2V119.401C93.2675 119.801 93.0664 120.401 92.6661 120.602C92.6661 120.602 92.4669 120.6 92.2658 120.6Z" fill="#112152"/>
<path d="M92.6661 121.6C92.2658 121.6 91.8675 121.199 91.8675 120.799V120.6V120.399V120.198C91.6663 119.797 91.8675 119.198 92.467 118.997C92.8673 118.797 93.4668 118.997 93.666 119.596C93.666 119.797 93.666 119.797 93.8672 119.996C93.8672 120.196 93.8672 120.196 93.8672 120.397C93.8672 120.598 93.8672 120.598 93.8672 120.797C93.4668 121.201 93.2676 121.6 92.6661 121.6Z" fill="#112152"/>
<path d="M92.6661 122.199C92.467 122.199 92.467 122.199 92.6661 122.199C92.0666 121.998 91.6663 121.6 91.8675 121.199C91.8675 120.799 92.2658 120.199 92.6661 120.199C93.0665 120.199 93.666 120.6 93.666 121V121.201V121.4C93.4668 121.801 93.0685 122.199 92.6661 122.199Z" fill="#112152"/>
<path d="M90.4673 124.999C90.2681 124.999 89.8678 124.8 89.6686 124.599C89.4675 124.199 89.4675 123.599 89.8698 123.398C90.8696 122.799 91.4692 121.998 91.6683 121.199C91.6683 120.799 92.0687 120.399 92.6682 120.399C93.0685 120.399 93.4668 120.799 93.4668 121.399V121.6C93.2677 122.801 92.4669 123.798 90.8676 124.8C90.8676 124.999 90.6685 124.999 90.4673 124.999Z" fill="#112152"/>
<path d="M92.6661 128.399C92.0666 128.399 91.6663 127.999 91.8675 127.399C91.8675 127.399 91.8675 127.399 91.8675 127.198C91.8675 126.798 92.2658 126.4 92.6661 126.4C93.0665 126.4 93.4648 126.8 93.4648 127.198C93.4648 127.399 93.4648 127.399 93.4648 127.599C93.4668 128.001 93.0685 128.399 92.6661 128.399Z" fill="#112152"/>
<path d="M92.6661 128.601C92.467 128.601 92.467 128.601 92.6661 128.601C92.0666 128.399 91.6663 128.001 91.8675 127.601C91.8675 127.2 92.2658 126.8 92.8673 126.8C93.2676 126.8 93.666 127.2 93.666 127.8C93.666 128.001 93.666 128.001 93.666 128.001C93.4668 128.2 93.0685 128.601 92.6661 128.601Z" fill="#112152"/>
<path d="M92.4671 128.8H92.2659C91.8675 128.599 91.4672 128.2 91.6663 127.8C91.6663 127.4 92.2658 127.001 92.6662 127.001C93.0665 127.001 93.4648 127.601 93.4648 128.001V128.202C93.4648 128.202 93.4648 128.202 93.4648 128.401C93.2677 128.601 92.8674 128.8 92.4671 128.8Z" fill="#112152"/>
<path d="M92.4671 129.001H92.2659C91.8675 128.801 91.4672 128.401 91.6663 127.8C91.8675 127.399 92.2658 127.001 92.6662 127.2C93.0665 127.401 93.4648 127.8 93.2677 128.2V128.399C93.2677 128.8 92.8674 129.001 92.4671 129.001Z" fill="#112152"/>
<path d="M92.2659 129.6C92.0667 129.6 91.8675 129.6 91.8675 129.401C91.4672 129.2 91.266 128.6 91.6663 128.2C91.8675 127.8 92.465 127.601 92.8674 127.601C93.2677 127.8 93.4669 128.2 93.4669 128.802C93.4669 128.802 93.4668 129.001 93.2677 129.001C93.2677 129.001 93.2676 129.202 93.0665 129.202C92.8673 129.401 92.467 129.6 92.2659 129.6Z" fill="#112152"/>
<path d="M92.0686 129.6C91.8675 129.6 91.6683 129.6 91.4672 129.401C91.0668 129.2 91.0668 128.6 91.266 128.2C91.4671 127.8 92.0667 127.6 92.467 127.999C92.8673 128.2 93.0685 128.799 92.6682 129.2C92.6682 129.2 92.6682 129.2 92.6682 129.401C92.6662 129.6 92.467 129.6 92.0686 129.6Z" fill="#112152"/>
<path d="M91.6662 130.2C91.4651 130.2 91.2659 130.2 91.0647 129.998C90.6664 129.598 90.6664 129.2 91.0647 128.799C91.0647 128.799 91.0648 128.799 91.2659 128.598C91.2659 128.598 91.266 128.598 91.4671 128.397C91.6683 127.997 92.2658 127.997 92.6681 128.198C93.0685 128.397 93.0684 128.997 92.8692 129.399C92.8692 129.399 92.8693 129.598 92.6681 129.598L92.467 129.799C92.2658 130 92.0686 130.2 91.6662 130.2Z" fill="#112152"/>
<path d="M91.266 130.6C91.0648 130.6 90.8677 130.399 90.6665 130.2C90.2662 129.799 90.4654 129.2 90.6665 128.999C90.6665 128.999 90.6664 128.999 90.8676 128.8C91.2659 128.399 91.8675 128.399 92.0686 128.8C92.467 129.2 92.467 129.799 92.0686 129.998L91.8675 130.198C91.8675 130.6 91.6663 130.6 91.266 130.6Z" fill="#112152"/>
<path d="M90.8676 131C90.6665 131 90.2662 130.799 90.067 130.6C89.6687 130.2 89.8679 129.6 90.2682 129.401C90.2682 129.401 90.4673 129.401 90.4673 129.2C90.8677 128.8 91.4672 128.999 91.6684 129.2C92.0687 129.6 91.8695 130.2 91.6684 130.401L91.4672 130.602C91.266 130.799 91.0668 131 90.8676 131Z" fill="#112152"/>
<path d="M90.4673 131.401C90.2681 131.401 89.8678 131.202 89.6686 131.001C89.4675 130.6 89.4675 130.001 89.8698 129.8C89.8698 129.8 89.8698 129.8 90.0689 129.8C90.4693 129.598 91.0689 129.598 91.268 129.999C91.4692 130.399 91.4692 130.999 91.0668 131.2C91.0668 131.2 90.8676 131.2 90.8676 131.399C90.6684 131.2 90.6685 131.401 90.4673 131.401Z" fill="#112152"/>
<path d="M92.6661 134.8C92.0666 134.8 91.6663 134.201 91.8675 133.801C91.8675 133.801 91.8675 133.801 91.8675 133.599C91.8675 133.199 92.2658 132.801 92.6661 132.801C93.0665 132.801 93.4648 133.201 93.4648 133.599C93.4648 133.801 93.4648 133.801 93.4648 134C93.4668 134.4 93.0685 134.8 92.6661 134.8Z" fill="#112152"/>
<path d="M92.6661 134.999C92.467 134.999 92.467 134.999 92.6661 134.999C92.0666 134.798 91.6663 134.4 91.8675 134C91.8675 133.599 92.2658 133.199 92.8673 133.199C93.2676 133.199 93.666 133.599 93.666 134.199V134.4C93.666 134.4 93.666 134.4 93.666 134.601C93.4668 134.8 93.0685 134.999 92.6661 134.999Z" fill="#112152"/>
<path d="M90.4673 137.8C90.2681 137.8 89.8678 137.599 89.6686 137.399C89.4675 136.999 89.4675 136.4 89.8698 136.198C90.8696 135.599 91.4692 134.997 91.6683 134.199V134C91.6683 133.599 92.2679 133.199 92.6682 133.199C93.0685 133.199 93.4668 133.798 93.4668 134.199C93.4668 134.4 93.4668 134.4 93.2676 134.599C92.8673 135.599 92.0686 136.599 90.8676 137.399C90.6684 137.599 90.6685 137.8 90.4673 137.8Z" fill="#112152"/>
<path d="M92.6661 141.2C92.0666 141.2 91.6663 140.6 91.8675 140.2C91.8675 140.2 91.8675 140.2 91.8675 140.001C91.8675 139.601 92.2658 139.2 92.6661 139.2C93.0665 139.2 93.4648 139.601 93.4648 140.001C93.4648 140.2 93.4648 140.2 93.4648 140.401C93.4668 140.8 93.0685 141.2 92.6661 141.2Z" fill="#112152"/>
<path d="M92.6661 141.401C92.467 141.401 92.467 141.401 92.6661 141.401C92.0666 141.2 91.6663 140.802 91.8675 140.401C91.8675 140.001 92.2658 139.601 92.8673 139.601C93.2676 139.601 93.666 140.001 93.666 140.6V140.802C93.666 140.802 93.666 140.802 93.666 141.003C93.4668 141.2 93.0685 141.401 92.6661 141.401Z" fill="#112152"/>
<path d="M92.467 146.4C92.0687 146.4 91.6683 146.199 91.6683 145.798C91.4672 145.199 90.8697 144.599 89.8698 143.998C89.6687 143.799 89.4695 143.598 89.4695 143.199C89.4695 142.801 89.6707 142.6 89.8698 142.399C90.6685 141.799 91.2679 141.399 91.4691 140.799C91.4691 140.799 91.4691 140.799 91.4691 140.598C91.4691 140.598 91.4691 140.598 91.4691 140.399V140.198C91.4691 139.798 92.0706 139.397 92.469 139.397C92.8693 139.397 93.2697 139.999 93.2697 140.397C93.2697 140.596 93.2697 140.596 93.0685 140.797V140.999V141.198C93.0685 141.198 93.0685 141.399 92.8673 141.399C92.6662 141.998 92.2658 142.399 91.6663 142.799C92.4649 143.398 92.8673 144.199 93.0664 144.799C93.2676 145.199 93.0664 145.798 92.4649 146C92.6661 146.4 92.6662 146.4 92.467 146.4Z" fill="#112152"/>
<path d="M92.4671 148.001H92.2659C91.8675 147.8 91.4672 147.402 91.6663 147.002V146.802C91.6663 146.402 92.0667 146.002 92.6662 146.002C93.0665 146.002 93.4648 146.402 93.4648 147.002V147.203V147.404C93.2677 147.8 92.8674 148.001 92.4671 148.001Z" fill="#112152"/>
<path d="M92.2658 148.601C92.0666 148.601 92.0666 148.601 91.8674 148.4C91.4671 148.198 91.266 147.599 91.4671 147.199C91.6683 146.798 92.2658 146.599 92.6681 146.599C93.0685 146.8 93.2696 147.4 93.2696 147.8C93.2696 147.8 93.2696 148.001 93.0684 148.001C93.0684 148.4 92.6661 148.601 92.2658 148.601Z" fill="#112152"/>
<path d="M92.2658 148.601C92.0666 148.601 91.8674 148.601 91.8674 148.4C91.4671 148.198 91.266 147.599 91.4671 147.199C91.4671 147.199 91.4671 147.199 91.4671 146.997C91.6683 146.597 92.2658 146.398 92.6681 146.597C93.0685 146.798 93.2696 147.398 93.0684 147.798V147.999C92.8673 148.601 92.4669 148.601 92.2658 148.601Z" fill="#112152"/>
<path d="M144.268 151.8H93.6679C92.2678 151.8 90.8697 151.2 89.8698 150.2C89.6687 149.999 89.6687 149.8 89.6687 149.4C89.6687 149.2 89.8698 148.8 90.067 148.8C90.4673 148.4 90.8677 148.201 91.0669 147.8C91.268 147.4 91.8674 147.201 92.2678 147.599C92.6681 147.8 92.8693 148.4 92.469 148.8L92.2678 149.001C92.0686 149.202 91.8695 149.402 91.8695 149.601C92.469 149.802 92.8693 150.001 93.6679 150.001H144.268C146.268 150.001 147.668 148.402 147.668 146.601V83.3995C147.668 81.599 146.067 79.9997 144.268 79.9997H125.268C124.868 79.9997 124.469 79.5994 124.469 79.201C124.469 78.8007 124.868 78.4004 125.268 78.4004H144.268C147.067 78.4004 149.467 80.8004 149.467 83.6007V146.8C149.467 149.4 147.266 151.8 144.268 151.8Z" fill="#112152"/>
<path d="M148.467 148.001H98.0676C97.6673 148.001 97.2669 147.601 97.2669 147.201C97.2669 146.8 97.6673 146.402 98.0676 146.402H148.467C148.867 146.402 149.268 146.802 149.268 147.201C149.268 147.599 148.867 148.001 148.467 148.001Z" fill="#112152"/>
<path d="M67.0672 116.2C66.866 116.2 66.6668 116.2 66.4677 116.001C66.2685 115.8 66.0674 115.601 66.0674 115.402V49.2003C66.0674 46.4 68.2661 44.2012 71.0684 44.2012H111.669C112.067 44.2012 112.467 44.6015 112.467 44.9998C112.467 45.4002 112.067 46.0016 111.669 46.0016H71.0684C69.2679 46.0016 67.8678 47.4018 67.8678 49.2003V114.201C68.2681 114.201 68.4693 113.999 68.8696 113.999C69.8694 113.798 70.8692 113.798 72.0702 113.599C72.0702 113.599 72.2714 113.599 72.4686 113.599C72.8689 113.599 73.4704 113.999 73.4704 114.398C73.4704 114.798 73.0701 115.4 72.6698 115.4H72.4705C71.4707 115.4 70.4709 115.599 69.4711 115.8C68.4673 115.8 67.8659 116.001 67.0672 116.2Z" fill="#112152"/>
<path d="M72.6657 115.4C72.2674 115.4 71.8671 114.999 71.8671 114.599C71.8671 114.199 72.2674 113.599 72.6657 113.599C72.8669 113.599 73.066 113.599 73.066 113.599C73.4664 113.599 74.0659 113.999 74.0659 114.398C74.0659 114.798 73.6656 115.4 73.2672 115.4C73.0681 115.4 72.8669 115.4 72.6657 115.4Z" fill="#112152"/>
<path d="M74.0678 115.4C73.6675 115.4 73.2692 114.999 73.2692 114.599C73.2692 114.199 73.6675 113.599 74.0678 113.599C74.269 113.599 74.2691 113.599 74.4683 113.599C74.8666 113.599 75.468 113.999 75.468 114.398C75.468 114.798 75.0677 115.4 74.6693 115.4C74.267 115.4 74.267 115.4 74.0678 115.4Z" fill="#112152"/>
<path d="M74.6674 115.4C74.2671 115.4 73.8668 114.999 73.8668 114.599C73.8668 114.199 74.2671 113.798 74.6674 113.798H75.0658C75.4661 113.798 75.8664 114.199 75.8664 114.599C75.8664 114.999 75.4661 115.4 75.0658 115.4H74.6674Z" fill="#112152"/>
<path d="M76.4679 115.4H76.0676C75.6692 115.4 75.2689 114.999 75.2689 114.398C75.2689 113.998 75.6692 113.398 76.2687 113.599H76.669C77.0674 113.599 77.4677 114 77.4677 114.599C77.2665 114.999 76.8682 115.4 76.4679 115.4Z" fill="#112152"/>
<path d="M77.4677 115.4C77.2665 115.4 77.0673 115.4 76.8682 115.4C76.4678 115.4 76.0676 114.999 76.0676 114.398C76.0676 113.798 76.4679 113.599 77.0674 113.599C77.2686 113.599 77.4677 113.599 77.4677 113.599C77.868 113.599 78.2664 113.999 78.2664 114.599C78.4675 114.999 78.0672 115.4 77.4677 115.4Z" fill="#112152"/>
<path d="M78.4676 115.4C78.2664 115.4 78.0692 115.4 77.868 115.4C77.4677 115.4 77.0674 114.999 77.0674 114.398C77.0674 113.997 77.4677 113.599 78.0692 113.599C78.2684 113.599 78.4675 113.599 78.6686 113.599C79.0689 113.599 79.4673 113.999 79.4673 114.599C79.4653 115.2 79.067 115.4 78.4676 115.4Z" fill="#112152"/>
<path d="M79.2682 115.599C79.067 115.599 79.067 115.599 79.2682 115.599C79.067 115.599 79.067 115.599 78.8678 115.599C78.4675 115.599 78.0692 115.198 78.0692 114.599C78.0692 114.199 78.4675 113.798 79.069 113.798C79.2702 113.798 79.2701 113.798 79.4673 113.798C79.8676 113.798 80.268 114.199 80.268 114.798C80.0668 115.2 79.6665 115.599 79.2682 115.599Z" fill="#112152"/>
<path d="M79.6665 115.599H79.2682C78.8678 115.599 78.4675 115.198 78.4675 114.599C78.4675 113.999 78.8678 113.798 79.4673 113.798H79.6685C80.0688 113.798 80.4692 114.199 80.4692 114.798C80.4672 115.2 80.0668 115.599 79.6665 115.599Z" fill="#112152"/>
<path d="M81.2679 115.8C81.0667 115.8 80.8674 115.8 80.8674 115.8C80.4691 115.8 80.0688 115.2 80.0688 114.8C80.0688 114.4 80.6683 114 81.0686 114C81.2698 114 81.2698 114 81.4689 114C81.8673 114 82.2676 114.599 82.2676 114.999C82.0664 115.4 81.6682 115.8 81.2679 115.8Z" fill="#112152"/>
<path d="M82.8652 116.001C82.4668 116.001 82.2657 116.001 82.0665 115.8C81.6682 115.8 81.2679 115.2 81.2679 114.8C81.2679 114.4 81.8673 114 82.2676 114C82.4667 114 82.8671 114 83.0662 114.201C83.4666 114.201 83.867 114.8 83.867 115.201C83.6678 115.599 83.2675 116.001 82.8652 116.001Z" fill="#112152"/>
<path d="M89.4676 118.001C89.2664 118.001 89.2663 118.001 89.0672 117.8C87.4678 117.001 85.4662 116.399 83.0662 115.8C82.6679 115.8 82.2676 115.2 82.2676 114.8C82.2676 114.4 82.8671 113.999 83.2674 113.999C85.2671 114.4 86.8684 114.8 88.4677 115.4V83.3993C88.4677 80.599 90.8677 78.1991 93.666 78.1991H124.266V58.8002C124.266 58.3998 124.666 57.9995 125.065 57.9995C125.465 57.9995 125.865 58.3998 125.865 58.8002V78.9997C125.865 79.4001 125.465 79.8004 125.065 79.8004H93.664C91.8656 79.8004 90.2642 81.3997 90.2642 83.2002V117.001C90.2642 117.401 90.063 117.6 89.8658 117.8C89.6686 118.001 89.6687 118.001 89.4676 118.001Z" fill="#112152"/>
<path d="M125.268 59.5989H115.668C112.87 59.5989 110.669 57.4001 110.669 54.5998V45C110.669 44.5996 110.868 44.4005 111.268 44.2013C111.669 44.0001 112.067 44.2013 112.268 44.4005L125.869 58.0016C126.069 58.2028 126.268 58.6011 126.069 59.0014C126.067 59.3998 125.668 59.5989 125.268 59.5989ZM112.467 47.2007V54.5998C112.467 56.4003 113.868 57.7984 115.668 57.7984H123.069L112.467 47.2007Z" fill="#112152"/>
<path d="M89.8679 53.4008H73.2672C72.8669 53.4008 72.4666 53.0005 72.4666 52.6002C72.4666 52.1998 72.8669 51.8015 73.2672 51.8015H89.8679C90.2662 51.8015 90.6666 52.2018 90.6666 52.6002C90.6685 53.0005 90.2662 53.4008 89.8679 53.4008Z" fill="#112152"/>
<path d="M100.868 57.5991H73.2692C72.8689 57.5991 72.4686 57.1988 72.4686 56.7985C72.4686 56.3981 72.8689 55.9978 73.2692 55.9978H101.069C101.469 55.9978 101.868 56.3981 101.868 56.7985C101.868 57.1988 101.467 57.5991 100.868 57.5991Z" fill="#112152"/>
<path d="M79.6665 75.8011C75.6672 75.8011 72.2674 72.6005 72.2674 68.4001C72.2674 64.4008 75.4661 61.001 79.6665 61.001C83.6678 61.001 87.0676 64.1996 87.0676 68.4001C86.8664 72.6005 83.6678 75.8011 79.6665 75.8011ZM79.6665 63.0006C76.6671 63.0006 74.0679 65.4006 74.0679 68.6012C74.0679 71.6007 76.4679 74.2018 79.6665 74.2018C82.668 74.2018 85.2671 71.8018 85.2671 68.6012C85.068 65.5998 82.668 63.0006 79.6665 63.0006Z" fill="#112152"/>
<path d="M75.2669 153.801C70.467 153.801 66.0673 153.202 62.6675 151.802C59.0666 150.402 57.067 148.603 57.067 146.402C57.067 145.402 57.4653 143.801 59.6661 142.401C59.8673 142.202 60.2676 142.202 60.6679 142.401C60.8671 142.602 61.0662 142.602 61.2674 142.801C61.6677 143 61.8689 143.6 61.6678 144C61.4666 144.401 60.8671 144.602 60.4667 144.401C60.4667 144.401 60.2676 144.401 60.2676 144.199C59.469 144.799 58.8675 145.6 58.8675 146.4C58.8675 148.999 65.6671 152.001 75.2669 152.001C82.4668 152.001 89.0672 150.2 91.0669 147.8C91.0669 147.8 91.0669 147.8 91.0669 147.599C91.0669 147.4 91.2681 147.4 91.2681 147.199V146.998V146.799V146.597C91.2681 146.398 91.2681 146.197 91.2681 145.998C91.0669 145.398 90.6685 144.998 90.069 144.399C89.6706 144.6 89.2704 144.799 88.6709 144.998C88.4697 144.998 88.2705 145.197 88.0694 145.197H87.8682C87.4699 145.398 86.8684 145.197 86.6673 144.598C86.4681 144.197 86.6673 143.598 87.2688 143.397H87.4698C87.669 143.397 87.8682 143.196 88.0694 143.196C88.6709 142.994 89.2684 142.596 89.6707 142.395C89.8719 142.196 90.2701 142.196 90.6705 142.395C91.8714 143.196 92.6701 144.195 93.0705 145.195C93.2716 145.596 93.2716 145.996 93.2716 146.396C93.2716 146.595 93.2716 146.797 93.2716 146.797C93.2716 146.797 93.2716 146.797 93.2716 146.996V147.197C93.2716 147.398 93.0705 147.597 93.0705 147.796C93.0705 147.796 93.0705 147.796 93.0705 147.998V148.197C93.0705 148.398 92.8693 148.597 92.6701 148.796C92.6701 148.796 92.6701 148.997 92.469 148.997C90.067 151.8 83.2675 153.801 75.2669 153.801Z" fill="#112152"/>
<path d="M86.0678 146C85.6674 146 85.2672 145.799 85.2672 145.4C85.068 145 85.4683 144.4 85.8686 144.199H86.0697H86.269C86.6673 143.998 87.2687 144.4 87.4699 144.799C87.669 145.199 87.2687 145.799 86.8684 146H86.6673H86.4681C86.2669 146 86.0678 146 86.0678 146Z" fill="#112152"/>
<path d="M84.6676 146.4C84.2673 146.4 83.869 146.199 83.869 145.799C83.6678 145.398 84.0702 144.799 84.4685 144.799C84.8688 144.799 85.07 144.6 85.2672 144.6H85.4682C85.6694 144.6 85.6695 144.6 85.8687 144.6C86.269 144.398 86.8685 144.799 87.0676 145.199C87.2688 145.599 86.8665 146.199 86.4661 146.4C86.267 146.4 86.2669 146.4 86.0678 146.4H85.8666C85.4663 146.4 85.2651 146.599 84.8667 146.599C84.8667 146.4 84.6676 146.4 84.6676 146.4Z" fill="#112152"/>
<path d="M80.4671 147.201C80.0668 147.201 79.6665 146.8 79.6665 146.402C79.6665 146.002 79.8676 145.402 80.4671 145.402L81.467 145.201C82.4668 145.002 83.4666 144.801 84.4664 144.602C84.8667 144.4 85.4663 144.801 85.4663 145.201C85.6674 145.601 85.265 146.201 84.8667 146.201C83.8669 146.402 82.8671 146.601 81.8653 146.8L80.4671 147.201C80.6663 147.201 80.6663 147.201 80.4671 147.201Z" fill="#112152"/>
<path d="M80.0668 147.201C79.6665 147.201 79.2682 146.8 79.2682 146.402C79.2682 146.002 79.6665 145.402 80.0668 145.402C80.268 145.402 80.268 145.402 80.4671 145.402C80.8655 145.402 81.467 145.604 81.467 146.203C81.467 146.603 81.2659 147.203 80.6664 147.203C80.4672 147.201 80.268 147.201 80.0668 147.201Z" fill="#112152"/>
<path d="M79.067 147.201C78.6666 147.201 78.2664 146.8 78.2664 146.402C78.2664 146.002 78.6666 145.402 79.067 145.402H79.2682H79.4673C79.8676 145.402 80.4692 145.803 80.4692 146.203C80.4692 146.603 80.0688 147.203 79.6685 147.203H79.4673C79.2681 147.201 79.067 147.201 79.067 147.201Z" fill="#112152"/>
<path d="M78.2664 147.4C77.868 147.4 77.4677 147 77.4677 146.599C77.4677 146.199 77.868 145.599 78.2664 145.599C78.4675 145.599 78.4675 145.599 78.6667 145.599C79.067 145.599 79.6665 146 79.6665 146.4C79.6665 146.8 79.2682 147.4 78.8679 147.4C78.6667 147.4 78.4675 147.4 78.2664 147.4Z" fill="#112152"/>
<path d="M77.4677 147.4C77.0674 147.4 76.669 147 76.669 146.599C76.669 146.199 77.0674 145.599 77.4677 145.599C77.6689 145.599 77.6688 145.599 77.868 145.599C78.2663 145.599 78.8679 146 78.8679 146.4C78.8679 146.8 78.4675 147.4 78.0692 147.4C77.868 147.4 77.6669 147.4 77.4677 147.4C77.6669 147.4 77.6669 147.4 77.4677 147.4Z" fill="#112152"/>
<path d="M76.8682 147.4C76.4678 147.4 76.0676 147 76.0676 146.599C76.0676 146.199 76.4678 145.599 76.8682 145.599C77.0673 145.599 77.2665 145.599 77.6668 145.599C78.0671 145.599 78.6667 146 78.6667 146.4C78.6667 146.8 78.2663 147.4 77.868 147.4C77.2665 147.4 77.0653 147.4 76.8682 147.4Z" fill="#112152"/>
<path d="M75.8684 147.4C75.4681 147.4 75.0677 147 75.0677 146.599C75.0677 146.199 75.4681 145.799 75.8684 145.799C76.0676 145.799 76.0675 145.799 76.2667 145.799H76.4659C77.0654 145.799 77.4658 146.199 77.4658 146.599C77.4658 147 77.0654 147.599 76.6671 147.599H76.4659C76.2667 147.4 76.0676 147.4 75.8684 147.4Z" fill="#112152"/>
<path d="M74.6674 147.4C74.4662 147.4 74.4663 147.4 74.2671 147.4H74.0659C73.6656 147.4 73.2672 147 73.2672 146.4C73.2672 146 73.6656 145.599 74.0659 145.599H74.2671C74.4663 145.599 74.4662 145.599 74.6674 145.599C75.0657 145.599 75.4661 146 75.4661 146.4C75.4681 146.8 75.2669 147.4 74.6674 147.4Z" fill="#112152"/>
<path d="M73.8668 147.4C73.6656 147.4 73.2673 147.4 73.0681 147.4C72.6678 147.4 72.2695 147 72.2695 146.4C72.2695 145.799 72.6677 145.599 73.2692 145.599C73.4703 145.599 73.6675 145.599 74.0678 145.599C74.4682 145.599 74.8665 146 74.8665 146.599C74.8665 147 74.4683 147.4 73.8668 147.4Z" fill="#112152"/>
<path d="M73.0681 147.4C72.867 147.4 72.8669 147.4 72.6677 147.4C72.2694 147.4 71.869 147 71.869 146.4C71.869 145.799 72.2694 145.599 72.8689 145.599C73.07 145.599 73.07 145.599 73.2692 145.599C73.6675 145.599 74.0679 146 74.0679 146.599C74.0679 147 73.6656 147.4 73.0681 147.4Z" fill="#112152"/>
<path d="M72.4666 147.4C72.2675 147.4 72.0682 147.4 71.8671 147.4C71.4668 147.4 71.0684 147 71.0684 146.4C71.0684 146 71.4668 145.599 72.0683 145.599C72.2694 145.599 72.2695 145.599 72.4666 145.599C72.867 145.599 73.2672 146 73.2672 146.599C73.2672 147 72.867 147.4 72.4666 147.4Z" fill="#112152"/>
<path d="M71.6659 147.201C71.4647 147.201 71.4648 147.201 71.4648 147.201H71.2637C70.8653 147.201 70.465 146.801 70.465 146.201C70.465 145.801 70.8654 145.4 71.4648 145.4H71.6659H71.8671C72.2674 145.4 72.6658 145.801 72.6658 146.4C72.6658 147 72.2674 147.201 71.6659 147.201Z" fill="#112152"/>
<path d="M70.6662 147.201H70.0666C69.6663 147.201 69.266 146.801 69.266 146.201C69.266 145.801 69.6663 145.4 70.2657 145.4H70.6662C71.0665 145.4 71.4648 145.801 71.4648 146.4C71.4668 146.801 71.0685 147.201 70.6662 147.201Z" fill="#112152"/>
<path d="M70.0686 147.201L68.8677 146.999C67.4675 146.8 66.0673 146.599 64.8663 146.201C64.466 146.201 64.265 146 63.8666 146C63.6655 146 63.6654 146 63.4662 145.798H63.2651C63.064 145.798 63.0639 145.798 62.8668 145.599C62.4664 145.398 62.0661 145 62.2653 144.398C62.4664 143.998 62.8667 143.598 63.4642 143.799C63.6654 143.799 63.6654 143.799 63.8646 143.998H64.0657C64.0657 143.998 64.2649 143.998 64.4641 143.998C64.6633 143.998 65.0655 144.199 65.2647 144.199C66.4637 144.599 67.6646 144.799 69.0628 145L70.0647 145.199C70.463 145.199 70.8634 145.798 70.8634 146.199C71.0685 146.8 70.6661 147.201 70.0686 147.201Z" fill="#112152"/>
<path d="M63.0658 145.4C62.8667 145.4 62.8666 145.4 62.6675 145.4C62.4663 145.4 62.4663 145.199 62.2672 145.199C61.8688 145 61.6677 144.401 61.8688 143.998C62.068 143.598 62.6676 143.399 63.0679 143.598C63.2691 143.598 63.269 143.598 63.4682 143.799C63.8685 143.998 64.0697 144.399 64.0697 145C63.6674 145.199 63.4662 145.4 63.0658 145.4Z" fill="#112152"/>
<path d="M61.6678 145C61.4666 145 61.4665 145 61.2673 145C61.0682 145 61.0663 145 61.0663 144.799C60.6679 144.398 60.4667 143.998 60.6679 143.598C60.8671 143.197 61.4665 142.998 61.8688 143.197C61.8688 143.197 62.0681 143.197 62.0681 143.399C62.4684 143.598 62.6695 144.197 62.4684 144.6C62.4664 144.801 62.0661 145 61.6678 145Z" fill="#112152"/>
<path d="M75.2669 147.4C75.0658 147.4 74.8666 147.4 74.6674 147.4C74.4662 147.4 74.4663 147.4 74.2671 147.4H74.0659C73.8647 147.4 73.8648 147.4 73.6656 147.4C73.4664 147.4 73.0661 147.4 72.8669 147.4C72.6658 147.4 72.6658 147.4 72.4666 147.4C72.2675 147.4 72.2674 147.4 72.0683 147.4C71.8671 147.4 71.668 147.4 71.668 147.4H71.4668C71.2656 147.4 71.2656 147.4 71.0684 147.4C70.8673 147.4 70.6681 147.4 70.4669 147.4C70.2658 147.4 70.0686 147.4 70.0686 147.4C70.0686 147.4 70.0687 147.4 69.8675 147.4C69.6664 147.4 69.4672 147.4 69.266 147.4C69.0649 147.4 68.8676 147.4 68.6665 147.4C67.2663 147.199 65.8662 147 64.6653 146.599C64.2649 146.599 64.0657 146.4 63.6654 146.4C63.4643 146.4 63.4643 146.4 63.2651 146.199C63.0639 146.199 63.0639 146.199 62.8667 145.998C62.6656 145.998 62.4664 145.797 62.4664 145.797C62.2653 145.797 62.2652 145.597 62.066 145.597C61.6677 145.396 61.4666 145.396 61.0663 145.197C61.0663 145.197 60.8651 145.197 60.8651 144.998C60.6659 144.998 60.4667 144.797 60.2656 144.797C58.6643 143.996 57.6645 142.996 57.2642 141.797C57.065 141.397 56.8658 140.797 56.8658 140.198C56.8658 138.798 57.6644 137.398 59.4669 136.199C59.6661 136 60.0664 136 60.4667 136.199C60.8651 136.4 61.0663 136.999 60.8651 137.4C60.6659 137.599 60.4667 137.8 60.2656 137.8C59.4669 138.399 58.6643 139.2 58.6643 140.2C58.6643 140.401 58.6642 140.6 58.8654 141.001C59.2657 141.799 60.0664 142.401 61.2654 143C61.4666 143 61.4665 143.201 61.6657 143.201C61.6657 143.201 61.8669 143.201 61.8669 143.403C62.0661 143.602 62.4664 143.602 62.6656 143.803C62.8667 143.803 62.8667 143.803 63.0639 144.002C63.2651 144.002 63.2651 144.203 63.4642 144.203C63.6634 144.203 63.6654 144.203 63.8645 144.404C64.0657 144.404 64.0657 144.404 64.2629 144.606C64.464 144.606 64.8643 144.805 65.0635 144.805C66.2645 145.205 67.4635 145.404 68.8637 145.605C69.0628 145.605 69.262 145.605 69.4632 145.605C69.6644 145.605 69.8635 145.605 70.0647 145.605C70.2639 145.605 70.4629 145.605 70.4629 145.605C70.6621 145.605 70.8633 145.605 71.0644 145.605C71.2636 145.605 71.2636 145.605 71.4628 145.605H71.664C71.8651 145.605 72.0643 145.605 72.0643 145.605C72.2654 145.605 72.2654 145.605 72.4626 145.605C72.6618 145.605 72.6618 145.605 72.8629 145.605C73.0641 145.605 73.2633 145.605 73.6616 145.605C73.8627 145.605 73.8627 145.605 74.0619 145.605H74.2631C74.4622 145.605 74.4622 145.605 74.6634 145.605C75.0617 145.605 75.4621 145.605 75.8644 145.605C76.0636 145.605 76.0636 145.605 76.2628 145.605H76.4619C76.6631 145.605 76.663 145.605 76.8622 145.605C77.0614 145.605 77.4617 145.605 77.6609 145.605C77.862 145.605 77.862 145.605 78.0612 145.605C78.2603 145.605 78.2604 145.605 78.4595 145.605C78.6587 145.605 78.8598 145.605 78.8598 145.605H79.061C79.2622 145.605 79.2622 145.605 79.4594 145.605C79.6605 145.605 79.8597 145.605 80.0609 145.605C80.262 145.605 80.4612 145.605 80.4612 145.605C80.6603 145.605 80.8596 145.605 81.0607 145.605C81.2619 145.605 81.461 145.605 81.6622 145.605C82.662 145.404 83.6618 145.205 84.6616 145.006C84.8628 145.006 85.2611 144.805 85.4603 144.805C85.6595 144.805 85.6614 144.805 85.8606 144.606C86.0618 144.606 86.0617 144.606 86.2609 144.404C86.8604 144.203 87.2608 144.004 87.6591 143.805H87.8603C88.0615 143.805 88.2606 143.604 88.4618 143.604C90.0611 142.805 91.0608 142.004 91.6603 141.204V141.005V140.803V140.602C91.6603 140.602 91.6603 140.602 91.6603 140.403C91.6603 139.602 91.0588 138.802 90.2602 138.204C90.059 138.403 89.8618 138.403 89.4615 138.605C89.0612 138.804 88.4618 138.605 88.2606 138.204C88.0594 137.804 88.2606 137.204 88.6609 137.003C89.0592 136.802 89.4596 136.603 89.6608 136.404C90.0591 136.203 90.2603 136.203 90.6606 136.404C92.8594 137.804 93.2617 139.403 93.2617 140.403C93.2617 140.602 93.2617 140.602 93.2617 140.803V141.005C93.2617 141.005 93.2617 141.005 93.2617 141.204C93.2617 141.405 93.2616 141.405 93.0605 141.604V141.803V142.004C93.0605 142.004 93.0605 142.004 93.0605 142.206C92.459 143.407 91.0589 144.404 89.0593 145.404C88.8581 145.404 88.6609 145.605 88.4597 145.605H88.2585C87.8582 145.805 87.2588 146.006 86.6573 146.205C86.4581 146.205 86.4581 146.205 86.259 146.404C86.0598 146.404 85.8587 146.404 85.8587 146.605C85.6575 146.605 85.2571 146.806 84.8588 146.806C83.859 147.006 82.8591 147.207 81.8573 147.406C81.6581 147.406 81.459 147.406 81.2579 147.406C81.0567 147.406 80.8576 147.406 80.6564 147.406C80.6564 147.406 80.6563 147.406 80.4572 147.406C80.256 147.406 80.0569 147.406 80.0569 147.406C79.8557 147.406 79.6566 147.406 79.4574 147.406C79.2563 147.406 79.2562 147.406 79.057 147.406H78.8559C78.6548 147.406 78.4555 147.406 78.4555 147.406C78.2544 147.406 78.2545 147.406 78.0573 147.406C77.8561 147.406 77.856 147.406 77.6569 147.406C77.4557 147.406 77.0554 147.406 76.8582 147.406C76.657 147.406 76.6571 147.406 76.4579 147.406H76.2588C76.0576 147.406 76.0576 147.406 75.8604 147.406C75.8684 147.4 75.4681 147.4 75.2669 147.4Z" fill="#112152"/>
<path d="M88.6689 138.601C88.2685 138.601 88.0673 138.399 87.8681 138.001C87.667 137.601 87.8681 137.001 88.2684 136.8H88.4696C88.868 136.599 89.4695 136.8 89.6707 137.2C89.8718 137.601 89.6706 138.2 89.2702 138.401C89.2702 138.401 89.0692 138.401 89.0692 138.603C89.0692 138.603 88.866 138.601 88.6689 138.601Z" fill="#112152"/>
<path d="M86.0678 139.6C85.6674 139.6 85.2672 139.399 85.2672 139.001C85.068 138.601 85.4683 138.001 85.8686 137.8H86.0697H86.269C86.8684 137.599 87.2687 137.4 87.8682 137.2C88.2686 137.001 88.8681 137.2 89.0693 137.601C89.2704 138.001 89.0692 138.601 88.6709 138.802C88.0694 139.003 87.6691 139.202 87.0696 139.401H86.8684H86.6673C86.267 139.6 86.0678 139.6 86.0678 139.6Z" fill="#112152"/>
<path d="M80.0668 140.8C79.6665 140.8 79.2682 140.399 79.2682 140.001C79.2682 139.601 79.6665 139.001 80.0668 139.001C80.4671 139.001 80.8655 139.001 81.0667 138.802C81.2678 138.802 81.467 138.802 81.6682 138.802C83.2675 138.601 84.6676 138.202 85.8666 137.802C86.2669 137.601 86.8664 138.003 87.0655 138.402C87.2667 138.802 86.8644 139.401 86.464 139.603C85.0659 140.003 83.4646 140.403 81.8633 140.602C81.6641 140.602 81.465 140.602 81.2638 140.602C80.8675 140.6 80.4671 140.8 80.0668 140.8Z" fill="#112152"/>
<path d="M79.067 140.799C78.6666 140.799 78.2664 140.399 78.2664 140.001C78.2664 139.6 78.6666 139.001 79.067 139.001H79.4653C79.8657 139.001 80.4671 139.401 80.4671 139.802C80.4671 140.202 80.0668 140.801 79.6665 140.801L79.067 140.799Z" fill="#112152"/>
<path d="M78.2664 141.001C77.868 141.001 77.4677 140.6 77.4677 140.2C77.4677 139.8 77.868 139.2 78.2664 139.2C78.4675 139.2 78.4675 139.2 78.6667 139.2C79.067 139.2 79.6665 139.601 79.6665 140.001C79.6665 140.401 79.2682 141.001 78.8679 141.001C78.6667 141.001 78.4675 141.001 78.2664 141.001Z" fill="#112152"/>
<path d="M77.4677 141.001C77.0674 141.001 76.669 140.6 76.669 140.2C76.669 139.8 77.0674 139.2 77.4677 139.2C77.6689 139.2 77.6688 139.2 77.868 139.2C78.2663 139.2 78.8679 139.601 78.8679 140.001C78.8679 140.401 78.4675 141.001 78.0692 141.001C77.868 141.001 77.6669 141.001 77.4677 141.001C77.6669 141.001 77.6669 141.001 77.4677 141.001Z" fill="#112152"/>
<path d="M76.8682 141.001C76.4678 141.001 76.0676 140.6 76.0676 140.2C76.0676 139.8 76.4678 139.2 76.8682 139.2C77.0673 139.2 77.4677 139.2 77.6668 139.2C78.0671 139.2 78.6667 139.601 78.6667 140.001C78.6667 140.401 78.2663 141.001 77.868 141.001C77.2665 141.001 77.0653 141.001 76.8682 141.001Z" fill="#112152"/>
<path d="M75.8684 141C75.4681 141 75.0677 140.6 75.0677 140.2C75.0677 139.799 75.4681 139.399 75.8684 139.399C76.0676 139.399 76.0675 139.399 76.2667 139.399H76.4659C77.0654 139.399 77.4658 139.799 77.4658 140.2C77.4658 140.6 77.0654 141.2 76.6671 141.2H76.4659C76.2667 141 76.0676 141 75.8684 141Z" fill="#112152"/>
<path d="M74.6674 141.001C74.4662 141.001 74.4663 141.001 74.2671 141.001H74.0659C73.6656 141.001 73.2672 140.6 73.2672 140.001C73.2672 139.601 73.6656 139.2 74.0659 139.2H74.2671C74.4663 139.2 74.4662 139.2 74.6674 139.2C75.0657 139.2 75.4661 139.601 75.4661 140.001C75.4681 140.401 75.2669 141.001 74.6674 141.001Z" fill="#112152"/>
<path d="M73.8668 141.001C73.6656 141.001 73.2673 141.001 73.0681 141.001C72.6678 141.001 72.2695 140.6 72.2695 140.001C72.2695 139.601 72.6677 139.2 73.2692 139.2C73.4703 139.2 73.6675 139.2 74.0678 139.2C74.4682 139.2 74.8665 139.601 74.8665 140.2C74.8665 140.6 74.4683 141.001 73.8668 141.001Z" fill="#112152"/>
<path d="M73.0681 141.001C72.867 141.001 72.8669 141.001 72.6677 141.001C72.2694 141.001 71.869 140.6 71.869 140.001C71.869 139.399 72.2694 139.2 72.8689 139.2C73.07 139.2 73.07 139.2 73.2692 139.2C73.6675 139.2 74.0679 139.601 74.0679 140.2C74.0679 140.6 73.6656 141.001 73.0681 141.001Z" fill="#112152"/>
<path d="M72.4666 141.001C72.2675 141.001 72.0682 141.001 71.8671 141.001C71.4668 141.001 71.0684 140.6 71.0684 140.001C71.0684 139.601 71.4668 139.2 72.0683 139.2C72.2694 139.2 72.2695 139.2 72.4666 139.2C72.867 139.2 73.2672 139.601 73.2672 140.2C73.2672 140.6 72.867 141.001 72.4666 141.001Z" fill="#112152"/>
<path d="M71.6659 140.799H71.2656C70.8673 140.799 70.4669 140.399 70.4669 139.8C70.4669 139.399 70.8673 138.999 71.4668 138.999H71.8671C72.2674 138.999 72.6658 139.399 72.6658 139.999C72.6658 140.6 72.2674 140.799 71.6659 140.799Z" fill="#112152"/>
<path d="M70.6661 140.8C70.2658 140.8 69.8674 140.8 69.4671 140.598C69.2659 140.598 69.0668 140.598 68.8676 140.598C66.0673 140.198 63.4662 139.399 61.4666 138.599C61.2654 138.398 61.0662 138.398 60.8651 138.198C60.4667 137.997 60.2656 137.398 60.4667 136.997C60.6679 136.597 61.2654 136.398 61.6677 136.597C61.8689 136.597 62.066 136.798 62.2672 136.798C64.0676 137.599 66.4676 138.198 69.2679 138.599C69.4691 138.599 69.6683 138.599 69.8694 138.599C70.2678 138.599 70.6681 138.599 70.8693 138.8C71.2676 138.8 71.6679 139.2 71.6679 139.8C71.4668 140.401 71.0685 140.8 70.6661 140.8Z" fill="#112152"/>
<path d="M61.0663 138.2C60.8652 138.2 60.668 138.2 60.668 137.999H60.4668C60.4668 137.999 60.2676 137.798 60.0665 137.798C59.6661 137.597 59.4669 136.999 59.8653 136.597C60.0664 136.197 60.666 135.997 61.0663 136.398L61.2674 136.597C61.2674 136.597 61.2674 136.597 61.4686 136.597H61.6697C62.0681 136.798 62.2693 137.398 62.0681 137.798C61.6678 138.001 61.4666 138.2 61.0663 138.2Z" fill="#112152"/>
<path d="M75.2669 141.001C75.0658 141.001 74.8666 141.001 74.6674 141.001C74.6674 141.001 74.4663 141.001 74.2671 141.001H74.0659C73.8647 141.001 73.8648 141.001 73.6656 141.001C73.4664 141.001 73.0661 141.001 72.8669 141.001C72.6658 141.001 72.6658 141.001 72.4666 141.001C72.2675 141.001 72.2674 141.001 72.0683 141.001C71.8671 141.001 71.668 141.001 71.668 141.001H71.4668C71.2656 141.001 71.2656 141.001 71.0684 141.001C70.8673 141.001 70.6681 141.001 70.4669 141.001C70.0686 141.001 69.8675 141.001 69.266 140.8C69.0649 140.8 68.8676 140.8 68.6665 140.8C65.8662 140.399 63.265 139.599 61.2654 138.8C61.0642 138.599 60.865 138.599 60.6659 138.4H60.4648C60.666 137.999 60.4648 137.999 60.4648 137.999C60.2656 137.999 60.2656 137.798 60.0645 137.798C60.0645 137.798 59.8633 137.798 59.8633 137.597C57.6645 136.197 57.0649 134.597 57.0649 133.598C57.0649 132.998 57.2642 132.198 57.6645 131.598C57.8656 131.198 58.4651 130.999 58.8654 131.397C59.2657 131.598 59.4669 132.198 59.0666 132.598C58.8654 132.998 58.6663 133.197 58.6663 133.598C58.6663 134.597 59.6661 135.597 60.4667 135.998C60.4667 135.998 60.4668 135.998 60.6679 135.998L60.867 136.197C60.867 136.197 61.0682 136.197 61.0682 136.398H61.2694C61.4706 136.398 61.6697 136.597 61.8709 136.597C63.6694 137.398 66.0694 138.198 68.8717 138.398C69.0708 138.398 69.2699 138.398 69.4711 138.398C69.8714 138.398 70.2698 138.398 70.4709 138.599C70.6701 138.599 70.8713 138.599 71.0724 138.599C71.2716 138.599 71.2716 138.599 71.4708 138.599H71.6719C71.873 138.599 72.0723 138.599 72.0723 138.599C72.2734 138.599 72.2733 138.599 72.4705 138.599C72.6697 138.599 72.6698 138.599 72.8709 138.599C73.0721 138.599 73.2713 138.599 73.6696 138.599C73.8708 138.599 73.8707 138.599 74.0699 138.599H74.2711C74.4703 138.599 74.4702 138.599 74.6714 138.599C75.0697 138.599 75.47 138.599 75.8723 138.599C76.0715 138.599 76.0715 138.599 76.2707 138.599H76.4699C76.6711 138.599 76.671 138.599 76.8702 138.599C77.0694 138.599 77.4697 138.599 77.6689 138.599C77.87 138.599 77.87 138.599 78.0692 138.599C78.2684 138.599 78.2684 138.599 78.4675 138.599C78.6667 138.599 78.8678 138.599 78.8678 138.599H79.069C79.2702 138.599 79.2701 138.599 79.4673 138.599C79.6684 138.599 79.8676 138.599 80.0688 138.599C80.4691 138.599 80.6683 138.599 81.0686 138.398C81.2698 138.398 81.4689 138.398 81.6701 138.398C83.2694 138.198 84.6696 137.798 85.8686 137.398C86.0698 137.398 86.0698 137.398 86.2689 137.197C86.8684 136.997 87.2687 136.796 87.8682 136.597C88.0693 136.597 88.2685 136.398 88.4697 136.398H88.6709L88.87 136.197C90.4713 135.396 91.4711 134.597 91.6703 133.596V133.397C91.6703 132.397 90.8716 131.596 90.069 131.198C89.8698 131.198 89.6707 130.997 89.4695 130.797C89.2684 130.397 89.4695 129.798 89.8698 129.596C90.2682 129.397 90.4694 129.397 90.8697 129.596C93.0685 130.997 93.4688 132.596 93.4688 133.596C93.4688 133.797 93.4688 133.797 93.4688 133.996V134.195C93.4688 134.195 93.4688 134.195 93.4688 134.396C93.4688 134.597 93.4689 134.597 93.2697 134.797C92.8694 136.197 91.4692 137.398 89.4695 138.398L89.2683 138.599C89.2683 138.599 89.0672 138.599 89.0672 138.798C88.866 138.798 88.6689 138.999 88.4677 138.999C87.8662 139.2 87.4679 139.399 86.8664 139.599C86.6652 139.599 86.6653 139.599 86.4661 139.8C85.0679 140.2 83.4666 140.598 81.8653 140.8C81.6662 140.8 81.4669 140.8 81.2658 140.8C80.8655 140.8 80.4671 140.8 80.0668 141.001C79.8657 141.001 79.6665 141.001 79.4653 141.001C79.2662 141.001 79.2661 141.001 79.067 141.001H78.8658C78.6646 141.001 78.4655 141.001 78.4655 141.001C78.2643 141.001 78.2643 141.001 78.0671 141.001C77.866 141.001 77.866 141.001 77.6668 141.001C77.4657 141.001 77.0653 141.001 76.8682 141.001C76.667 141.001 76.667 141.001 76.4678 141.001H76.2687C76.0676 141.001 76.0675 141.001 75.8704 141.001C75.8684 141.001 75.4681 141.001 75.2669 141.001Z" fill="#112152"/>
<path d="M81.2679 134.199C80.8675 134.199 80.4692 133.799 80.4692 133.4C80.4692 133 80.6684 132.4 81.2679 132.4C82.0665 132.199 82.8672 132.199 83.4667 132C85.068 131.6 86.4661 131.202 87.6651 130.799C88.4657 130.6 89.0652 130.2 89.6667 129.799C89.8679 129.799 89.8679 129.598 90.0651 129.598C90.4654 129.399 91.0649 129.399 91.264 129.799C91.4652 130.2 91.4652 130.799 91.0629 131C90.8637 131.202 90.6645 131.202 90.6645 131.202C90.063 131.602 89.2643 132 88.4657 132.201C87.2647 132.801 85.6654 133.201 84.0661 133.402C83.0663 134 82.2677 134.199 81.2679 134.199Z" fill="#112152"/>
<path d="M79.6665 134.4C79.2682 134.4 78.8679 134 78.8679 133.6C78.8679 133.199 79.2682 132.6 79.6665 132.6C79.8677 132.6 79.8677 132.6 80.0668 132.6C80.4672 132.6 81.0667 133 81.0667 133.401C81.0667 133.801 80.6663 134.4 80.268 134.4C80.0669 134.4 79.8677 134.4 79.6665 134.4Z" fill="#112152"/>
<path d="M79.067 134.4C78.6666 134.4 78.2664 134 78.2664 133.6C78.2664 133.199 78.6666 132.6 79.067 132.6C79.2681 132.6 79.2681 132.6 79.4653 132.6C79.8657 132.6 80.4671 133 80.4671 133.401C80.4671 133.801 80.0668 134.4 79.6665 134.4C79.2682 134.4 79.2681 134.4 79.067 134.4Z" fill="#112152"/>
<path d="M77.4677 134.599C77.0674 134.599 76.669 134.199 76.669 133.799C76.669 133.398 77.0674 132.799 77.4677 132.799C77.6689 132.799 77.6688 132.799 77.868 132.799C78.2663 132.799 78.8679 133.199 78.8679 133.597C78.8679 133.998 78.4675 134.597 78.0692 134.597C77.868 134.599 77.6669 134.599 77.4677 134.599C77.6669 134.599 77.6669 134.599 77.4677 134.599Z" fill="#112152"/>
<path d="M76.8682 134.599C76.4678 134.599 76.0676 134.199 76.0676 133.799C76.0676 133.398 76.4678 132.799 76.8682 132.799C77.0673 132.799 77.4677 132.799 77.6668 132.799C78.0671 132.799 78.6667 133.199 78.6667 133.597C78.6667 133.998 78.2663 134.597 77.868 134.597C77.2665 134.599 77.0653 134.599 76.8682 134.599Z" fill="#112152"/>
<path d="M75.8684 134.599C75.4681 134.599 75.0677 134.199 75.0677 133.799C75.0677 133.398 75.4681 132.998 75.8684 132.998C76.0676 132.998 76.0675 132.998 76.2667 132.998H76.4659C76.8662 132.998 77.2646 133.398 77.2646 133.799C77.2646 134.199 76.8662 134.799 76.4659 134.799H76.2667C76.2667 134.599 76.0676 134.599 75.8684 134.599Z" fill="#112152"/>
<path d="M74.6674 134.599C74.4662 134.599 74.4663 134.599 74.2671 134.599H74.0659C73.6656 134.599 73.2672 134.199 73.2672 133.599C73.2672 133.199 73.6656 132.801 74.0659 132.801H74.2671C74.4663 132.801 74.4662 132.801 74.6674 132.801C75.0657 132.801 75.4661 133.201 75.4661 133.599C75.4681 134 75.2669 134.599 74.6674 134.599Z" fill="#112152"/>
<path d="M73.8668 134.599C73.6656 134.599 73.2673 134.599 73.0681 134.599C72.6678 134.599 72.2695 134.199 72.2695 133.599C72.2695 133.199 72.6677 132.801 73.2692 132.801C73.4703 132.801 73.6675 132.801 74.0678 132.801C74.4682 132.801 74.8665 133.201 74.8665 133.801C74.8665 134.199 74.4683 134.599 73.8668 134.599Z" fill="#112152"/>
<path d="M73.0681 134.599C72.867 134.599 72.6677 134.599 72.6677 134.599C72.2694 134.599 71.869 134.199 71.869 133.599C71.869 133.199 72.2694 132.801 72.8689 132.801C73.07 132.801 73.07 132.801 73.2692 132.801C73.6675 132.801 74.0679 133.201 74.0679 133.801C74.0679 134.199 73.6656 134.599 73.0681 134.599Z" fill="#112152"/>
<path d="M71.6659 134.4C71.4647 134.4 71.2656 134.4 71.2656 134.4C70.8673 134.4 70.4669 134 70.4669 133.401C70.4669 133 70.8673 132.6 71.4668 132.6C71.6679 132.6 71.6679 132.6 71.8671 132.6C72.2674 132.6 72.6658 133 72.6658 133.6C72.6658 134.199 72.2674 134.4 71.6659 134.4Z" fill="#112152"/>
<path d="M71.0684 134.4C70.8673 134.4 70.6681 134.4 70.4669 134.4C70.0686 134.4 69.6683 134 69.6683 133.401C69.6683 133 70.0686 132.6 70.6681 132.6C70.8693 132.6 70.8693 132.6 71.0684 132.6C71.4668 132.6 71.8671 133 71.8671 133.6C71.8671 134 71.4668 134.4 71.0684 134.4Z" fill="#112152"/>
<path d="M69.4671 134.199C68.4673 134 67.6687 134 67.0673 133.799C66.8661 133.799 66.866 133.799 66.6668 133.799C66.0673 133.598 65.4659 133.598 64.8684 133.399C64.4681 133.399 64.2669 133.197 63.8686 133.197C63.6674 133.197 63.6675 133.197 63.4683 132.996C63.2671 132.996 63.0679 132.797 62.8687 132.797C62.6676 132.797 62.6676 132.797 62.4684 132.596C62.0681 132.397 61.869 131.795 62.0681 131.395C62.2693 130.995 62.8687 130.795 63.269 130.995H63.4702C63.6714 130.995 63.8706 131.196 64.0717 131.196H64.271C64.4721 131.196 64.8724 131.395 65.2728 131.395C65.8723 131.596 66.2725 131.596 66.872 131.795C67.0732 131.795 67.0732 131.795 67.2723 131.795C68.071 131.996 68.6725 131.996 69.4712 132.196C69.8715 132.196 70.2698 132.795 70.2698 133.195C70.2658 133.801 69.8675 134.199 69.4671 134.199Z" fill="#112152"/>
<path d="M62.8687 132.6H62.6675C62.4663 132.6 62.4663 132.6 62.2672 132.401C61.8688 132.199 61.6677 131.6 61.8688 131.2C62.068 130.799 62.6676 130.6 63.0679 130.799H63.269C63.6693 131 64.0696 131.399 63.8705 132C63.4661 132.401 63.267 132.6 62.8687 132.6Z" fill="#112152"/>
<path d="M62.066 132.199C61.8668 132.199 61.8669 132.199 61.6677 132.199C61.6677 132.199 61.4665 132.199 61.4665 132C61.0662 131.799 60.8651 131.202 61.0662 130.799C61.2674 130.399 61.8668 130.2 62.2671 130.399H62.4683C62.8687 130.6 63.0678 131.2 62.8686 131.6C62.6675 132 62.4663 132.199 62.066 132.199Z" fill="#112152"/>
<path d="M58.4671 133C58.268 133 58.0667 133 58.0667 132.801C57.6664 132.6 57.4653 132 57.8656 131.602C58.266 131.002 59.0666 130.202 59.8652 129.602C60.0664 129.403 60.6659 129.403 60.8651 129.602C61.0662 129.803 61.2654 129.803 61.4666 130.003C61.4666 130.003 61.4666 130.003 61.6677 130.003H61.8688C62.2671 130.204 62.4683 130.803 62.2672 131.204C62.066 131.604 61.4686 131.803 61.0662 131.604H60.8651C60.8651 131.604 60.865 131.604 60.6658 131.604C60.2655 132.004 59.8652 132.405 59.664 132.604C59.0665 132.801 58.8675 133 58.4671 133Z" fill="#112152"/>
<path d="M75.2669 134.599C75.0658 134.599 74.8666 134.599 74.6674 134.599C74.4662 134.599 74.4663 134.599 74.2671 134.599H74.0659C73.8647 134.599 73.8648 134.599 73.6656 134.599C73.4664 134.599 73.0661 134.599 72.8669 134.599H72.4666C72.0683 134.599 71.6679 134.599 71.4668 134.599C71.2656 134.599 71.2656 134.599 71.0684 134.599H70.8672C70.6661 134.599 70.6661 134.599 70.4669 134.599C70.0686 134.599 69.6683 134.599 69.266 134.398C68.4674 134.197 67.6667 134.197 66.866 133.998H66.6648H66.4657C65.8642 133.797 65.2667 133.797 64.6653 133.598C64.2649 133.598 64.0657 133.398 63.6654 133.197L63.2651 132.996C63.0639 132.996 62.8667 132.797 62.6656 132.797H62.4644C62.4644 132.797 62.2632 132.797 62.2632 132.596C62.062 132.596 61.8649 132.397 61.6638 132.397C61.6638 132.397 61.4626 132.397 61.4626 132.195C61.2614 131.996 61.0622 131.996 60.8611 131.795C60.8611 131.795 60.662 131.795 60.662 131.596C60.4608 131.395 60.2616 131.395 60.0605 131.196C58.4612 130.196 57.6604 128.995 57.4593 127.595C57.4593 127.393 57.4593 127.393 57.4593 127.194C57.4593 126.194 57.8597 124.794 60.0605 123.195C60.4608 122.996 60.662 122.996 61.0603 123.195C63.06 124.595 66.6608 125.595 70.6601 125.995C71.0604 125.995 71.4588 125.995 71.8611 126.196C72.0623 126.196 72.2615 126.196 72.4607 126.196C72.861 126.196 73.2613 126.597 73.2613 127.196C73.2613 127.597 72.8609 127.997 72.2614 127.997C72.0603 127.997 71.8611 127.997 71.4608 127.997C71.0625 127.997 70.6622 127.997 70.2619 127.796C66.2626 127.395 62.6635 126.396 60.4627 124.996C59.8612 125.595 59.0626 126.196 59.0626 126.995V127.194C59.0626 128.194 60.0624 128.995 60.8611 129.395C61.0622 129.594 61.2614 129.594 61.4626 129.795C61.4626 129.795 61.6638 129.795 61.6638 129.995C61.8649 130.194 62.062 130.194 62.2632 130.395H62.4644C62.6655 130.395 62.8647 130.596 63.0639 130.596H63.2651L63.4662 130.795C63.6673 130.795 63.8665 130.996 64.0677 130.996L64.466 131.198C64.6652 131.198 65.0675 131.397 65.4659 131.397C66.0673 131.598 66.4677 131.598 67.0672 131.797H67.4675C68.2662 131.998 68.8677 131.998 69.6663 132.197C70.0666 132.197 70.4649 132.399 70.8672 132.399C71.0684 132.399 71.0684 132.399 71.2656 132.399C71.4668 132.399 71.4668 132.399 71.4668 132.399C71.6679 132.399 71.6679 132.399 71.8671 132.399C72.2674 132.399 72.4666 132.399 72.8669 132.399H73.2672C73.4684 132.399 73.6656 132.399 74.0659 132.399C74.2671 132.399 74.267 132.399 74.4662 132.399H74.6674C74.8666 132.399 74.8666 132.399 75.0657 132.399C75.4661 132.399 75.8663 132.399 76.2667 132.399C76.4658 132.399 76.4659 132.399 76.6671 132.399H76.8682C77.0673 132.399 77.0673 132.399 77.2665 132.399C77.4657 132.399 77.868 132.399 78.0671 132.399H78.4655C78.8658 132.399 79.067 132.399 79.4653 132.399C79.6665 132.399 79.6665 132.399 79.8656 132.399C80.0668 132.399 80.0668 132.399 80.0668 132.399C80.268 132.399 80.268 132.399 80.4671 132.399C80.8655 132.399 81.2658 132.399 81.6682 132.197C82.4668 131.998 83.2675 131.998 83.867 131.797C85.4663 131.397 86.8664 130.998 88.0654 130.598C88.864 130.397 89.4656 129.999 90.0651 129.598C90.2662 129.598 90.2662 129.399 90.4654 129.399C90.4654 129.399 90.6666 129.399 90.6666 129.198C90.8677 129.198 90.8676 128.997 91.0648 128.997C91.0648 128.997 91.0648 128.997 91.266 128.798L91.4672 128.596C91.4672 128.596 91.4672 128.596 91.6683 128.395L91.8695 128.196C91.8695 128.196 91.8694 128.196 92.0706 127.995C92.0706 127.995 92.0707 127.995 92.2698 127.794C92.2698 127.794 92.2698 127.794 92.2698 127.595C92.2698 127.595 92.2698 127.595 92.2698 127.393C92.2698 127.393 92.2698 127.393 92.2698 127.192C92.2698 126.394 91.6703 125.593 90.8716 125.193C88.0713 126.593 84.6715 127.593 80.6703 127.993C80.2719 127.993 79.8717 127.993 79.4693 128.194C79.2702 128.194 79.071 128.194 78.6707 128.194C78.2703 128.194 77.6708 127.794 77.6708 127.393C77.6708 126.993 78.0712 126.394 78.4695 126.394C78.6687 126.394 78.8698 126.394 79.071 126.394C79.4693 126.394 79.8697 126.394 80.272 126.192C84.2713 125.792 87.8701 124.593 89.8718 123.392C90.2701 123.191 90.4713 123.191 90.8716 123.392C93.0704 124.792 93.4707 126.392 93.4707 127.391V127.593V127.792V127.993C93.4707 127.993 93.4707 127.993 93.4707 128.194V128.393C93.4707 128.594 93.4708 128.594 93.2716 128.794C93.2716 128.794 93.2716 128.993 93.0704 128.993V129.194C93.0704 129.194 93.0704 129.194 93.0704 129.395C93.0704 129.395 93.0704 129.395 93.0704 129.594L92.8693 129.795L92.6682 129.995L92.467 130.196L92.2658 130.397L92.0667 130.598L91.8655 130.797C91.6644 130.998 91.6644 130.998 91.4652 131.198C91.4652 131.198 91.264 131.198 91.264 131.399C91.0629 131.399 91.0628 131.6 90.8657 131.6C90.2642 132 89.4655 132.399 88.6669 132.6C87.2667 133.199 85.8666 133.6 84.2653 133.801C83.4667 134.002 82.666 134.002 81.8653 134.201C81.467 134.201 81.0666 134.201 80.6643 134.402C80.4651 134.402 80.4651 134.402 80.2659 134.402C80.2659 134.402 80.0648 134.402 79.8656 134.402C79.6645 134.402 79.6645 134.402 79.4653 134.402C79.067 134.402 78.8658 134.402 78.4655 134.402H78.0671C77.866 134.402 77.4657 134.402 77.2665 134.402C77.0673 134.402 77.0653 134.402 76.8682 134.402H76.6671C76.4659 134.402 76.4658 134.402 76.2667 134.402C75.8683 134.599 75.4681 134.599 75.2669 134.599Z" fill="#112152"/>
<path d="M77.4677 128.2C77.0674 128.2 76.669 127.8 76.669 127.399C76.669 126.999 77.0674 126.4 77.4677 126.4C77.6689 126.4 77.6688 126.4 77.868 126.4C78.2663 126.4 78.8679 126.8 78.8679 127.198C78.8679 127.599 78.4675 128.198 78.0692 128.198C77.868 128.2 77.6669 128.2 77.4677 128.2C77.6669 128.2 77.6669 128.2 77.4677 128.2Z" fill="#112152"/>
<path d="M76.8682 128.2C76.4678 128.2 76.0676 127.8 76.0676 127.399C76.0676 126.999 76.4678 126.4 76.8682 126.4H77.0674C77.4677 126.4 78.0692 126.8 78.0692 127.198C78.0692 127.599 77.6689 128.198 77.2686 128.198C77.0654 128.2 77.0653 128.2 76.8682 128.2Z" fill="#112152"/>
<path d="M75.8684 128.2C75.4681 128.2 75.0677 127.8 75.0677 127.399C75.0677 126.999 75.4681 126.599 75.8684 126.599H76.0676H76.4679C76.8682 126.599 77.4677 126.999 77.4677 127.399C77.4677 127.8 77.0674 128.399 76.669 128.399H76.2687C76.2667 128.2 76.0676 128.2 75.8684 128.2Z" fill="#112152"/>
<path d="M74.6674 128.2C74.4662 128.2 74.4663 128.2 74.2671 128.2H73.8668C73.4684 128.2 73.0681 127.8 73.0681 127.2C73.0681 126.8 73.4683 126.402 74.0678 126.402H74.4683H74.6693C75.0677 126.402 75.468 126.802 75.468 127.2C75.468 127.601 75.2669 128.2 74.6674 128.2Z" fill="#112152"/>
<path d="M73.8668 128.2C73.6656 128.2 73.6656 128.2 73.4684 128.2C73.0681 128.2 72.6677 127.8 72.6677 127.2C72.6677 126.8 73.068 126.402 73.6675 126.402H73.8687C74.2691 126.402 74.6693 126.802 74.6693 127.401C74.6673 127.8 74.2671 128.2 73.8668 128.2Z" fill="#112152"/>
<path d="M73.0681 128.2C72.867 128.2 72.6677 128.2 72.6677 128.2C72.2694 128.2 71.869 127.8 71.869 127.2C71.869 126.8 72.2694 126.402 72.8689 126.402C73.07 126.402 73.07 126.402 73.2692 126.402C73.6675 126.402 74.0679 126.802 74.0679 127.401C74.0679 127.8 73.6656 128.2 73.0681 128.2Z" fill="#112152"/>
<path d="M75.2669 128.2C75.0658 128.2 74.8666 128.2 74.6674 128.2C74.6674 128.2 74.4663 128.2 74.2671 128.2H73.8668H73.6656C73.6656 128.2 73.4664 128.2 73.2672 128.2C73.0661 128.2 73.0661 128.2 72.8669 128.2H72.4666C72.2675 128.2 72.0682 128.2 71.8671 128.2C71.6659 128.2 71.4668 128.2 71.0684 128.2C70.6681 128.2 70.2678 128.2 69.8695 127.999C64.8684 127.399 60.6699 125.999 58.4691 124C57.4673 123 56.8678 122 56.8678 120.799C56.8678 117.6 61.4685 114.999 68.6684 113.798C69.6682 113.599 70.6681 113.599 71.8671 113.398H72.8669C73.0681 113.398 73.4684 113.398 73.6656 113.398C73.8668 113.398 73.8667 113.398 74.0659 113.398H74.2671H74.6674C75.0657 113.398 75.4661 113.398 75.6672 113.398H76.0656C76.2668 113.398 76.4659 113.398 76.6671 113.398C76.8682 113.398 77.0653 113.398 77.0653 113.398C77.2665 113.398 77.4657 113.398 77.6668 113.398C77.868 113.398 78.0672 113.398 78.2664 113.398H78.6667C78.8678 113.398 78.8678 113.398 79.067 113.398H79.6665C80.0668 113.398 80.6663 113.398 80.8674 113.599C81.0686 113.599 81.0687 113.599 81.2679 113.599C81.467 113.599 81.8673 113.599 82.0665 113.798C82.2677 113.798 82.668 113.798 82.8671 113.999H83.2655C86.8664 114.599 89.8679 115.8 91.4652 117.2L91.6663 117.399C91.6663 117.399 91.6663 117.399 91.8675 117.6L92.0686 117.8L92.2678 118.001C92.4689 118.202 92.6682 118.401 92.6682 118.6C92.6682 118.6 92.6682 118.6 92.6682 118.801C92.6682 118.801 92.6681 119.001 92.8693 119.001V119.202C92.8693 119.403 93.0704 119.602 93.0704 119.602C93.0704 119.803 93.0705 119.803 93.2716 120.002C93.2716 120.202 93.2716 120.202 93.2716 120.403C93.2716 120.403 93.2716 120.604 93.2716 120.803V121.004V121.205V121.404V121.606C92.6701 124.804 87.669 127.206 80.4711 128.005C80.0708 128.005 79.6704 128.005 79.2701 128.206C79.0689 128.206 78.8698 128.206 78.4695 128.206C78.2683 128.206 78.0711 128.206 77.8699 128.206H77.4696C77.2685 128.206 77.2685 128.206 77.0693 128.206C76.8702 128.206 76.8701 128.206 76.671 128.206H76.4699H76.0695C75.8703 128.206 75.8704 128.206 75.6712 128.206C75.8684 128.2 75.4681 128.2 75.2669 128.2ZM74.6674 115.4H74.4662C74.267 115.4 74.2671 115.4 74.0659 115.4C73.8647 115.4 73.4664 115.4 73.2672 115.4H72.2674C71.2656 115.4 70.2658 115.599 69.266 115.8C62.4664 116.8 59.0666 119.2 59.0666 121C59.0666 121.6 59.4669 122.201 60.0664 122.801C61.8669 124.4 65.665 125.8 70.4669 126.2C70.8673 126.2 71.2656 126.2 71.6659 126.402C71.8671 126.402 72.0662 126.402 72.2674 126.402C72.4666 126.402 72.6658 126.402 72.8669 126.402H73.2672C73.4684 126.402 73.4684 126.402 73.6656 126.402C73.8668 126.402 73.8668 126.402 73.8668 126.402H74.0678H74.4683H74.6693C75.0677 126.402 75.4681 126.402 75.8704 126.402C76.0695 126.402 76.0696 126.402 76.2687 126.402H76.669C76.669 126.402 76.6691 126.402 76.8702 126.402C77.0694 126.402 77.0694 126.402 77.2686 126.402C77.4697 126.402 77.4697 126.402 77.6689 126.402H78.0692C78.2684 126.402 78.4674 126.402 78.6686 126.402C78.8698 126.402 79.0689 126.402 79.2701 126.402C79.6684 126.402 80.0688 126.402 80.4711 126.2C87.669 125.4 91.4692 123.002 91.8715 121.201C91.8715 121.201 91.8715 121.201 91.8715 121V120.799C91.8715 120.799 91.8715 120.799 91.8715 120.6C91.8715 120.6 91.8714 120.399 91.6703 120.399C91.6703 120.2 91.4691 120.2 91.4691 119.998C91.4691 119.998 91.4692 119.998 91.268 119.797C91.268 119.797 91.268 119.797 91.0669 119.596L90.8676 119.397C89.4675 118.196 86.6673 117.198 83.4667 116.597L82.668 115.997C82.4668 115.997 82.2676 115.997 81.8673 115.796C81.6681 115.796 81.2678 115.796 81.0686 115.595C80.8675 115.595 80.8674 115.595 80.8674 115.595C80.4691 115.595 80.0688 115.595 79.6665 115.396H79.2682C79.067 115.396 79.067 115.396 78.8678 115.396H78.4675C78.2664 115.396 78.0692 115.396 77.868 115.396C77.6668 115.396 77.4677 115.396 77.4677 115.396C77.2665 115.396 77.0674 115.396 77.0674 115.396C76.8682 115.396 76.669 115.396 76.4678 115.396H76.0675C75.8684 115.396 75.6692 115.396 75.468 115.396C75.2668 115.396 75.2669 115.396 75.0677 115.396H74.6674V115.4Z" fill="#112152"/>
<path d="M58.2679 142C52.8665 141.2 49.6679 139.2 49.6679 136.8C49.6679 136 50.0683 134.801 51.6676 133.801C51.8687 133.6 52.269 133.6 52.6673 133.801C54.0675 134.601 56.2683 135.4 58.8675 135.8C59.2678 135.8 59.6661 136.4 59.6661 136.8C59.6661 137.201 59.0666 137.599 58.6663 137.599C56.0672 137.199 53.8663 136.599 52.267 135.8C51.8667 136.201 51.4664 136.599 51.4664 137.001C51.4664 138.202 53.8663 139.601 58.2679 140.401C58.6663 140.401 59.0666 140.802 59.0666 141.2C59.2678 141.6 58.8674 142 58.2679 142Z" fill="#112152"/>
<path d="M60.2676 137.8C60.0665 137.8 59.8673 137.8 59.6661 137.8C59.2678 137.8 58.8675 137.4 58.8675 136.8C58.8675 136.4 59.2678 136 59.8673 136C60.0685 136 60.2676 136 60.2676 136V137.8Z" fill="#112152"/>
<path d="M60.2676 137.8C60.0665 137.8 59.8673 137.8 59.6661 137.8C59.2678 137.8 59.0666 137.8 58.6663 137.599C53.2669 136.8 49.867 134.799 49.867 132.401C49.867 131.6 50.2674 130.401 51.8667 129.401C52.0679 129.2 52.4682 129.2 52.8666 129.401C53.2669 129.6 53.4681 129.801 53.8664 130.001C54.2667 130.2 54.4679 130.799 54.2667 131.202C54.0655 131.602 53.468 131.801 53.0657 131.602C52.8645 131.401 52.4662 131.401 52.267 131.202C51.8667 131.602 51.4664 132 51.4664 132.403C51.4664 133.602 54.0675 135.203 58.8675 135.802C59.2678 135.802 59.469 135.802 59.8673 136.002C60.0685 136.002 60.2676 136.002 60.2676 136.002C60.6679 136.002 61.0663 136.402 61.0663 137.001C61.0663 137.4 60.6679 137.8 60.2676 137.8Z" fill="#112152"/>
<path d="M54.0674 131.799C53.8662 131.799 53.8662 131.799 53.669 131.799C53.4679 131.799 53.4679 131.799 53.2687 131.6C52.8684 131.399 52.6673 130.799 52.8684 130.399C53.0696 129.999 53.6691 129.8 54.0695 129.999H54.2705C54.6709 130.198 54.872 130.598 54.872 131.2C54.6669 131.6 54.4677 131.799 54.0674 131.799Z" fill="#112152"/>
<path d="M54.2667 132H54.0655C54.0655 132 53.8643 132 53.8643 131.799C53.466 131.6 53.2649 131 53.2649 130.6C53.4661 130.2 54.0635 129.999 54.4658 129.999H54.667C55.0653 130.2 55.4656 130.6 55.2664 131.2C55.0673 131.799 54.667 132 54.2667 132Z" fill="#112152"/>
<path d="M55.6668 132.401H55.4656C55.2645 132.401 55.2645 132.401 55.0653 132.199C54.8662 132.199 54.8661 132.199 54.667 132C54.4658 132 54.4658 132 54.2667 131.799C53.8663 131.6 53.468 131.2 53.6671 130.6C53.8663 130.2 54.2667 129.799 54.8682 129.999C55.0673 129.999 55.0672 129.999 55.2664 130.2C55.4676 130.2 55.4677 130.2 55.6668 130.401C55.868 130.401 55.868 130.401 56.0671 130.602C56.4655 130.801 56.8657 131.202 56.6666 131.801C56.4674 132.199 56.0671 132.401 55.6668 132.401Z" fill="#112152"/>
<path d="M57.8677 133H57.2662C57.067 133 56.8678 133 56.8678 133C56.6667 133 56.6667 133 56.4675 133C56.0692 132.801 55.6688 132.4 55.868 132C56.0691 131.6 56.4675 131.201 56.8678 131.401C57.069 131.401 57.069 131.401 57.2662 131.401C57.4673 131.401 57.6665 131.401 57.6665 131.401H58.0668C58.4671 131.401 58.8654 132 58.8654 132.4C58.6663 132.6 58.4672 133 57.8677 133Z" fill="#112152"/>
<path d="M58.4672 133C58.0668 133 57.8656 133 57.6664 132.801H57.2661C57.067 132.801 56.8678 132.801 56.8678 132.801C56.6666 132.801 56.6666 132.801 56.4675 132.801C56.0691 132.801 55.8679 132.6 55.4676 132.6C55.2665 132.6 55.2665 132.6 55.0673 132.401C54.8681 132.401 54.8681 132.401 54.669 132.199C54.4678 132.199 54.4678 132.199 54.2687 132H54.0675C54.0675 132 53.8664 132 53.8664 131.799L53.6672 131.6C53.6672 131.6 53.466 131.6 53.466 131.399C50.6657 130.198 50.2654 128.598 50.2654 127.599C50.2654 126.798 50.6657 125.599 52.267 124.599C52.6653 124.398 52.8665 124.398 53.2669 124.599C53.468 124.8 53.6672 124.8 53.8664 124.999H54.0675C54.0675 124.999 54.2687 124.999 54.2687 125.201H54.4698C54.8702 125.4 55.0693 125.999 54.8701 126.402C54.669 126.802 54.0694 127.001 53.6691 126.802C53.4679 126.802 53.468 126.802 53.2688 126.601C53.2688 126.601 53.0677 126.601 53.0677 126.402C52.8666 126.402 52.8665 126.402 52.6673 126.2C52.6673 126.2 52.4662 126.2 52.4662 125.999C52.0679 126.4 51.6676 126.8 51.6676 127.2C51.6676 127.8 52.4662 128.6 53.8683 129.2C53.8683 129.2 54.0695 129.2 54.0695 129.401H54.2706H54.4718H54.673C54.8741 129.401 54.8742 129.401 55.0713 129.6C55.2725 129.6 55.2725 129.6 55.4716 129.801C55.6728 129.801 55.6728 129.801 55.8719 130.001C56.2703 130.001 56.4715 130.2 56.8718 130.2C57.0729 130.2 57.073 130.2 57.2701 130.2C57.4713 130.2 57.6704 130.2 57.6704 130.2H58.0708C58.2719 130.2 58.4711 130.2 58.6703 130.2C59.0706 130.2 59.4709 130.6 59.4709 131C59.4669 132.6 59.0667 133 58.4672 133Z" fill="#112152"/>
<path d="M54.0674 127.399C53.8662 127.399 53.8662 127.399 53.669 127.399C53.4679 127.399 53.4679 127.399 53.2687 127.198C52.8684 126.999 52.6673 126.4 52.8684 125.997C53.0696 125.597 53.6691 125.398 54.0695 125.597H54.2705C54.6709 125.798 54.872 126.196 54.872 126.798C54.868 127.2 54.4677 127.399 54.0674 127.399Z" fill="#112152"/>
<path d="M56.2663 128.001H56.0672H55.6669C55.4657 128.001 55.4656 128.001 55.2665 127.8C55.0653 127.8 55.0654 127.8 54.8682 127.601C54.4679 127.399 54.0676 127.001 54.2667 126.4C54.4679 125.8 54.8682 125.599 55.4657 125.8C55.6669 125.8 55.6668 125.8 55.866 125.999C56.0672 125.999 56.0672 125.999 56.2644 126.2L56.6647 126.402C57.065 126.601 57.4634 127.001 57.2642 127.401C57.067 127.8 56.6666 128.001 56.2663 128.001Z" fill="#112152"/>
<path d="M57.6664 128.399C57.2661 128.399 56.8677 128.2 56.6666 128.2C56.2662 127.999 55.868 127.6 56.0671 127.2C56.2663 126.8 56.6667 126.401 57.067 126.601C57.2661 126.601 57.6665 126.802 57.8656 126.802C58.266 126.802 58.6643 127.401 58.6643 127.802C58.4671 128.001 58.0667 128.399 57.6664 128.399Z" fill="#112152"/>
<path d="M58.0667 128.399C57.6664 128.399 57.6664 128.399 57.4653 128.399C57.0669 128.399 56.8659 128.2 56.4655 128.2C56.2644 128.2 56.2643 128.2 56.0672 127.999C55.866 127.999 55.866 127.999 55.6669 127.798C55.4657 127.798 55.4656 127.798 55.2664 127.599C55.0653 127.599 55.0654 127.599 54.8682 127.398C54.4679 127.196 54.0676 127.196 53.8664 126.997H53.6672H53.466H53.2649L52.8645 126.796H52.6634C50.2635 125.595 49.8651 124.195 49.8651 123.396C49.8651 122.596 50.2635 121.596 51.8648 120.397C52.2651 120.196 52.8645 120.196 53.0657 120.598C53.2668 120.998 53.2668 121.598 52.8645 121.799C52.0658 122.398 51.6636 122.799 51.6636 123.199C51.6636 123.799 52.265 124.4 53.464 125H53.6652L54.0636 125.201H54.2646C54.2646 125.201 54.2647 125.201 54.4658 125.201H54.667C54.8682 125.4 55.2665 125.4 55.6669 125.601C55.868 125.601 55.868 125.601 56.0672 125.802C56.2663 125.802 56.2664 125.802 56.4655 125.802C56.6647 125.802 56.6647 125.802 56.8658 125.802C57.067 125.802 57.067 125.802 57.2642 125.802C57.4654 125.802 57.8656 126.001 58.0648 126.001C58.266 126.001 58.2659 126.001 58.4651 126.001C58.4651 126.001 58.4652 126.001 58.6643 126.001C59.0647 126.203 59.2658 126.402 59.2658 126.802C59.0667 128.001 58.6662 128.399 58.0667 128.399Z" fill="#112152"/>
<path d="M52.6653 122.199C52.4661 122.199 52.2669 122.199 52.2669 121.998C52.2669 121.998 52.0658 121.998 52.0658 121.799C51.6654 121.598 51.4643 120.998 51.6655 120.598C51.8666 120.197 52.4642 119.998 52.8665 120.197H53.0677C53.468 120.399 53.6691 120.998 53.468 121.398C53.2668 122 53.0676 122.199 52.6653 122.199Z" fill="#112152"/>
<path d="M54.2666 123C54.0655 123 54.0655 123 53.8663 123C53.6672 123 53.468 122.799 53.2668 122.799C53.0656 122.799 52.8665 122.598 52.6653 122.598H52.4662H52.267C51.8666 122.398 51.6655 121.799 51.8666 121.397C52.0678 120.996 52.6654 120.797 53.0677 120.996C53.2688 120.996 53.4679 121.197 53.669 121.197C53.8682 121.197 54.0674 121.397 54.2686 121.397C54.6689 121.598 55.0673 121.996 54.8701 122.598C55.0673 122.801 54.667 123 54.2666 123Z" fill="#112152"/>
<path d="M54.667 123.199C54.4659 123.199 54.4659 123.199 54.2667 123C54.0656 123 54.0656 123 53.8664 122.799C53.4681 122.597 53.2669 122.199 53.2669 121.598C53.2669 120.998 53.8663 120.998 54.4678 120.998C54.6689 120.998 54.669 120.998 54.8682 121.199H55.0673L54.8682 121.998L54.667 123.199Z" fill="#112152"/>
<path d="M56.0672 123.601H55.866C55.6648 123.601 55.6649 123.601 55.4657 123.4C55.2645 123.4 55.2646 123.4 55.0654 123.199C54.8662 123.199 54.8662 123.199 54.667 123C54.2667 122.799 53.8664 122.4 54.0655 121.799C54.2667 121.399 54.667 120.998 55.2665 121.199C55.4676 121.199 55.4677 121.199 55.6669 121.199C55.868 121.199 55.868 121.199 56.0672 121.199C56.2664 121.199 56.2664 121.199 56.4655 121.399C56.8659 121.6 57.2642 121.998 57.067 122.398C56.8679 123.199 56.4675 123.601 56.0672 123.601Z" fill="#112152"/>
<path d="M57.2661 123.8C57.0669 123.8 56.8677 123.8 56.6666 123.8C56.2662 123.601 55.868 123.201 56.0671 122.801C56.2663 122.4 56.6667 122 57.067 122.201C57.2661 122.201 57.266 122.201 57.4652 122.201C57.8655 122.201 58.2659 122.801 58.2659 123.201C58.0668 123.4 57.6664 123.8 57.2661 123.8Z" fill="#112152"/>
<path d="M58.4672 124C58.268 124 58.0668 124 57.8657 124C57.6645 124 57.6644 124 57.4652 124C57.0669 124 56.6666 123.4 56.6666 123C56.6666 122.6 57.2661 122.199 57.6664 122.199C57.8676 122.199 57.8676 122.199 58.0667 122.199C58.2679 122.199 58.4672 122.199 58.4672 122.199C58.8655 122.199 59.2658 122.799 59.2658 123.199C59.2678 123.601 59.0667 124 58.4672 124Z" fill="#112152"/>
<path d="M60.2676 125C60.0664 125 59.8673 125 59.8673 124.8C59.4689 124.599 59.0686 124.199 58.8674 124L58.6662 123.799C58.2679 123.398 58.2679 122.799 58.6662 122.598C59.0666 122.197 59.6661 122.197 59.8673 122.598L60.0683 122.799C60.2695 123 60.6698 123.199 60.867 123.398C61.2673 123.599 61.4685 124.197 61.0682 124.599C60.867 124.8 60.6679 125 60.2676 125Z" fill="#112152"/>
<path d="M59.0666 124C58.6663 124 58.4671 124 58.2679 124C58.0668 124 57.8676 124 57.8676 124C57.6665 124 57.6665 124 57.4673 124H57.069C56.8678 124 56.8678 124 56.6687 124C56.4695 124 56.0692 123.799 55.87 123.799H55.6688H55.4676C55.2665 123.799 55.2665 123.799 55.0673 123.599C54.8682 123.599 54.8681 123.599 54.669 123.398H54.4678H54.2667H54.0655C53.8644 123.398 53.6671 123.197 53.466 123.197C53.2648 122.998 53.0656 122.998 52.8645 122.797H52.6634C52.6634 122.797 52.6634 122.797 52.4622 122.797C52.4622 122.797 52.4622 122.797 52.263 122.797L52.0619 122.596C52.0619 122.596 51.8608 122.596 51.8608 122.396C50.2594 121.397 49.8611 120.198 49.8611 119.397C49.8611 115.796 56.6607 113.796 63.0599 113.796C63.4602 113.796 65.6611 113.998 67.2604 114.197C68.8617 114.396 69.26 114.396 69.6604 114.597C70.0607 114.798 70.0606 114.997 70.2598 114.997C70.461 115.398 70.2598 115.999 69.8614 116.198C69.4611 116.4 69.26 116.4 68.8617 116.198C68.6606 116.198 68.2602 115.999 67.0613 115.999C65.4599 115.798 63.4602 115.599 63.0599 115.599C56.0612 115.599 51.6596 117.798 51.6596 119.399C51.6596 119.998 52.4583 120.6 52.8606 120.799C52.8606 120.799 52.8605 120.799 53.0617 120.799C53.0617 120.799 53.2628 120.799 53.2628 121C53.2628 121 53.2629 121 53.464 121H53.6652C53.8644 121 54.0635 121.201 54.2646 121.201C54.4658 121.201 54.665 121.401 54.8661 121.401H55.0654H55.2664H55.4676C55.6688 121.401 55.6688 121.401 55.8679 121.602C56.0691 121.602 56.0691 121.602 56.2663 121.602L56.6666 121.803C56.8678 121.803 57.2661 122.002 57.4653 122.002C57.6644 122.002 57.6665 122.002 57.8657 122.002H58.266C58.4652 122.002 58.4652 122.002 58.6643 122.002C58.8655 122.002 59.0646 122.002 59.0646 122.002C59.2658 122.002 59.4649 122.002 59.6641 122.002C60.0644 122.002 60.4648 122.602 60.4648 123.002C60.0665 123.801 59.6661 124 59.0666 124Z" fill="#112152"/>
<path d="M81.467 66.5995L80.4671 66.8007C80.4671 66.4004 80.266 66.2012 79.8656 66.2012V67.8005C80.4671 68.0017 81.0666 68.2008 81.2658 68.6012C81.467 68.8023 81.6661 69.2007 81.6661 69.8021C81.6661 70.4016 81.465 70.802 81.2658 71.0031C80.8655 71.4035 80.4672 71.6026 80.0668 71.6026V72.4013H79.4653V71.6026C79.067 71.6026 78.6667 71.4015 78.2664 71.0031C77.868 70.6028 77.868 70.2025 77.6668 69.8021L78.8679 69.601C78.8679 69.8021 79.069 70.0013 79.069 70.2005C79.2702 70.4016 79.2701 70.4016 79.4673 70.6008V68.8003C78.8678 68.5992 78.4675 68.4 78.2683 67.9997C78.0691 67.5994 77.87 67.199 77.87 66.7987C77.87 66.3984 78.0711 65.998 78.2683 65.5977C78.4695 65.1974 78.8698 64.9982 79.4673 64.9982V64.5979H80.0688V64.9982C80.4691 64.9982 80.8675 65.1994 81.0686 65.3986C81.2678 66 81.467 66.1992 81.467 66.5995ZM80.6664 69.8002C80.6664 69.599 80.6663 69.3998 80.4671 69.3998C80.266 69.1987 80.266 69.1987 79.8656 68.9995V70.6008C80.0668 70.6008 80.266 70.3997 80.4671 70.2005C80.4671 70.2005 80.6664 69.9993 80.6664 69.8002ZM79.2682 67.5994V66.1992C79.067 66.1992 79.067 66.4004 78.8679 66.5995C78.8679 66.8007 78.6667 66.8007 78.6667 66.9999C78.6667 67.199 78.6667 67.199 78.8679 67.4002C79.067 67.4002 79.067 67.5994 79.2682 67.5994Z" fill="#112152"/>
</svg>
