<svg width="250" height="250" viewBox="0 0 250 250" fill="none" xmlns="http://www.w3.org/2000/svg">
<path d="M250.001 0H-0.00125122V250H250.001V0Z" fill="white"/>
<path d="M132.502 128C138.5 128 143.25 132.75 143.25 138.75C143.25 144.75 138.5 149.5 132.502 149.5C126.502 149.5 121.752 144.75 121.752 138.75C121.75 132.75 126.502 128 132.502 128Z" fill="white"/>
<path d="M139.999 102.75H132.5H125.25C126 96.9995 125.499 90.0012 124.249 84.2502C128.248 83.5009 129.251 85.251 132.251 84.9996C134.25 84.9996 135.502 83.9988 138.002 83.9988C139 83.9988 140.001 83.9988 141.002 84.2502C139.501 89.9987 139 96.9995 139.999 102.75Z" fill="white"/>
<path d="M125.253 102.75H132.502H140.001H142.252C143.501 102.75 144.5 103.751 144.5 105.001C144.5 105.501 144.248 106.251 143.75 106.502C143.25 107.003 142.752 107.252 142.252 107.252H140.75H132.5H124.249H122.748C121.498 107.252 120.5 106.253 120.5 105.001C120.5 104.501 120.749 103.751 121.249 103.502C121.75 103.002 122.25 102.75 122.751 102.75H125.253Z" fill="white"/>
<path d="M126.251 153C125.253 152.749 124.249 152.5 123 152.251C122.748 152.251 122.25 152.251 122.001 151.999H121.75C121 151.748 120 151.748 119.25 151.499C119.001 151.499 118.501 151.499 118.252 151.248C118 151.248 118.001 151.248 117.752 151.248C117.503 151.248 117.002 151.248 116.753 151.248C116.004 151.248 115.252 151.248 114.503 150.996C113.753 150.996 113.253 150.996 112.752 150.996C111.002 146.746 109.752 141.996 109.752 137.995C109.752 126.745 120.503 120.745 124.252 106.746H132.502H140.753C144.502 120.496 155.252 126.747 155.252 137.995C155.252 144.496 152.504 152.995 148.003 157.997C145.752 158.995 143.753 159.996 141.751 161.246H138.751V160.997C138.751 160.745 138.751 160.745 138.751 160.496V160.247V159.996V159.745C138.751 159.745 138.751 159.496 138.502 159.496C138.502 159.496 138.502 159.244 138.253 159.244C138.253 159.244 138.253 158.993 138.002 158.993C138.002 158.993 138.002 158.744 137.75 158.744L137.499 158.492L137.248 158.243L136.996 157.992L136.747 157.74L136.496 157.489L136.244 157.24C134.995 156.239 133.244 155.238 131.243 154.492C130 153.999 128.001 153.501 126.251 153ZM143.25 138.75C143.25 132.75 138.5 128 132.502 128C126.502 128 121.752 132.75 121.752 138.75C121.752 144.75 126.502 149.5 132.502 149.5C138.5 149.5 143.25 144.75 143.25 138.75Z" fill="white"/>
<path d="M90.2491 180C90.5005 181.25 89.4997 182.5 88.2499 182.5C87.0001 182.5 85.7504 181.75 85.7504 180.5C85.5014 179.251 86.4997 178.001 87.752 178.001C88.9992 177.749 90.0001 178.75 90.2491 180Z" fill="white"/>
<path d="M86.2507 160.499C89.2531 163.499 96.2514 175.25 98.0016 179.499C99.0024 181.499 99.2514 183.249 98.502 184.499C97.5012 186.749 82.2524 193.001 78.7521 195C77.2508 196 76.5015 196.249 75.7521 194.751C73.5015 188.502 75.5007 178.25 73.753 170.751C73.2526 168.5 72.2518 166.25 73.0036 164.751C73.753 163.001 79.2524 160.753 81.0026 159.752C82.5014 159 84.0001 158.248 86.2507 160.499ZM88.2499 182.499C89.4996 182.248 90.5005 181.25 90.249 180C89.9976 178.75 88.9993 177.752 87.7495 178.001C86.4972 178.252 85.4989 179.253 85.7478 180.5C85.7503 181.75 87.0001 182.499 88.2499 182.499Z" fill="#FAE12C"/>
<path d="M138.749 163.499C139.501 162.999 140.75 162.25 142 161.5C143.75 160.499 146.001 159.25 148 158.249C151.998 156.499 156.5 155 159.751 154.5C162.751 153.999 167.252 154.248 167.501 158.249C167.999 164.5 140.499 179.998 132.251 180.75C118.001 181.748 115.25 172.499 97.7502 179.249C96 174.999 88.9992 163.248 85.9993 160.248C90.9984 157.497 99.7493 152.498 105.249 151.497C106.75 151.246 109.25 150.997 112.25 151.246C112.75 151.246 113.499 151.246 114 151.246C114.749 151.246 115.498 151.246 116.25 151.497C116.499 151.497 117 151.497 117.249 151.497C117.5 151.497 117.5 151.497 117.749 151.497C118 151.497 118.498 151.497 118.75 151.746C119.499 151.746 120.5 151.997 121.249 152.246H121.501C121.752 152.246 122.253 152.246 122.499 152.495C125.499 152.996 128.499 153.745 131.001 154.746C133 155.495 134.75 156.496 136 157.495L136.249 157.746L136.501 157.997L136.752 158.246L137.001 158.498L137.253 158.749L137.504 158.998L137.755 159.25C137.755 159.25 137.755 159.501 138.007 159.501C138.007 159.501 138.007 159.75 138.258 159.75C138.258 159.75 138.258 160.002 138.507 160.002V160.253V160.502V160.753C138.507 161.005 138.507 161.005 138.507 161.254C138.507 161.754 138.507 162.003 138.507 162.504C138.507 162.504 138.507 162.504 138.507 162.755C138.507 162.755 138.507 162.755 138.507 163.006C139 163.001 139 163.25 138.749 163.499C139 163.499 139 163.499 138.749 163.499Z" fill="#FAE12C"/>
<path d="M132.251 167.5C127.75 167.5 122.499 166.25 117.749 165.001C117.5 165.001 117.249 164.749 117 164.749C116.499 164.5 116.001 164 116.25 163.499C116.499 162.999 117 162.499 117.5 162.75C117.749 162.75 118.001 162.75 118.249 163.001C133.75 167.251 136.999 165.001 137.748 163.253C137.999 162.752 138.497 162.252 138.998 162.501C139.498 162.752 139.996 163.253 139.75 163.751V164C139 166.499 136 167.5 132.251 167.5Z" fill="#112152"/>
<path d="M139 164C138.251 163.748 137.75 163.25 138.002 162.75C138.002 162.75 138.002 162.75 138.002 162.499C138.002 161.998 138.5 161.5 139 161.5C139.501 161.5 139.999 162.001 139.999 162.499V162.75C139.999 162.75 139.999 162.75 139.999 163.001V163.253C139.999 163.499 139.501 164 139 164Z" fill="#112152"/>
<path d="M76.9994 196.75C76.7504 196.75 76.499 196.75 76.25 196.75C75.2517 196.499 75.0002 195.249 74.7488 195C73.499 191.5 73.4991 187.25 73.4991 182.5C73.4991 178.501 73.499 174.249 72.4982 170.749C72.4982 170.248 72.2493 169.75 71.9978 169.248C71.4974 167.248 70.997 165.498 71.7489 163.999C72.4982 162.498 75.4982 160.748 79.2475 158.998C79.7479 158.749 79.9969 158.497 80.4973 158.497C81.7471 157.997 83.9977 156.747 86.7487 159.498C87.2491 159.999 87.2491 160.748 86.7487 161C86.2482 161.5 85.4989 161.5 85.2474 161C83.4973 159.249 82.4989 159.75 81.4981 160.25C81.2491 160.499 80.7488 160.499 80.2483 160.751C78.7471 161.5 74.2484 163.499 73.748 164.5C73.2475 165.249 73.748 166.75 74.2484 168.249C74.4999 168.75 74.4998 169.248 74.7488 169.75C75.7496 173.5 75.7496 177.749 75.7496 181.999C75.7496 186.5 75.7497 190.499 76.7505 193.75C76.7505 193.999 76.7505 193.999 76.7505 193.999C76.9994 193.999 77.4998 193.499 78.0002 193.499C79.25 192.749 81.7495 191.748 84.5005 190.25C88.7502 188.248 96.5004 184.75 97.2522 183.5C97.5012 182.751 97.5012 181.499 96.5029 179.5C96.2514 178.999 96.5028 178.25 97.0033 177.998C97.5037 177.75 98.253 177.998 98.5045 178.499C99.5028 180.998 99.7543 182.749 99.0049 184.25C98.2556 185.751 94.2547 187.999 85.0059 192.249C82.2549 193.499 79.7579 194.748 78.7571 195.249C78.7496 196.25 77.7487 196.75 76.9994 196.75Z" fill="#112152"/>
<path d="M88.0009 183.5C86.2507 183.5 84.752 182.251 84.5005 180.5C84.2491 178.75 85.7503 177 87.5005 176.751C89.4997 176.5 91.0009 178.001 91.2499 179.751C91.4988 181.501 90 183.251 88.2499 183.5C88.2499 183.5 88.2498 183.5 88.0009 183.5ZM88.0009 178.999C87.2515 178.999 86.7512 179.748 86.7512 180.249C86.7512 180.998 87.5005 181.25 88.0009 181.25C88.5013 181.25 89.0017 180.5 89.0017 180C88.9992 179.5 88.4988 178.999 88.0009 178.999Z" fill="#112152"/>
<path d="M114.5 152.5C113.751 152.5 113.25 152.5 112.501 152.5C112.001 152.5 111.5 152 111.5 151.25C111.5 150.75 112.001 150.25 112.75 150.25C113.499 150.25 114 150.25 114.749 150.25C115.25 150.25 115.75 150.75 115.75 151.499C115.501 152 115.001 152.5 114.5 152.5Z" fill="#112152"/>
<path d="M118.252 152.749C118 152.749 118 152.749 118.252 152.749H118.001H117.749C117.5 152.749 117 152.749 116.751 152.749C116.25 152.749 115.75 152.248 115.75 151.499C115.75 150.999 116.25 150.498 117 150.498C117.251 150.498 117.749 150.498 118.001 150.498H118.252H118.501C119.001 150.498 119.502 150.999 119.502 151.748C119.25 152.5 118.75 152.749 118.252 152.749Z" fill="#112152"/>
<path d="M121.75 153.249C120.749 153 120 153 119.001 152.749C118.501 152.749 118.001 152 118.001 151.499C118.001 150.999 118.75 150.498 119.25 150.498C120.251 150.498 121 150.75 122.001 150.999C122.499 150.999 123 151.748 123 152.251C122.751 153 122.25 153.249 121.75 153.249Z" fill="#112152"/>
<path d="M137.499 159.501C137.248 159.501 136.999 159.249 136.75 159C136.75 159 136.75 159 136.498 158.751C136.498 158.751 136.498 158.751 136.247 158.5C136.247 158.5 135.998 158.5 135.998 158.248C135.998 158.248 135.746 158.248 135.746 157.999C134.497 156.999 132.995 156.249 130.999 155.5C129.5 154.999 127.747 154.25 125.748 153.999C124.75 153.75 123.749 153.498 122.497 153.249C122.248 153.249 121.747 153.249 121.498 153C120.998 153 120.5 152.251 120.5 151.751C120.5 151.25 121.249 150.752 121.75 150.752C122.001 150.752 122.499 150.752 122.748 151.001C123.749 151.253 124.999 151.502 126 151.751C128.001 152.251 129.998 152.751 131.499 153.501C133.75 154.25 135.502 155.251 136.75 156.249L136.999 156.501L137.25 156.75L137.501 157.001L137.753 157.253C138.253 157.753 138.004 158.502 137.753 158.754C138.002 159.501 137.75 159.501 137.499 159.501Z" fill="#112152"/>
<path d="M138.749 161.251C138.251 161.251 137.999 161.002 137.75 160.502C137.75 160.502 137.75 160.502 137.75 160.253V160.001V159.75C137.75 159.75 137.751 159.501 137.499 159.501C137.499 159.501 137.499 159.501 137.499 159.25C137.499 159.25 137.499 159.25 137.248 158.998C136.75 158.498 136.75 157.748 137.248 157.497C137.748 156.996 138.497 156.996 138.749 157.497L139 157.748L139.252 158L139.503 158.249L139.755 158.5L140.004 158.752C140.004 158.752 140.004 159.001 140.255 159.001C140.506 159.501 140.255 160.25 139.757 160.502C139 161.251 138.749 161.251 138.749 161.251Z" fill="#112152"/>
<path d="M138.749 161.5C138.251 161.5 137.75 161.249 137.75 160.751C137.499 160.25 137.75 159.501 138.251 159.25C138.749 158.998 139.501 159.25 139.752 159.75V160.001C140.001 160.502 139.752 161.251 139 161.503C139 161.503 139 161.5 138.749 161.5Z" fill="#112152"/>
<path d="M139 162C138.5 162 138.002 161.751 138.002 161.002C137.75 160.502 138.002 159.752 138.751 159.501C139.252 159.249 140.001 159.501 140.252 160.25V160.499C140.25 161.251 139.752 161.751 139 162Z" fill="#112152"/>
<path d="M130.249 182.002C125.499 182.002 122.25 181.001 118.75 179.751C113.25 178.001 108.5 176.5 98.2506 180.251C97.7502 180.503 97.0008 180.251 96.7494 179.751C94.7502 175.25 87.9985 163.75 85.25 161.251C84.9985 161.002 84.7495 160.75 84.9985 160.252C84.9985 160.001 85.2499 159.503 85.4988 159.503C94.2498 154.504 100.75 151.504 105 150.503C106.75 150.252 109.25 150.003 112.25 150.252C112.75 150.252 113.25 150.752 113.25 151.502C113.25 152.002 112.75 152.5 111.998 152.5C109.25 152.5 106.75 152.5 105.249 152.751C101.5 153.501 95.4971 156.252 87.498 160.75C90.7469 164.749 95.9975 173.751 97.9967 178.001C108.246 174.251 113.497 176.002 118.999 177.752C122.748 179.002 126.249 180.251 131.748 179.751C135.5 179.499 143.999 175.75 152.247 170.751C161.997 164.751 166.246 160.252 165.997 158.502C165.997 157.753 165.746 157.001 164.997 156.752C163.998 156.003 161.745 155.502 159.246 156.003C156.246 156.503 151.996 157.753 147.746 159.503C145.498 160.501 143.496 161.502 141.746 162.503C140.497 163.252 139.498 164.004 138.746 164.751C138.248 165.003 137.748 165.003 137.497 164.751C136.996 164.502 136.996 164.002 136.996 163.501V163.252V163.001C136.996 163.001 136.996 163.001 136.996 162.75C136.996 162.501 136.996 162.249 136.996 161.751C136.996 161.251 137.248 160.499 137.997 160.499C138.495 160.499 139.247 160.75 139.247 161.5V161.751C139.747 161.5 139.996 161.251 140.496 161.002C142.247 160.001 144.495 158.751 146.748 157.75C151.249 155.751 155.499 154.501 158.748 154.001C160.495 153.752 163.996 153.501 166.246 155.251C167.247 156.003 167.997 157.252 167.997 158.751C168.248 163.252 158.748 169.75 152.999 173.251C145.996 177.5 136.247 182.25 131.497 182.499C131.751 182.002 131.001 182.002 130.249 182.002Z" fill="#112152"/>
<path d="M142 162.75H139C138.5 162.75 138.002 162.249 138.002 161.751V161.5V161.248V160.999V160.748C138.002 160.748 138.002 160.748 138.002 160.497C138.002 160.497 138.002 160.248 137.75 160.248C137.75 160.248 137.75 159.996 137.499 159.996C137.499 159.996 137.499 159.745 137.248 159.745C137.248 159.745 137.248 159.745 136.996 159.496L136.747 159.244C136.747 159.244 136.747 159.244 136.496 158.993L136.244 158.744C136.244 158.744 136.244 158.744 135.995 158.492L135.744 158.241C134.494 157.243 132.993 156.491 130.996 155.741C128.746 154.741 125.746 153.991 122.746 153.491L121.747 153.239H121.496C120.498 152.99 119.746 152.99 118.996 152.99C118.745 152.99 118.247 152.99 117.996 152.739H117.495C117.244 152.739 116.746 152.739 116.494 152.739C115.745 152.739 114.996 152.739 114.495 152.487C113.746 152.487 113.245 152.487 112.745 152.487C112.245 152.487 111.996 152.239 111.747 151.738C109.745 147.488 108.747 142.489 108.747 138.24C108.747 131.988 111.996 126.989 115.496 121.99C118.496 117.489 121.496 112.99 123.246 106.741C123.495 106.241 123.995 105.743 124.747 105.992C125.248 106.243 125.746 106.741 125.497 107.493C123.749 113.993 120.249 118.992 117.246 123.245C113.746 128.244 110.746 132.745 110.746 138.245C110.746 141.994 111.747 146.244 113.245 150.244C113.494 150.244 113.995 150.244 114.495 150.244C115.245 150.244 115.996 150.244 116.746 150.493C116.995 150.493 117.495 150.493 117.744 150.493H118.245C118.493 150.493 118.994 150.493 119.243 150.745C119.992 150.745 120.993 150.994 121.994 151.245H122.245L123.244 151.497C126.495 151.997 129.495 152.998 131.995 153.747C134.243 154.497 135.995 155.497 137.243 156.496C137.494 156.496 137.494 156.745 137.494 156.745C137.494 156.745 137.746 156.745 137.746 156.996C137.746 156.996 137.997 156.996 137.997 157.248L138.248 157.497C138.248 157.497 138.248 157.748 138.497 157.748L138.746 157.999L138.998 158.248C138.998 158.248 138.998 158.5 139.249 158.5C139.249 158.751 139.501 158.751 139.501 158.751C139.501 158.751 139.501 159 139.752 159C139.752 159 139.752 159 139.752 159.252V159.503H141.5C143.25 158.502 145.252 157.502 147.251 156.503C151.252 151.753 154.003 144.003 154.003 137.503C154.003 131.752 151.003 127.502 147.502 122.503C144.502 118.253 141.253 113.254 139.252 106.754C139 106.253 139.503 105.504 140.001 105.252C140.501 105.001 141.253 105.501 141.5 106.002C143.25 112.251 146.25 116.752 149.25 121.251C152.75 126.501 155.999 131.251 155.999 137.5C155.999 144.75 152.999 153.249 148.5 158.248C148.5 158.248 148.252 158.5 148 158.5C145.75 159.501 143.75 160.499 142 161.5C142.501 162.501 142.252 162.75 142 162.75Z" fill="#112152"/>
<path d="M139.752 103.749C139.252 103.749 138.751 103.249 138.751 102.748C138.002 97.5001 138.253 90.7483 139.503 85.2488C139.003 85.2488 138.502 85.2488 138.004 85.2488H137.753C136.755 85.2488 136.003 85.4978 135.004 85.7493C134.253 86.0007 133.254 86.2497 132.256 86.2497C131.006 86.2497 130.005 86.0007 129.004 85.7493C128.006 85.4978 127.003 85.2488 125.753 85.2488C127.003 90.9998 127.252 97.7491 126.505 102.748C126.505 103.249 125.753 103.749 125.255 103.749C124.755 103.749 124.254 103 124.254 102.499C125.006 97.2487 124.755 90.2504 123.256 84.4995C123.256 84.248 123.256 83.9991 123.505 83.7501C123.756 83.4987 124.003 83.2497 124.254 83.2497C127.003 82.7493 128.504 83.2497 129.754 83.5012C130.506 83.7526 131.255 84.0016 132.256 84.0016C133.005 84.0016 133.755 83.7526 134.504 83.5012C135.505 83.2497 136.506 83.0007 138.004 83.0007H138.256C139.254 83.0007 140.255 83.0007 141.004 83.2497C141.256 83.2497 141.502 83.5011 141.754 83.7501C142.005 83.9991 142.005 84.2505 142.005 84.4995C140.755 90.2504 140.255 96.9997 141.007 102.499C141.002 103 140.75 103.749 139.752 103.749C139.999 103.749 139.999 103.749 139.752 103.749Z" fill="#112152"/>
<path d="M142.252 108.25H123.002C121.252 108.25 119.753 106.752 119.753 104.999C119.753 104.001 120.002 103.249 120.752 102.748C121.501 101.999 122.253 101.75 123.002 101.75H142.252C144.002 101.75 145.503 103.251 145.503 104.999C145.503 106 145.252 106.749 144.502 107.25C144.002 107.999 142.999 108.25 142.252 108.25ZM122.751 103.749C122.499 103.749 122.253 103.749 122.001 104.001C121.75 104.252 121.75 104.501 121.75 104.75C121.75 105.25 122.25 105.751 122.748 105.751H141.998C142.249 105.751 142.498 105.751 142.75 105.499C142.999 105.25 142.999 104.999 142.999 104.75C142.999 104.25 142.501 103.749 142 103.749H122.751Z" fill="#112152"/>
<path d="M132.502 150.75C126.002 150.75 120.503 145.5 120.503 138.75C120.503 132.001 125.751 126.75 132.502 126.75C139 126.75 144.5 131.999 144.5 138.75C144.5 145.5 139 150.75 132.502 150.75ZM132.502 129.001C127.252 129.001 122.751 133.251 122.751 138.75C122.751 144.25 127 148.5 132.502 148.5C137.75 148.5 142.252 144.25 142.252 138.75C142.252 133.251 137.75 129.001 132.502 129.001Z" fill="#112152"/>
<path d="M126.251 154.25C126.002 154.25 126.002 154.25 125.751 154.25C118 150.75 115.501 142.751 115.252 142.251C115.001 141.75 115.501 141.001 116.001 140.749C116.502 140.5 117.251 141.001 117.503 141.499C117.503 141.499 119.753 149 126.751 152C127.252 152.251 127.503 153.001 127.252 153.501C127 153.999 126.502 154.25 126.251 154.25Z" fill="#112152"/>
<path d="M160.002 77.9989C159.502 77.9989 159.251 77.7499 159.002 77.4985C158.753 76.998 159.002 76.2487 159.502 75.9972L167.753 71.4961C168.253 71.2471 169.002 71.4961 169.254 71.9965C169.505 72.4969 169.254 73.2462 168.756 73.4977L160.505 77.9964C160.5 77.9989 160.251 77.9989 160.002 77.9989Z" fill="#112152"/>
<path d="M104.25 77.9991C103.999 77.9991 103.999 77.9991 103.75 77.7501L95.4995 73.2489C94.9991 73 94.7502 72.2481 94.9991 71.7477C95.2481 71.2473 95.9975 70.9983 96.5004 71.2473L104.748 75.7485C105.249 75.9974 105.498 76.7468 105.249 77.2497C105 77.7501 104.502 77.9991 104.25 77.9991Z" fill="#112152"/>
<path d="M147.5 67.998C147.248 67.998 147.002 67.998 147.002 67.7491C146.501 67.4976 146.25 66.7483 146.75 66.2479L149.75 61.4977C150.002 60.9973 150.749 60.7484 151.251 61.2488C151.749 61.4977 152.001 62.2471 151.5 62.7475L148.503 67.4976C148.252 67.7491 148 67.998 147.5 67.998Z" fill="#112152"/>
<path d="M168.751 92.9989H162.751C162.251 92.9989 161.75 92.4985 161.75 91.9981C161.75 91.4977 162.251 90.9998 162.751 90.9998H168.751C169.249 90.9998 169.749 91.5002 169.749 91.9981C169.752 92.501 169.5 92.9989 168.751 92.9989Z" fill="#112152"/>
<path d="M101.502 92.9989H95.502C95.0016 92.9989 94.5013 92.4985 94.5013 91.9981C94.5013 91.4977 95.0016 90.9998 95.502 90.9998H101.502C102.002 90.9998 102.5 91.5002 102.5 91.9981C102.5 92.501 102 92.9989 101.502 92.9989Z" fill="#112152"/>
<path d="M116.751 67.9984C116.25 67.9984 116.001 67.7494 115.75 67.498L112.75 62.7478C112.501 62.2474 112.501 61.498 113.001 61.2491C113.502 60.9976 114.251 60.9976 114.503 61.498L117.503 66.2482C117.752 66.7486 117.752 67.498 117.251 67.7494C117.251 67.9984 117 67.9984 116.751 67.9984Z" fill="#112152"/>
<path d="M132.251 75.9997C131.751 75.9997 131.25 75.4993 131.25 75.0014V69.7508C131.25 69.2504 131.751 68.75 132.251 68.75C132.749 68.75 133.249 69.2504 133.249 69.7508V75.0014C133.249 75.4993 132.749 75.9997 132.251 75.9997Z" fill="#112152"/>
<path d="M132.251 62.9994C131.751 62.9994 131.25 62.499 131.25 61.9986V52.4983C131.25 51.9979 131.751 51.5 132.251 51.5C132.749 51.5 133.249 52.0004 133.249 52.4983V61.9986C133.249 62.5015 132.749 62.9994 132.251 62.9994Z" fill="#112152"/>
<path d="M147.002 84.4991C146.501 84.4991 146.25 84.2476 146.001 83.9986C145.749 83.4982 145.75 82.7489 146.501 82.4999L151.003 80.0004C151.5 79.7489 152.252 79.7489 152.504 80.5008C152.755 81.0012 152.755 81.7505 152.003 82.002L147.502 84.5015C147.248 84.4991 147.248 84.4991 147.002 84.4991Z" fill="#112152"/>
<path d="M117.251 84.4997C117 84.4997 116.751 84.4997 116.751 84.2482L112.25 81.7487C111.749 81.4997 111.5 80.7503 111.749 80.2475C111.998 79.747 112.747 79.4981 113.25 79.747L117.749 82.2466C118.249 82.4956 118.498 83.2449 118.249 83.7478C118 84.2507 117.749 84.4997 117.251 84.4997Z" fill="#112152"/>
<path d="M140.25 79.0001C139.999 79.0001 139.752 79.0001 139.752 78.7511C139.252 78.4997 139 77.7503 139.252 77.2499L140.753 74.4989C141.002 73.9985 141.751 73.7495 142.254 73.9985C142.755 74.2499 143.003 74.9993 142.755 75.4997L141.253 78.2482C141.002 78.7511 140.75 79.0001 140.25 79.0001Z" fill="#112152"/>
<path d="M124 79C123.503 79 123.251 78.7511 123.002 78.4996L121.501 75.7511C121.249 75.2507 121.249 74.5013 122.001 74.2499C122.499 73.9984 123.251 73.9984 123.503 74.7503L125.004 77.4988C125.255 77.9992 125.255 78.7486 124.503 79C124.503 79 124.249 79 124 79Z" fill="#112152"/>
<path d="M149.75 193.502H101.251C100.75 193.502 100.25 193.001 100.25 192.503C100.25 192.003 100.75 191.502 101.251 191.502H149.753C150.251 191.502 150.751 192.003 150.751 192.503C150.751 193.001 150.251 193.502 149.75 193.502Z" fill="#112152"/>
<path d="M165.502 198H126.002C125.502 198 125.004 197.499 125.004 196.999C125.004 196.499 125.502 196.001 126.002 196.001H165.502C166.002 196.001 166.5 196.501 166.5 196.999C166.5 197.497 166.249 198 165.502 198Z" fill="#112152"/>
<path d="M174.502 198H169.5C169 198 168.502 197.499 168.502 196.999C168.502 196.499 169 196.001 169.5 196.001H174.502C175 196.001 175.5 196.501 175.5 196.999C175.5 197.497 175.251 198 174.502 198Z" fill="#112152"/>
<path d="M109.001 197.751H90.2515C89.7511 197.751 89.2532 197.25 89.2532 196.753C89.2532 196.252 89.7536 195.752 90.2515 195.752H109.001C109.501 195.752 110.001 196.252 110.001 196.753C110.001 197.25 109.75 197.751 109.001 197.751Z" fill="#112152"/>
<path d="M134.25 140.749C134.25 140.5 134.25 140.249 134.001 140C133.75 139.751 133.501 139.499 133 139.499V142.248C133.252 142.248 133.752 141.999 133.752 141.747C134.25 141.498 134.25 141 134.25 140.749ZM131.999 137.249V134.749C131.748 134.749 131.499 134.998 131.248 135.249C130.999 135.501 130.999 135.75 130.999 135.999C130.999 136.25 130.999 136.499 131.248 136.748C131.499 136.751 131.751 137 131.999 137.249ZM135.502 138.75C136 139.25 136 139.751 136 140.5C136 141.249 135.749 142.001 135.251 142.751C134.75 143.251 134.001 143.749 133 143.749V145.001H132.002V143.749C131.25 143.749 130.503 143.249 130 142.751C129.502 142.25 129.251 141.501 129.002 140.5L130.752 140.249C130.752 140.749 131.001 140.998 131.25 141.249C131.499 141.498 131.751 141.75 132.002 141.75V138.75C131.004 138.501 130.503 138 130 137.5C129.502 137 129.251 136.25 129.251 135.501C129.251 134.752 129.502 134 130 133.499C130.501 132.999 131.25 132.75 132.002 132.501H133V133.25C133.752 133.25 134.25 133.499 134.751 134C135.251 134.5 135.502 134.998 135.502 135.75L133.752 136.001C133.752 135.501 133.252 135.001 133 134.752V137.503C134.25 137.749 135.002 138.249 135.502 138.75Z" fill="#112152"/>
</svg>
