<svg width="160" height="160" viewBox="0 0 160 160" fill="none" xmlns="http://www.w3.org/2000/svg">
<path d="M0 80C0 124.183 35.8172 160 80 160C124.183 160 160 124.183 160 80C160 35.8172 124.183 0 80 0C35.8172 0 0 35.8172 0 80Z" fill="white"/>
<path d="M79.1986 107.27C79.1986 102.388 85.8605 100.331 89.8841 103.096C93.496 105.578 92.6627 110.516 88.4427 111.699C87.2725 112.027 86.0765 112.294 84.8581 112.496C81.761 113.01 79.1986 110.409 79.1986 107.27Z" fill="#FAE12C"/>
<path d="M96.7989 88.3197C97.7196 88.2016 98.6195 88.08 99.4984 87.9539C105.503 87.0926 111.152 92.5172 107.838 97.5978C106.493 99.6556 104.991 101.557 103.314 103.262C100.119 106.51 95.086 106.612 91.2884 104.095C89.0096 102.585 86.6199 100.845 84.1726 98.902C81.5841 96.8468 81.6411 92.9544 84.0243 90.6643C84.9515 89.7733 86.142 89.2228 87.4237 89.1187C90.7095 88.8519 93.8648 88.5853 96.7989 88.3197Z" fill="#FAE12C"/>
<path d="M79.1986 90.8345C79.1986 89.9753 79.9329 89.2804 80.7921 89.276C82.2729 89.2685 83.04 91.1852 81.951 92.1885C81.9229 92.2143 81.8949 92.2401 81.8669 92.2659C80.8464 93.2059 79.1986 92.4814 79.1986 91.0939V90.8345Z" fill="white"/>
<path d="M77.38 89.2788C78.3598 89.2788 79.1987 90.0731 79.1987 91.0529C79.1987 92.5632 77.4428 93.3695 76.329 92.3495C76.2937 92.3172 76.2584 92.2848 76.2232 92.2525C75.0549 91.1794 75.7937 89.2788 77.38 89.2788Z" fill="white"/>
<path d="M68.5122 103.191C72.5281 100.38 79.1989 102.459 79.1989 107.362C79.1989 110.528 76.6142 113.169 73.4912 112.646C72.3024 112.447 71.1349 112.187 69.9919 111.868C65.7539 110.686 64.9079 105.715 68.5122 103.191Z" fill="#FAE12C"/>
<path d="M71.0686 89.0216C72.3919 89.0938 73.693 89.6485 74.6668 90.5474C77.104 92.7971 77.03 96.6411 74.4333 98.7048C72.0278 100.617 69.6775 102.333 67.433 103.827C63.5393 106.421 58.3663 106.317 55.106 102.962C53.4839 101.293 52.0277 99.4398 50.7194 97.4391C47.4089 92.3674 52.9589 86.9503 58.9552 87.8019C59.8188 87.9245 60.7003 88.0429 61.5984 88.1579C64.6446 88.5556 67.8017 88.8435 71.0686 89.0216Z" fill="#FAE12C"/>
<path d="M111.999 70.8796C112.638 73.5998 112.958 76.3199 112.958 79.1986C112.958 82.8418 110.284 85.8284 106.725 86.6064C104.058 87.1893 101.1 87.7111 97.9173 88.1495C97.2117 88.2467 96.5656 87.7456 96.4773 87.0389C96.4773 85.2774 96.4288 83.5158 96.3318 81.7812C96.1821 79.1045 96.9884 76.4518 98.6513 74.349C99.7491 72.9608 100.781 71.5963 101.741 70.2638C104.674 66.1935 110.887 65.9877 111.999 70.8796Z" fill="#FAE12C"/>
<path d="M95.1979 70.5595C94.4711 66.2034 97.109 61.7025 101.369 60.5378C102.61 60.1985 103.859 59.8335 105.12 59.443C105.886 59.2059 106.715 59.4761 107.159 60.1429C107.563 60.7483 107.621 61.5315 107.265 62.1664C105.59 65.1582 103.398 68.4858 100.795 72.0073C99.1744 74.1998 95.7696 73.2253 95.1979 70.5595Z" fill="#FAE12C"/>
<path d="M79.1986 45.2804C85.9182 45.2804 92.159 47.2001 97.4392 50.5591C98.4938 51.2623 99.517 52.0129 100.499 52.8108C103.651 55.3728 102.257 60.0472 98.3068 60.9942C95.3705 61.6981 92.5098 59.8737 91.3316 57.0936C88.2593 49.8446 83.9454 45.2804 79.1986 45.2804Z" fill="#FAE12C"/>
<path d="M79.1987 45.2804C74.4302 45.2804 70.1016 49.8837 66.9368 57.2777C65.7504 60.0495 62.9448 61.8578 60.0122 61.1578C56.0553 60.2133 54.5917 55.5291 57.7496 52.9646C58.7284 52.1696 59.7484 51.4217 60.7995 50.7207C66.0782 47.3586 72.4775 45.2804 79.1987 45.2804Z" fill="#FAE12C"/>
<path d="M63.1997 70.5595C62.6589 73.0813 59.3556 74.1032 57.8051 72.0422C55.0985 68.4443 52.8775 65.0451 51.2549 61.9962C50.9187 61.3646 50.9872 60.5979 51.3841 60.0026C51.8356 59.3253 52.6796 59.0538 53.4557 59.2993C54.7039 59.6941 55.9626 60.0626 57.2241 60.4049C61.4652 61.5554 63.9731 65.9048 63.2516 70.2396C63.2339 70.3458 63.2166 70.4525 63.1997 70.5595Z" fill="#FAE12C"/>
<path d="M96.6388 87.0389C96.7283 87.7484 96.23 88.3987 95.5195 88.4793C93.1769 88.745 90.7069 88.8905 88.1531 89.0054C87.1886 89.0488 86.678 87.8817 87.3607 87.199C88.2215 86.3381 89.0708 85.4657 89.9054 84.5879C92.2799 82.0904 96.6388 83.5928 96.6388 87.0389Z" fill="white"/>
<path d="M71.1983 87.1987C71.881 87.8814 71.3707 89.0409 70.4068 88.9856C67.8548 88.8392 65.3858 88.6406 63.0443 88.4344C62.3415 88.3725 61.8319 87.7386 61.9202 87.0386C61.9202 83.5675 66.2328 82.1997 68.6558 84.6853C69.4723 85.523 70.3189 86.3608 71.1983 87.1987Z" fill="white"/>
<path d="M90.1877 72.4562C92.8207 71.647 95.7376 73.0884 96.0105 75.8295C96.1217 76.9463 95.7528 78.0794 95.0132 78.9235C92.5948 81.6841 89.955 84.4619 87.1974 87.3574C86.9782 87.5772 86.7586 87.797 86.5388 88.0168C85.7313 88.8245 84.6228 89.2743 83.4813 89.3116C81.1081 89.389 79.1971 87.5124 79.1971 85.1379V81.5327C79.1971 77.525 82.3405 74.2856 86.2633 73.4653C87.572 73.1916 88.8816 72.8576 90.1877 72.4562Z" fill="white"/>
<path d="M88.8104 62.9622C91.3643 62.6426 93.8578 64.0139 94.4333 66.5226C94.9427 68.7432 93.7649 71.0856 91.6172 71.8457C89.2382 72.6875 86.8416 73.2995 84.456 73.6676C81.5739 74.1123 79.1971 71.7143 79.1971 68.7981C79.1971 65.8819 81.5635 63.5429 84.4742 63.3635C85.9123 63.2749 87.3561 63.1443 88.8104 62.9622Z" fill="white"/>
<path d="M79.1986 54.3999C79.1986 49.3634 83.6553 45.7351 86.9139 49.5755C88.2132 51.1067 89.4224 53.0098 90.517 55.2233C92.2885 58.8058 89.8156 62.8702 85.8345 63.2216C82.198 63.5427 79.1986 60.5601 79.1986 56.9094V54.3999Z" fill="white"/>
<path d="M72.7011 63.2226C68.7187 62.8713 66.1153 58.7911 67.8887 55.2081C68.9813 53.0005 70.1881 51.1022 71.4847 49.5744C74.7429 45.7348 79.1989 49.3627 79.1989 54.3984V56.9287C79.1989 60.5683 76.3267 63.5423 72.7011 63.2226Z" fill="white"/>
<path d="M72.3342 73.4223C76.0774 74.1563 79.1986 77.1724 79.1986 80.9869V84.6641C79.1986 87.1243 77.1504 89.1617 74.6925 89.0559C73.6418 89.0107 72.7112 88.5511 71.9675 87.8076C71.7111 87.5511 71.4547 87.2948 71.1982 87.039C68.4 84.2395 65.7232 81.3174 63.2768 78.4882C62.6089 77.7156 62.2723 76.6819 62.3906 75.6675C62.7032 72.9871 65.7162 71.5276 68.281 72.3667C69.6301 72.808 70.9829 73.1573 72.3342 73.4223Z" fill="white"/>
<path d="M73.9232 63.3208C76.8317 63.5327 79.1986 65.8819 79.1986 68.7981C79.1986 71.7143 76.8218 74.1122 73.9397 73.6671C71.5761 73.3021 69.2017 72.6977 66.8445 71.868C64.6576 71.0982 63.4583 68.7152 63.9792 66.456C64.5535 63.9655 66.9943 62.5689 69.5306 62.8843C71.004 63.0675 72.4666 63.2146 73.9232 63.3208Z" fill="white"/>
<path d="M59.3169 74.0113C60.9181 76.0472 62.0607 79.0536 61.9114 81.6394C61.8087 83.4198 61.757 85.2294 61.757 87.0389C61.6686 87.7456 61.0225 88.2466 60.3167 88.1514C57.1123 87.7191 54.1724 87.2371 51.4971 86.6583C47.9216 85.8847 45.2775 82.8568 45.2775 79.1986C45.2775 78.211 45.3189 77.2337 45.4004 76.2683C46.013 69.0036 54.8099 68.2809 59.3169 74.0113Z" fill="#FAE12C"/>
<path d="M52.2255 111.033C52.1671 110.828 52.1588 110.399 52.1588 110.399C52.1588 110.399 52.1588 110.399 52.1588 110.399C52.1588 109.119 53.2795 107.998 54.5588 107.998C55.4281 107.998 56.1047 108.383 56.5132 109.004C56.7539 109.37 56.9603 109.8 56.9603 110.238C56.9603 111.519 55.8396 112.639 54.5588 112.639C53.4007 112.783 52.5038 112.011 52.2255 111.033Z" fill="white"/>
<path d="M109.119 47.6788C109.119 48.1037 109.083 48.539 108.881 48.9124C108.473 49.6624 107.753 50.0788 106.719 50.0788C105.559 50.0788 104.664 49.2925 104.384 48.3119C104.326 48.1069 104.318 47.892 104.318 47.6788C104.318 46.398 105.438 45.2788 106.719 45.2788C108 45.2788 109.119 46.398 109.119 47.6788Z" fill="white"/>
<path d="M79.199 113.759C72.6395 113.759 66.08 111.839 60.6397 108.318C56.4802 105.598 52.801 102.079 50.2409 97.918C47.6809 94.0771 46.0798 89.7591 45.2809 85.1177C44.9607 83.1981 44.8006 81.1199 44.8006 79.1987C44.8006 72.6392 46.7203 66.0797 50.2409 60.6394C50.7213 59.8389 51.2 59.2 51.6803 58.558C54.0803 55.1991 57.1206 52.4789 60.6397 50.2391C66.2386 46.7184 72.6395 44.7987 79.3607 44.7987C86.0802 44.7987 92.4796 46.7184 98.0801 50.2391C101.601 52.4789 104.641 55.3576 107.041 58.558C107.521 59.1985 108.002 59.9974 108.48 60.6394C110.56 63.8383 112.001 67.1988 112.8 70.7179C113.44 73.4381 113.921 76.3184 113.921 79.1987C113.921 81.28 113.759 83.1981 113.44 85.1177C112.64 89.5974 111.039 93.9186 108.48 97.7595C105.76 101.919 102.241 105.598 97.9199 108.158C92.3195 111.998 85.7585 113.759 79.199 113.759ZM79.199 46.0795C72.7996 46.0795 66.5588 47.8391 61.2786 51.3598C57.9196 53.4411 55.0377 56.1597 52.6393 59.3602C52.159 59.999 51.6803 60.641 51.1999 61.4415C47.8394 66.7201 45.9197 72.961 45.9197 79.3619C45.9197 81.2816 46.0798 83.2012 46.4 85.1209C47.2005 89.4405 48.8016 93.6016 51.1999 97.2824C53.76 101.28 57.2792 104.642 61.2786 107.202C66.5588 110.561 72.7996 112.481 79.199 112.481C85.5999 112.481 91.6791 110.723 97.1194 107.202C101.119 104.642 104.64 101.122 107.2 97.1223C109.6 93.4431 111.199 89.2836 112 84.9624C112.318 83.0427 112.48 81.1231 112.48 79.2018C112.48 76.4817 112.16 73.7615 111.521 71.0429C110.72 67.5222 109.279 64.3233 107.36 61.283C106.879 60.6441 106.399 59.8436 105.92 59.2048C103.52 56.0027 100.64 53.2841 97.2811 51.2044C91.6791 47.8391 85.5999 46.0795 79.199 46.0795Z" fill="#112152"/>
<path d="M79.1988 113.759C78.8802 113.759 78.56 113.44 78.56 113.12V45.2808C78.56 44.9606 78.8802 44.6404 79.1988 44.6404C79.519 44.6404 79.8392 44.9606 79.8392 45.2808V112.032C79.8392 112.748 79.9148 113.759 79.1988 113.759Z" fill="#112152"/>
<path d="M79.1986 64.3186C74.4003 64.3186 69.7589 63.8383 64.9605 63.0378C60.8263 62.2719 56.5469 61.2144 52.4016 59.8638C52.0272 59.7419 51.6297 59.6516 51.4208 59.318C51.212 58.9845 51.4047 58.4789 51.7463 58.2838C51.9017 58.1951 52.0929 58.1628 52.3203 58.2379C56.6415 59.6788 60.9611 60.7979 65.2807 61.5984C69.9221 62.399 74.5603 62.8793 79.2001 62.8793C83.8415 62.8793 88.4798 62.399 93.1196 61.5984C97.2489 60.8332 101.38 59.7768 105.509 58.4265C105.89 58.302 106.247 58.0758 106.614 58.2354C106.99 58.3986 107.211 58.9516 107.015 59.3108C106.928 59.4692 106.776 59.6066 106.559 59.6788C102.239 61.1181 97.7595 62.3989 93.4398 63.0378C88.6383 63.8399 83.9985 64.3186 79.1986 64.3186Z" fill="#112152"/>
<path d="M96.6389 87.6795C96.3202 87.6795 96 87.3593 96 87.0407C96 83.8402 95.8399 80.6398 95.5196 77.601C95.358 75.1994 95.0394 72.801 94.5606 70.5612C94.0803 67.6825 93.44 64.9607 92.6394 62.4023C89.4406 52.162 84.4805 45.9212 79.3604 45.9212C74.2387 45.9212 69.2802 52.0003 66.0798 62.4023C65.2793 64.9607 64.6404 67.6825 64.1601 70.5612C63.6798 72.801 63.3595 75.201 63.201 77.601C62.8808 80.6398 62.7207 83.8402 62.7207 87.0407C62.7207 87.3593 62.4006 87.6795 62.0803 87.6795C61.7601 87.6795 61.4415 87.3593 61.4415 87.0407C61.4415 83.8402 61.6017 80.6398 61.9219 77.4393C62.082 75.0393 62.5607 72.6409 62.8809 70.2394C63.3612 67.3607 64.1617 64.4789 64.8005 61.9204C68.1611 50.8796 73.6014 44.4802 79.5205 44.4802C85.4396 44.4802 90.8799 50.8796 94.2405 61.9204C95.041 64.4789 95.6798 67.199 96.1601 70.2394C96.6404 72.4792 96.9606 74.8808 97.1191 77.4393C97.4017 80.1217 97.5595 82.9288 97.5928 85.8605C97.6013 86.6157 97.3941 87.6795 96.6389 87.6795Z" fill="#112152"/>
<path d="M79.1988 89.9194C77.119 89.9194 75.0393 89.9194 72.9579 89.7593C68.9585 89.5977 65.1192 89.279 61.4384 88.9588C55.3576 88.1583 49.7588 87.1993 45.4376 85.7583C38.718 83.677 35.1974 80.7983 35.1974 77.9181C35.1974 77.5994 35.5176 77.2792 35.8378 77.2792C36.1564 77.2792 36.4767 77.5994 36.4767 77.9181C36.4767 80.1579 39.8373 82.5594 45.7563 84.4791C49.9158 85.7599 55.3561 86.8791 61.4368 87.6796C65.116 88.1599 68.7969 88.32 72.7963 88.4801C74.8776 88.4801 76.9558 88.6402 78.877 88.6402C80.9568 88.6402 82.8763 88.6402 84.9561 88.4801C88.9555 88.32 92.7965 87.9998 96.3172 87.6796C102.396 87.0407 107.837 85.92 111.998 84.4791C117.917 82.5594 121.276 80.1579 121.276 77.9181C121.276 76.8356 120.078 74.5551 112.327 71.944C111.789 71.7627 111.035 71.6065 111.035 71.0383C111.035 70.7181 111.356 70.3995 111.676 70.3995C111.782 70.3995 111.889 70.4171 111.99 70.4509C119.086 72.836 122.557 75.379 122.557 78.0797C122.557 81.1201 119.036 83.8403 112.316 85.9184C107.997 87.3578 102.556 88.4785 96.3172 89.1189C92.6364 89.5992 88.7971 89.9194 84.7961 89.9194C83.3599 89.9194 81.2786 89.9194 79.1988 89.9194Z" fill="#112152"/>
<path d="M106.557 111.519C104.157 111.519 100.958 110.56 97.1176 108.48C91.6773 105.6 85.2778 101.119 78.7183 95.3597C76.6386 93.6002 74.5589 91.6805 72.4776 89.7609C71.8387 89.2806 71.3584 88.6402 70.5579 87.8412C67.359 84.6392 64.317 81.4403 61.5984 78.0813C56.4799 72.1623 52.4789 66.24 49.9189 61.28C46.5583 54.8806 45.9195 50.4009 48.1593 48.1611C50.2407 46.0797 54.7203 46.56 61.1197 49.9206C61.4399 50.0807 61.6 50.5594 61.4399 50.8796C61.2783 51.1998 60.7996 51.3599 60.4809 51.1998C54.8805 48.3196 50.8795 47.6791 49.2816 49.2786C47.6806 50.8796 48.4811 55.0391 51.3613 60.6396C53.9214 65.4379 57.9224 71.1985 62.8824 77.1191C65.6026 80.318 68.643 83.5185 71.8419 86.719C72.4807 87.3578 73.1227 87.9998 73.7616 88.6386C75.8429 90.5598 77.761 92.4795 79.8423 94.239C86.4018 99.8379 92.641 104.318 97.9212 107.199C103.522 110.078 107.681 110.879 109.281 109.279C110.882 107.68 110.241 103.52 107.361 97.9198C107.201 97.5996 107.361 97.1193 107.681 96.9608C108.001 96.7991 108.482 96.9608 108.642 97.281C110.603 101.016 111.583 104.097 111.646 106.429C111.719 109.173 109.303 111.519 106.557 111.519Z" fill="#112152"/>
<path d="M97.4377 51.3598C96.9481 51.3598 96.6021 50.7512 96.8556 50.3324C96.9209 50.2244 97.0104 50.1344 97.1175 50.0805C99.614 48.8315 101.958 47.8885 104.002 47.397C104.105 47.3722 104.211 47.3604 104.317 47.3604C104.638 47.3604 104.958 47.6805 104.958 48.0008C104.958 48.2864 104.828 48.4459 104.571 48.5901C104.511 48.6243 104.441 48.6396 104.371 48.6396C104.334 48.6396 104.298 48.6441 104.262 48.6531C102.44 49.1133 100.33 49.8617 97.9342 51.0326C97.7684 51.1136 97.6222 51.3598 97.4377 51.3598Z" fill="#112152"/>
<path d="M56.7984 110.4C56.2124 110.4 55.9113 109.494 56.3588 109.116C56.4355 109.051 56.5292 108.997 56.64 108.96C57.9208 108.48 59.2 107.84 60.6394 107.039C65.9196 104.319 72.1604 99.8393 78.7183 94.0788C80.7996 92.3208 82.8794 90.3996 84.799 88.48C85.4379 87.8411 86.0799 87.1991 86.7187 86.5603C89.9176 83.3583 92.9596 80.1594 95.6782 76.9589C100.638 71.0398 104.638 65.2793 107.199 60.4778C110.078 54.8789 110.878 50.7194 109.277 49.1184C109.01 48.8508 108.557 48.6786 108.491 48.3058C108.483 48.2609 108.479 48.2123 108.479 48.1594C108.479 47.8392 108.797 47.5205 109.117 47.5205C109.328 47.5205 109.538 47.5645 109.721 47.6687C109.81 47.7193 109.895 47.7739 109.972 47.8365C110.188 48.0131 110.345 48.255 110.518 48.4742C112.265 50.6868 111.677 55.1839 108.479 61.2783C105.918 66.2383 101.917 71.9989 96.7988 78.0796C94.0787 81.2801 91.0383 84.6391 87.8395 87.8396C87.199 88.4784 86.5587 89.1188 85.9183 89.7592C83.8385 91.6789 81.7587 93.5985 79.8391 95.358C73.278 101.119 66.8787 105.598 61.4399 108.479C60.1648 109.186 58.891 109.768 57.7271 110.226C57.4314 110.342 57.1162 110.4 56.7984 110.4Z" fill="#112152"/>
<path d="M51.8388 111.519C51.8387 111.519 51.8388 111.519 51.8386 111.519C50.2393 111.519 49.1186 111.039 48.3182 110.238C46.2384 108.159 46.7187 103.679 50.0777 97.4397C50.2394 97.1195 50.7181 96.9593 51.0383 97.1194C51.3569 97.2811 51.5186 97.7599 51.3569 98.0785C48.4782 103.52 47.8362 107.68 49.4373 109.278C50.0761 109.918 51.0384 110.237 52.316 110.078C52.7979 110.078 53.1165 110.399 53.1165 110.719C53.1165 110.826 53.0803 110.934 53.0201 111.029C52.7869 111.399 52.2761 111.519 51.8388 111.519Z" fill="#112152"/>
<path d="M106.719 50.7197C105.118 50.7197 103.839 49.5989 103.679 47.9995C103.679 47.8394 103.679 47.6793 103.679 47.6793C103.679 47.6793 103.679 47.6793 103.679 47.6793C103.679 45.9197 105.118 44.6389 106.719 44.6389C108.478 44.6389 109.759 46.0783 109.759 47.6793C109.759 48.2268 109.606 48.7813 109.345 49.2628C108.875 50.1322 107.845 50.7197 106.719 50.7197ZM106.719 46.0798C105.76 46.0798 105.118 46.8804 105.118 47.6809C105.118 47.7874 105.127 47.8942 105.156 47.9966C105.364 48.7227 105.971 49.2803 106.719 49.2803C107.461 49.2803 108.064 48.8674 108.276 48.1705C108.31 48.0594 108.318 47.8813 108.318 47.7652C108.318 47.6682 108.329 47.6327 108.336 47.536C108.396 46.6564 107.629 46.0798 106.719 46.0798Z" fill="#112152"/>
<path d="M54.5586 113.44C52.9591 113.44 51.6799 112.319 51.5198 110.88C51.5198 110.72 51.5198 110.56 51.5198 110.4C51.5198 108.64 52.9591 107.359 54.5586 107.359C55.6055 107.359 56.6513 107.894 57.2607 108.876C57.5404 109.326 57.5989 109.87 57.5989 110.4C57.5989 112.159 56.158 113.44 54.5586 113.44ZM54.5586 108.639C53.598 108.639 52.9591 109.439 52.9591 110.238C52.9591 110.451 52.9721 110.667 53.0469 110.866C53.2911 111.517 53.8652 111.998 54.5586 111.998C55.5176 111.998 56.1596 111.199 56.1596 110.398C56.1596 110.081 56.1119 109.758 55.9398 109.492C55.5908 108.951 55.0752 108.639 54.5586 108.639Z" fill="#112152"/>
<path d="M79.1986 74.8807C73.7583 74.8807 68.3196 73.5999 62.8793 71.2C62.1231 70.8759 61.3677 70.4797 60.612 70.1087C59.897 69.7577 59.0052 69.1936 59.3586 68.4798C59.5187 68.1612 59.9974 67.9995 60.3176 68.1612C61.4383 68.8 62.3989 69.2803 63.5165 69.7606C68.7967 72.1621 74.0769 73.2813 79.197 73.2813C84.4772 73.2813 89.7575 72.0004 94.8776 69.7606C95.9983 69.2803 96.9589 68.8016 98.0781 68.1612C98.3983 67.9995 98.8786 68.1612 99.0387 68.4798C99.1988 68.8 99.0387 69.2803 98.7185 69.4388C97.5977 70.0792 96.4786 70.5595 95.3579 71.0398C90.0793 73.5999 84.6374 74.8807 79.1986 74.8807Z" fill="#112152"/>
</svg>
