<svg width="160" height="160" viewBox="0 0 160 160" fill="none" xmlns="http://www.w3.org/2000/svg">
<path d="M0 80C0 124.183 35.8172 160 80 160C124.183 160 160 124.183 160 80C160 35.8172 124.183 0 80 0C35.8172 0 0 35.8172 0 80Z" fill="white"/>
<path d="M62.5593 67.199C63.1997 67.199 63.8401 67.6793 63.8401 68.4798C63.8401 69.1202 63.2013 69.7606 62.5593 69.7606C61.9205 69.7606 61.2785 69.2803 61.2785 68.4798C61.2785 67.6793 61.9189 67.199 62.5593 67.199Z" fill="white"/>
<path d="M101.989 50.9043C102.065 50.8605 102.112 50.9141 102.174 50.9757L105.12 53.9199C105.208 54.0081 105.207 54.1512 105.118 54.2385C104.318 55.039 102.878 55.039 101.918 54.2385C101.142 53.4647 101.118 52.0886 101.844 51.1314C101.89 51.071 101.924 50.9425 101.989 50.9043Z" fill="white"/>
<path d="M100.749 48.136C101.123 47.715 101.775 47.696 102.173 48.0945L107.918 53.8392C108.309 54.2302 108.29 54.8698 107.877 55.2372C107.497 55.5753 106.919 55.5583 106.559 55.1984L105.28 53.9196L102.078 50.8792L100.761 49.452C100.419 49.0817 100.414 48.5125 100.749 48.136Z" fill="white"/>
<path d="M107.785 48.1428C108.16 48.5176 108.767 48.5176 109.142 48.1428C109.517 47.768 109.517 47.1603 109.142 46.7854C108.767 46.4106 108.16 46.4106 107.785 46.7854C107.41 47.1603 107.41 47.768 107.785 48.1428Z" fill="white"/>
<path d="M109.008 54.0086C108.976 54.0561 108.919 54.1197 108.885 54.1659C108.739 54.3645 108.541 54.302 108.367 54.1277L103.846 49.6072C102.605 48.3661 102.724 46.241 104.479 46.241C105.598 46.241 106.559 46.5612 107.358 47.3601L108.797 48.7994C110.059 50.2191 110.078 52.4144 109.008 54.0086Z" fill="white"/>
<path d="M114.238 61.1199C115.519 61.1199 116.479 62.0789 116.479 63.3597C116.479 64.6405 115.517 65.5996 114.238 65.5996C112.958 65.5996 111.999 64.6405 111.999 63.3597C111.999 62.0805 112.958 61.1199 114.238 61.1199Z" fill="white"/>
<path d="M114.558 76.3203C114.558 77.292 113.77 78.0798 112.798 78.0798H103.519C102.547 78.0798 101.759 77.292 101.759 76.3203C101.759 75.3612 102.558 74.5607 103.519 74.5607H109.118H109.646C111.638 74.5607 114.558 74.3283 114.558 76.3203Z" fill="white"/>
<path d="M94.0791 73.1194C94.0791 73.2795 94.0791 73.4396 94.0791 73.4396C94.0791 73.4396 94.0791 73.4396 94.0791 73.4396V73.5997V73.7598C94.0791 73.9146 94.0791 74.0526 94.0736 74.1793C94.0532 74.6575 93.8838 75.164 93.7853 75.6324C93.4686 77.14 92.0156 77.9178 90.4751 77.9178H90.0518C88.1068 77.9178 86.216 76.8301 85.8953 74.9117C85.8076 74.3869 85.7585 73.8406 85.7585 73.2779C85.7585 72.8022 85.7868 72.3264 85.8435 71.8589C86.0793 69.9125 87.9573 68.7982 89.9179 68.7982H91.19C92.3719 68.7982 93.5516 69.4348 93.8497 70.5785C93.8621 70.6261 93.874 70.6743 93.8853 70.723C93.9093 70.8268 93.919 70.9332 93.919 71.0397C93.919 71.1998 93.919 71.1998 93.919 71.3599V71.52V71.6801C93.919 71.8402 93.919 71.8402 93.919 72.0003C93.919 72.1604 93.919 72.3205 93.919 72.4806V72.6407C94.0791 72.9593 94.0791 72.9593 94.0791 73.1194Z" fill="white"/>
<path d="M99.3578 87.6794C99.8381 87.6794 100.318 88.1597 100.318 88.6385C100.318 89.2789 99.8381 89.7592 99.3578 89.7592C98.719 89.7592 98.2387 89.2789 98.2387 88.6385C98.2387 88.1597 98.719 87.6794 99.3578 87.6794Z" fill="white"/>
<path d="M79.1989 87.6794C79.8393 87.6794 80.3196 88.1597 80.3196 88.6385C80.3196 89.2789 79.8393 89.7592 79.1989 89.7592C79.1373 89.7592 79.0772 89.7547 79.0189 89.7461C77.9785 89.592 78.1472 87.6794 79.1989 87.6794Z" fill="white"/>
<path d="M59.1987 87.6794C59.8375 87.6794 60.3178 88.1597 60.3178 88.6385C60.3178 89.2789 59.8375 89.7592 59.1987 89.7592C58.5583 89.7592 58.0779 89.2789 58.0779 88.6385C58.0779 88.1597 58.5583 87.6794 59.1987 87.6794Z" fill="white"/>
<path d="M85.7591 85.2795C87.7031 85.2795 89.279 86.8554 89.279 88.7994C89.279 90.7434 87.7031 92.3193 85.7591 92.3193H72.6386C70.6946 92.3193 69.1187 90.7434 69.1187 88.7994C69.1187 86.8554 70.6946 85.2795 72.6386 85.2795H85.7591ZM80.3195 88.8002C80.3195 88.1598 79.8393 87.8396 79.1988 87.8396C78.56 87.8396 78.0797 88.3199 78.0797 88.8002C78.0797 88.814 78.0799 88.8277 78.0804 88.8414C78.1176 89.9881 80.3195 89.9475 80.3195 88.8002Z" fill="white"/>
<path d="M105.758 85.2795C107.702 85.2795 109.278 86.8554 109.278 88.7994C109.278 90.7434 107.702 92.3193 105.758 92.3193H92.7989C90.8549 92.3193 89.279 90.7434 89.279 88.7994C89.279 86.8554 90.8549 85.2795 92.7989 85.2795H105.758ZM100.318 88.8002C100.318 88.1598 99.8379 87.8396 99.3575 87.8396C98.7187 87.8396 98.2384 88.3199 98.2384 88.8002C98.2384 88.8611 98.2428 88.9205 98.2511 88.9781C98.4028 90.0203 100.318 89.8533 100.318 88.8002Z" fill="white"/>
<path d="M65.5989 85.2795C67.5429 85.2795 69.1188 86.8554 69.1188 88.7994C69.1188 90.7434 67.5429 92.3193 65.5989 92.3193H52.6385C50.6945 92.3193 49.1186 90.7434 49.1186 88.7994C49.1186 86.8554 50.6945 85.2795 52.6385 85.2795H65.5989ZM60.1594 88.8002C60.1594 88.1598 59.679 87.8396 59.0386 87.8396C58.3998 87.8396 57.9195 88.3199 57.9195 88.8002C57.9195 88.814 57.9197 88.8277 57.9202 88.8413C57.9573 89.988 60.1594 89.9475 60.1594 88.8002Z" fill="white"/>
<path d="M49.1186 92.3193V107.44C49.1186 109.429 47.5069 111.04 45.5187 111.04C43.5305 111.04 41.9188 109.429 41.9188 107.44V88.8795C41.9188 86.8913 43.5305 85.2795 45.5187 85.2795C47.5069 85.2795 49.1186 86.8913 49.1186 88.8795V92.3193Z" fill="#FAE12C"/>
<path d="M112.878 85.2795C114.867 85.2795 116.479 86.8917 116.479 88.8803V107.44C116.479 109.428 114.867 111.04 112.878 111.04C110.89 111.04 109.278 109.428 109.278 107.44V92.3193V88.8803C109.278 86.8917 110.89 85.2795 112.878 85.2795Z" fill="#FAE12C"/>
<path d="M122.4 82.3995C122.4 83.9902 121.11 85.2797 119.52 85.2797H116.479H109.278H89.2792H69.1188H49.1186H41.9188H41.3592C39.371 85.2797 37.7592 83.668 37.7592 81.6798C37.7592 79.6916 39.371 78.0798 41.3592 78.0798H56.7988H68.4784H86.8776H92.9583H101.919H114.558H118.08C120.466 78.0798 122.4 80.0138 122.4 82.3995Z" fill="#FAE12C"/>
<path d="M62.5594 69.6004C63.1998 69.6004 63.8402 69.12 63.8402 68.3195C63.8402 67.6791 63.2014 67.0387 62.5594 67.0387C61.9205 67.0387 61.2786 67.519 61.2786 68.3195C61.2786 69.12 61.919 69.6004 62.5594 69.6004ZM80.6399 64.7989V69.4387C80.6399 70.5578 79.6777 71.52 78.5586 71.52H66.5588H58.2398H54.7191H46.3985C45.2793 71.52 44.3203 70.5594 44.3203 69.4387V46.3997C44.3203 45.279 45.2793 44.3184 46.3985 44.3184C60.3179 44.3184 65.278 44.3184 78.5586 44.3184C79.6777 44.3184 80.6399 45.2774 80.6399 46.3997V64.7989Z" fill="white"/>
<path d="M122.399 85.9196H116.48C116.16 85.9196 115.84 85.5994 115.84 85.2792C115.84 84.959 116.16 84.6388 116.48 84.6388H118.719C120.309 84.6388 121.599 83.3492 121.599 81.7585C121.599 80.1678 120.309 78.8782 118.719 78.8782H114.559C114.239 78.8782 113.92 78.558 113.92 78.2378C113.92 77.9176 114.239 77.599 114.559 77.599H122.239C122.56 77.599 122.88 77.9192 122.88 78.2378V84.6272C122.88 85.1467 122.919 85.9196 122.399 85.9196Z" fill="#112152"/>
<path d="M101.919 78.8801H92.9595C92.6393 78.8801 92.3208 78.5599 92.3208 78.2397C92.3208 77.9195 92.6393 77.6008 92.9595 77.6008H101.919C102.239 77.6008 102.558 77.921 102.558 78.2397C102.558 78.5599 102.239 78.8801 101.919 78.8801Z" fill="#112152"/>
<path d="M86.8773 78.8801H68.4782C68.1596 78.8801 67.8393 78.5599 67.8393 78.2397C67.8393 77.9195 68.1596 77.6008 68.4782 77.6008H86.8773C87.1975 77.6008 87.5177 77.921 87.5177 78.2397C87.5193 78.5599 87.1975 78.8801 86.8773 78.8801Z" fill="#112152"/>
<path d="M41.9186 85.9199H37.759C37.4388 85.9199 37.1186 85.5997 37.1186 85.2795V78.0796C37.1186 77.7594 37.4388 77.4392 37.759 77.4392H56.6386C56.9588 77.4392 57.2773 77.7594 57.2773 78.0796C57.2773 78.3998 56.9588 78.72 56.6386 78.72H41.439C39.8487 78.72 38.5595 80.0092 38.5595 81.5995C38.5595 83.1898 39.8487 84.479 41.439 84.479H41.9186C42.2388 84.479 42.559 84.7992 42.559 85.1194C42.559 85.4396 42.3989 85.9199 41.9186 85.9199Z" fill="#112152"/>
<path d="M41.9186 111.681C41.5984 111.681 41.2798 111.36 41.2798 111.04V85.281C41.2798 84.9608 41.5984 84.6406 41.9186 84.6406H49.1185C49.4387 84.6406 49.7589 84.9608 49.7589 85.281C49.7589 85.6013 49.4387 85.9214 49.1185 85.9214C45.5842 85.9214 42.7191 88.7865 42.7191 92.3208V110.882C42.7191 111.359 42.3989 111.681 41.9186 111.681Z" fill="#112152"/>
<path d="M49.1184 111.681C48.7998 111.681 48.4796 111.361 48.4796 111.04V92.3194C48.4796 91.9991 48.7998 91.679 49.1184 91.679C49.4386 91.679 49.7588 91.9991 49.7588 92.3194V110.88C49.7588 111.359 49.4386 111.681 49.1184 111.681Z" fill="#112152"/>
<path d="M116.479 111.68H109.277C108.959 111.68 108.639 111.36 108.639 111.04V92.3191C108.639 91.9989 108.959 91.6787 109.277 91.6787C109.598 91.6787 109.918 91.9989 109.918 92.3191V107.359C109.918 108.95 111.207 110.24 112.798 110.24C114.389 110.24 115.678 108.95 115.678 107.359V92.3207C115.678 88.7856 112.813 85.9198 109.277 85.9198C108.959 85.9198 108.639 85.5995 108.639 85.2793C108.639 84.9591 108.959 84.6389 109.277 84.6389H116.479C116.798 84.6389 117.118 84.9591 117.118 85.2793V111.038C117.118 111.359 116.798 111.68 116.479 111.68Z" fill="#112152"/>
<path d="M69.1186 93.1194H49.1184C48.7998 93.1194 48.4796 92.7992 48.4796 92.479V85.4392C48.4796 85.119 48.7998 84.7988 49.1184 84.7988H69.1186C69.4388 84.7988 69.7575 85.119 69.7575 85.4392C69.7575 85.7594 69.4388 86.0781 69.1186 86.0781H52.559C51.0125 86.0781 49.7588 87.3318 49.7588 88.8783C49.7588 90.4248 51.0125 91.6785 52.559 91.6785H69.1186C69.4388 91.6785 69.7575 91.9987 69.7575 92.3189C69.759 92.6391 69.5989 93.1194 69.1186 93.1194Z" fill="#112152"/>
<path d="M89.2789 93.1194H69.1186C68.7984 93.1194 68.4782 92.7992 68.4782 92.479V85.4392C68.4782 85.119 68.7984 84.7988 69.1186 84.7988H89.1171C89.4373 84.7988 89.7576 85.119 89.7576 85.4392C89.7576 85.7594 89.4373 86.0781 89.1171 86.0781H72.7193C71.1728 86.0781 69.9191 87.3318 69.9191 88.8783C69.9191 90.4248 71.1728 91.6785 72.7193 91.6785H89.2789C89.5991 91.6785 89.9177 91.9987 89.9177 92.3189C89.9177 92.6391 89.5991 93.1194 89.2789 93.1194Z" fill="#112152"/>
<path d="M109.277 93.1194H89.2788C88.9586 93.1194 88.6384 92.7992 88.6384 92.479V85.4392C88.6384 85.119 88.9586 84.7988 89.2788 84.7988H109.277C109.598 84.7988 109.918 85.119 109.918 85.4392V91.3879C109.918 92.1054 109.995 93.1194 109.277 93.1194ZM89.9176 88.8783C89.9176 90.4248 91.1713 91.6785 92.7178 91.6785H105.678C107.225 91.6785 108.479 90.4248 108.479 88.8783C108.479 87.3318 107.225 86.0781 105.678 86.0781H92.7178C91.1713 86.0781 89.9176 87.3318 89.9176 88.8783Z" fill="#112152"/>
<path d="M59.1987 90.5595C58.2397 90.5595 57.4392 89.759 57.4392 88.7999C57.4392 87.8393 58.2397 87.0404 59.1987 87.0404C60.1594 87.0404 60.9583 87.8393 60.9583 88.7999C60.9598 89.7605 60.1594 90.5595 59.1987 90.5595ZM59.1987 88.4797C59.037 88.4797 58.8785 88.6398 58.8785 88.7999C58.8785 88.96 59.0386 89.1202 59.1987 89.1202C59.3588 89.1202 59.5173 88.96 59.5173 88.7999C59.5189 88.6398 59.3588 88.4797 59.1987 88.4797Z" fill="#112152"/>
<path d="M79.1987 90.5595C78.2397 90.5595 77.4392 89.759 77.4392 88.7999C77.4392 87.8393 78.2397 87.0404 79.1987 87.0404C80.1609 87.0404 80.9583 87.8393 80.9583 88.7999C80.9583 89.7605 80.1594 90.5595 79.1987 90.5595ZM79.1987 88.4797C79.0386 88.4797 78.8801 88.6398 78.8801 88.7999C78.8801 88.96 79.0402 89.1202 79.1987 89.1202C79.3604 89.1202 79.5189 88.96 79.5189 88.7999C79.5189 88.6398 79.3588 88.4797 79.1987 88.4797Z" fill="#112152"/>
<path d="M99.3575 90.5595C98.3985 90.5595 97.598 89.759 97.598 88.7999C97.598 87.8393 98.3985 87.0404 99.3575 87.0404C99.372 87.0404 99.3865 87.0406 99.4009 87.0409C101.208 87.0862 101.165 90.5595 99.3575 90.5595ZM99.3575 88.4797C99.1974 88.4797 99.0389 88.6398 99.0389 88.7999C99.0389 88.96 99.199 89.1202 99.3575 89.1202C99.3657 89.1202 99.3738 89.1197 99.3819 89.119C99.6828 89.0896 99.6598 88.4797 99.3575 88.4797Z" fill="#112152"/>
<path d="M78.7182 72.3189H66.7201C66.3999 72.3189 66.0797 71.9986 66.0797 71.6784C66.0797 71.3582 66.3999 71.038 66.7201 71.038H78.7182C79.3586 71.038 79.9991 70.3976 79.9991 69.7588V46.3996C79.9991 45.7592 79.3602 45.1188 78.7182 45.1188H46.3981C45.7592 45.1188 45.1173 45.7592 45.1173 46.3996V69.5987C45.1173 70.2391 45.7576 70.8795 46.3981 70.8795H58.3979C58.7181 70.8795 59.0367 71.1997 59.0367 71.5199C59.0367 71.8401 58.7181 72.1588 58.3979 72.1588H46.3981C44.9587 72.1588 43.6779 70.8795 43.6779 69.4386V46.3996C43.6779 44.9587 44.9587 43.6794 46.3981 43.6794H78.5582C79.9975 43.6794 81.2784 44.9603 81.2784 46.3996V69.5987C81.4385 71.0396 80.1592 72.3189 78.7182 72.3189Z" fill="#112152"/>
<path d="M68.4782 78.8799H56.7985C56.6384 78.8799 56.3183 78.7198 56.1598 78.5597C55.8424 78.2423 56.0585 77.6997 56.1747 77.2661L57.5365 72.1851C57.6835 71.6364 57.8299 70.8795 58.398 70.8795H66.7187C67.3103 70.8795 67.4369 71.6489 67.5938 72.2194L69.0322 77.4504C69.0885 77.6553 69.1171 77.8669 69.1171 78.0794C69.1186 78.5597 68.7984 78.8799 68.4782 78.8799ZM58.3937 74.2599C57.9901 75.8756 59.2121 77.4406 60.8774 77.4406H64.0797C65.7453 77.4406 66.9674 75.8751 66.5632 74.2592C66.2781 73.1197 65.2543 72.3204 64.0797 72.3204H60.8774C59.7026 72.3204 58.6785 73.1201 58.3937 74.2599Z" fill="#112152"/>
<path d="M62.5593 70.3993C61.4401 70.3993 60.6396 69.6003 60.6396 68.4796C60.6396 67.3604 61.4401 66.5599 62.5593 66.5599C63.68 66.5599 64.4805 67.5206 64.4805 68.4796C64.4789 69.4402 63.68 70.3993 62.5593 70.3993ZM62.5593 67.8392C62.2406 67.8392 62.079 67.9993 62.079 68.3195C62.079 68.6397 62.2406 68.7998 62.5593 68.7998C62.8795 68.7998 63.0395 68.6397 63.0395 68.3195C63.038 68.161 62.8795 67.8392 62.5593 67.8392Z" fill="#112152"/>
<path d="M80.6398 65.5994H47.3589C47.0403 65.5994 46.7201 65.2792 46.7201 64.959C46.7201 64.6388 47.0403 64.3186 47.3589 64.3186H80.6398C80.9584 64.3186 81.2786 64.6388 81.2786 64.959C81.2786 65.2808 81.1201 65.5994 80.6398 65.5994Z" fill="#112152"/>
<path d="M71.8387 55.9994C71.6786 55.9994 71.5186 55.9994 71.3585 55.8393C70.8352 55.3161 71.6252 54.6119 72.1484 54.0887L75.8382 50.399C75.9829 50.2542 76.1604 50.1749 76.3261 50.161C76.697 50.13 77.0394 50.5705 77.0373 50.9427C77.0353 51.3104 76.6646 51.4921 76.4046 51.7521L72.3175 55.8393C72.159 55.9994 71.9988 55.9994 71.8387 55.9994Z" fill="#112152"/>
<path d="M67.0388 57.5988C66.8787 57.5988 66.7203 57.5988 66.5586 57.4387C66.0353 56.9155 66.8253 56.2114 67.3486 55.6881L72.9579 50.0788C73.1033 49.9333 73.2818 49.854 73.4483 49.8406C73.8187 49.811 74.1594 50.25 74.1575 50.6215C74.1557 50.989 73.7862 51.1718 73.5263 51.4316L67.8763 57.0816C67.6387 57.3192 67.3748 57.5988 67.0388 57.5988Z" fill="#112152"/>
<path d="M63.8384 60.7995C63.6783 60.7995 63.5182 60.7995 63.3581 60.6394C62.8355 60.1168 63.6245 59.4137 64.1467 58.8908L64.7974 58.2394C64.9422 58.0947 65.1197 58.0153 65.2854 58.0015C65.6563 57.9704 65.9987 58.4109 65.9966 58.7831C65.9946 59.1508 65.6239 59.3326 65.3639 59.5926L64.3172 60.6394C64.1587 60.7995 63.9985 60.7995 63.8384 60.7995Z" fill="#112152"/>
<path d="M114.558 78.8797H101.759C101.439 78.8797 101.119 78.5595 101.119 78.2393V76.4797C101.119 75.0388 102.239 73.9197 103.679 73.9197H112.798C114.238 73.9197 115.358 75.0388 115.358 76.4797V78.2393C115.358 78.5595 115.038 78.8797 114.558 78.8797ZM102.558 76.3196C102.558 76.9386 103.06 77.4403 103.679 77.4403H112.798C113.417 77.4403 113.919 76.9386 113.919 76.3196C113.919 75.6792 113.439 75.2005 112.798 75.2005H103.679C103.04 75.2005 102.558 75.6808 102.558 76.3196Z" fill="#112152"/>
<path d="M114.238 66.2397C112.638 66.2397 111.359 64.9588 111.359 63.3594C111.359 61.76 112.64 60.4791 114.238 60.4791C115.839 60.4791 117.118 61.76 117.118 63.3594C117.278 64.9588 115.839 66.2397 114.238 66.2397ZM114.238 61.7599C113.439 61.7599 112.798 62.4004 112.798 63.1993C112.798 63.9998 113.439 64.6402 114.238 64.6402C115.742 64.6402 115.742 61.7599 114.238 61.7599Z" fill="#112152"/>
<path d="M113.118 62.0804C112.628 62.0804 112.354 61.5462 112.105 61.1229L108.158 54.4003C108.042 54.1677 108.01 53.8516 108.186 53.6346C108.334 53.4502 108.583 53.3625 108.82 53.3471C109.058 53.3316 109.299 53.4233 109.418 53.7056C109.433 53.7419 109.439 53.7815 109.439 53.8209C109.439 53.8868 109.457 53.9513 109.491 54.0078L113.759 61.1214C113.881 61.3632 113.911 61.6964 113.711 61.9133C113.567 62.0701 113.332 62.0804 113.118 62.0804Z" fill="#112152"/>
<path d="M109.278 75.1993C109.028 75.1993 108.796 74.9733 108.677 74.7541C108.564 74.5455 108.538 74.2808 108.639 74.0801L113.599 65.1207C113.759 64.8005 114.238 64.6404 114.559 64.8005C114.88 64.9606 115.04 65.4409 114.88 65.7611L109.92 74.7205C109.76 75.0392 109.439 75.1993 109.278 75.1993Z" fill="#112152"/>
<path d="M92.9581 78.8801H86.8773C86.3872 78.8801 86.1096 78.3465 85.9048 77.9012C85.3064 76.5996 84.9577 75.0992 84.9577 73.5999C84.9577 72.1052 85.1887 70.7249 85.749 69.4609C85.9476 69.0129 86.2271 68.4797 86.7172 68.4797H93.1165C93.6069 68.4797 93.8764 69.0201 94.0647 69.4728C94.221 69.8487 94.3633 70.2531 94.4703 70.6639C94.5348 70.9118 94.6506 71.1735 94.5666 71.4154C94.5608 71.4321 94.5543 71.4485 94.5472 71.4648C94.3807 71.8465 93.8111 71.9908 93.4863 71.7302C93.4519 71.7026 93.4205 71.6723 93.3929 71.6398C93.2604 71.4837 93.2468 71.2748 93.1871 71.0789C92.9506 70.3014 92.2482 69.7606 91.4355 69.7606H89.9535C88.3774 69.7606 86.8694 70.6909 86.6433 72.2507C86.5864 72.6439 86.5555 73.0418 86.5555 73.4398C86.5555 73.9031 86.5885 74.3663 86.6492 74.8187C86.869 76.4561 88.4264 77.4392 90.0784 77.4392H90.4487C91.7884 77.4392 93.0462 76.6811 93.3601 75.3787C93.4146 75.1522 93.432 74.9204 93.4815 74.6928C93.5293 74.4729 93.5969 74.2296 93.5969 73.9201C93.5969 73.8317 93.6686 73.76 93.757 73.76H94.8761C94.9645 73.76 95.0362 73.8317 95.0362 73.9201C95.0362 74.0338 95.0362 74.1385 95.034 74.2386C95.0201 74.89 94.8497 75.53 94.7143 76.1674C94.59 76.7532 94.4174 77.3005 94.178 77.8096C93.9373 78.3215 93.5238 78.8801 92.9581 78.8801Z" fill="#112152"/>
<path d="M94.0789 73.7598C93.7587 73.7598 93.4385 73.4396 93.4385 73.1194V72.9593C93.4385 72.6391 93.7587 72.1588 94.0789 72.1588C94.3976 72.1588 94.8779 72.479 94.8779 72.7992C94.8779 73.0098 94.8375 73.2245 94.7049 73.3881C94.5352 73.5973 94.3071 73.7598 94.0789 73.7598Z" fill="#112152"/>
<path d="M94.0788 73.4398C93.7586 73.4398 93.4384 73.1196 93.4384 72.7994C93.4384 72.6393 93.4384 72.4792 93.4384 72.3191C93.4384 72.159 93.4384 72.159 93.4384 71.9989V71.8388V71.6787C93.4384 71.4681 93.3627 71.2509 93.411 71.0459C93.4272 70.9771 93.4558 70.9093 93.4934 70.8473C93.6762 70.5458 94.1285 70.4299 94.4301 70.6124C94.5947 70.7121 94.7193 70.8752 94.7193 71.0383C94.7193 71.1984 94.7193 71.1984 94.7193 71.3585V71.5186V71.6787C94.7193 71.8388 94.7193 71.8388 94.7193 71.9989C94.7193 72.159 94.7193 72.3191 94.7193 72.4792C94.7193 73.1196 94.399 73.4398 94.0788 73.4398Z" fill="#112152"/>
<path d="M94.2389 75.6795C94.0788 75.6795 93.9188 75.6795 93.9188 75.6795C93.9188 75.6795 93.9188 75.6795 93.9188 75.6795C93.7603 75.6795 93.6001 75.5194 93.4384 75.3593C93.2783 75.1992 93.2783 75.0391 93.2783 74.7189C93.2783 74.3987 93.4384 73.9184 93.4384 73.5982V73.4381V73.278C93.4384 73.1179 93.4384 73.1179 93.4384 72.9578V72.7977C93.4384 72.7977 93.4384 72.7977 93.4384 72.7977C93.4384 72.7977 93.4384 72.7977 93.4384 72.6376C93.4384 72.4775 93.4384 72.3174 93.4384 72.1573C93.4384 71.9972 93.4384 71.9972 93.4384 71.8371V71.677V71.5168C93.4384 71.3567 93.4384 71.3568 93.4384 71.1967V71.0366C93.4384 70.8764 93.4384 70.5563 93.6001 70.3962C93.7602 70.236 93.9188 70.0759 94.0805 70.0759C94.2406 70.0759 94.399 70.0759 94.5607 70.0759C97.6487 70.0759 97.6368 75.4246 94.5584 75.6671C94.4532 75.6753 94.3467 75.6795 94.2389 75.6795ZM94.7193 72.6392C94.7193 72.7993 94.7193 72.9594 94.7193 73.1195C94.7193 73.2796 94.7193 73.4397 94.7193 73.4397C94.7193 73.4397 94.7193 73.4397 94.7193 73.4397C94.7193 73.5998 94.7193 73.5998 94.7193 73.7599V73.92C94.7193 74.0826 94.8727 74.2016 95.0232 74.1402C95.5469 73.9266 96.0001 73.5233 96.0001 73.1211C96.0001 72.5828 95.5477 72.1576 95.0231 71.9406C94.8728 71.8784 94.7193 71.9978 94.7193 72.1604C94.7193 72.319 94.7193 72.4807 94.7193 72.6392Z" fill="#112152"/>
<path d="M87.3594 63.3597C87.0392 63.3597 86.7189 63.0395 86.7189 62.7193V60.3194C86.7189 59.9991 87.0392 59.679 87.3594 59.679C87.678 59.679 87.9982 59.9991 87.9982 60.3194V61.6293C87.9982 62.3462 88.0763 63.3597 87.3594 63.3597Z" fill="#112152"/>
<path d="M89.439 66.4001C89.1188 66.4001 88.8003 66.0799 88.8003 65.7597V62.0789C88.8003 61.7587 89.1188 61.4401 89.439 61.4401C89.7592 61.4401 90.0795 61.7603 90.0795 62.0789V65.5996C90.0795 66.0799 89.7592 66.4001 89.439 66.4001Z" fill="#112152"/>
<path d="M95.5183 111.681H38.398C38.0794 111.681 37.7592 111.36 37.7592 111.04C37.7592 110.72 38.0794 110.4 38.398 110.4H95.6784C95.9987 110.4 96.3188 110.72 96.3188 111.04C96.3188 111.359 95.9986 111.681 95.5183 111.681Z" fill="#112152"/>
<path d="M111.517 114.879H71.8388C71.5186 114.879 71.1984 114.559 71.1984 114.239C71.1984 113.919 71.5186 113.598 71.8388 113.598H111.517C111.838 113.598 112.158 113.919 112.158 114.239C112.159 114.559 111.838 114.879 111.517 114.879Z" fill="#112152"/>
<path d="M120.48 114.879H115.518C115.2 114.879 114.879 114.559 114.879 114.239C114.879 113.919 115.2 113.598 115.518 113.598H120.48C120.798 113.598 121.119 113.919 121.119 114.239C121.119 114.559 120.959 114.879 120.48 114.879Z" fill="#112152"/>
<path d="M54.879 114.719H35.9996C35.6794 114.719 35.3607 114.399 35.3607 114.08C35.3607 113.76 35.6794 113.44 35.9996 113.44H54.7205C55.0391 113.44 55.3594 113.76 55.3594 114.08C55.3578 114.399 55.1992 114.719 54.879 114.719Z" fill="#112152"/>
<path d="M122.4 83.0394H59.9992C59.6806 83.0394 59.3603 82.7191 59.3603 82.3989C59.3603 82.0787 59.6806 81.7585 59.9992 81.7585H122.24C122.56 81.7585 122.88 82.0787 122.88 82.3989C122.878 82.7191 122.718 83.0394 122.4 83.0394Z" fill="#112152"/>
<path d="M103.519 55.5193C102.718 55.5193 101.918 55.1991 101.437 54.7203C100.957 54.24 100.637 53.4395 100.637 52.639C100.637 51.9162 100.899 51.3232 101.304 50.7426C101.391 50.619 101.491 50.5057 101.597 50.3991C101.803 50.1933 102.075 50.1859 102.286 50.2921C102.514 50.4076 102.695 50.6445 102.727 50.8988C102.749 51.0748 102.687 51.2522 102.574 51.3806C102.477 51.4912 102.34 51.5742 102.236 51.6784C101.916 51.9986 101.756 52.3188 101.756 52.7975C101.756 53.2778 101.916 53.598 102.236 53.9182C102.555 54.2385 102.875 54.3985 103.355 54.3985C103.622 54.3985 104 54.2874 104.304 54.0651C104.419 53.9811 104.536 53.8587 104.636 53.7581C104.789 53.6055 104.942 53.5256 105.094 53.5011C105.434 53.4468 105.787 53.7031 105.85 54.0412C105.869 54.1424 105.863 54.2436 105.837 54.3447C105.801 54.4908 105.702 54.6112 105.595 54.7172C104.96 55.2007 104.318 55.5193 103.519 55.5193Z" fill="#112152"/>
<path d="M107.199 56.6398C107.039 56.6398 106.879 56.6398 106.719 56.4797L99.6793 49.4399C99.5192 49.2798 99.5192 49.1197 99.5192 48.9596C99.5192 48.7995 99.5192 48.6394 99.6793 48.4793L101.119 47.0384C101.263 46.8936 101.441 46.8143 101.607 46.8004C101.978 46.7694 102.29 47.1632 102.316 47.5345C102.325 47.6644 102.294 47.7867 102.223 47.8799C102.146 47.9793 102.032 48.0442 101.944 48.1329C101.488 48.5886 101.488 49.3274 101.944 49.783L106.24 54.0783C106.77 54.6079 107.629 54.6078 108.158 54.0781C108.303 53.9332 108.481 53.8538 108.647 53.8401C109.018 53.8095 109.36 54.2493 109.358 54.621C109.356 54.9882 108.985 55.1695 108.725 55.4292L108.039 56.1157C107.807 56.3472 107.527 56.6398 107.199 56.6398Z" fill="#112152"/>
<path d="M108.639 55.2007C108.479 55.2007 108.318 55.2007 108.158 55.0406L100.959 48.0009C100.797 47.8407 100.797 47.6806 100.797 47.3604C100.797 47.2003 100.797 47.0402 100.959 46.8801C101.919 45.9195 103.04 45.4392 104.318 45.4392C105.598 45.4392 106.719 45.9195 107.678 46.8801C107.825 47.0272 107.905 47.2077 107.917 47.3753C107.943 47.7417 107.509 48.0773 107.141 48.0793C106.769 48.0814 106.594 47.6926 106.292 47.4754C105.74 47.078 105.11 46.8801 104.479 46.8801C103.521 46.8801 103.35 47.9908 104.028 48.6684L105.63 50.2705C107.169 51.8102 109.834 50.8514 108.247 49.3601C108.218 49.3329 108.189 49.3062 108.158 49.2801C108.011 49.133 107.932 48.9525 107.92 48.7848C107.894 48.4185 108.328 48.0829 108.695 48.0809C109.067 48.0788 109.259 48.4492 109.493 48.7384C110.891 50.4686 110.915 52.7876 109.438 54.5603C109.276 54.7204 109.276 54.8805 109.117 55.0406C108.959 55.2007 108.797 55.2007 108.639 55.2007Z" fill="#112152"/>
<path d="M108.639 49.6003C108.479 49.6003 108.319 49.6003 108.158 49.4402L106.719 48.0008C106.196 47.4776 106.986 46.7735 107.509 46.2502L108.158 45.6009C108.681 45.0783 109.384 45.8674 109.906 46.3899L110.557 47.0402C110.718 47.2003 110.718 47.3604 110.718 47.5205C110.718 47.6806 110.718 47.8407 110.557 48.0008L109.478 49.08C109.247 49.3106 108.965 49.6003 108.639 49.6003ZM108.318 47.2005C108.23 47.2888 108.23 47.432 108.318 47.5203C108.407 47.6088 108.55 47.6086 108.639 47.5199C108.726 47.4317 108.726 47.2891 108.639 47.2009C108.55 47.1122 108.407 47.112 108.318 47.2005Z" fill="#112152"/>
</svg>
