<svg width="638" height="639" viewBox="0 0 638 639" fill="none" xmlns="http://www.w3.org/2000/svg">
<path d="M36.2448 401.243C55.4295 453.891 94.6282 510.872 149.788 527.742C233.134 553.241 243.091 622.074 392.371 615.691C415.647 614.698 437.159 611.344 456.923 605.992C467.547 603.116 477.668 599.647 487.273 595.648C574.482 559.457 619.975 479.802 623.752 396.459C628.736 286.843 554.09 234.595 505.575 204.002C457.062 173.409 398.59 54.8684 251.788 59.9625C229.407 60.7497 207.076 63.8834 185.437 69.8938C136.042 83.5914 85.8289 113.886 56.6494 158.177C54.4597 161.505 52.3696 164.909 50.3676 168.379C11.3207 236.259 10.0868 329.47 36.2448 401.243Z" fill="#FAE12C"/>
<path opacity="0.7" d="M36.2448 401.243C55.4294 453.891 94.6282 510.872 149.788 527.742C233.134 553.241 243.091 622.074 392.371 615.691C415.647 614.698 437.159 611.344 456.923 605.992C467.547 603.116 477.668 599.647 487.273 595.648C574.482 559.457 619.975 479.802 623.752 396.459C628.736 286.843 554.09 234.595 505.575 204.002C457.062 173.409 398.59 54.8684 251.788 59.9625C229.407 60.7497 207.076 63.8834 185.437 69.8938C136.042 83.5914 85.8289 113.886 56.6493 158.177C54.4597 161.505 52.3696 164.909 50.3676 168.379C11.3207 236.259 10.0868 329.47 36.2448 401.243Z" fill="white"/>
<path d="M452.615 133.302H368.86C368.86 133.302 367.133 126.959 371.738 124.077C376.343 121.194 377.494 124.654 382.676 123.501C382.676 123.501 396.491 102.168 407.429 103.321C409.171 103.505 410.621 103.864 411.843 104.364" stroke="#0D0B51" stroke-miterlimit="10" stroke-linecap="round" stroke-linejoin="round"/>
<path d="M416.646 108.259C418.776 111.36 419.596 115.388 421.82 118.889C425.85 125.23 432.181 116.005 438.514 118.312C444.845 120.619 442.544 124.654 446.573 126.384C450.603 128.114 459.813 118.889 463.267 121.772C466.721 124.655 467.872 129.267 470.175 130.42C472.477 131.573 477.084 127.537 479.386 130.42C481.689 133.303 481.689 133.303 481.689 133.303H458.297" stroke="#0D0B51" stroke-miterlimit="10" stroke-linecap="round" stroke-linejoin="round"/>
<path d="M172.583 70.0881C175.368 69.2932 178.219 69.0337 181.07 70.0715C192.472 74.2237 188.325 81.4917 195.58 84.6049C202.836 87.7194 219.42 71.1092 225.639 76.3004C231.858 81.4917 233.932 89.7961 238.077 91.8729C242.223 93.9496 250.516 86.6816 254.662 91.8729C258.807 97.0641 258.807 97.0641 258.807 97.0641H136.373" stroke="#0D0B51" stroke-miterlimit="10" stroke-linecap="round" stroke-linejoin="round"/>
<path d="M129.273 97.0641H55.6502C55.6502 97.0641 52.5406 85.6439 60.8333 80.4539C69.126 75.2627 71.1983 81.4917 80.5271 79.4162C80.5271 79.4162 105.403 41.0046 125.098 43.0814C144.792 45.1581 143.755 59.6915 151.011 71.1118C155.026 77.4315 160.312 75.1668 166.163 72.5866" stroke="#0D0B51" stroke-miterlimit="10" stroke-linecap="round" stroke-linejoin="round"/>
<path d="M133.461 307.833V167.354H93.6086V201.069H74.3691V152.37H31.7673V362.152H11.35" stroke="#0D0B51" stroke-miterlimit="10"/>
<path d="M283.254 214.18V463.297H259.892V317.198H226.91V440.821H133.461V330.309" stroke="#0D0B51" stroke-miterlimit="10"/>
<path d="M356.09 397.74V90.5591H283.254V193.576" stroke="#0D0B51" stroke-miterlimit="10"/>
<path d="M497.636 307.833V343.422H477.022V182.339H394.569V431.455H356.089V407.106" stroke="#0D0B51" stroke-miterlimit="10"/>
<path d="M569.104 463.297H556.729V231.038H497.636V289.103" stroke="#0D0B51" stroke-miterlimit="10"/>
<path d="M579.645 283.483V101.797H560.405V83.0662H508.069V98.0507H487.571V408.978H446.344V463.297H420.233" stroke="#0D0B51" stroke-miterlimit="10"/>
<path d="M600.258 387.102V320.944H579.645V296.594" stroke="#0D0B51" stroke-miterlimit="10"/>
<path d="M274.47 265.728H254.041V164.314H201.636V130.508H47.0883V150.079" stroke="#0D0B51" stroke-miterlimit="10"/>
<path d="M250.488 182.996H202.524" stroke="#0D0B51" stroke-miterlimit="10"/>
<path d="M250.488 199.008H202.524" stroke="#0D0B51" stroke-miterlimit="10"/>
<path d="M250.488 215.021H202.524" stroke="#0D0B51" stroke-miterlimit="10"/>
<path d="M250.488 231.033H202.524" stroke="#0D0B51" stroke-miterlimit="10"/>
<path d="M250.488 247.046H202.524" stroke="#0D0B51" stroke-miterlimit="10"/>
<path d="M250.488 263.058H202.524" stroke="#0D0B51" stroke-miterlimit="10"/>
<path d="M182.095 137.625V262.169" stroke="#0D0B51" stroke-miterlimit="10"/>
<path d="M156.338 137.625V262.169" stroke="#0D0B51" stroke-miterlimit="10"/>
<path d="M338.033 100.262H347.803V115.384H338.033V100.262Z" stroke="#0D0B51" stroke-miterlimit="10"/>
<path d="M322.489 100.262H332.259V115.384H322.489V100.262Z" stroke="#0D0B51" stroke-miterlimit="10"/>
<path d="M306.946 100.262H316.716V115.384H306.946V100.262Z" stroke="#0D0B51" stroke-miterlimit="10"/>
<path d="M291.401 100.262H301.172V115.384H291.401V100.262Z" stroke="#0D0B51" stroke-miterlimit="10"/>
<path d="M338.033 125.616H347.803V140.738H338.033V125.616Z" stroke="#0D0B51" stroke-miterlimit="10"/>
<path d="M322.489 125.616H332.259V140.738H322.489V125.616Z" stroke="#0D0B51" stroke-miterlimit="10"/>
<path d="M306.946 125.616H316.716V140.738H306.946V125.616Z" stroke="#0D0B51" stroke-miterlimit="10"/>
<path d="M291.401 125.616H301.172V140.738H291.401V125.616Z" stroke="#0D0B51" stroke-miterlimit="10"/>
<path d="M116.313 216.8H126.083V231.922H116.313V216.8Z" stroke="#0D0B51" stroke-miterlimit="10"/>
<path d="M100.768 216.8H110.539V231.922H100.768V216.8Z" stroke="#0D0B51" stroke-miterlimit="10"/>
<path d="M85.2253 216.8H94.9957V231.922H85.2253V216.8Z" stroke="#0D0B51" stroke-miterlimit="10"/>
<path d="M69.6811 216.8H79.4514V231.922H69.6811V216.8Z" stroke="#0D0B51" stroke-miterlimit="10"/>
<path d="M54.1943 216.8H63.9646V231.922H54.1943V216.8Z" stroke="#0D0B51" stroke-miterlimit="10"/>
<path d="M38.6501 216.8H48.4204V231.922H38.6501V216.8Z" stroke="#0D0B51" stroke-miterlimit="10"/>
<path d="M54.1943 188.777H63.9646V203.9H54.1943V188.777Z" stroke="#0D0B51" stroke-miterlimit="10"/>
<path d="M38.6501 188.777H48.4204V203.9H38.6501V188.777Z" stroke="#0D0B51" stroke-miterlimit="10"/>
<path d="M54.1943 160.755H63.9646V175.877H54.1943V160.755Z" stroke="#0D0B51" stroke-miterlimit="10"/>
<path d="M38.6501 160.755H48.4204V175.877H38.6501V160.755Z" stroke="#0D0B51" stroke-miterlimit="10"/>
<path d="M116.369 188.777H126.139V203.9H116.369V188.777Z" stroke="#0D0B51" stroke-miterlimit="10"/>
<path d="M100.824 188.777H110.595V203.9H100.824V188.777Z" stroke="#0D0B51" stroke-miterlimit="10"/>
<path d="M116.313 246.602H126.083V261.724H116.313V246.602Z" stroke="#0D0B51" stroke-miterlimit="10"/>
<path d="M100.768 246.602H110.539V261.724H100.768V246.602Z" stroke="#0D0B51" stroke-miterlimit="10"/>
<path d="M85.2253 246.602H94.9957V261.724H85.2253V246.602Z" stroke="#0D0B51" stroke-miterlimit="10"/>
<path d="M69.6811 246.602H79.4514V261.724H69.6811V246.602Z" stroke="#0D0B51" stroke-miterlimit="10"/>
<path d="M54.1943 246.602H63.9646V261.724H54.1943V246.602Z" stroke="#0D0B51" stroke-miterlimit="10"/>
<path d="M38.6501 246.602H48.4204V261.724H38.6501V246.602Z" stroke="#0D0B51" stroke-miterlimit="10"/>
<path d="M116.313 276.403H126.083V291.526H116.313V276.403Z" stroke="#0D0B51" stroke-miterlimit="10"/>
<path d="M100.768 276.403H110.539V291.526H100.768V276.403Z" stroke="#0D0B51" stroke-miterlimit="10"/>
<path d="M85.2253 276.403H94.9957V291.526H85.2253V276.403Z" stroke="#0D0B51" stroke-miterlimit="10"/>
<path d="M69.6811 276.403H79.4514V291.526H69.6811V276.403Z" stroke="#0D0B51" stroke-miterlimit="10"/>
<path d="M54.1943 276.403H63.9646V291.526H54.1943V276.403Z" stroke="#0D0B51" stroke-miterlimit="10"/>
<path d="M38.6501 276.403H48.4204V291.526H38.6501V276.403Z" stroke="#0D0B51" stroke-miterlimit="10"/>
<path d="M116.313 306.205H126.083V321.328H116.313V306.205Z" stroke="#0D0B51" stroke-miterlimit="10"/>
<path d="M100.768 306.205H110.539V321.328H100.768V306.205Z" stroke="#0D0B51" stroke-miterlimit="10"/>
<path d="M85.2253 306.205H94.9957V321.328H85.2253V306.205Z" stroke="#0D0B51" stroke-miterlimit="10"/>
<path d="M69.6811 306.205H79.4514V321.328H69.6811V306.205Z" stroke="#0D0B51" stroke-miterlimit="10"/>
<path d="M54.1943 306.205H63.9646V321.328H54.1943V306.205Z" stroke="#0D0B51" stroke-miterlimit="10"/>
<path d="M38.6501 306.205H48.4204V321.328H38.6501V306.205Z" stroke="#0D0B51" stroke-miterlimit="10"/>
<path d="M116.313 336.007H126.083V351.129H116.313V336.007Z" stroke="#0D0B51" stroke-miterlimit="10"/>
<path d="M100.768 336.007H110.539V351.129H100.768V336.007Z" stroke="#0D0B51" stroke-miterlimit="10"/>
<path d="M85.2253 336.007H94.9957V351.129H85.2253V336.007Z" stroke="#0D0B51" stroke-miterlimit="10"/>
<path d="M69.6811 336.007H79.4514V351.129H69.6811V336.007Z" stroke="#0D0B51" stroke-miterlimit="10"/>
<path d="M54.1943 336.007H63.9646V351.129H54.1943V336.007Z" stroke="#0D0B51" stroke-miterlimit="10"/>
<path d="M38.6501 336.007H48.4204V351.129H38.6501V336.007Z" stroke="#0D0B51" stroke-miterlimit="10"/>
<path d="M116.313 365.808H126.083V380.931H116.313V365.808Z" stroke="#0D0B51" stroke-miterlimit="10"/>
<path d="M100.768 365.808H110.539V380.931H100.768V365.808Z" stroke="#0D0B51" stroke-miterlimit="10"/>
<path d="M85.2253 365.808H94.9957V380.931H85.2253V365.808Z" stroke="#0D0B51" stroke-miterlimit="10"/>
<path d="M69.6811 365.808H79.4514V380.931H69.6811V365.808Z" stroke="#0D0B51" stroke-miterlimit="10"/>
<path d="M54.1943 365.808H63.9646V380.931H54.1943V365.808Z" stroke="#0D0B51" stroke-miterlimit="10"/>
<path d="M38.6501 365.808H48.4204V380.931H38.6501V365.808Z" stroke="#0D0B51" stroke-miterlimit="10"/>
<path d="M116.313 395.609H126.083V410.731H116.313V395.609Z" stroke="#0D0B51" stroke-miterlimit="10"/>
<path d="M100.768 395.609H110.539V410.731H100.768V395.609Z" stroke="#0D0B51" stroke-miterlimit="10"/>
<path d="M85.2253 395.609H94.9957V410.731H85.2253V395.609Z" stroke="#0D0B51" stroke-miterlimit="10"/>
<path d="M69.6811 395.609H79.4514V410.731H69.6811V395.609Z" stroke="#0D0B51" stroke-miterlimit="10"/>
<path d="M54.1943 395.609H63.9646V410.731H54.1943V395.609Z" stroke="#0D0B51" stroke-miterlimit="10"/>
<path d="M38.6501 395.609H48.4204V410.731H38.6501V395.609Z" stroke="#0D0B51" stroke-miterlimit="10"/>
<path d="M338.033 150.969H347.803V166.091H338.033V150.969Z" stroke="#0D0B51" stroke-miterlimit="10"/>
<path d="M322.489 150.969H332.259V166.091H322.489V150.969Z" stroke="#0D0B51" stroke-miterlimit="10"/>
<path d="M306.946 150.969H316.716V166.091H306.946V150.969Z" stroke="#0D0B51" stroke-miterlimit="10"/>
<path d="M291.401 150.969H301.172V166.091H291.401V150.969Z" stroke="#0D0B51" stroke-miterlimit="10"/>
<path d="M338.033 176.323H347.803V191.446H338.033V176.323Z" stroke="#0D0B51" stroke-miterlimit="10"/>
<path d="M322.489 176.323H332.259V191.446H322.489V176.323Z" stroke="#0D0B51" stroke-miterlimit="10"/>
<path d="M306.946 176.323H316.716V191.446H306.946V176.323Z" stroke="#0D0B51" stroke-miterlimit="10"/>
<path d="M291.401 176.323H301.172V191.446H291.401V176.323Z" stroke="#0D0B51" stroke-miterlimit="10"/>
<path d="M338.033 201.676H347.803V216.799H338.033V201.676Z" stroke="#0D0B51" stroke-miterlimit="10"/>
<path d="M322.489 201.676H332.259V216.799H322.489V201.676Z" stroke="#0D0B51" stroke-miterlimit="10"/>
<path d="M306.946 201.676H316.716V216.799H306.946V201.676Z" stroke="#0D0B51" stroke-miterlimit="10"/>
<path d="M291.401 201.676H301.172V216.799H291.401V201.676Z" stroke="#0D0B51" stroke-miterlimit="10"/>
<path d="M338.033 227.03H347.803V242.153H338.033V227.03Z" stroke="#0D0B51" stroke-miterlimit="10"/>
<path d="M322.489 227.03H332.259V242.153H322.489V227.03Z" stroke="#0D0B51" stroke-miterlimit="10"/>
<path d="M306.946 227.03H316.716V242.153H306.946V227.03Z" stroke="#0D0B51" stroke-miterlimit="10"/>
<path d="M291.401 227.03H301.172V242.153H291.401V227.03Z" stroke="#0D0B51" stroke-miterlimit="10"/>
<path d="M338.033 252.383H347.803V267.506H338.033V252.383Z" stroke="#0D0B51" stroke-miterlimit="10"/>
<path d="M322.489 252.383H332.259V267.506H322.489V252.383Z" stroke="#0D0B51" stroke-miterlimit="10"/>
<path d="M306.946 252.383H316.716V267.506H306.946V252.383Z" stroke="#0D0B51" stroke-miterlimit="10"/>
<path d="M291.401 252.383H301.172V267.506H291.401V252.383Z" stroke="#0D0B51" stroke-miterlimit="10"/>
<path d="M338.033 277.738H347.803V292.86H338.033V277.738Z" stroke="#0D0B51" stroke-miterlimit="10"/>
<path d="M322.489 277.738H332.259V292.86H322.489V277.738Z" stroke="#0D0B51" stroke-miterlimit="10"/>
<path d="M306.946 277.738H316.716V292.86H306.946V277.738Z" stroke="#0D0B51" stroke-miterlimit="10"/>
<path d="M291.401 277.738H301.172V292.86H291.401V277.738Z" stroke="#0D0B51" stroke-miterlimit="10"/>
<path d="M338.033 303.09H347.803V318.213H338.033V303.09Z" stroke="#0D0B51" stroke-miterlimit="10"/>
<path d="M322.489 303.09H332.259V318.213H322.489V303.09Z" stroke="#0D0B51" stroke-miterlimit="10"/>
<path d="M306.946 303.09H316.716V318.213H306.946V303.09Z" stroke="#0D0B51" stroke-miterlimit="10"/>
<path d="M291.401 303.09H301.172V318.213H291.401V303.09Z" stroke="#0D0B51" stroke-miterlimit="10"/>
<path d="M338.033 328.445H347.803V343.567H338.033V328.445Z" stroke="#0D0B51" stroke-miterlimit="10"/>
<path d="M322.489 328.445H332.259V343.567H322.489V328.445Z" stroke="#0D0B51" stroke-miterlimit="10"/>
<path d="M306.946 328.445H316.716V343.567H306.946V328.445Z" stroke="#0D0B51" stroke-miterlimit="10"/>
<path d="M291.401 328.445H301.172V343.567H291.401V328.445Z" stroke="#0D0B51" stroke-miterlimit="10"/>
<path d="M338.033 353.798H347.803V368.92H338.033V353.798Z" stroke="#0D0B51" stroke-miterlimit="10"/>
<path d="M322.489 353.798H332.259V368.92H322.489V353.798Z" stroke="#0D0B51" stroke-miterlimit="10"/>
<path d="M306.946 353.798H316.716V368.92H306.946V353.798Z" stroke="#0D0B51" stroke-miterlimit="10"/>
<path d="M291.401 353.798H301.172V368.92H291.401V353.798Z" stroke="#0D0B51" stroke-miterlimit="10"/>
<path d="M338.033 379.152H347.803V394.274H338.033V379.152Z" stroke="#0D0B51" stroke-miterlimit="10"/>
<path d="M322.489 379.152H332.259V394.274H322.489V379.152Z" stroke="#0D0B51" stroke-miterlimit="10"/>
<path d="M306.946 379.152H316.716V394.274H306.946V379.152Z" stroke="#0D0B51" stroke-miterlimit="10"/>
<path d="M291.401 379.152H301.172V394.274H291.401V379.152Z" stroke="#0D0B51" stroke-miterlimit="10"/>
<path d="M338.033 404.505H347.803V419.627H338.033V404.505Z" stroke="#0D0B51" stroke-miterlimit="10"/>
<path d="M322.489 404.505H332.259V419.627H322.489V404.505Z" stroke="#0D0B51" stroke-miterlimit="10"/>
<path d="M306.946 404.505H316.716V419.627H306.946V404.505Z" stroke="#0D0B51" stroke-miterlimit="10"/>
<path d="M291.401 404.505H301.172V419.627H291.401V404.505Z" stroke="#0D0B51" stroke-miterlimit="10"/>
<path d="M560.473 109.158V212.351" stroke="#0D0B51" stroke-miterlimit="10"/>
<path d="M509.008 104.71V211.462" stroke="#0D0B51" stroke-miterlimit="10"/>
<path d="M576.46 124.282H560.473" stroke="#0D0B51" stroke-miterlimit="10"/>
<path d="M576.46 142.963H560.473" stroke="#0D0B51" stroke-miterlimit="10"/>
<path d="M576.46 161.644H560.473" stroke="#0D0B51" stroke-miterlimit="10"/>
<path d="M576.46 180.326H560.473" stroke="#0D0B51" stroke-miterlimit="10"/>
<path d="M576.46 199.008H560.473" stroke="#0D0B51" stroke-miterlimit="10"/>
<path d="M576.46 217.689H560.473" stroke="#0D0B51" stroke-miterlimit="10"/>
<path d="M576.46 236.371H560.473" stroke="#0D0B51" stroke-miterlimit="10"/>
<path d="M576.46 255.053H560.473" stroke="#0D0B51" stroke-miterlimit="10"/>
<path d="M508.069 124.282H492.08" stroke="#0D0B51" stroke-miterlimit="10"/>
<path d="M508.069 142.963H492.08" stroke="#0D0B51" stroke-miterlimit="10"/>
<path d="M508.069 161.644H492.08" stroke="#0D0B51" stroke-miterlimit="10"/>
<path d="M508.069 180.326H492.08" stroke="#0D0B51" stroke-miterlimit="10"/>
<path d="M508.069 199.008H492.08" stroke="#0D0B51" stroke-miterlimit="10"/>
<path d="M508.069 217.689H492.08" stroke="#0D0B51" stroke-miterlimit="10"/>
<path d="M497.41 236.371H492.08" stroke="#0D0B51" stroke-miterlimit="10"/>
<path d="M497.41 255.053H492.08" stroke="#0D0B51" stroke-miterlimit="10"/>
<path d="M576.46 273.734H560.473" stroke="#0D0B51" stroke-miterlimit="10"/>
<path d="M397.529 191.641H473.914V196.089H397.529V191.641Z" stroke="#0D0B51" stroke-miterlimit="10"/>
<path d="M397.529 209.152H473.914V213.6H397.529V209.152Z" stroke="#0D0B51" stroke-miterlimit="10"/>
<path d="M397.529 226.665H473.914V231.112H397.529V226.665Z" stroke="#0D0B51" stroke-miterlimit="10"/>
<path d="M397.529 244.176H473.914V248.623H397.529V244.176Z" stroke="#0D0B51" stroke-miterlimit="10"/>
<path d="M397.529 261.687H473.914V266.135H397.529V261.687Z" stroke="#0D0B51" stroke-miterlimit="10"/>
<path d="M397.529 279.198H473.914V283.646H397.529V279.198Z" stroke="#0D0B51" stroke-miterlimit="10"/>
<path d="M397.529 296.709H473.914V301.157H397.529V296.709Z" stroke="#0D0B51" stroke-miterlimit="10"/>
<path d="M397.529 314.222H473.914V318.669H397.529V314.222Z" stroke="#0D0B51" stroke-miterlimit="10"/>
<path d="M397.529 331.733H473.914V336.18H397.529V331.733Z" stroke="#0D0B51" stroke-miterlimit="10"/>
<path d="M397.529 349.244H473.914V353.692H397.529V349.244Z" stroke="#0D0B51" stroke-miterlimit="10"/>
<path d="M397.529 366.757H473.914V371.204H397.529V366.757Z" stroke="#0D0B51" stroke-miterlimit="10"/>
<path d="M62.2662 361.478C62.2662 410.823 91.4101 450.823 127.363 450.823C163.314 450.823 192.459 410.822 192.459 361.478C192.459 312.135 163.315 142.542 127.363 142.542C91.4101 142.542 62.2662 312.135 62.2662 361.478Z" fill="#FAE12C"/>
<path opacity="0.3" d="M62.2662 361.478C62.2662 410.823 91.4101 450.823 127.363 450.823C163.314 450.823 192.459 410.822 192.459 361.478C192.459 312.135 163.315 142.542 127.363 142.542C91.4101 142.542 62.2662 312.135 62.2662 361.478Z" fill="white"/>
<path d="M90.8614 387.294L110.573 394.597L106.617 382.712L116.041 396.622L125.45 400.107L126.121 361.084L91.8784 315.516L110.23 333.898L107.125 321.117L115.905 339.581L126.313 350.006L127.361 289.036L131.092 377.957L163.542 343.515L145.718 367.784L162.527 365.914L141.764 373.168L131.479 387.171L133.277 430.044L145.246 421.91L133.65 438.916L139.147 569.952H122.527L125.343 406.332L90.8614 387.294Z" fill="#999A9E"/>
<path d="M91.5492 289.229C91.5492 289.229 90.9469 295.219 94.216 299.617C97.4851 304.014 103.387 305.153 103.387 305.153C103.387 305.153 103.989 299.163 100.72 294.766C97.4519 290.369 91.5492 289.229 91.5492 289.229Z" fill="white"/>
<path d="M71.9307 316.838C71.9307 316.838 71.3284 322.828 74.5975 327.226C77.8666 331.623 83.7681 332.762 83.7681 332.762C83.7681 332.762 84.3704 326.772 81.1012 322.374C77.8321 317.978 71.9307 316.838 71.9307 316.838Z" fill="white"/>
<path d="M71.9383 370.593C71.9383 370.593 73.384 376.436 77.9406 379.475C82.4959 382.514 88.437 381.597 88.437 381.597C88.437 381.597 86.9913 375.754 82.4347 372.715C77.8794 369.677 71.9383 370.593 71.9383 370.593Z" fill="white"/>
<path d="M179.69 370.593C179.69 370.593 178.243 376.436 173.688 379.475C169.131 382.514 163.191 381.597 163.191 381.597C163.191 381.597 164.637 375.754 169.194 372.715C173.749 369.677 179.69 370.593 179.69 370.593Z" fill="white"/>
<path d="M94.6001 348.279C94.6001 348.279 93.9978 354.269 97.2669 358.667C100.536 363.064 106.438 364.203 106.438 364.203C106.438 364.203 107.04 358.213 103.771 353.816C100.502 349.419 94.6001 348.279 94.6001 348.279Z" fill="white"/>
<path d="M99.6824 259.195C99.6824 259.195 99.0801 265.185 102.349 269.583C105.618 273.98 111.52 275.119 111.52 275.119C111.52 275.119 112.122 269.129 108.853 264.731C105.584 260.334 99.6824 259.195 99.6824 259.195Z" fill="white"/>
<path d="M111.372 282.102C111.372 282.102 110.77 288.092 114.039 292.489C117.308 296.887 123.211 298.026 123.211 298.026C123.211 298.026 123.813 292.036 120.544 287.638C117.275 283.242 111.372 282.102 111.372 282.102Z" fill="white"/>
<path d="M83.6201 265.424C83.6201 265.424 83.0178 271.414 86.2869 275.812C89.556 280.209 95.4575 281.348 95.4575 281.348C95.4575 281.348 96.0598 275.358 92.7907 270.96C89.5216 266.563 83.6201 265.424 83.6201 265.424Z" fill="white"/>
<path d="M173.801 265.424C173.801 265.424 174.404 271.414 171.135 275.812C167.865 280.209 161.964 281.348 161.964 281.348C161.964 281.348 161.362 275.358 164.631 270.96C167.899 266.563 173.801 265.424 173.801 265.424Z" fill="white"/>
<path d="M97.1406 231.197C97.1406 231.197 96.5383 237.187 99.8074 241.584C103.077 245.982 108.978 247.12 108.978 247.12C108.978 247.12 109.58 241.13 106.311 236.733C103.043 232.335 97.1406 231.197 97.1406 231.197Z" fill="white"/>
<path d="M102.885 201.455C102.885 201.455 100.8 207.101 102.861 212.18C104.922 217.259 110.348 219.847 110.348 219.847C110.348 219.847 112.433 214.2 110.373 209.122C108.312 204.043 102.885 201.455 102.885 201.455Z" fill="white"/>
<path d="M144.05 193.683C144.05 193.683 138.725 196.477 136.86 201.631C134.993 206.786 137.292 212.347 137.292 212.347C137.292 212.347 142.617 209.554 144.483 204.399C146.35 199.247 144.05 193.683 144.05 193.683Z" fill="white"/>
<path d="M124.854 229.248C124.854 229.248 121.061 233.917 121.376 239.391C121.69 244.865 125.992 249.068 125.992 249.068C125.992 249.068 129.786 244.398 129.471 238.925C129.157 233.452 124.854 229.248 124.854 229.248Z" fill="white"/>
<path d="M125.871 176.306C125.871 176.306 122.077 180.976 122.393 186.45C122.707 191.924 127.009 196.127 127.009 196.127C127.009 196.127 130.803 191.457 130.488 185.983C130.174 180.51 125.871 176.306 125.871 176.306Z" fill="white"/>
<path d="M168.954 289.229C168.954 289.229 169.556 295.219 166.287 299.617C163.018 304.014 157.116 305.153 157.116 305.153C157.116 305.153 156.514 299.163 159.783 294.766C163.051 290.369 168.954 289.229 168.954 289.229Z" fill="white"/>
<path d="M180.135 321.809C180.135 321.809 180.738 327.799 177.469 332.197C174.199 336.595 168.298 337.733 168.298 337.733C168.298 337.733 167.696 331.743 170.965 327.346C174.233 322.948 180.135 321.809 180.135 321.809Z" fill="white"/>
<path d="M150.453 333.637C150.453 333.637 151.055 339.627 147.786 344.025C144.517 348.422 138.616 349.561 138.616 349.561C138.616 349.561 138.013 343.571 141.283 339.174C144.552 334.777 150.453 333.637 150.453 333.637Z" fill="white"/>
<path d="M142.339 288.494C142.339 288.494 144.628 294.061 142.754 299.212C140.879 304.362 135.549 307.147 135.549 307.147C135.549 307.147 133.26 301.581 135.135 296.43C137.009 291.278 142.339 288.494 142.339 288.494Z" fill="white"/>
<path d="M163.356 408.617C163.356 408.617 157.346 408.727 153.239 405.104C149.131 401.481 148.48 395.496 148.48 395.496C148.48 395.496 154.49 395.386 158.598 399.009C162.707 402.633 163.356 408.617 163.356 408.617Z" fill="white"/>
<path d="M105.687 402.033C105.687 402.033 104.055 407.828 99.4042 410.719C94.7532 413.609 88.8453 412.503 88.8453 412.503C88.8453 412.503 90.4773 406.708 95.1283 403.819C99.7794 400.926 105.687 402.033 105.687 402.033Z" fill="white"/>
<path d="M156.652 259.195C156.652 259.195 157.254 265.185 153.985 269.583C150.716 273.98 144.814 275.119 144.814 275.119C144.814 275.119 144.212 269.129 147.481 264.731C150.75 260.334 156.652 259.195 156.652 259.195Z" fill="white"/>
<path d="M156.755 232.724C156.755 232.724 157.358 238.714 154.088 243.111C150.819 247.509 144.918 248.648 144.918 248.648C144.918 248.648 144.316 242.658 147.585 238.26C150.854 233.864 156.755 232.724 156.755 232.724Z" fill="white"/>
<path d="M346.184 395.183C346.184 436.549 370.617 470.084 400.756 470.084C430.895 470.084 455.328 436.549 455.328 395.183C455.328 353.817 430.895 211.643 400.756 211.643C370.617 211.643 346.184 353.818 346.184 395.183Z" fill="#FAE12C"/>
<path opacity="0.3" d="M346.184 395.183C346.184 436.549 370.617 470.084 400.756 470.084C430.895 470.084 455.328 436.549 455.328 395.183C455.328 353.817 430.895 211.643 400.756 211.643C370.617 211.643 346.184 353.818 346.184 395.183Z" fill="white"/>
<path d="M370.157 416.826L386.682 422.946L383.365 412.984L391.266 424.645L399.153 427.568L399.716 394.852L371.008 356.653L386.393 372.062L383.791 361.348L391.151 376.827L399.877 385.565L400.756 334.454L403.883 408.998L431.088 380.124L416.144 400.47L430.235 398.902L412.829 404.983L404.207 416.723L405.714 452.664L415.748 445.846L406.027 460.102L410.635 569.952H396.702L399.063 432.786L370.157 416.826Z" fill="#999A9E"/>
<path d="M370.734 334.615C370.734 334.615 370.229 339.636 372.97 343.323C375.711 347.009 380.658 347.965 380.658 347.965C380.658 347.965 381.163 342.944 378.422 339.257C375.682 335.571 370.734 334.615 370.734 334.615Z" fill="white"/>
<path d="M354.287 357.761C354.287 357.761 353.781 362.782 356.522 366.469C359.263 370.155 364.21 371.111 364.21 371.111C364.21 371.111 364.714 366.089 361.974 362.402C359.234 358.715 354.287 357.761 354.287 357.761Z" fill="white"/>
<path d="M354.293 402.824C354.293 402.824 355.505 407.723 359.325 410.27C363.144 412.817 368.125 412.049 368.125 412.049C368.125 412.049 366.912 407.15 363.092 404.603C359.273 402.056 354.293 402.824 354.293 402.824Z" fill="white"/>
<path d="M444.623 402.824C444.623 402.824 443.411 407.723 439.591 410.27C435.772 412.817 430.792 412.049 430.792 412.049C430.792 412.049 432.004 407.15 435.824 404.603C439.643 402.056 444.623 402.824 444.623 402.824Z" fill="white"/>
<path d="M373.29 384.12C373.29 384.12 372.786 389.141 375.526 392.828C378.265 396.515 383.213 397.47 383.213 397.47C383.213 397.47 383.717 392.448 380.978 388.761C378.238 385.074 373.29 384.12 373.29 384.12Z" fill="white"/>
<path d="M377.552 309.437C377.552 309.437 377.047 314.458 379.787 318.145C382.528 321.831 387.475 322.787 387.475 322.787C387.475 322.787 387.981 317.766 385.24 314.079C382.499 310.392 377.552 309.437 377.552 309.437Z" fill="white"/>
<path d="M387.351 328.64C387.351 328.64 386.847 333.662 389.587 337.349C392.328 341.034 397.275 341.99 397.275 341.99C397.275 341.99 397.779 336.969 395.039 333.282C392.3 329.596 387.351 328.64 387.351 328.64Z" fill="white"/>
<path d="M364.086 314.659C364.086 314.659 363.581 319.68 366.322 323.367C369.063 327.053 374.01 328.009 374.01 328.009C374.01 328.009 374.515 322.988 371.774 319.301C369.035 315.614 364.086 314.659 364.086 314.659Z" fill="white"/>
<path d="M439.687 314.659C439.687 314.659 440.192 319.68 437.451 323.367C434.71 327.053 429.763 328.009 429.763 328.009C429.763 328.009 429.258 322.988 431.999 319.301C434.738 315.614 439.687 314.659 439.687 314.659Z" fill="white"/>
<path d="M375.421 285.965C375.421 285.965 374.916 290.987 377.656 294.674C380.397 298.359 385.344 299.315 385.344 299.315C385.344 299.315 385.848 294.294 383.109 290.607C380.369 286.92 375.421 285.965 375.421 285.965Z" fill="white"/>
<path d="M380.237 261.033C380.237 261.033 378.488 265.766 380.216 270.023C381.944 274.281 386.494 276.451 386.494 276.451C386.494 276.451 388.242 271.717 386.514 267.46C384.787 263.202 380.237 261.033 380.237 261.033Z" fill="white"/>
<path d="M414.746 254.518C414.746 254.518 410.282 256.859 408.718 261.18C407.154 265.501 409.08 270.164 409.08 270.164C409.08 270.164 413.544 267.823 415.108 263.502C416.673 259.181 414.746 254.518 414.746 254.518Z" fill="white"/>
<path d="M398.653 284.332C398.653 284.332 395.473 288.247 395.736 292.836C396 297.424 399.606 300.949 399.606 300.949C399.606 300.949 402.786 297.034 402.523 292.445C402.26 287.855 398.653 284.332 398.653 284.332Z" fill="white"/>
<path d="M399.505 239.95C399.505 239.95 396.326 243.865 396.59 248.453C396.854 253.041 400.46 256.566 400.46 256.566C400.46 256.566 403.64 252.652 403.377 248.062C403.113 243.473 399.505 239.95 399.505 239.95Z" fill="white"/>
<path d="M435.624 334.615C435.624 334.615 436.128 339.636 433.388 343.323C430.647 347.009 425.7 347.965 425.7 347.965C425.7 347.965 425.195 342.944 427.936 339.257C430.676 335.571 435.624 334.615 435.624 334.615Z" fill="white"/>
<path d="M444.997 361.927C444.997 361.927 445.501 366.948 442.762 370.635C440.021 374.321 435.074 375.277 435.074 375.277C435.074 375.277 434.569 370.256 437.309 366.569C440.049 362.883 444.997 361.927 444.997 361.927Z" fill="white"/>
<path d="M420.114 371.843C420.114 371.843 420.618 376.864 417.879 380.551C415.138 384.238 410.191 385.193 410.191 385.193C410.191 385.193 409.685 380.172 412.426 376.485C415.167 372.799 420.114 371.843 420.114 371.843Z" fill="white"/>
<path d="M413.31 333.999C413.31 333.999 415.23 338.665 413.658 342.983C412.085 347.302 407.618 349.635 407.618 349.635C407.618 349.635 405.699 344.969 407.27 340.651C408.843 336.334 413.31 333.999 413.31 333.999Z" fill="white"/>
<path d="M430.931 434.701C430.931 434.701 425.893 434.793 422.449 431.756C419.005 428.718 418.46 423.7 418.46 423.7C418.46 423.7 423.498 423.608 426.942 426.646C430.386 429.684 430.931 434.701 430.931 434.701Z" fill="white"/>
<path d="M382.586 429.182C382.586 429.182 381.218 434.039 377.318 436.463C373.419 438.886 368.467 437.958 368.467 437.958C368.467 437.958 369.835 433.1 373.734 430.677C377.633 428.254 382.586 429.182 382.586 429.182Z" fill="white"/>
<path d="M425.31 309.437C425.31 309.437 425.815 314.458 423.074 318.145C420.334 321.831 415.386 322.787 415.386 322.787C415.386 322.787 414.882 317.766 417.622 314.079C420.363 310.392 425.31 309.437 425.31 309.437Z" fill="white"/>
<path d="M425.397 287.246C425.397 287.246 425.902 292.267 423.161 295.954C420.42 299.64 415.473 300.596 415.473 300.596C415.473 300.596 414.969 295.575 417.709 291.888C420.45 288.2 425.397 287.246 425.397 287.246Z" fill="white"/>
<path d="M584.042 531.288C584.056 532.891 583.983 537.584 583.983 539.188C583.983 545.447 578.001 547.913 576.769 548.05C574.514 548.3 500.366 548.05 500.366 548.05H144.109V546.215V486.337H581.756L584.042 531.288Z" fill="#0D0B51" stroke="#0D0B51" stroke-miterlimit="10"/>
<path d="M58.0899 295.715C58.4178 295.319 58.7496 294.934 59.0851 294.561C69.3799 283.105 89.588 278.324 100.645 277.942C111.701 277.56 441.125 277.942 441.125 277.942C441.125 277.942 447.988 273.939 449.132 273.939C450.275 273.939 497.553 273.939 497.553 273.939L505.179 276.231L529.581 276.613C529.581 276.613 534.395 276.527 540.186 276.641C544.017 277.474 556.756 280.789 560.713 288.714C565.14 297.585 582.494 397.254 584.325 407.819V541.822C584.325 545.283 581.523 548.089 578.068 548.089H529.366C529.253 543.821 527.843 514.853 519.791 504.763C508.184 490.215 489.893 490.09 476.448 494.187C463.003 498.286 452.564 512.959 450.226 526.426C448.732 535.027 447.955 540.308 447.588 548.506H324.188C324.191 535.73 324.455 526.269 319.84 514.164C314.556 500.305 301.301 491.993 286.532 492.102C285.107 492.112 283.682 492.187 282.259 492.288C273.426 492.919 261.963 496.457 255.881 503.334C244.283 516.453 244.11 531.829 242.272 548.506H225.321C225.321 548.506 227.487 515.843 213.761 502.096C200.035 488.348 164.194 488.73 154.281 507.441C144.368 526.153 144.11 546.215 144.11 546.215H86.4847L48.3948 525.098V323.443C48.3936 313.367 51.6678 303.471 58.0899 295.715Z" fill="#FAE12C"/>
<path opacity="0.58" d="M58.0643 295.745C58.3999 295.339 58.7406 294.943 59.0838 294.561C69.3786 283.105 89.5866 278.324 100.643 277.941C101.859 277.899 106.953 277.866 115.015 277.842C113.182 277.848 111.503 277.853 109.99 277.86L381.74 507.846L476.886 273.939C487.701 273.939 497.552 273.939 497.552 273.939L505.177 276.23L521.374 276.483L408.27 548.507H357.226L321.631 519.59C321.132 517.827 320.549 516.03 319.838 514.164C314.713 500.719 302.078 492.519 287.843 492.139L53.8101 302.01C55.0262 299.805 56.4438 297.707 58.0643 295.745Z" fill="white"/>
<path opacity="0.58" d="M135.621 277.8C156.172 277.773 184.016 277.768 214.591 277.773L352.384 387.815L396.516 277.893C423.603 277.92 441.123 277.941 441.123 277.941C441.123 277.941 447.987 273.938 449.13 273.938C449.452 273.938 453.428 273.938 458.975 273.938L374.997 480.389L135.621 277.8Z" fill="white"/>
<path opacity="0.58" d="M128.293 277.812C129.214 277.81 130.156 277.809 131.115 277.808C130.157 277.808 129.213 277.809 128.293 277.812Z" fill="white"/>
<path opacity="0.58" d="M124.865 277.818C125.709 277.817 126.574 277.814 127.454 277.813C126.573 277.814 125.71 277.815 124.865 277.818Z" fill="white"/>
<path opacity="0.58" d="M118.07 277.833C118.937 277.831 119.83 277.828 120.753 277.827C119.833 277.828 118.935 277.831 118.07 277.833Z" fill="white"/>
<path opacity="0.58" d="M48.3935 425.09L153.434 509.094C144.354 527.316 144.109 546.216 144.109 546.216H86.4834L48.3935 525.1V425.09Z" fill="white"/>
<path d="M58.0899 295.715C58.4178 295.319 58.7496 294.934 59.0852 294.561C69.3799 283.105 89.588 278.324 100.644 277.942C111.701 277.56 441.125 277.942 441.125 277.942C441.125 277.942 447.988 273.939 449.132 273.939C450.275 273.939 497.553 273.939 497.553 273.939L505.179 276.231L529.581 276.613C529.581 276.613 534.395 276.527 540.186 276.641C544.017 277.474 556.756 280.789 560.713 288.714C565.14 297.585 582.494 397.254 584.325 407.819V541.822C584.325 545.283 581.523 548.089 578.068 548.089H529.366C529.253 543.821 527.843 514.853 519.791 504.763C508.184 490.215 489.893 490.09 476.448 494.187C463.003 498.286 452.564 512.959 450.226 526.426C448.732 535.027 447.955 540.308 447.588 548.506H324.188C324.191 535.73 324.455 526.269 319.84 514.164C314.556 500.305 301.301 491.993 286.532 492.102C285.107 492.112 283.682 492.187 282.259 492.288C273.426 492.919 261.963 496.457 255.881 503.334C244.283 516.453 244.11 531.829 242.272 548.506H225.321C225.321 548.506 227.487 515.843 213.761 502.096C200.035 488.348 164.194 488.73 154.281 507.441C144.368 526.153 144.11 546.215 144.11 546.215H86.4847L48.3949 525.098V323.443C48.3936 313.367 51.6678 303.471 58.0899 295.715Z" stroke="#0D0B51" stroke-miterlimit="10"/>
<path d="M377.246 338.592H424.797C427.668 338.592 429.994 336.26 429.994 333.386V292.405C429.994 289.529 427.667 287.199 424.797 287.199H377.246C374.375 287.199 372.048 289.53 372.048 292.405V333.386C372.048 336.262 374.376 338.592 377.246 338.592Z" fill="#0D0B51" stroke="#0D0B51" stroke-miterlimit="10"/>
<path d="M229.494 338.592H277.045C279.916 338.592 282.242 336.261 282.242 333.387V292.405C282.242 289.53 279.915 287.2 277.045 287.2H229.494C226.623 287.2 224.297 289.531 224.297 292.405V333.387C224.297 336.262 226.623 338.592 229.494 338.592Z" fill="#0D0B51" stroke="#0D0B51" stroke-miterlimit="10"/>
<path d="M155.617 338.592H203.169C206.04 338.592 208.366 336.261 208.366 333.387V292.405C208.366 289.53 206.038 287.2 203.169 287.2H155.617C152.746 287.2 150.42 289.531 150.42 292.405V333.387C150.42 336.262 152.747 338.592 155.617 338.592Z" fill="#0D0B51" stroke="#0D0B51" stroke-miterlimit="10"/>
<path d="M81.7405 338.592H129.292C132.163 338.592 134.489 336.261 134.489 333.387V292.405C134.489 289.53 132.162 287.2 129.292 287.2H81.7405C78.8695 287.2 76.5434 289.531 76.5434 292.405V333.387C76.5434 336.262 78.8708 338.592 81.7405 338.592Z" fill="#0D0B51" stroke="#0D0B51" stroke-miterlimit="10"/>
<path d="M298.172 332.46V293.332C298.172 289.945 300.499 287.199 303.369 287.199H350.92C353.791 287.199 356.119 289.944 356.119 293.332V332.46C356.119 335.847 353.791 338.593 350.92 338.593H303.369C300.499 338.592 298.172 335.847 298.172 332.46Z" fill="#0D0B51" stroke="#0D0B51" stroke-miterlimit="10"/>
<path d="M153.675 548.179C146.432 530.323 155.013 509.966 172.841 502.712C190.67 495.457 210.995 504.052 218.238 521.909C225.481 539.765 216.899 560.122 199.071 567.376C181.242 574.63 160.918 566.036 153.675 548.179Z" fill="#0D0B51" stroke="#0D0B51" stroke-miterlimit="10"/>
<path d="M180.581 557.695C168.081 554.714 160.36 542.149 163.336 529.629C166.312 517.109 178.858 509.376 191.358 512.357C203.859 515.337 211.58 527.903 208.604 540.423C205.627 552.943 193.081 560.676 180.581 557.695Z" fill="white" stroke="#0D0B51" stroke-miterlimit="10"/>
<path d="M181.636 553.414C171.515 551.006 165.26 540.835 167.665 530.698C170.07 520.561 180.225 514.296 190.346 516.705C200.467 519.114 206.722 529.285 204.317 539.422C201.911 549.559 191.757 555.823 181.636 553.414Z" fill="white" stroke="#0D0B51" stroke-miterlimit="10"/>
<path d="M177.051 535.055C177.051 530.114 181.05 526.11 185.982 526.11C190.914 526.11 194.913 530.116 194.913 535.055C194.913 539.996 190.914 544 185.982 544C181.05 544 177.051 539.995 177.051 535.055Z" fill="white" stroke="#0D0B51" stroke-miterlimit="10"/>
<path d="M251.861 548.183C244.618 530.326 253.2 509.97 271.028 502.715C288.857 495.461 309.181 504.056 316.424 521.912C323.667 539.769 315.086 560.125 297.258 567.38C279.429 574.634 259.104 566.039 251.861 548.183Z" fill="#0D0B51" stroke="#0D0B51" stroke-miterlimit="10"/>
<path d="M278.765 557.699C266.265 554.718 258.544 542.153 261.52 529.633C264.496 517.113 277.042 509.38 289.542 512.361C302.042 515.341 309.763 527.907 306.787 540.427C303.811 552.947 291.265 560.68 278.765 557.699Z" fill="white" stroke="#0D0B51" stroke-miterlimit="10"/>
<path d="M279.821 553.413C269.7 551.004 263.445 540.834 265.85 530.697C268.255 520.56 278.41 514.295 288.531 516.704C298.652 519.113 304.907 529.283 302.502 539.42C300.097 549.557 289.942 555.822 279.821 553.413Z" fill="white" stroke="#0D0B51" stroke-miterlimit="10"/>
<path d="M275.237 535.055C275.237 530.114 279.236 526.11 284.168 526.11C289.099 526.11 293.098 530.116 293.098 535.055C293.098 539.996 289.099 544 284.168 544C279.236 544 275.237 539.995 275.237 535.055Z" fill="white" stroke="#0D0B51" stroke-miterlimit="10"/>
<path d="M463.375 558.513C450.431 544.253 451.479 522.183 465.717 509.218C479.955 496.253 501.99 497.303 514.935 511.563C527.88 525.823 526.832 547.894 512.594 560.859C498.356 573.824 476.32 572.774 463.375 558.513Z" fill="#0D0B51" stroke="#0D0B51" stroke-miterlimit="10"/>
<path d="M471.969 550.773C463.313 541.26 463.996 526.521 473.493 517.852C482.99 509.183 497.706 509.866 506.362 519.379C515.017 528.891 514.335 543.63 504.838 552.299C495.34 560.968 480.625 560.285 471.969 550.773Z" fill="white" stroke="#0D0B51" stroke-miterlimit="10"/>
<path d="M475.842 548.393C468.486 541.025 468.486 529.08 475.842 521.713C483.198 514.345 495.125 514.345 502.481 521.713C509.837 529.08 509.837 541.025 502.481 548.393C495.125 555.76 483.198 555.76 475.842 548.393Z" fill="white" stroke="#0D0B51" stroke-miterlimit="10"/>
<path d="M480.226 535.055C480.226 530.114 484.225 526.11 489.157 526.11C494.089 526.11 498.088 530.116 498.088 535.055C498.088 539.996 494.089 544 489.157 544C484.224 544 480.226 539.995 480.226 535.055Z" fill="white" stroke="#0D0B51" stroke-miterlimit="10"/>
<path d="M603.424 414.384H605.976V404.746C605.976 402.101 603.827 399.948 601.185 399.948H563.453V402.504H601.185C602.42 402.504 603.424 403.509 603.424 404.746V414.384Z" fill="#0D0B51"/>
<path d="M604.505 452.452C606.188 452.452 607.552 451.085 607.552 449.4V412.184C607.552 410.499 606.188 409.133 604.505 409.133C602.822 409.133 601.458 410.499 601.458 412.184V449.4C601.458 451.085 602.822 452.452 604.505 452.452Z" fill="white" stroke="#0D0B51" stroke-miterlimit="10"/>
<path d="M580.48 505.937H584.528V533.04H580.48V505.937Z" fill="white" stroke="#0D0B51" stroke-miterlimit="10"/>
<path d="M539.992 522.311H555.777V534.168H539.992V522.311Z" stroke="#0D0B51" stroke-miterlimit="10"/>
<path d="M59.6746 531.354L48.3935 525.1V482.266L59.6746 490.127V531.354Z" fill="#FAE12C" stroke="#0D0B51" stroke-miterlimit="10"/>
<path d="M441.59 522.504H330.73" stroke="#0D0B51" stroke-miterlimit="10"/>
<path d="M142.804 522.504H81.2965" stroke="#0D0B51" stroke-miterlimit="10"/>
<path d="M448.875 338.469H473.799C481.154 338.469 487.394 343.878 488.45 351.168L500.877 436.919C502.558 448.513 512.481 457.114 524.179 457.114H571.608L572.046 406.853L552.262 294.773H441.869V331.451C441.867 335.327 445.005 338.469 448.875 338.469Z" fill="#0D0B51" stroke="#0D0B51" stroke-miterlimit="10"/>
<path d="M377.246 457.659H424.797C427.668 457.659 429.994 455.328 429.994 452.454V419.239C429.994 416.363 427.667 414.034 424.797 414.034H377.246C374.375 414.034 372.048 416.365 372.048 419.239V452.454C372.048 455.328 374.376 457.659 377.246 457.659Z" fill="#0D0B51" stroke="#0D0B51" stroke-miterlimit="10"/>
<path d="M303.37 414.032H350.922C353.793 414.032 356.12 416.363 356.12 419.238V452.453C356.12 455.328 353.793 457.658 350.922 457.658H303.37C300.499 457.658 298.173 455.327 298.173 452.453V419.238C298.172 416.363 300.499 414.032 303.37 414.032Z" fill="#0D0B51" stroke="#0D0B51" stroke-miterlimit="10"/>
<path d="M229.494 457.659H277.045C279.916 457.659 282.242 455.328 282.242 452.454V419.239C282.242 416.363 279.915 414.034 277.045 414.034H229.494C226.623 414.034 224.297 416.365 224.297 419.239V452.454C224.297 455.328 226.623 457.659 229.494 457.659Z" fill="#0D0B51" stroke="#0D0B51" stroke-miterlimit="10"/>
<path d="M447.223 414.032H492.126L495.443 436.919C497.123 448.513 507.047 457.114 518.745 457.114H527.613C526.924 457.451 526.16 457.658 525.342 457.658H447.223C444.352 457.658 442.026 455.327 442.026 452.453V419.238C442.024 416.363 444.352 414.032 447.223 414.032Z" fill="#0D0B51" stroke="#0D0B51" stroke-miterlimit="10"/>
<path d="M49.2255 398.027H568.17V405.07H49.2255V398.027Z" fill="#0D0B51" stroke="#0D0B51" stroke-miterlimit="10"/>
<path d="M99.639 417.42H72.4053" stroke="#0D0B51" stroke-miterlimit="10"/>
<path d="M99.639 425.617H72.4053" stroke="#0D0B51" stroke-miterlimit="10"/>
<path d="M99.639 433.813H72.4053" stroke="#0D0B51" stroke-miterlimit="10"/>
<path d="M99.639 442.01H72.4053" stroke="#0D0B51" stroke-miterlimit="10"/>
<path d="M99.639 450.206H72.4053" stroke="#0D0B51" stroke-miterlimit="10"/>
<path d="M99.639 458.403H72.4053" stroke="#0D0B51" stroke-miterlimit="10"/>
<path d="M99.639 466.599H72.4053" stroke="#0D0B51" stroke-miterlimit="10"/>
<path d="M99.639 474.795H72.4053" stroke="#0D0B51" stroke-miterlimit="10"/>
<path d="M99.639 482.992H72.4053" stroke="#0D0B51" stroke-miterlimit="10"/>
<path d="M99.639 491.188H72.4053" stroke="#0D0B51" stroke-miterlimit="10"/>
<path d="M99.639 499.385H72.4053" stroke="#0D0B51" stroke-miterlimit="10"/>
<path d="M99.639 507.581H72.4053" stroke="#0D0B51" stroke-miterlimit="10"/>
<path d="M214.89 417.42H187.656" stroke="#0D0B51" stroke-miterlimit="10"/>
<path d="M214.89 425.617H187.656" stroke="#0D0B51" stroke-miterlimit="10"/>
<path d="M214.89 433.813H187.656" stroke="#0D0B51" stroke-miterlimit="10"/>
<path d="M214.89 442.01H187.656" stroke="#0D0B51" stroke-miterlimit="10"/>
<path d="M214.89 450.206H187.656" stroke="#0D0B51" stroke-miterlimit="10"/>
<path d="M214.89 458.403H187.656" stroke="#0D0B51" stroke-miterlimit="10"/>
<path d="M109.33 460.877H179.571V454.15" stroke="#0D0B51" stroke-miterlimit="10"/>
<path d="M571.607 457.115L572.045 406.854L552.26 294.775H542.198L542.07 293.629H60.0038C70.5359 282.858 89.898 278.314 100.643 277.943C111.7 277.561 441.123 277.943 441.123 277.943C441.123 277.943 447.987 273.941 449.13 273.941C450.274 273.941 497.552 273.941 497.552 273.941L505.177 276.232L529.58 276.614C529.58 276.614 534.394 276.529 540.184 276.642C544.016 277.476 556.754 280.791 560.711 288.716C565.139 297.586 582.493 397.255 584.324 407.82V484.961H566.844L560.603 457.116H571.607V457.115Z" fill="#0D0B51" stroke="#0D0B51" stroke-miterlimit="10"/>
<path d="M9.3926 569.952H621.238" stroke="#0D0B51" stroke-miterlimit="10"/>
</svg>
