<svg width="1440" height="1419" viewBox="0 0 1440 1419" fill="none" xmlns="http://www.w3.org/2000/svg">
<rect x="-2" width="1440" height="1419" fill="#112152"/>
<mask id="mask0_28_826" style="mask-type:luminance" maskUnits="userSpaceOnUse" x="-544" y="10" width="1396" height="800">
<path d="M851.957 10H-543.956V810H851.957V10Z" fill="white"/>
</mask>
<g mask="url(#mask0_28_826)">
<g opacity="0.3">
<path d="M521.696 631.492L266.109 656.69L393.901 585.894L521.696 631.492Z" stroke="#FAE12C" stroke-miterlimit="10"/>
<path d="M320.105 487.499L266.109 656.69L393.901 585.894L320.105 487.499Z" stroke="#FAE12C" stroke-miterlimit="10"/>
<path d="M339.161 596.667L208.494 867.067L412.957 656.69L339.161 596.667Z" stroke="#FAE12C" stroke-miterlimit="10"/>
<path d="M266.109 656.69L320.105 487.499L212.111 631.492L266.109 656.69Z" stroke="#FAE12C" stroke-miterlimit="10"/>
<path d="M266.109 656.69L188.227 768.934L212.111 631.492L266.109 656.69Z" stroke="#FAE12C" stroke-miterlimit="10"/>
<path d="M266.109 656.69L188.227 768.934L330.005 838.802L266.109 656.69Z" stroke="#FAE12C" stroke-miterlimit="10"/>
<path d="M-6.06567 543.427L320.105 487.499L212.111 631.492L-6.06567 543.427Z" stroke="#FAE12C" stroke-miterlimit="10"/>
<path d="M212.111 631.492L-6.06567 543.427L189.524 656.69L212.111 631.492Z" stroke="#FAE12C" stroke-miterlimit="10"/>
<path d="M212.111 631.492L-6.06567 543.427L86.0935 410L212.111 631.492Z" stroke="#FAE12C" stroke-miterlimit="10"/>
<path d="M-80.3065 327.6L-6.06569 543.427L86.0935 410L-80.3065 327.6Z" stroke="#FAE12C" stroke-miterlimit="10"/>
<path d="M86.0935 410L110.894 475.6L-6.06567 543.427" stroke="#FAE12C" stroke-miterlimit="10"/>
<path d="M-80.3065 327.6L86.0935 410L72.4935 260.4L-80.3065 327.6Z" stroke="#FAE12C" stroke-miterlimit="10"/>
<path d="M-80.3065 327.6L-9.90652 246L72.4935 260.4L-80.3065 327.6Z" stroke="#FAE12C" stroke-miterlimit="10"/>
<path d="M227.167 300.4L86.0935 410L72.4935 260.4L227.167 300.4Z" stroke="#FAE12C" stroke-miterlimit="10"/>
<path d="M227.167 300.4L111.693 214L72.4935 260.4L227.167 300.4Z" stroke="#FAE12C" stroke-miterlimit="10"/>
<path d="M130.185 487.499L86.0935 410L72.4935 260.4L130.185 487.499Z" stroke="#FAE12C" stroke-miterlimit="10"/>
<path d="M212.111 631.492L149.826 788.667L35.1599 694.8L212.111 631.492Z" stroke="#FAE12C" stroke-miterlimit="10"/>
<path d="M212.111 631.492L194.094 842.575L132.227 656.69L212.111 631.492Z" stroke="#FAE12C" stroke-miterlimit="10"/>
<path d="M393.901 585.894L521.696 631.492L320.105 487.499L393.901 585.894Z" stroke="#FAE12C" stroke-miterlimit="10"/>
<path d="M31.6935 347.6L349.293 543.427L339.161 596.667L31.6935 347.6Z" stroke="#FAE12C" stroke-miterlimit="10"/>
<path d="M390.79 679.5L227.168 663.6L137.293 468.4L390.79 679.5Z" stroke="#FAE12C" stroke-miterlimit="10"/>
<path d="M330.005 838.802L588.493 679.5L250.893 752.4L330.005 835.6L412.957 842.575" stroke="#FAE12C" stroke-miterlimit="10"/>
<path d="M412.957 842.575V656.69L598.893 838.802L412.957 842.575Z" stroke="#FAE12C" stroke-miterlimit="10"/>
<path d="M487.693 525.2L212.111 569.2L330.005 835.6L487.693 525.2Z" stroke="#FAE12C" stroke-miterlimit="10"/>
<path d="M212.111 569.2L264.042 454.8L487.693 525.2" stroke="#FAE12C" stroke-miterlimit="10"/>
<path d="M-109.907 260.4L137.293 468.4L-117.663 304.429L-109.907 260.4Z" stroke="#FAE12C" stroke-miterlimit="10"/>
<path d="M-3.9065 37.2L-109.906 260.4H72.4935L-3.9065 37.2Z" stroke="#FAE12C" stroke-miterlimit="10"/>
<path d="M90.0935 98.8L-170.706 214L-305.906 102.8L90.0935 98.8Z" stroke="#FAE12C" stroke-miterlimit="10"/>
</g>
</g>
<mask id="mask1_28_826" style="mask-type:luminance" maskUnits="userSpaceOnUse" x="-544" y="10" width="1396" height="800">
<path d="M851.957 10H-543.956V810H851.957V10Z" fill="white"/>
</mask>
<g mask="url(#mask1_28_826)">
<g opacity="0.2">
<path d="M626.096 216.557L370.508 241.757L498.302 170.961L626.096 216.557Z" stroke="#FAE12C" stroke-miterlimit="10"/>
<path d="M424.506 72.5654L370.508 241.757L498.302 170.961L424.506 72.5654Z" stroke="#FAE12C" stroke-miterlimit="10"/>
<path d="M443.561 181.733L312.893 452.134L517.357 241.757L443.561 181.733Z" stroke="#FAE12C" stroke-miterlimit="10"/>
<path d="M370.508 241.757L424.506 72.5654L316.511 216.558L370.508 241.757Z" stroke="#FAE12C" stroke-miterlimit="10"/>
<path d="M370.508 241.757L292.627 354.001L316.511 216.558L370.508 241.757Z" stroke="#FAE12C" stroke-miterlimit="10"/>
<path d="M370.508 241.757L292.627 354.001L434.405 423.867L370.508 241.757Z" stroke="#FAE12C" stroke-miterlimit="10"/>
<path d="M98.3344 128.493L424.505 72.5654L316.511 216.558L98.3344 128.493Z" stroke="#FAE12C" stroke-miterlimit="10"/>
<path d="M316.511 216.558L98.3344 128.493L293.924 241.757L316.511 216.558Z" stroke="#FAE12C" stroke-miterlimit="10"/>
<path d="M316.511 216.558L98.3344 128.494L190.494 -4.93359L316.511 216.558Z" stroke="#FAE12C" stroke-miterlimit="10"/>
<path d="M24.0936 -87.3337L98.3344 128.493L190.494 -4.93374L24.0936 -87.3337Z" stroke="#FAE12C" stroke-miterlimit="10"/>
<path d="M190.494 -4.93359L215.294 60.6664L98.3344 128.494" stroke="#FAE12C" stroke-miterlimit="10"/>
<path d="M234.586 72.5655L190.494 -4.93369L176.894 -154.534L234.586 72.5655Z" stroke="#FAE12C" stroke-miterlimit="10"/>
<path d="M316.511 216.558L254.226 373.734L139.559 279.866L316.511 216.558Z" stroke="#FAE12C" stroke-miterlimit="10"/>
<path d="M316.511 216.558L298.493 427.641L236.627 241.757L316.511 216.558Z" stroke="#FAE12C" stroke-miterlimit="10"/>
<path d="M498.302 170.961L626.096 216.557L424.506 72.5654L498.302 170.961Z" stroke="#FAE12C" stroke-miterlimit="10"/>
<path d="M136.094 -67.3337L453.694 128.493L443.561 181.733L136.094 -67.3337Z" stroke="#FAE12C" stroke-miterlimit="10"/>
<path d="M495.189 264.566L331.567 248.666L241.694 53.4663L495.189 264.566Z" stroke="#FAE12C" stroke-miterlimit="10"/>
<path d="M434.405 423.867L692.893 264.565L355.293 337.466L434.405 420.666L517.357 427.641" stroke="#FAE12C" stroke-miterlimit="10"/>
<path d="M517.357 427.641V241.757L703.294 423.867L517.357 427.641Z" stroke="#FAE12C" stroke-miterlimit="10"/>
<path d="M592.093 110.266L316.511 154.266L434.405 420.666L592.093 110.266Z" stroke="#FAE12C" stroke-miterlimit="10"/>
<path d="M316.511 154.266L368.442 39.8662L592.093 110.266" stroke="#FAE12C" stroke-miterlimit="10"/>
</g>
</g>
<mask id="mask2_28_826" style="mask-type:luminance" maskUnits="userSpaceOnUse" x="-544" y="10" width="1396" height="800">
<path d="M851.957 10H-543.956V810H851.957V10Z" fill="white"/>
</mask>
<g mask="url(#mask2_28_826)">
<g opacity="0.2">
<path d="M65.8175 645.535L-189.77 670.733L-61.976 599.937L65.8175 645.535Z" stroke="#FAE12C" stroke-miterlimit="10"/>
<path d="M-61.976 599.937L65.8175 645.535L-135.772 501.542L-61.976 599.937Z" stroke="#FAE12C" stroke-miterlimit="10"/>
<path d="M-125.873 852.844L132.615 693.542L-204.984 766.442L-125.873 849.642L-42.9201 856.617" stroke="#FAE12C" stroke-miterlimit="10"/>
<path d="M-42.9201 856.617V670.733L143.015 852.844L-42.9201 856.617Z" stroke="#FAE12C" stroke-miterlimit="10"/>
<path d="M31.8151 539.242L-243.766 583.242L-125.873 849.642L31.8151 539.242Z" stroke="#FAE12C" stroke-miterlimit="10"/>
<path d="M-243.766 583.242L-191.836 468.842L31.8151 539.242" stroke="#FAE12C" stroke-miterlimit="10"/>
</g>
</g>
<mask id="mask3_28_826" style="mask-type:luminance" maskUnits="userSpaceOnUse" x="-544" y="10" width="1396" height="800">
<path d="M851.957 10H-543.956V810H851.957V10Z" fill="white"/>
</mask>
<g mask="url(#mask3_28_826)">
<path d="M30.4528 694.8C30.4528 692.2 32.5608 690.094 35.16 690.094C37.7592 690.094 39.8664 692.2 39.8664 694.8C39.8664 697.399 37.7592 699.507 35.16 699.507C32.5608 699.507 30.4528 697.399 30.4528 694.8Z" fill="#FAE12C"/>
<path d="M259.676 656.691C259.676 653.138 262.556 650.258 266.108 650.258C269.661 650.258 272.541 653.138 272.541 656.691C272.541 660.242 269.661 663.123 266.108 663.123C262.555 663.123 259.676 660.243 259.676 656.691Z" fill="#FAE12C"/>
<path d="M189.893 661.056C192.636 661.056 194.859 658.833 194.859 656.09C194.859 653.348 192.636 651.125 189.893 651.125C187.151 651.125 184.928 653.348 184.928 656.09C184.928 658.833 187.151 661.056 189.893 661.056Z" fill="#FAE12C"/>
<path d="M207.146 631.492C207.146 628.75 209.369 626.526 212.111 626.526C214.854 626.526 217.077 628.75 217.077 631.492C217.077 634.234 214.854 636.458 212.111 636.458C209.369 636.458 207.146 634.234 207.146 631.492Z" fill="#FAE12C"/>
<path d="M227.168 671.466C231.512 671.466 235.034 667.944 235.034 663.6C235.034 659.256 231.512 655.734 227.168 655.734C222.824 655.734 219.302 659.256 219.302 663.6C219.302 667.944 222.824 671.466 227.168 671.466Z" fill="#FAE12C"/>
<path d="M144.586 788.667C144.586 786.067 146.694 783.961 149.294 783.961C151.893 783.961 154 786.067 154 788.667C154 791.266 151.893 793.374 149.294 793.374C146.694 793.374 144.586 791.266 144.586 788.667Z" fill="#FAE12C"/>
<path d="M594.015 684.461C596.423 682.054 596.423 678.15 594.015 675.742C591.608 673.334 587.704 673.334 585.296 675.742C582.888 678.15 582.888 682.053 585.296 684.461C587.704 686.869 591.608 686.869 594.015 684.461Z" fill="#FAE12C"/>
<path d="M206.946 569.2C206.946 566.347 209.259 564.034 212.111 564.034C214.964 564.034 217.277 566.347 217.277 569.2C217.277 572.053 214.964 574.366 212.111 574.366C209.258 574.366 206.946 572.053 206.946 569.2Z" fill="#FAE12C"/>
<path d="M518.928 631.492C518.928 628.639 521.242 626.326 524.094 626.326C526.946 626.326 529.259 628.639 529.259 631.492C529.259 634.345 526.946 636.658 524.094 636.658C521.242 636.658 518.928 634.346 518.928 631.492Z" fill="#FAE12C"/>
<path d="M387.336 586.594C387.336 583.354 389.962 580.729 393.202 580.729C396.441 580.729 399.067 583.354 399.067 586.594C399.067 589.834 396.441 592.459 393.202 592.459C389.962 592.459 387.336 589.834 387.336 586.594Z" fill="#FAE12C"/>
<path d="M339.601 602.533C342.841 602.533 345.467 599.907 345.467 596.667C345.467 593.428 342.841 590.802 339.601 590.802C336.362 590.802 333.736 593.428 333.736 596.667C333.736 599.907 336.362 602.533 339.601 602.533Z" fill="#FAE12C"/>
<path d="M264.042 460.666C267.281 460.666 269.907 458.04 269.907 454.8C269.907 451.561 267.281 448.935 264.042 448.935C260.802 448.935 258.176 451.561 258.176 454.8C258.176 458.04 260.802 460.666 264.042 460.666Z" fill="#FAE12C"/>
<path d="M351.494 485.866C354.733 485.866 357.359 483.24 357.359 480C357.359 476.761 354.733 474.135 351.494 474.135C348.254 474.135 345.628 476.761 345.628 480C345.628 483.24 348.254 485.866 351.494 485.866Z" fill="#FAE12C"/>
<path d="M350.394 554.466C354.241 554.466 357.359 551.347 357.359 547.5C357.359 543.653 354.241 540.534 350.394 540.534C346.547 540.534 343.428 543.653 343.428 547.5C343.428 551.347 346.547 554.466 350.394 554.466Z" fill="#FAE12C"/>
<path d="M410.957 663.856C414.914 663.856 418.122 660.648 418.122 656.69C418.122 652.733 414.914 649.525 410.957 649.525C406.999 649.525 403.791 652.733 403.791 656.69C403.791 660.648 406.999 663.856 410.957 663.856Z" fill="#FAE12C"/>
<path d="M-13.4313 543.427C-13.4313 539.359 -10.1336 536.062 -6.06565 536.062C-1.99845 536.062 1.29993 539.359 1.29993 543.427C1.29993 547.495 -1.99845 550.792 -6.06565 550.792C-10.1336 550.792 -13.4313 547.495 -13.4313 543.427Z" fill="#FAE12C"/>
<path d="M133.042 468.4C133.042 464.333 136.339 461.035 140.407 461.035C144.475 461.035 147.773 464.333 147.773 468.4C147.773 472.467 144.475 475.766 140.407 475.766C136.339 475.766 133.042 472.467 133.042 468.4Z" fill="#FAE12C"/>
<path d="M19.9279 345.4C19.9279 340.118 24.2111 335.835 29.4935 335.835C34.7751 335.835 39.0591 340.118 39.0591 345.4C39.0591 350.682 34.7759 354.966 29.4935 354.966C24.2111 354.966 19.9279 350.682 19.9279 345.4Z" fill="#FAE12C"/>
<path d="M67.4279 260.4C67.4279 257.603 69.6959 255.335 72.4935 255.335C75.2903 255.335 77.5583 257.603 77.5583 260.4C77.5583 263.198 75.2903 265.466 72.4935 265.466C69.6959 265.466 67.4279 263.198 67.4279 260.4Z" fill="#FAE12C"/>
<path d="M108.029 214C108.029 211.977 109.67 210.336 111.694 210.336C113.717 210.336 115.358 211.977 115.358 214C115.358 216.023 113.717 217.665 111.694 217.665C109.67 217.665 108.029 216.023 108.029 214Z" fill="#FAE12C"/>
<path d="M-9.37122 37.1993C-9.37122 34.1825 -6.92322 31.7361 -3.90642 31.7361C-0.88962 31.7361 1.55759 34.1825 1.55759 37.1993C1.55759 40.2169 -0.88962 42.6649 -3.90642 42.6649C-6.92322 42.6649 -9.37122 40.2169 -9.37122 37.1993Z" fill="#FAE12C"/>
<path d="M84.6288 98.7994C84.6288 95.7826 87.0768 93.3362 90.0936 93.3362C93.1104 93.3362 95.5576 95.7826 95.5576 98.7994C95.5576 101.817 93.1104 104.265 90.0936 104.265C87.0768 104.265 84.6288 101.817 84.6288 98.7994Z" fill="#FAE12C"/>
<path d="M218.594 298.647C218.594 294.881 221.647 291.828 225.414 291.828C229.179 291.828 232.232 294.881 232.232 298.647C232.232 302.412 229.179 305.466 225.414 305.466C221.648 305.466 218.594 302.412 218.594 298.647Z" fill="#FAE12C"/>
<path d="M106.995 475.6C106.995 473.448 108.741 471.702 110.894 471.702C113.046 471.702 114.792 473.448 114.792 475.6C114.792 477.753 113.046 479.499 110.894 479.499C108.741 479.499 106.995 477.753 106.995 475.6Z" fill="#FAE12C"/>
<path d="M62.5952 501.6C62.5952 499.447 64.3407 497.702 66.4935 497.702C68.6463 497.702 70.3919 499.447 70.3919 501.6C70.3919 503.753 68.6463 505.498 66.4935 505.498C64.3407 505.498 62.5952 503.753 62.5952 501.6Z" fill="#FAE12C"/>
</g>
<mask id="mask4_28_826" style="mask-type:luminance" maskUnits="userSpaceOnUse" x="-544" y="10" width="1396" height="800">
<path d="M851.957 10H-543.956V810H851.957V10Z" fill="white"/>
</mask>
<g mask="url(#mask4_28_826)">
<g opacity="0.3">
<path d="M98.356 239.253C97.932 241.818 95.5088 243.552 92.944 243.128C90.3792 242.704 88.6448 240.281 89.068 237.717C89.4928 235.152 91.9168 233.417 94.4808 233.841C97.0456 234.266 98.7808 236.689 98.356 239.253Z" fill="#FAE12C"/>
<path d="M1.07357 128.016C0.650367 130.58 -1.77362 132.315 -4.33762 131.891C-6.90242 131.467 -8.63764 129.044 -8.21364 126.48C-7.78964 123.915 -5.36563 122.18 -2.80163 122.604C-0.237629 123.029 1.49837 125.452 1.07357 128.016Z" fill="#FAE12C"/>
<path d="M116.946 395.759C116.283 399.772 112.491 402.486 108.478 401.822C104.464 401.159 101.749 397.367 102.413 393.354C103.077 389.341 106.869 386.626 110.882 387.29C114.894 387.954 117.61 391.746 116.946 395.759Z" fill="#FAE12C"/>
<path d="M51.7128 585.686C50.8512 590.897 45.9273 594.423 40.7145 593.561C35.5033 592.699 31.9768 587.775 32.8384 582.564C33.7 577.351 38.6248 573.825 43.8376 574.687C49.048 575.551 52.5752 580.475 51.7128 585.686Z" fill="#FAE12C"/>
<path d="M68.4416 689.813C68.0576 692.136 65.8608 693.708 63.5376 693.324C61.2152 692.94 59.6424 690.744 60.0264 688.421C60.4104 686.098 62.6064 684.526 64.9296 684.91C67.2528 685.294 68.8256 687.489 68.4416 689.813Z" fill="#FAE12C"/>
<path d="M153.089 620.5C152.597 623.477 149.782 625.49 146.806 624.998C143.828 624.505 141.814 621.692 142.306 618.715C142.799 615.737 145.612 613.723 148.59 614.215C151.567 614.708 153.582 617.522 153.089 620.5Z" fill="#FAE12C"/>
<path d="M171.324 691.63C170.832 694.607 168.018 696.62 165.041 696.128C162.063 695.636 160.049 692.823 160.542 689.845C161.034 686.868 163.847 684.853 166.825 685.345C169.802 685.838 171.817 688.652 171.324 691.63Z" fill="#FAE12C"/>
<path d="M90.836 651.286C90.2688 654.714 87.0296 657.033 83.6016 656.466C80.1744 655.899 77.8544 652.659 78.4216 649.233C78.9888 645.805 82.228 643.485 85.6552 644.051C89.0832 644.619 91.4032 647.858 90.836 651.286Z" fill="#FAE12C"/>
<path d="M35.1128 424.617C34.7616 426.741 32.7536 428.178 30.6304 427.826C28.5064 427.475 27.0696 425.469 27.42 423.344C27.772 421.22 29.7784 419.782 31.9032 420.134C34.0264 420.485 35.464 422.492 35.1128 424.617Z" fill="#FAE12C"/>
<path d="M224.23 747.413C223.718 750.508 220.667 752.58 217.417 752.042C214.168 751.505 211.947 748.56 212.46 745.465C212.972 742.37 216.022 740.297 219.271 740.834C222.521 741.372 224.742 744.317 224.23 747.413Z" fill="#FAE12C"/>
</g>
</g>
<mask id="mask5_28_826" style="mask-type:luminance" maskUnits="userSpaceOnUse" x="-544" y="10" width="1396" height="800">
<path d="M851.957 10H-543.956V810H851.957V10Z" fill="white"/>
</mask>
<g mask="url(#mask5_28_826)">
<path d="M188.227 777.114C192.745 777.114 196.407 773.452 196.407 768.934C196.407 764.417 192.745 760.754 188.227 760.754C183.71 760.754 180.047 764.417 180.047 768.934C180.047 773.452 183.71 777.114 188.227 777.114Z" stroke="#FAE12C" stroke-width="2.4864" stroke-miterlimit="10"/>
<path d="M188.227 763.738C191.093 763.738 193.423 766.069 193.423 768.934C193.423 771.8 191.093 774.13 188.227 774.13C185.362 774.13 183.031 771.8 183.031 768.934C183.031 766.069 185.362 763.738 188.227 763.738Z" fill="#FAE12C"/>
<path d="M132.227 664.87C136.745 664.87 140.407 661.208 140.407 656.69C140.407 652.173 136.745 648.51 132.227 648.51C127.71 648.51 124.047 652.173 124.047 656.69C124.047 661.208 127.71 664.87 132.227 664.87Z" stroke="#FAE12C" stroke-width="2.4864" stroke-miterlimit="10"/>
<path d="M132.227 651.495C135.093 651.495 137.423 653.825 137.423 656.69C137.423 659.556 135.093 661.887 132.227 661.887C129.362 661.887 127.031 659.556 127.031 656.69C127.031 653.825 129.362 651.495 132.227 651.495Z" fill="#FAE12C"/>
<path d="M135.636 803.497C135.636 800.308 138.222 797.722 141.411 797.722C144.601 797.722 147.187 800.308 147.187 803.497C147.187 806.687 144.602 809.274 141.411 809.274C138.222 809.274 135.636 806.687 135.636 803.497Z" stroke="#FAE12C" stroke-width="1.7556" stroke-miterlimit="10"/>
<path d="M141.411 799.828C143.434 799.828 145.081 801.475 145.081 803.497C145.081 805.52 143.434 807.167 141.411 807.167C139.389 807.167 137.742 805.52 137.742 803.497C137.742 801.475 139.388 799.828 141.411 799.828Z" fill="#FAE12C"/>
<path d="M487.694 532.76C492.211 532.76 495.874 529.098 495.874 524.58C495.874 520.062 492.211 516.4 487.694 516.4C483.176 516.4 479.514 520.062 479.514 524.58C479.514 529.098 483.176 532.76 487.694 532.76Z" stroke="#FAE12C" stroke-width="2.4864" stroke-miterlimit="10"/>
<path d="M487.694 519.385C490.558 519.385 492.889 521.715 492.889 524.58C492.889 527.446 490.558 529.777 487.694 529.777C484.828 529.777 482.497 527.446 482.497 524.58C482.497 521.715 484.828 519.385 487.694 519.385Z" fill="#FAE12C"/>
<path d="M245.122 483.067C245.122 479.462 248.043 476.539 251.648 476.539C255.253 476.539 258.175 479.462 258.175 483.067C258.175 486.672 255.253 489.593 251.648 489.593C248.044 489.593 245.122 486.672 245.122 483.067Z" stroke="#FAE12C" stroke-width="1.984" stroke-miterlimit="10"/>
<path d="M251.648 478.92C253.934 478.92 255.795 480.78 255.795 483.067C255.795 485.353 253.935 487.213 251.648 487.213C249.362 487.213 247.502 485.353 247.502 483.067C247.502 480.781 249.362 478.92 251.648 478.92Z" fill="#FAE12C"/>
</g>
<mask id="mask6_28_826" style="mask-type:luminance" maskUnits="userSpaceOnUse" x="-544" y="10" width="1396" height="800">
<path d="M851.957 10H-543.956V810H851.957V10Z" fill="white"/>
</mask>
<g mask="url(#mask6_28_826)">
<g opacity="0.1">
<path d="M342.182 79.8047C342.191 84.4767 338.411 88.2719 333.739 88.2807C329.068 88.2903 325.273 84.5119 325.263 79.8399C325.253 75.1679 329.033 71.3727 333.705 71.3631C338.377 71.3527 342.172 75.1335 342.182 79.8047Z" fill="#FAE12C"/>
<path d="M64.6879 149.938C64.6991 154.866 60.7103 158.87 55.7815 158.882C50.8535 158.891 46.8495 154.903 46.8383 149.974C46.8287 145.046 50.8175 141.042 55.7455 141.032C60.6751 141.022 64.6791 145.01 64.6879 149.938Z" fill="#FAE12C"/>
<path d="M24.8471 194.23C24.8575 199.158 20.8695 203.162 15.9407 203.173C11.0127 203.183 7.00791 199.194 6.99751 194.266C6.98791 189.338 10.9759 185.334 15.9047 185.323C20.8327 185.314 24.8375 189.302 24.8471 194.23Z" fill="#FAE12C"/>
<path d="M2.88144 136.568C2.89664 144.375 -3.42095 150.716 -11.2274 150.733C-19.0346 150.749 -25.3778 144.433 -25.393 136.626C-25.409 128.818 -19.0913 122.475 -11.2841 122.46C-3.47694 122.444 2.86544 128.762 2.88144 136.568Z" fill="#FAE12C"/>
<path d="M25.4335 306.186C25.4439 311.312 21.2943 315.477 16.1687 315.488C11.0415 315.498 6.8759 311.35 6.8655 306.223C6.8551 301.096 11.0031 296.931 16.1311 296.92C21.2575 296.911 25.4231 301.058 25.4335 306.186Z" fill="#FAE12C"/>
<path d="M421.606 351.705C421.622 359.015 415.706 364.953 408.394 364.968C401.084 364.982 395.144 359.068 395.13 351.757C395.115 344.447 401.03 338.507 408.342 338.493C415.651 338.478 421.591 344.394 421.606 351.705Z" fill="#FAE12C"/>
<path d="M362.372 707.736C362.39 717.228 354.708 724.941 345.214 724.959C335.721 724.979 328.006 717.298 327.988 707.805C327.969 698.311 335.651 690.597 345.145 690.578C354.638 690.559 362.352 698.242 362.372 707.736Z" fill="#FAE12C"/>
<path d="M552.406 739.342C552.418 744.767 548.028 749.172 542.605 749.183C537.182 749.194 532.775 744.806 532.764 739.383C532.752 733.958 537.142 729.552 542.565 729.541C547.988 729.528 552.394 733.918 552.406 739.342Z" fill="#FAE12C"/>
<path d="M622.607 782.331C622.62 788.577 617.565 793.648 611.322 793.661C605.077 793.674 600.005 788.622 599.993 782.377C599.979 776.133 605.032 771.06 611.276 771.046C617.519 771.033 622.594 776.087 622.607 782.331Z" fill="#FAE12C"/>
<path d="M5.48229 792.489C5.49589 799.256 0.0198574 804.755 -6.74974 804.769C-13.5169 804.782 -19.0162 799.307 -19.0306 792.538C-19.0442 785.771 -13.5674 780.271 -6.79935 780.258C-0.0305519 780.244 5.46949 785.72 5.48229 792.489Z" fill="#FAE12C"/>
<path d="M205.413 474.047C205.421 477.916 202.29 481.06 198.421 481.067C194.551 481.075 191.407 477.944 191.401 474.075C191.392 470.205 194.523 467.061 198.393 467.053C202.261 467.046 205.405 470.177 205.413 474.047Z" fill="#FAE12C"/>
<path d="M285.117 427.156C285.125 431.025 281.994 434.168 278.126 434.175C274.255 434.183 271.111 431.054 271.103 427.184C271.096 423.314 274.227 420.17 278.097 420.163C281.966 420.154 285.11 423.286 285.117 427.156Z" fill="#FAE12C"/>
</g>
</g>
<g clip-path="url(#clip0_28_826)">
<mask id="mask7_28_826" style="mask-type:luminance" maskUnits="userSpaceOnUse" x="-544" y="480" width="1396" height="801">
<path d="M851.957 480.999H-543.956V1281H851.957V480.999Z" fill="white"/>
</mask>
<g mask="url(#mask7_28_826)">
<g opacity="0.3">
<path d="M521.696 1102.49L266.109 1127.69L393.901 1056.89L521.696 1102.49Z" stroke="white" stroke-miterlimit="10"/>
<path d="M320.105 958.499L266.109 1127.69L393.901 1056.89L320.105 958.499Z" stroke="white" stroke-miterlimit="10"/>
<path d="M339.161 1067.67L208.494 1338.07L412.957 1127.69L339.161 1067.67Z" stroke="white" stroke-miterlimit="10"/>
<path d="M266.109 1127.69L320.105 958.499L212.111 1102.49L266.109 1127.69Z" stroke="white" stroke-miterlimit="10"/>
<path d="M266.109 1127.69L188.227 1239.93L212.111 1102.49L266.109 1127.69Z" stroke="white" stroke-miterlimit="10"/>
<path d="M266.109 1127.69L188.227 1239.93L330.005 1309.8L266.109 1127.69Z" stroke="white" stroke-miterlimit="10"/>
<path d="M-6.06567 1014.43L320.105 958.499L212.111 1102.49L-6.06567 1014.43Z" stroke="white" stroke-miterlimit="10"/>
<path d="M212.111 1102.49L-6.06567 1014.43L189.524 1127.69L212.111 1102.49Z" stroke="white" stroke-miterlimit="10"/>
<path d="M212.111 1102.49L-6.06567 1014.43L86.0935 880.999L212.111 1102.49Z" stroke="white" stroke-miterlimit="10"/>
<path d="M-80.3065 798.599L-6.06569 1014.43L86.0935 880.999L-80.3065 798.599Z" stroke="white" stroke-miterlimit="10"/>
<path d="M86.0935 880.999L110.894 946.599L-6.06567 1014.43" stroke="white" stroke-miterlimit="10"/>
<path d="M-80.3065 798.599L86.0935 880.999L72.4935 731.399L-80.3065 798.599Z" stroke="white" stroke-miterlimit="10"/>
<path d="M-80.3065 798.599L-9.90652 716.999L72.4935 731.399L-80.3065 798.599Z" stroke="white" stroke-miterlimit="10"/>
<path d="M227.167 771.399L86.0935 880.999L72.4935 731.399L227.167 771.399Z" stroke="white" stroke-miterlimit="10"/>
<path d="M227.167 771.399L111.693 684.999L72.4935 731.399L227.167 771.399Z" stroke="white" stroke-miterlimit="10"/>
<path d="M130.185 958.498L86.0935 880.999L72.4935 731.399L130.185 958.498Z" stroke="white" stroke-miterlimit="10"/>
<path d="M212.111 1102.49L149.826 1259.67L35.1599 1165.8L212.111 1102.49Z" stroke="white" stroke-miterlimit="10"/>
<path d="M212.111 1102.49L194.094 1313.57L132.227 1127.69L212.111 1102.49Z" stroke="white" stroke-miterlimit="10"/>
<path d="M393.901 1056.89L521.696 1102.49L320.105 958.499L393.901 1056.89Z" stroke="white" stroke-miterlimit="10"/>
<path d="M31.6935 818.599L349.293 1014.43L339.161 1067.67L31.6935 818.599Z" stroke="white" stroke-miterlimit="10"/>
<path d="M390.79 1150.5L227.168 1134.6L137.293 939.399L390.79 1150.5Z" stroke="white" stroke-miterlimit="10"/>
<path d="M330.005 1309.8L588.493 1150.5L250.893 1223.4L330.005 1306.6L412.957 1313.57" stroke="white" stroke-miterlimit="10"/>
<path d="M412.957 1313.57V1127.69L598.893 1309.8L412.957 1313.57Z" stroke="white" stroke-miterlimit="10"/>
<path d="M487.693 996.199L212.111 1040.2L330.005 1306.6L487.693 996.199Z" stroke="white" stroke-miterlimit="10"/>
<path d="M212.111 1040.2L264.042 925.799L487.693 996.199" stroke="white" stroke-miterlimit="10"/>
<path d="M-109.907 731.399L137.293 939.399L-117.663 775.428L-109.907 731.399Z" stroke="white" stroke-miterlimit="10"/>
<path d="M-3.9065 508.199L-109.906 731.399H72.4935L-3.9065 508.199Z" stroke="white" stroke-miterlimit="10"/>
<path d="M90.0935 569.799L-170.706 684.999L-305.906 573.799L90.0935 569.799Z" stroke="white" stroke-miterlimit="10"/>
</g>
</g>
<mask id="mask8_28_826" style="mask-type:luminance" maskUnits="userSpaceOnUse" x="-544" y="480" width="1396" height="801">
<path d="M851.957 480.999H-543.956V1281H851.957V480.999Z" fill="white"/>
</mask>
<g mask="url(#mask8_28_826)">
<g opacity="0.2">
<path d="M626.096 687.557L370.508 712.756L498.302 641.96L626.096 687.557Z" stroke="white" stroke-miterlimit="10"/>
<path d="M424.506 543.565L370.508 712.756L498.302 641.96L424.506 543.565Z" stroke="white" stroke-miterlimit="10"/>
<path d="M443.561 652.733L312.893 923.133L517.357 712.756L443.561 652.733Z" stroke="white" stroke-miterlimit="10"/>
<path d="M370.508 712.756L424.506 543.565L316.511 687.558L370.508 712.756Z" stroke="white" stroke-miterlimit="10"/>
<path d="M370.508 712.756L292.627 825L316.511 687.558L370.508 712.756Z" stroke="white" stroke-miterlimit="10"/>
<path d="M370.508 712.756L292.627 825L434.405 894.866L370.508 712.756Z" stroke="white" stroke-miterlimit="10"/>
<path d="M98.3344 599.493L424.505 543.565L316.511 687.557L98.3344 599.493Z" stroke="white" stroke-miterlimit="10"/>
<path d="M316.511 687.557L98.3344 599.493L293.924 712.756L316.511 687.557Z" stroke="white" stroke-miterlimit="10"/>
<path d="M316.511 687.558L98.3344 599.493L190.494 466.066L316.511 687.558Z" stroke="white" stroke-miterlimit="10"/>
<path d="M24.0936 383.666L98.3344 599.493L190.494 466.066L24.0936 383.666Z" stroke="white" stroke-miterlimit="10"/>
<path d="M190.494 466.066L215.294 531.666L98.3344 599.493" stroke="white" stroke-miterlimit="10"/>
<path d="M234.586 543.565L190.494 466.066L176.894 316.466L234.586 543.565Z" stroke="white" stroke-miterlimit="10"/>
<path d="M316.511 687.558L254.226 844.733L139.559 750.866L316.511 687.558Z" stroke="white" stroke-miterlimit="10"/>
<path d="M316.511 687.558L298.493 898.64L236.627 712.756L316.511 687.558Z" stroke="white" stroke-miterlimit="10"/>
<path d="M498.302 641.96L626.096 687.557L424.506 543.565L498.302 641.96Z" stroke="white" stroke-miterlimit="10"/>
<path d="M136.094 403.666L453.694 599.493L443.561 652.733L136.094 403.666Z" stroke="white" stroke-miterlimit="10"/>
<path d="M495.189 735.565L331.567 719.666L241.694 524.466L495.189 735.565Z" stroke="white" stroke-miterlimit="10"/>
<path d="M434.405 894.866L692.893 735.565L355.293 808.465L434.405 891.665L517.357 898.64" stroke="white" stroke-miterlimit="10"/>
<path d="M517.357 898.64V712.756L703.294 894.866L517.357 898.64Z" stroke="white" stroke-miterlimit="10"/>
<path d="M592.093 581.266L316.511 625.266L434.405 891.666L592.093 581.266Z" stroke="white" stroke-miterlimit="10"/>
<path d="M316.511 625.265L368.442 510.865L592.093 581.265" stroke="white" stroke-miterlimit="10"/>
</g>
</g>
<mask id="mask9_28_826" style="mask-type:luminance" maskUnits="userSpaceOnUse" x="-544" y="480" width="1396" height="801">
<path d="M851.957 480.999H-543.956V1281H851.957V480.999Z" fill="white"/>
</mask>
<g mask="url(#mask9_28_826)">
<g opacity="0.2">
<path d="M65.8175 1116.53L-189.77 1141.73L-61.976 1070.94L65.8175 1116.53Z" stroke="white" stroke-miterlimit="10"/>
<path d="M-61.976 1070.94L65.8175 1116.53L-135.772 972.541L-61.976 1070.94Z" stroke="white" stroke-miterlimit="10"/>
<path d="M-125.873 1323.84L132.615 1164.54L-204.984 1237.44L-125.873 1320.64L-42.9201 1327.62" stroke="white" stroke-miterlimit="10"/>
<path d="M-42.9201 1327.62V1141.73L143.015 1323.84L-42.9201 1327.62Z" stroke="white" stroke-miterlimit="10"/>
<path d="M31.8151 1010.24L-243.766 1054.24L-125.873 1320.64L31.8151 1010.24Z" stroke="white" stroke-miterlimit="10"/>
<path d="M-243.766 1054.24L-191.836 939.842L31.8151 1010.24" stroke="white" stroke-miterlimit="10"/>
</g>
</g>
<mask id="mask10_28_826" style="mask-type:luminance" maskUnits="userSpaceOnUse" x="-544" y="480" width="1396" height="801">
<path d="M851.957 480.999H-543.956V1281H851.957V480.999Z" fill="white"/>
</mask>
<g mask="url(#mask10_28_826)">
<path d="M30.4528 1165.8C30.4528 1163.2 32.5608 1161.09 35.16 1161.09C37.7592 1161.09 39.8664 1163.2 39.8664 1165.8C39.8664 1168.4 37.7592 1170.51 35.16 1170.51C32.5608 1170.51 30.4528 1168.4 30.4528 1165.8Z" fill="white"/>
<path d="M259.676 1127.69C259.676 1124.14 262.556 1121.26 266.108 1121.26C269.661 1121.26 272.541 1124.14 272.541 1127.69C272.541 1131.24 269.661 1134.12 266.108 1134.12C262.555 1134.12 259.676 1131.24 259.676 1127.69Z" fill="white"/>
<path d="M189.893 1132.06C192.636 1132.06 194.859 1129.83 194.859 1127.09C194.859 1124.35 192.636 1122.12 189.893 1122.12C187.151 1122.12 184.928 1124.35 184.928 1127.09C184.928 1129.83 187.151 1132.06 189.893 1132.06Z" fill="white"/>
<path d="M207.146 1102.49C207.146 1099.75 209.369 1097.53 212.111 1097.53C214.854 1097.53 217.077 1099.75 217.077 1102.49C217.077 1105.23 214.854 1107.46 212.111 1107.46C209.369 1107.46 207.146 1105.23 207.146 1102.49Z" fill="white"/>
<path d="M227.168 1142.47C231.512 1142.47 235.034 1138.94 235.034 1134.6C235.034 1130.26 231.512 1126.73 227.168 1126.73C222.824 1126.73 219.302 1130.26 219.302 1134.6C219.302 1138.94 222.824 1142.47 227.168 1142.47Z" fill="white"/>
<path d="M144.586 1259.67C144.586 1257.07 146.694 1254.96 149.294 1254.96C151.893 1254.96 154 1257.07 154 1259.67C154 1262.26 151.893 1264.37 149.294 1264.37C146.694 1264.37 144.586 1262.26 144.586 1259.67Z" fill="white"/>
<path d="M594.015 1155.46C596.423 1153.05 596.423 1149.15 594.015 1146.74C591.608 1144.33 587.704 1144.33 585.296 1146.74C582.888 1149.15 582.888 1153.05 585.296 1155.46C587.704 1157.87 591.608 1157.87 594.015 1155.46Z" fill="white"/>
<path d="M206.946 1040.2C206.946 1037.35 209.259 1035.03 212.111 1035.03C214.964 1035.03 217.277 1037.35 217.277 1040.2C217.277 1043.05 214.964 1045.36 212.111 1045.36C209.258 1045.36 206.946 1043.05 206.946 1040.2Z" fill="white"/>
<path d="M518.928 1102.49C518.928 1099.64 521.242 1097.33 524.094 1097.33C526.946 1097.33 529.259 1099.64 529.259 1102.49C529.259 1105.34 526.946 1107.66 524.094 1107.66C521.242 1107.66 518.928 1105.34 518.928 1102.49Z" fill="white"/>
<path d="M387.336 1057.59C387.336 1054.35 389.962 1051.73 393.202 1051.73C396.441 1051.73 399.067 1054.35 399.067 1057.59C399.067 1060.83 396.441 1063.46 393.202 1063.46C389.962 1063.46 387.336 1060.83 387.336 1057.59Z" fill="white"/>
<path d="M339.601 1073.53C342.841 1073.53 345.467 1070.91 345.467 1067.67C345.467 1064.43 342.841 1061.8 339.601 1061.8C336.362 1061.8 333.736 1064.43 333.736 1067.67C333.736 1070.91 336.362 1073.53 339.601 1073.53Z" fill="white"/>
<path d="M264.042 931.665C267.281 931.665 269.907 929.039 269.907 925.799C269.907 922.56 267.281 919.934 264.042 919.934C260.802 919.934 258.176 922.56 258.176 925.799C258.176 929.039 260.802 931.665 264.042 931.665Z" fill="white"/>
<path d="M351.494 956.865C354.733 956.865 357.359 954.239 357.359 950.999C357.359 947.76 354.733 945.134 351.494 945.134C348.254 945.134 345.628 947.76 345.628 950.999C345.628 954.239 348.254 956.865 351.494 956.865Z" fill="white"/>
<path d="M350.394 1025.46C354.241 1025.46 357.359 1022.35 357.359 1018.5C357.359 1014.65 354.241 1011.53 350.394 1011.53C346.547 1011.53 343.428 1014.65 343.428 1018.5C343.428 1022.35 346.547 1025.46 350.394 1025.46Z" fill="white"/>
<path d="M410.957 1134.86C414.914 1134.86 418.122 1131.65 418.122 1127.69C418.122 1123.73 414.914 1120.52 410.957 1120.52C406.999 1120.52 403.791 1123.73 403.791 1127.69C403.791 1131.65 406.999 1134.86 410.957 1134.86Z" fill="white"/>
<path d="M-13.4313 1014.43C-13.4313 1010.36 -10.1336 1007.06 -6.06565 1007.06C-1.99845 1007.06 1.29993 1010.36 1.29993 1014.43C1.29993 1018.49 -1.99845 1021.79 -6.06565 1021.79C-10.1336 1021.79 -13.4313 1018.49 -13.4313 1014.43Z" fill="white"/>
<path d="M133.042 939.399C133.042 935.332 136.339 932.035 140.407 932.035C144.475 932.035 147.773 935.332 147.773 939.399C147.773 943.467 144.475 946.765 140.407 946.765C136.339 946.765 133.042 943.467 133.042 939.399Z" fill="white"/>
<path d="M19.9279 816.399C19.9279 811.117 24.2111 806.834 29.4935 806.834C34.7751 806.834 39.0591 811.118 39.0591 816.399C39.0591 821.681 34.7759 825.965 29.4935 825.965C24.2111 825.965 19.9279 821.682 19.9279 816.399Z" fill="white"/>
<path d="M67.4279 731.399C67.4279 728.602 69.6959 726.334 72.4935 726.334C75.2903 726.334 77.5583 728.602 77.5583 731.399C77.5583 734.197 75.2903 736.465 72.4935 736.465C69.6959 736.465 67.4279 734.197 67.4279 731.399Z" fill="white"/>
<path d="M108.029 684.999C108.029 682.976 109.67 681.335 111.694 681.335C113.717 681.335 115.358 682.976 115.358 684.999C115.358 687.023 113.717 688.664 111.694 688.664C109.67 688.664 108.029 687.023 108.029 684.999Z" fill="white"/>
<path d="M-9.37122 508.199C-9.37122 505.182 -6.92322 502.735 -3.90642 502.735C-0.88962 502.735 1.55759 505.182 1.55759 508.199C1.55759 511.216 -0.88962 513.664 -3.90642 513.664C-6.92322 513.664 -9.37122 511.216 -9.37122 508.199Z" fill="white"/>
<path d="M84.6288 569.799C84.6288 566.782 87.0768 564.335 90.0936 564.335C93.1104 564.335 95.5576 566.782 95.5576 569.799C95.5576 572.816 93.1104 575.264 90.0936 575.264C87.0768 575.264 84.6288 572.816 84.6288 569.799Z" fill="white"/>
<path d="M218.594 769.646C218.594 765.88 221.647 762.827 225.414 762.827C229.179 762.827 232.232 765.88 232.232 769.646C232.232 773.411 229.179 776.465 225.414 776.465C221.648 776.465 218.594 773.411 218.594 769.646Z" fill="white"/>
<path d="M106.995 946.599C106.995 944.447 108.741 942.702 110.894 942.702C113.046 942.702 114.792 944.447 114.792 946.599C114.792 948.752 113.046 950.498 110.894 950.498C108.741 950.498 106.995 948.752 106.995 946.599Z" fill="white"/>
<path d="M62.5952 972.6C62.5952 970.447 64.3407 968.701 66.4935 968.701C68.6463 968.701 70.3919 970.447 70.3919 972.6C70.3919 974.752 68.6463 976.498 66.4935 976.498C64.3407 976.498 62.5952 974.752 62.5952 972.6Z" fill="white"/>
</g>
<mask id="mask11_28_826" style="mask-type:luminance" maskUnits="userSpaceOnUse" x="-544" y="480" width="1396" height="801">
<path d="M851.957 480.999H-543.956V1281H851.957V480.999Z" fill="white"/>
</mask>
<g mask="url(#mask11_28_826)">
<g opacity="0.3">
<path d="M98.356 710.252C97.932 712.817 95.5088 714.551 92.944 714.127C90.3792 713.703 88.6448 711.28 89.068 708.716C89.4928 706.151 91.9168 704.416 94.4808 704.84C97.0456 705.265 98.7808 707.688 98.356 710.252Z" fill="white"/>
<path d="M1.07357 599.015C0.650367 601.579 -1.77362 603.315 -4.33762 602.891C-6.90242 602.467 -8.63764 600.043 -8.21364 597.479C-7.78964 594.915 -5.36563 593.179 -2.80163 593.603C-0.237629 594.028 1.49837 596.451 1.07357 599.015Z" fill="white"/>
<path d="M116.946 866.759C116.283 870.772 112.491 873.486 108.478 872.822C104.464 872.159 101.749 868.367 102.413 864.354C103.077 860.34 106.869 857.626 110.882 858.289C114.894 858.953 117.61 862.746 116.946 866.759Z" fill="white"/>
<path d="M51.7128 1056.68C50.8512 1061.9 45.9273 1065.42 40.7145 1064.56C35.5033 1063.7 31.9768 1058.77 32.8384 1053.56C33.7 1048.35 38.6248 1044.82 43.8376 1045.69C49.048 1046.55 52.5752 1051.47 51.7128 1056.68Z" fill="white"/>
<path d="M68.4416 1160.81C68.0576 1163.14 65.8608 1164.71 63.5376 1164.32C61.2152 1163.94 59.6424 1161.74 60.0264 1159.42C60.4104 1157.1 62.6064 1155.52 64.9296 1155.91C67.2528 1156.29 68.8256 1158.49 68.4416 1160.81Z" fill="white"/>
<path d="M153.089 1091.5C152.597 1094.48 149.782 1096.49 146.806 1096C143.828 1095.5 141.814 1092.69 142.306 1089.71C142.799 1086.74 145.612 1084.72 148.59 1085.21C151.567 1085.71 153.582 1088.52 153.089 1091.5Z" fill="white"/>
<path d="M171.324 1162.63C170.832 1165.61 168.018 1167.62 165.041 1167.13C162.063 1166.64 160.049 1163.82 160.542 1160.84C161.034 1157.87 163.847 1155.85 166.825 1156.34C169.802 1156.84 171.817 1159.65 171.324 1162.63Z" fill="white"/>
<path d="M90.836 1122.28C90.2688 1125.71 87.0296 1128.03 83.6016 1127.46C80.1744 1126.9 77.8544 1123.66 78.4216 1120.23C78.9888 1116.8 82.228 1114.48 85.6552 1115.05C89.0832 1115.62 91.4032 1118.86 90.836 1122.28Z" fill="white"/>
<path d="M35.1128 895.616C34.7616 897.74 32.7536 899.177 30.6304 898.826C28.5064 898.475 27.0696 896.468 27.42 894.343C27.772 892.219 29.7784 890.782 31.9032 891.133C34.0264 891.484 35.464 893.491 35.1128 895.616Z" fill="white"/>
<path d="M224.23 1218.41C223.718 1221.51 220.667 1223.58 217.417 1223.04C214.168 1222.5 211.947 1219.56 212.46 1216.47C212.972 1213.37 216.022 1211.3 219.271 1211.83C222.521 1212.37 224.742 1215.32 224.23 1218.41Z" fill="white"/>
</g>
</g>
<mask id="mask12_28_826" style="mask-type:luminance" maskUnits="userSpaceOnUse" x="-544" y="480" width="1396" height="801">
<path d="M851.957 480.999H-543.956V1281H851.957V480.999Z" fill="white"/>
</mask>
<g mask="url(#mask12_28_826)">
<path d="M188.227 1248.11C192.745 1248.11 196.407 1244.45 196.407 1239.93C196.407 1235.42 192.745 1231.75 188.227 1231.75C183.71 1231.75 180.047 1235.42 180.047 1239.93C180.047 1244.45 183.71 1248.11 188.227 1248.11Z" stroke="white" stroke-width="2.4864" stroke-miterlimit="10"/>
<path d="M188.227 1234.74C191.093 1234.74 193.423 1237.07 193.423 1239.93C193.423 1242.8 191.093 1245.13 188.227 1245.13C185.362 1245.13 183.031 1242.8 183.031 1239.93C183.031 1237.07 185.362 1234.74 188.227 1234.74Z" fill="white"/>
<path d="M132.227 1135.87C136.745 1135.87 140.407 1132.21 140.407 1127.69C140.407 1123.17 136.745 1119.51 132.227 1119.51C127.71 1119.51 124.047 1123.17 124.047 1127.69C124.047 1132.21 127.71 1135.87 132.227 1135.87Z" stroke="white" stroke-width="2.4864" stroke-miterlimit="10"/>
<path d="M132.227 1122.49C135.093 1122.49 137.423 1124.82 137.423 1127.69C137.423 1130.56 135.093 1132.89 132.227 1132.89C129.362 1132.89 127.031 1130.56 127.031 1127.69C127.031 1124.82 129.362 1122.49 132.227 1122.49Z" fill="white"/>
<path d="M135.636 1274.5C135.636 1271.31 138.222 1268.72 141.411 1268.72C144.601 1268.72 147.187 1271.31 147.187 1274.5C147.187 1277.69 144.602 1280.27 141.411 1280.27C138.222 1280.27 135.636 1277.69 135.636 1274.5Z" stroke="white" stroke-width="1.7556" stroke-miterlimit="10"/>
<path d="M141.411 1270.83C143.434 1270.83 145.081 1272.47 145.081 1274.5C145.081 1276.52 143.434 1278.17 141.411 1278.17C139.389 1278.17 137.742 1276.52 137.742 1274.5C137.742 1272.47 139.388 1270.83 141.411 1270.83Z" fill="white"/>
<path d="M487.694 1003.76C492.211 1003.76 495.874 1000.1 495.874 995.579C495.874 991.062 492.211 987.399 487.694 987.399C483.176 987.399 479.514 991.062 479.514 995.579C479.514 1000.1 483.176 1003.76 487.694 1003.76Z" stroke="white" stroke-width="2.4864" stroke-miterlimit="10"/>
<path d="M487.694 990.384C490.558 990.384 492.889 992.715 492.889 995.579C492.889 998.445 490.558 1000.78 487.694 1000.78C484.828 1000.78 482.497 998.445 482.497 995.579C482.497 992.715 484.828 990.384 487.694 990.384Z" fill="white"/>
<path d="M245.122 954.067C245.122 950.462 248.043 947.539 251.648 947.539C255.253 947.539 258.175 950.462 258.175 954.067C258.175 957.671 255.253 960.593 251.648 960.593C248.044 960.593 245.122 957.671 245.122 954.067Z" stroke="white" stroke-width="1.984" stroke-miterlimit="10"/>
<path d="M251.648 949.919C253.934 949.919 255.795 951.779 255.795 954.067C255.795 956.352 253.935 958.212 251.648 958.212C249.362 958.212 247.502 956.353 247.502 954.067C247.502 951.78 249.362 949.919 251.648 949.919Z" fill="white"/>
</g>
<mask id="mask13_28_826" style="mask-type:luminance" maskUnits="userSpaceOnUse" x="-544" y="480" width="1396" height="801">
<path d="M851.957 480.999H-543.956V1281H851.957V480.999Z" fill="white"/>
</mask>
<g mask="url(#mask13_28_826)">
<g opacity="0.1">
<path d="M342.182 550.804C342.191 555.476 338.411 559.271 333.739 559.28C329.068 559.29 325.273 555.511 325.263 550.839C325.253 546.167 329.033 542.372 333.705 542.362C338.377 542.352 342.172 546.133 342.182 550.804Z" fill="white"/>
<path d="M64.6879 620.938C64.6991 625.866 60.7103 629.87 55.7815 629.881C50.8535 629.89 46.8495 625.902 46.8383 620.974C46.8287 616.046 50.8175 612.041 55.7455 612.031C60.6751 612.021 64.6791 616.009 64.6879 620.938Z" fill="white"/>
<path d="M24.8471 665.23C24.8575 670.158 20.8695 674.162 15.9407 674.172C11.0127 674.183 7.00791 670.194 6.99751 665.266C6.98791 660.337 10.9759 656.333 15.9047 656.323C20.8327 656.313 24.8375 660.302 24.8471 665.23Z" fill="white"/>
<path d="M2.88144 607.567C2.89664 615.374 -3.42095 621.715 -11.2274 621.732C-19.0346 621.748 -25.3778 615.432 -25.393 607.625C-25.409 599.818 -19.0913 593.474 -11.2841 593.459C-3.47694 593.443 2.86544 599.761 2.88144 607.567Z" fill="white"/>
<path d="M25.4335 777.186C25.4439 782.311 21.2943 786.476 16.1687 786.487C11.0415 786.498 6.8759 782.35 6.8655 777.222C6.8551 772.095 11.0031 767.93 16.1311 767.919C21.2575 767.91 25.4231 772.058 25.4335 777.186Z" fill="white"/>
<path d="M421.606 822.704C421.622 830.014 415.706 835.953 408.394 835.967C401.084 835.982 395.144 830.067 395.13 822.757C395.115 815.446 401.03 809.506 408.342 809.492C415.651 809.478 421.591 815.393 421.606 822.704Z" fill="white"/>
<path d="M362.372 1178.74C362.39 1188.23 354.708 1195.94 345.214 1195.96C335.721 1195.98 328.006 1188.3 327.988 1178.8C327.969 1169.31 335.651 1161.6 345.145 1161.58C354.638 1161.56 362.352 1169.24 362.372 1178.74Z" fill="white"/>
<path d="M552.406 1210.34C552.418 1215.77 548.028 1220.17 542.605 1220.18C537.182 1220.19 532.775 1215.81 532.764 1210.38C532.752 1204.96 537.142 1200.55 542.565 1200.54C547.988 1200.53 552.394 1204.92 552.406 1210.34Z" fill="white"/>
<path d="M622.607 1253.33C622.62 1259.58 617.565 1264.65 611.322 1264.66C605.077 1264.67 600.005 1259.62 599.993 1253.38C599.979 1247.13 605.032 1242.06 611.276 1242.04C617.519 1242.03 622.594 1247.09 622.607 1253.33Z" fill="white"/>
<path d="M5.48229 1263.49C5.49589 1270.26 0.0198574 1275.75 -6.74974 1275.77C-13.5169 1275.78 -19.0162 1270.31 -19.0306 1263.54C-19.0442 1256.77 -13.5674 1251.27 -6.79935 1251.26C-0.0305519 1251.24 5.46949 1256.72 5.48229 1263.49Z" fill="white"/>
<path d="M205.413 945.046C205.421 948.915 202.29 952.059 198.421 952.066C194.551 952.074 191.407 948.943 191.401 945.074C191.392 941.204 194.523 938.06 198.393 938.053C202.261 938.046 205.405 941.177 205.413 945.046Z" fill="white"/>
<path d="M285.117 898.155C285.125 902.024 281.994 905.167 278.126 905.175C274.255 905.183 271.111 902.053 271.103 898.183C271.096 894.314 274.227 891.17 278.097 891.163C281.966 891.154 285.11 894.285 285.117 898.155Z" fill="white"/>
</g>
</g>
</g>
<mask id="mask14_28_826" style="mask-type:luminance" maskUnits="userSpaceOnUse" x="622" y="315" width="1396" height="800">
<path d="M2017.96 315H622.044V1115H2017.96V315Z" fill="white"/>
</mask>
<g mask="url(#mask14_28_826)">
<g opacity="0.3">
<path d="M1687.7 936.492L1432.11 961.69L1559.9 890.894L1687.7 936.492Z" stroke="#FAE12C" stroke-miterlimit="10"/>
<path d="M1486.11 792.499L1432.11 961.69L1559.9 890.894L1486.11 792.499Z" stroke="#FAE12C" stroke-miterlimit="10"/>
<path d="M1505.16 901.667L1374.49 1172.07L1578.96 961.69L1505.16 901.667Z" stroke="#FAE12C" stroke-miterlimit="10"/>
<path d="M1432.11 961.69L1486.11 792.499L1378.11 936.492L1432.11 961.69Z" stroke="#FAE12C" stroke-miterlimit="10"/>
<path d="M1432.11 961.69L1354.23 1073.93L1378.11 936.492L1432.11 961.69Z" stroke="#FAE12C" stroke-miterlimit="10"/>
<path d="M1432.11 961.69L1354.23 1073.93L1496.01 1143.8L1432.11 961.69Z" stroke="#FAE12C" stroke-miterlimit="10"/>
<path d="M1159.93 848.427L1486.11 792.499L1378.11 936.492L1159.93 848.427Z" stroke="#FAE12C" stroke-miterlimit="10"/>
<path d="M1378.11 936.492L1159.93 848.427L1355.52 961.69L1378.11 936.492Z" stroke="#FAE12C" stroke-miterlimit="10"/>
<path d="M1378.11 936.492L1159.93 848.427L1252.09 715L1378.11 936.492Z" stroke="#FAE12C" stroke-miterlimit="10"/>
<path d="M1085.69 632.6L1159.93 848.427L1252.09 715L1085.69 632.6Z" stroke="#FAE12C" stroke-miterlimit="10"/>
<path d="M1252.09 715L1276.89 780.6L1159.93 848.427" stroke="#FAE12C" stroke-miterlimit="10"/>
<path d="M1085.69 632.6L1252.09 715L1238.49 565.4L1085.69 632.6Z" stroke="#FAE12C" stroke-miterlimit="10"/>
<path d="M1085.69 632.6L1156.09 551L1238.49 565.4L1085.69 632.6Z" stroke="#FAE12C" stroke-miterlimit="10"/>
<path d="M1393.17 605.4L1252.09 715L1238.49 565.4L1393.17 605.4Z" stroke="#FAE12C" stroke-miterlimit="10"/>
<path d="M1393.17 605.4L1277.69 519L1238.49 565.4L1393.17 605.4Z" stroke="#FAE12C" stroke-miterlimit="10"/>
<path d="M1296.19 792.499L1252.09 715L1238.49 565.4L1296.19 792.499Z" stroke="#FAE12C" stroke-miterlimit="10"/>
<path d="M1378.11 936.492L1315.83 1093.67L1201.16 999.8L1378.11 936.492Z" stroke="#FAE12C" stroke-miterlimit="10"/>
<path d="M1378.11 936.492L1360.09 1147.57L1298.23 961.69L1378.11 936.492Z" stroke="#FAE12C" stroke-miterlimit="10"/>
<path d="M1197.69 652.6L1515.29 848.427L1505.16 901.667L1197.69 652.6Z" stroke="#FAE12C" stroke-miterlimit="10"/>
<path d="M1556.79 984.5L1393.17 968.6L1303.29 773.4L1556.79 984.5Z" stroke="#FAE12C" stroke-miterlimit="10"/>
<path d="M1496.01 1143.8L1754.49 984.5L1416.89 1057.4L1496.01 1140.6L1578.96 1147.58" stroke="#FAE12C" stroke-miterlimit="10"/>
<path d="M1653.69 830.2L1378.11 874.2L1496.01 1140.6L1653.69 830.2Z" stroke="#FAE12C" stroke-miterlimit="10"/>
<path d="M1378.11 874.2L1430.04 759.8L1653.69 830.2" stroke="#FAE12C" stroke-miterlimit="10"/>
<path d="M1107.29 715L1156.09 551L970.494 674.2L1107.29 715Z" stroke="#FAE12C" stroke-miterlimit="10"/>
<path d="M970.494 674.2L952.094 623.8L1128.89 597.4L970.494 674.2Z" stroke="#FAE12C" stroke-miterlimit="10"/>
<path d="M1056.09 565.4L1303.29 773.4L1048.34 609.429L1056.09 565.4Z" stroke="#FAE12C" stroke-miterlimit="10"/>
<path d="M1162.09 342.2L1056.09 565.4H1238.49L1162.09 342.2Z" stroke="#FAE12C" stroke-miterlimit="10"/>
<path d="M1000.89 324.6L995.294 519L1162.09 342.2L1000.89 324.6Z" stroke="#FAE12C" stroke-miterlimit="10"/>
<path d="M1000.89 324.6L1152.43 278.2L1162.09 342.2L1000.89 324.6Z" stroke="#FAE12C" stroke-miterlimit="10"/>
<path d="M1256.09 403.8L995.294 519L860.094 407.8L1256.09 403.8Z" stroke="#FAE12C" stroke-miterlimit="10"/>
<path d="M1128.89 597.4L872.894 382.2L1078.69 399.8L1128.89 597.4Z" stroke="#FAE12C" stroke-miterlimit="10"/>
<path d="M860.094 407.8L952.094 623.8L1128.89 597.4L860.094 407.8Z" stroke="#FAE12C" stroke-miterlimit="10"/>
</g>
</g>
<mask id="mask15_28_826" style="mask-type:luminance" maskUnits="userSpaceOnUse" x="622" y="315" width="1396" height="800">
<path d="M2017.96 315H622.044V1115H2017.96V315Z" fill="white"/>
</mask>
<g mask="url(#mask15_28_826)">
<g opacity="0.2">
<path d="M1264.33 433.493L1590.51 377.565L1482.51 521.558L1264.33 433.493Z" stroke="#FAE12C" stroke-miterlimit="10"/>
<path d="M1482.51 521.558L1264.33 433.493L1459.92 546.757L1482.51 521.558Z" stroke="#FAE12C" stroke-miterlimit="10"/>
<path d="M1482.51 521.558L1264.33 433.494L1356.49 300.066L1482.51 521.558Z" stroke="#FAE12C" stroke-miterlimit="10"/>
<path d="M1190.09 217.666L1264.33 433.493L1356.49 300.066L1190.09 217.666Z" stroke="#FAE12C" stroke-miterlimit="10"/>
<path d="M1356.49 300.066L1381.29 365.666L1264.33 433.494" stroke="#FAE12C" stroke-miterlimit="10"/>
<path d="M1400.59 377.566L1356.49 300.066L1342.89 150.466L1400.59 377.566Z" stroke="#FAE12C" stroke-miterlimit="10"/>
<path d="M1482.51 521.558L1420.23 678.734L1305.56 584.866L1482.51 521.558Z" stroke="#FAE12C" stroke-miterlimit="10"/>
<path d="M1482.51 521.558L1464.49 732.641L1402.63 546.757L1482.51 521.558Z" stroke="#FAE12C" stroke-miterlimit="10"/>
<path d="M1302.09 237.666L1619.69 433.493L1609.56 486.733L1302.09 237.666Z" stroke="#FAE12C" stroke-miterlimit="10"/>
<path d="M1661.19 569.566L1497.57 553.666L1407.69 358.466L1661.19 569.566Z" stroke="#FAE12C" stroke-miterlimit="10"/>
</g>
</g>
<mask id="mask16_28_826" style="mask-type:luminance" maskUnits="userSpaceOnUse" x="622" y="315" width="1396" height="800">
<path d="M2017.96 315H622.044V1115H2017.96V315Z" fill="white"/>
</mask>
<g mask="url(#mask16_28_826)">
<g opacity="0.2">
<path d="M1231.82 950.535L976.23 975.733L1104.02 904.937L1231.82 950.535Z" stroke="#FAE12C" stroke-miterlimit="10"/>
<path d="M1030.23 806.542L976.23 975.733L1104.02 904.937L1030.23 806.542Z" stroke="#FAE12C" stroke-miterlimit="10"/>
<path d="M1049.28 915.709L918.616 1186.11L1123.08 975.733L1049.28 915.709Z" stroke="#FAE12C" stroke-miterlimit="10"/>
<path d="M976.23 975.733L1030.23 806.542L922.234 950.535L976.23 975.733Z" stroke="#FAE12C" stroke-miterlimit="10"/>
<path d="M976.23 975.733L898.35 1087.98L922.234 950.535L976.23 975.733Z" stroke="#FAE12C" stroke-miterlimit="10"/>
<path d="M976.23 975.733L898.35 1087.98L1040.13 1157.84L976.23 975.733Z" stroke="#FAE12C" stroke-miterlimit="10"/>
<path d="M704.056 862.47L1030.23 806.542L922.234 950.535L704.056 862.47Z" stroke="#FAE12C" stroke-miterlimit="10"/>
<path d="M922.234 950.535L704.056 862.47L899.647 975.733L922.234 950.535Z" stroke="#FAE12C" stroke-miterlimit="10"/>
<path d="M922.234 950.535L704.056 862.47L796.216 729.042L922.234 950.535Z" stroke="#FAE12C" stroke-miterlimit="10"/>
<path d="M629.815 646.642L704.056 862.47L796.216 729.042L629.815 646.642Z" stroke="#FAE12C" stroke-miterlimit="10"/>
<path d="M796.216 729.042L821.016 794.642L704.056 862.47" stroke="#FAE12C" stroke-miterlimit="10"/>
<path d="M629.815 646.642L796.216 729.042L782.616 579.442L629.815 646.642Z" stroke="#FAE12C" stroke-miterlimit="10"/>
<path d="M629.815 646.642L700.216 565.042L782.616 579.442L629.815 646.642Z" stroke="#FAE12C" stroke-miterlimit="10"/>
<path d="M937.29 619.442L796.216 729.042L782.616 579.442L937.29 619.442Z" stroke="#FAE12C" stroke-miterlimit="10"/>
<path d="M937.29 619.442L821.816 533.042L782.616 579.442L937.29 619.442Z" stroke="#FAE12C" stroke-miterlimit="10"/>
<path d="M840.309 806.542L796.216 729.042L782.616 579.442L840.309 806.542Z" stroke="#FAE12C" stroke-miterlimit="10"/>
<path d="M922.234 950.535L859.949 1107.71L745.282 1013.84L922.234 950.535Z" stroke="#FAE12C" stroke-miterlimit="10"/>
<path d="M922.234 950.535L904.216 1161.62L842.35 975.733L922.234 950.535Z" stroke="#FAE12C" stroke-miterlimit="10"/>
<path d="M1104.02 904.937L1231.82 950.535L1030.23 806.542L1104.02 904.937Z" stroke="#FAE12C" stroke-miterlimit="10"/>
<path d="M741.816 666.642L1059.42 862.47L1049.28 915.71L741.816 666.642Z" stroke="#FAE12C" stroke-miterlimit="10"/>
<path d="M1100.91 998.542L937.29 982.642L847.416 787.442L1100.91 998.542Z" stroke="#FAE12C" stroke-miterlimit="10"/>
<path d="M1040.13 1157.84L1298.62 998.542L961.016 1071.44L1040.13 1154.64L1123.08 1161.62" stroke="#FAE12C" stroke-miterlimit="10"/>
<path d="M1123.08 1161.62V975.733L1309.02 1157.84L1123.08 1161.62Z" stroke="#FAE12C" stroke-miterlimit="10"/>
<path d="M1197.82 844.242L922.234 888.242L1040.13 1154.64L1197.82 844.242Z" stroke="#FAE12C" stroke-miterlimit="10"/>
<path d="M922.234 888.242L974.164 773.842L1197.82 844.242" stroke="#FAE12C" stroke-miterlimit="10"/>
<path d="M651.416 729.042L700.216 565.042L514.616 688.242L651.416 729.042Z" stroke="#FAE12C" stroke-miterlimit="10"/>
<path d="M514.616 688.242L496.216 637.842L673.016 611.442L514.616 688.242Z" stroke="#FAE12C" stroke-miterlimit="10"/>
<path d="M600.216 579.442L847.416 787.442L592.459 623.471L600.216 579.442Z" stroke="#FAE12C" stroke-miterlimit="10"/>
<path d="M706.216 356.242L600.216 579.442H782.616L706.216 356.242Z" stroke="#FAE12C" stroke-miterlimit="10"/>
<path d="M545.016 338.642L539.416 533.042L706.216 356.242L545.016 338.642Z" stroke="#FAE12C" stroke-miterlimit="10"/>
<path d="M545.016 338.642L696.551 292.242L706.216 356.242L545.016 338.642Z" stroke="#FAE12C" stroke-miterlimit="10"/>
<path d="M800.216 417.843L539.416 533.043L404.216 421.843L800.216 417.843Z" stroke="#FAE12C" stroke-miterlimit="10"/>
<path d="M673.016 611.442L417.016 396.242L622.816 413.842L673.016 611.442Z" stroke="#FAE12C" stroke-miterlimit="10"/>
<path d="M404.216 421.843L496.216 637.843L673.016 611.443L404.216 421.843Z" stroke="#FAE12C" stroke-miterlimit="10"/>
</g>
</g>
<mask id="mask17_28_826" style="mask-type:luminance" maskUnits="userSpaceOnUse" x="622" y="315" width="1396" height="800">
<path d="M2017.96 315H622.044V1115H2017.96V315Z" fill="white"/>
</mask>
<g mask="url(#mask17_28_826)">
<path d="M1196.45 999.8C1196.45 997.2 1198.56 995.094 1201.16 995.094C1203.76 995.094 1205.87 997.2 1205.87 999.8C1205.87 1002.4 1203.76 1004.51 1201.16 1004.51C1198.56 1004.51 1196.45 1002.4 1196.45 999.8Z" fill="#FAE12C"/>
<path d="M1425.68 961.691C1425.68 958.138 1428.56 955.258 1432.11 955.258C1435.66 955.258 1438.54 958.138 1438.54 961.691C1438.54 965.242 1435.66 968.123 1432.11 968.123C1428.56 968.123 1425.68 965.243 1425.68 961.691Z" fill="#FAE12C"/>
<path d="M1355.89 966.056C1358.64 966.056 1360.86 963.833 1360.86 961.091C1360.86 958.348 1358.64 956.125 1355.89 956.125C1353.15 956.125 1350.93 958.348 1350.93 961.091C1350.93 963.833 1353.15 966.056 1355.89 966.056Z" fill="#FAE12C"/>
<path d="M1373.15 936.492C1373.15 933.75 1375.37 931.526 1378.11 931.526C1380.85 931.526 1383.08 933.75 1383.08 936.492C1383.08 939.234 1380.85 941.458 1378.11 941.458C1375.37 941.458 1373.15 939.234 1373.15 936.492Z" fill="#FAE12C"/>
<path d="M1393.17 976.466C1397.51 976.466 1401.03 972.944 1401.03 968.6C1401.03 964.256 1397.51 960.734 1393.17 960.734C1388.82 960.734 1385.3 964.256 1385.3 968.6C1385.3 972.944 1388.82 976.466 1393.17 976.466Z" fill="#FAE12C"/>
<path d="M1310.59 1093.67C1310.59 1091.07 1312.69 1088.96 1315.29 1088.96C1317.89 1088.96 1320 1091.07 1320 1093.67C1320 1096.27 1317.89 1098.37 1315.29 1098.37C1312.69 1098.37 1310.59 1096.27 1310.59 1093.67Z" fill="#FAE12C"/>
<path d="M1372.95 874.2C1372.95 871.347 1375.26 869.035 1378.11 869.035C1380.96 869.035 1383.28 871.347 1383.28 874.2C1383.28 877.053 1380.96 879.366 1378.11 879.366C1375.26 879.366 1372.95 877.053 1372.95 874.2Z" fill="#FAE12C"/>
<path d="M1430.04 765.666C1433.28 765.666 1435.91 763.04 1435.91 759.8C1435.91 756.561 1433.28 753.935 1430.04 753.935C1426.8 753.935 1424.18 756.561 1424.18 759.8C1424.18 763.04 1426.8 765.666 1430.04 765.666Z" fill="#FAE12C"/>
<path d="M1152.57 848.427C1152.57 844.359 1155.87 841.062 1159.93 841.062C1164 841.062 1167.3 844.359 1167.3 848.427C1167.3 852.495 1164 855.792 1159.93 855.792C1155.87 855.792 1152.57 852.495 1152.57 848.427Z" fill="#FAE12C"/>
<path d="M1299.04 773.4C1299.04 769.333 1302.34 766.035 1306.41 766.035C1310.48 766.035 1313.77 769.333 1313.77 773.4C1313.77 777.467 1310.48 780.766 1306.41 780.766C1302.34 780.766 1299.04 777.467 1299.04 773.4Z" fill="#FAE12C"/>
<path d="M1185.93 650.4C1185.93 645.118 1190.21 640.835 1195.49 640.835C1200.78 640.835 1205.06 645.118 1205.06 650.4C1205.06 655.682 1200.78 659.966 1195.49 659.966C1190.21 659.966 1185.93 655.682 1185.93 650.4Z" fill="#FAE12C"/>
<path d="M1233.43 565.4C1233.43 562.603 1235.7 560.335 1238.49 560.335C1241.29 560.335 1243.56 562.603 1243.56 565.4C1243.56 568.198 1241.29 570.466 1238.49 570.466C1235.7 570.466 1233.43 568.198 1233.43 565.4Z" fill="#FAE12C"/>
<path d="M1274.03 519C1274.03 516.977 1275.67 515.336 1277.69 515.336C1279.72 515.336 1281.36 516.977 1281.36 519C1281.36 521.023 1279.72 522.665 1277.69 522.665C1275.67 522.665 1274.03 521.023 1274.03 519Z" fill="#FAE12C"/>
<path d="M1152.43 550.4C1152.43 548.045 1154.34 546.136 1156.69 546.136C1159.05 546.136 1160.96 548.045 1160.96 550.4C1160.96 552.754 1159.05 554.665 1156.69 554.665C1154.34 554.665 1152.43 552.754 1152.43 550.4Z" fill="#FAE12C"/>
<path d="M1080.23 632.599C1080.23 629.582 1082.68 627.136 1085.69 627.136C1088.71 627.136 1091.16 629.582 1091.16 632.599C1091.16 635.618 1088.71 638.065 1085.69 638.065C1082.68 638.065 1080.23 635.618 1080.23 632.599Z" fill="#FAE12C"/>
<path d="M1050.63 565.399C1050.63 562.382 1053.08 559.936 1056.09 559.936C1059.11 559.936 1061.56 562.382 1061.56 565.399C1061.56 568.418 1059.11 570.865 1056.09 570.865C1053.08 570.865 1050.63 568.418 1050.63 565.399Z" fill="#FAE12C"/>
<path d="M1156.63 342.199C1156.63 339.182 1159.08 336.736 1162.09 336.736C1165.11 336.736 1167.56 339.182 1167.56 342.199C1167.56 345.217 1165.11 347.665 1162.09 347.665C1159.08 347.665 1156.63 345.217 1156.63 342.199Z" fill="#FAE12C"/>
<path d="M991.085 322.254C991.085 317.942 994.582 314.447 998.894 314.447C1003.21 314.447 1006.7 317.942 1006.7 322.254C1006.7 326.567 1003.21 330.065 998.894 330.065C994.582 330.065 991.085 326.567 991.085 322.254Z" fill="#FAE12C"/>
<path d="M865.085 382.199C865.085 377.887 868.582 374.391 872.894 374.391C877.206 374.391 880.702 377.887 880.702 382.199C880.702 386.512 877.206 390.009 872.894 390.009C868.582 390.009 865.085 386.512 865.085 382.199Z" fill="#FAE12C"/>
<path d="M1068.48 398.599C1068.48 393.624 1072.52 389.591 1077.49 389.591C1082.47 389.591 1086.5 393.624 1086.5 398.599C1086.5 403.575 1082.47 407.609 1077.49 407.609C1072.52 407.609 1068.48 403.575 1068.48 398.599Z" fill="#FAE12C"/>
<path d="M1250.63 403.799C1250.63 400.783 1253.08 398.336 1256.09 398.336C1259.11 398.336 1261.56 400.783 1261.56 403.799C1261.56 406.817 1259.11 409.265 1256.09 409.265C1253.08 409.265 1250.63 406.817 1250.63 403.799Z" fill="#FAE12C"/>
<path d="M1041.22 608.602C1041.22 605.127 1044.04 602.311 1047.51 602.311C1050.98 602.311 1053.8 605.128 1053.8 608.602C1053.8 612.076 1050.98 614.894 1047.51 614.894C1044.04 614.894 1041.22 612.076 1041.22 608.602Z" fill="#FAE12C"/>
<path d="M1384.59 603.647C1384.59 599.881 1387.65 596.828 1391.41 596.828C1395.18 596.828 1398.23 599.881 1398.23 603.647C1398.23 607.412 1395.18 610.466 1391.41 610.466C1387.65 610.466 1384.59 607.412 1384.59 603.647Z" fill="#FAE12C"/>
<path d="M1273 780.6C1273 778.448 1274.74 776.702 1276.89 776.702C1279.05 776.702 1280.79 778.448 1280.79 780.6C1280.79 782.753 1279.05 784.499 1276.89 784.499C1274.74 784.499 1273 782.753 1273 780.6Z" fill="#FAE12C"/>
<path d="M1228.6 806.6C1228.6 804.447 1230.34 802.702 1232.49 802.702C1234.65 802.702 1236.39 804.447 1236.39 806.6C1236.39 808.753 1234.65 810.498 1232.49 810.498C1230.34 810.498 1228.6 808.753 1228.6 806.6Z" fill="#FAE12C"/>
<path d="M989.329 518.999C989.329 515.862 992 513.32 995.294 513.32C998.589 513.32 1001.26 515.862 1001.26 518.999C1001.26 522.136 998.588 524.68 995.294 524.68C992.001 524.68 989.329 522.136 989.329 518.999Z" fill="#FAE12C"/>
</g>
<mask id="mask18_28_826" style="mask-type:luminance" maskUnits="userSpaceOnUse" x="622" y="315" width="1396" height="800">
<path d="M2017.96 315H622.044V1115H2017.96V315Z" fill="white"/>
</mask>
<g mask="url(#mask18_28_826)">
<g opacity="0.3">
<path d="M1264.36 544.253C1263.93 546.818 1261.51 548.552 1258.94 548.128C1256.38 547.704 1254.64 545.281 1255.07 542.717C1255.49 540.152 1257.92 538.417 1260.48 538.841C1263.05 539.266 1264.78 541.689 1264.36 544.253Z" fill="#FAE12C"/>
<path d="M1031.99 544.439C1031.41 547.944 1028.1 550.315 1024.59 549.735C1021.09 549.155 1018.72 545.844 1019.3 542.339C1019.88 538.834 1023.19 536.462 1026.69 537.042C1030.2 537.622 1032.57 540.934 1031.99 544.439Z" fill="#FAE12C"/>
<path d="M1105.64 557.23C1105.19 559.936 1102.63 561.766 1099.93 561.318C1097.22 560.87 1095.39 558.314 1095.84 555.609C1096.28 552.904 1098.84 551.073 1101.55 551.521C1104.25 551.969 1106.08 554.525 1105.64 557.23Z" fill="#FAE12C"/>
<path d="M1079.7 577.874C1079.25 580.579 1076.7 582.41 1073.99 581.962C1071.29 581.515 1069.45 578.958 1069.9 576.252C1070.35 573.547 1072.91 571.716 1075.61 572.164C1078.32 572.611 1080.15 575.168 1079.7 577.874Z" fill="#FAE12C"/>
<path d="M1072.95 544.212C1072.24 548.499 1068.19 551.398 1063.9 550.688C1059.62 549.979 1056.72 545.931 1057.43 541.645C1058.14 537.359 1062.19 534.459 1066.47 535.168C1070.76 535.877 1073.66 539.927 1072.95 544.212Z" fill="#FAE12C"/>
<path d="M1167.07 433.016C1166.65 435.58 1164.23 437.315 1161.66 436.891C1159.1 436.467 1157.36 434.044 1157.79 431.48C1158.21 428.915 1160.63 427.18 1163.2 427.604C1165.76 428.029 1167.5 430.452 1167.07 433.016Z" fill="#FAE12C"/>
<path d="M996.151 355.345C995.781 357.585 993.665 359.1 991.424 358.73C989.184 358.358 987.669 356.242 988.04 354.002C988.41 351.763 990.526 350.248 992.766 350.618C995.006 350.988 996.522 353.105 996.151 355.345Z" fill="#FAE12C"/>
<path d="M716.324 468.492C715.769 471.851 712.594 474.123 709.235 473.568C705.876 473.012 703.602 469.839 704.158 466.48C704.714 463.12 707.889 460.847 711.247 461.403C714.606 461.958 716.88 465.132 716.324 468.492Z" fill="#FAE12C"/>
<path d="M1069.73 639.363C1069.27 642.178 1066.61 644.081 1063.79 643.615C1060.98 643.15 1059.07 640.491 1059.54 637.676C1060 634.861 1062.66 632.958 1065.48 633.423C1068.29 633.889 1070.2 636.548 1069.73 639.363Z" fill="#FAE12C"/>
<path d="M772.099 526.985C771.634 529.8 768.974 531.703 766.16 531.238C763.346 530.772 761.442 528.114 761.907 525.298C762.373 522.484 765.032 520.58 767.846 521.046C770.66 521.512 772.565 524.171 772.099 526.985Z" fill="#FAE12C"/>
<path d="M894.598 592.759C894.07 595.954 891.05 598.116 887.854 597.588C884.658 597.059 882.495 594.039 883.024 590.844C883.553 587.648 886.573 585.486 889.769 586.014C892.964 586.543 895.126 589.562 894.598 592.759Z" fill="#FAE12C"/>
<path d="M949.123 591.571C948.594 594.766 945.575 596.927 942.379 596.399C939.183 595.871 937.021 592.851 937.55 589.655C938.078 586.459 941.098 584.297 944.294 584.825C947.489 585.354 949.652 588.374 949.123 591.571Z" fill="#FAE12C"/>
<path d="M1000.52 743.867C999.987 747.063 996.968 749.225 993.772 748.696C990.576 748.168 988.414 745.148 988.942 741.953C989.471 738.756 992.491 736.594 995.686 737.122C998.882 737.652 1001.04 740.671 1000.52 743.867Z" fill="#FAE12C"/>
<path d="M918.349 704.732C917.82 707.927 914.801 710.089 911.605 709.561C908.409 709.032 906.246 706.012 906.775 702.817C907.304 699.621 910.324 697.458 913.52 697.987C916.715 698.516 918.878 701.536 918.349 704.732Z" fill="#FAE12C"/>
<path d="M931.537 638.496C930.909 642.291 927.322 644.859 923.528 644.231C919.733 643.603 917.165 640.018 917.793 636.223C918.421 632.427 922.007 629.859 925.802 630.487C929.597 631.115 932.165 634.701 931.537 638.496Z" fill="#FAE12C"/>
<path d="M889.804 520.918C889.158 524.822 885.468 527.463 881.565 526.817C877.661 526.171 875.018 522.482 875.665 518.578C876.311 514.674 880 512.032 883.904 512.678C887.808 513.323 890.45 517.013 889.804 520.918Z" fill="#FAE12C"/>
<path d="M1282.95 700.759C1282.28 704.772 1278.49 707.486 1274.48 706.822C1270.46 706.159 1267.75 702.367 1268.41 698.354C1269.08 694.341 1272.87 691.626 1276.88 692.29C1280.89 692.954 1283.61 696.746 1282.95 700.759Z" fill="#FAE12C"/>
<path d="M1080.32 785.123C1079.66 789.136 1075.86 791.851 1071.85 791.187C1067.84 790.523 1065.12 786.731 1065.79 782.718C1066.45 778.706 1070.24 775.99 1074.26 776.654C1078.27 777.318 1080.98 781.11 1080.32 785.123Z" fill="#FAE12C"/>
<path d="M1217.71 890.686C1216.85 895.897 1211.93 899.423 1206.71 898.561C1201.5 897.699 1197.98 892.775 1198.84 887.564C1199.7 882.351 1204.62 878.825 1209.84 879.687C1215.05 880.551 1218.58 885.475 1217.71 890.686Z" fill="#FAE12C"/>
<path d="M1156.98 966.794C1156.52 969.553 1153.91 971.42 1151.15 970.963C1148.39 970.507 1146.53 967.899 1146.98 965.139C1147.44 962.38 1150.05 960.513 1152.81 960.969C1155.57 961.425 1157.43 964.033 1156.98 966.794Z" fill="#FAE12C"/>
<path d="M1109.35 1005.95C1109.02 1007.94 1107.13 1009.29 1105.13 1008.96C1103.14 1008.63 1101.79 1006.75 1102.12 1004.75C1102.45 1002.75 1104.33 1001.4 1106.33 1001.73C1108.33 1002.06 1109.68 1003.95 1109.35 1005.95Z" fill="#FAE12C"/>
<path d="M1234.44 994.813C1234.06 997.136 1231.86 998.708 1229.54 998.324C1227.22 997.94 1225.64 995.744 1226.03 993.421C1226.41 991.098 1228.61 989.526 1230.93 989.91C1233.25 990.294 1234.83 992.489 1234.44 994.813Z" fill="#FAE12C"/>
<path d="M1319.09 925.5C1318.6 928.477 1315.78 930.49 1312.81 929.998C1309.83 929.505 1307.81 926.692 1308.31 923.715C1308.8 920.737 1311.61 918.723 1314.59 919.215C1317.57 919.708 1319.58 922.522 1319.09 925.5Z" fill="#FAE12C"/>
<path d="M1337.32 996.63C1336.83 999.607 1334.02 1001.62 1331.04 1001.13C1328.06 1000.64 1326.05 997.823 1326.54 994.845C1327.03 991.868 1329.85 989.853 1332.82 990.345C1335.8 990.838 1337.82 993.652 1337.32 996.63Z" fill="#FAE12C"/>
<path d="M1256.84 956.286C1256.27 959.714 1253.03 962.033 1249.6 961.466C1246.17 960.899 1243.85 957.659 1244.42 954.233C1244.99 950.805 1248.23 948.485 1251.66 949.051C1255.08 949.619 1257.4 952.858 1256.84 956.286Z" fill="#FAE12C"/>
<path d="M1014.08 904.387C1013.47 908.103 1009.96 910.616 1006.24 910.002C1002.52 909.387 1000.01 905.877 1000.62 902.161C1001.24 898.446 1004.75 895.932 1008.46 896.547C1012.18 897.161 1014.69 900.672 1014.08 904.387Z" fill="#FAE12C"/>
<path d="M1153.06 748.021C1152.71 750.144 1150.71 751.581 1148.58 751.23C1146.46 750.878 1145.02 748.872 1145.37 746.748C1145.72 744.624 1147.73 743.186 1149.85 743.538C1151.98 743.889 1153.42 745.896 1153.06 748.021Z" fill="#FAE12C"/>
<path d="M1201.11 729.617C1200.76 731.741 1198.75 733.178 1196.63 732.826C1194.51 732.475 1193.07 730.469 1193.42 728.344C1193.77 726.22 1195.78 724.782 1197.9 725.134C1200.03 725.485 1201.46 727.492 1201.11 729.617Z" fill="#FAE12C"/>
<path d="M1390.23 1052.41C1389.72 1055.51 1386.67 1057.58 1383.42 1057.04C1380.17 1056.5 1377.95 1053.56 1378.46 1050.47C1378.97 1047.37 1382.02 1045.3 1385.27 1045.83C1388.52 1046.37 1390.74 1049.32 1390.23 1052.41Z" fill="#FAE12C"/>
</g>
</g>
<mask id="mask19_28_826" style="mask-type:luminance" maskUnits="userSpaceOnUse" x="622" y="315" width="1396" height="800">
<path d="M2017.96 315H622.044V1115H2017.96V315Z" fill="white"/>
</mask>
<g mask="url(#mask19_28_826)">
<path d="M1354.23 1082.11C1358.74 1082.11 1362.41 1078.45 1362.41 1073.93C1362.41 1069.42 1358.74 1065.75 1354.23 1065.75C1349.71 1065.75 1346.05 1069.42 1346.05 1073.93C1346.05 1078.45 1349.71 1082.11 1354.23 1082.11Z" stroke="#FAE12C" stroke-width="2.4864" stroke-miterlimit="10"/>
<path d="M1354.23 1068.74C1357.09 1068.74 1359.42 1071.07 1359.42 1073.93C1359.42 1076.8 1357.09 1079.13 1354.23 1079.13C1351.36 1079.13 1349.03 1076.8 1349.03 1073.93C1349.03 1071.07 1351.36 1068.74 1354.23 1068.74Z" fill="#FAE12C"/>
<path d="M1298.23 969.87C1302.74 969.87 1306.41 966.208 1306.41 961.69C1306.41 957.173 1302.74 953.51 1298.23 953.51C1293.71 953.51 1290.05 957.173 1290.05 961.69C1290.05 966.208 1293.71 969.87 1298.23 969.87Z" stroke="#FAE12C" stroke-width="2.4864" stroke-miterlimit="10"/>
<path d="M1298.23 956.495C1301.09 956.495 1303.42 958.825 1303.42 961.69C1303.42 964.556 1301.09 966.887 1298.23 966.887C1295.36 966.887 1293.03 964.556 1293.03 961.69C1293.03 958.825 1295.36 956.495 1298.23 956.495Z" fill="#FAE12C"/>
<path d="M1301.64 1108.5C1301.64 1105.31 1304.22 1102.72 1307.41 1102.72C1310.6 1102.72 1313.19 1105.31 1313.19 1108.5C1313.19 1111.69 1310.6 1114.27 1307.41 1114.27C1304.22 1114.27 1301.64 1111.69 1301.64 1108.5Z" stroke="#FAE12C" stroke-width="1.7556" stroke-miterlimit="10"/>
<path d="M1307.41 1104.83C1309.43 1104.83 1311.08 1106.48 1311.08 1108.5C1311.08 1110.52 1309.43 1112.17 1307.41 1112.17C1305.39 1112.17 1303.74 1110.52 1303.74 1108.5C1303.74 1106.48 1305.39 1104.83 1307.41 1104.83Z" fill="#FAE12C"/>
<path d="M1411.12 788.067C1411.12 784.462 1414.04 781.539 1417.65 781.539C1421.25 781.539 1424.18 784.462 1424.18 788.067C1424.18 791.672 1421.25 794.593 1417.65 794.593C1414.04 794.593 1411.12 791.672 1411.12 788.067Z" stroke="#FAE12C" stroke-width="1.984" stroke-miterlimit="10"/>
<path d="M1417.65 783.92C1419.93 783.92 1421.8 785.78 1421.8 788.067C1421.8 790.353 1419.94 792.213 1417.65 792.213C1415.36 792.213 1413.5 790.353 1413.5 788.067C1413.5 785.781 1415.36 783.92 1417.65 783.92Z" fill="#FAE12C"/>
<path d="M1130.56 755.561C1132.97 753.152 1132.97 749.246 1130.56 746.837C1128.15 744.428 1124.25 744.428 1121.84 746.837C1119.43 749.246 1119.43 753.152 1121.84 755.561C1124.25 757.97 1128.15 757.97 1130.56 755.561Z" stroke="#FAE12C" stroke-width="1.8751" stroke-miterlimit="10"/>
<path d="M1126.2 747.28C1128.37 747.28 1130.12 749.038 1130.12 751.198C1130.12 753.359 1128.37 755.117 1126.2 755.117C1124.04 755.117 1122.29 753.359 1122.29 751.198C1122.29 749.038 1124.04 747.28 1126.2 747.28Z" fill="#FAE12C"/>
<path d="M939.699 620.866C939.699 615.642 943.935 611.406 949.159 611.406C954.384 611.406 958.62 615.642 958.62 620.866C958.62 626.091 954.384 630.327 949.159 630.327C943.936 630.327 939.699 626.091 939.699 620.866Z" stroke="#FAE12C" stroke-width="2.8757" stroke-miterlimit="10"/>
<path d="M949.16 614.857C952.474 614.857 955.17 617.553 955.17 620.866C955.17 624.181 952.474 626.876 949.16 626.876C945.846 626.876 943.15 624.181 943.15 620.866C943.15 617.553 945.846 614.857 949.16 614.857Z" fill="#FAE12C"/>
<path d="M1128.89 604.85C1133.01 604.85 1136.34 601.515 1136.34 597.4C1136.34 593.285 1133.01 589.949 1128.89 589.949C1124.78 589.949 1121.44 593.285 1121.44 597.4C1121.44 601.515 1124.78 604.85 1128.89 604.85Z" stroke="#FAE12C" stroke-width="2.2645" stroke-miterlimit="10"/>
<path d="M1128.89 592.668C1131.5 592.668 1133.63 594.79 1133.63 597.4C1133.63 600.01 1131.5 602.132 1128.89 602.132C1126.28 602.132 1124.16 600.01 1124.16 597.4C1124.16 594.79 1126.28 592.668 1128.89 592.668Z" fill="#FAE12C"/>
<path d="M852.563 407.609C852.563 403.45 855.934 400.079 860.093 400.079C864.251 400.079 867.623 403.45 867.623 407.609C867.623 411.767 864.251 415.139 860.093 415.139C855.934 415.139 852.563 411.767 852.563 407.609Z" stroke="#FAE12C" stroke-width="2.2889" stroke-miterlimit="10"/>
<path d="M860.093 402.825C862.731 402.825 864.877 404.971 864.877 407.608C864.877 410.246 862.731 412.391 860.093 412.391C857.455 412.391 855.31 410.245 855.31 407.608C855.31 404.971 857.455 402.825 860.093 402.825Z" fill="#FAE12C"/>
</g>
<mask id="mask20_28_826" style="mask-type:luminance" maskUnits="userSpaceOnUse" x="622" y="315" width="1396" height="800">
<path d="M2017.96 315H622.044V1115H2017.96V315Z" fill="white"/>
</mask>
<g mask="url(#mask20_28_826)">
<g opacity="0.1">
<path d="M1096.34 454.133C1096.36 460.517 1091.19 465.703 1084.81 465.716C1078.42 465.729 1073.23 460.564 1073.22 454.179C1073.21 447.795 1078.38 442.607 1084.76 442.594C1091.14 442.581 1096.33 447.749 1096.34 454.133Z" fill="#FAE12C"/>
<path d="M1230.69 454.938C1230.7 459.866 1226.71 463.87 1221.78 463.882C1216.85 463.891 1212.85 459.903 1212.84 454.974C1212.83 450.046 1216.82 446.042 1221.75 446.032C1226.68 446.022 1230.68 450.01 1230.69 454.938Z" fill="#FAE12C"/>
<path d="M1190.85 499.23C1190.86 504.158 1186.87 508.162 1181.94 508.173C1177.01 508.183 1173.01 504.194 1173 499.266C1172.99 494.338 1176.98 490.334 1181.9 490.323C1186.83 490.314 1190.84 494.302 1190.85 499.23Z" fill="#FAE12C"/>
<path d="M1168.88 441.568C1168.9 449.375 1162.58 455.716 1154.77 455.733C1146.97 455.749 1140.62 449.433 1140.61 441.626C1140.59 433.818 1146.91 427.475 1154.72 427.46C1162.52 427.444 1168.87 433.762 1168.88 441.568Z" fill="#FAE12C"/>
<path d="M1191.43 611.186C1191.44 616.312 1187.29 620.477 1182.17 620.488C1177.04 620.498 1172.88 616.35 1172.87 611.223C1172.86 606.096 1177 601.931 1182.13 601.92C1187.26 601.911 1191.42 606.058 1191.43 611.186Z" fill="#FAE12C"/>
<path d="M630.488 500.366C630.498 505.494 626.349 509.658 621.222 509.668C616.095 509.679 611.93 505.53 611.919 500.404C611.909 495.277 616.058 491.111 621.185 491.101C626.311 491.09 630.478 495.239 630.488 500.366Z" fill="#FAE12C"/>
<path d="M867.158 580.581C867.17 586.402 862.458 591.132 856.637 591.143C850.815 591.155 846.085 586.446 846.074 580.624C846.062 574.802 850.773 570.072 856.594 570.06C862.416 570.048 867.146 574.758 867.158 580.581Z" fill="#FAE12C"/>
<path d="M963.455 562.282C963.466 568.104 958.755 572.833 952.934 572.845C947.113 572.857 942.382 568.146 942.371 562.326C942.359 556.503 947.07 551.773 952.891 551.762C958.713 551.749 963.443 556.459 963.455 562.282Z" fill="#FAE12C"/>
<path d="M1099.78 816.982C1099.79 822.803 1095.08 827.532 1089.25 827.543C1083.43 827.556 1078.7 822.845 1078.69 817.025C1078.68 811.202 1083.39 806.471 1089.21 806.461C1095.03 806.448 1099.76 811.159 1099.78 816.982Z" fill="#FAE12C"/>
<path d="M942.508 772.01C942.52 777.831 937.808 782.56 931.987 782.572C926.166 782.583 921.436 777.874 921.424 772.052C921.412 766.229 926.123 761.5 931.944 761.488C937.766 761.476 942.496 766.186 942.508 772.01Z" fill="#FAE12C"/>
<path d="M849.847 669.376C849.862 676.29 844.267 681.905 837.354 681.919C830.441 681.934 824.823 676.341 824.809 669.428C824.795 662.513 830.39 656.897 837.302 656.882C844.217 656.868 849.834 662.462 849.847 669.376Z" fill="#FAE12C"/>
<path d="M837.328 454.658C837.342 461.77 831.586 467.546 824.475 467.562C817.363 467.577 811.586 461.822 811.571 454.711C811.556 447.597 817.31 441.821 824.423 441.806C831.534 441.791 837.314 447.546 837.328 454.658Z" fill="#FAE12C"/>
<path d="M1142.13 924.582C1142.15 931.891 1136.23 937.83 1128.92 937.844C1121.61 937.86 1115.67 931.944 1115.66 924.635C1115.64 917.323 1121.56 911.384 1128.87 911.37C1136.18 911.354 1142.12 917.269 1142.13 924.582Z" fill="#FAE12C"/>
<path d="M1171.48 1097.49C1171.5 1104.26 1166.02 1109.75 1159.25 1109.77C1152.48 1109.78 1146.98 1104.31 1146.97 1097.54C1146.96 1090.77 1152.43 1085.27 1159.2 1085.26C1165.97 1085.24 1171.47 1090.72 1171.48 1097.49Z" fill="#FAE12C"/>
<path d="M1371.41 779.047C1371.42 782.916 1368.29 786.06 1364.42 786.067C1360.55 786.075 1357.41 782.944 1357.4 779.075C1357.39 775.205 1360.52 772.061 1364.39 772.053C1368.26 772.046 1371.41 775.177 1371.41 779.047Z" fill="#FAE12C"/>
<path d="M1451.12 732.156C1451.12 736.025 1447.99 739.168 1444.13 739.175C1440.26 739.183 1437.11 736.054 1437.1 732.184C1437.1 728.314 1440.23 725.17 1444.1 725.163C1447.97 725.154 1451.11 728.286 1451.12 732.156Z" fill="#FAE12C"/>
</g>
</g>
<g clip-path="url(#clip1_28_826)">
<mask id="mask21_28_826" style="mask-type:luminance" maskUnits="userSpaceOnUse" x="739" y="21" width="1404" height="815">
<path d="M2142.95 35.0976L747.111 21.021L739.044 820.98L2134.89 835.057L2142.95 35.0976Z" fill="white"/>
</mask>
<g mask="url(#mask21_28_826)">
<g opacity="0.3">
<path d="M1279.6 559.845L1606.31 507.209L1496.87 650.105L1279.6 559.845Z" stroke="white" stroke-miterlimit="10"/>
<path d="M1496.87 650.106L1279.6 559.845L1474.03 675.075L1496.87 650.106Z" stroke="white" stroke-miterlimit="10"/>
<path d="M1496.87 650.106L1279.6 559.845L1373.1 427.354L1496.87 650.106Z" stroke="white" stroke-miterlimit="10"/>
<path d="M1207.53 343.28L1279.6 559.845L1373.1 427.354L1207.53 343.28Z" stroke="white" stroke-miterlimit="10"/>
<path d="M1373.1 427.354L1397.23 493.201L1279.6 559.845" stroke="white" stroke-miterlimit="10"/>
<path d="M1207.53 343.28L1373.1 427.354L1361 277.624L1207.53 343.28Z" stroke="white" stroke-miterlimit="10"/>
<path d="M1207.53 343.28L1278.75 262.394L1361 277.624L1207.53 343.28Z" stroke="white" stroke-miterlimit="10"/>
<path d="M1515.27 319.182L1373.09 427.354L1361 277.625L1515.27 319.182Z" stroke="white" stroke-miterlimit="10"/>
<path d="M1515.27 319.182L1400.67 231.622L1361 277.624L1515.27 319.182Z" stroke="white" stroke-miterlimit="10"/>
<path d="M1416.4 505.294L1373.09 427.354L1361 277.625L1416.4 505.294Z" stroke="white" stroke-miterlimit="10"/>
<path d="M1496.87 650.105L1433.01 806.645L1319.29 711.626L1496.87 650.105Z" stroke="white" stroke-miterlimit="10"/>
<path d="M1496.87 650.106L1476.73 860.996L1416.74 674.497L1496.87 650.106Z" stroke="white" stroke-miterlimit="10"/>
<path d="M1319.33 364.408L1634.94 563.428L1624.27 616.564L1319.33 364.408Z" stroke="white" stroke-miterlimit="10"/>
<path d="M1675.06 699.913L1511.6 682.364L1423.7 486.267L1675.06 699.913Z" stroke="white" stroke-miterlimit="10"/>
<path d="M1228.3 425.894L1278.75 262.394L1091.92 383.716L1228.3 425.894Z" stroke="white" stroke-miterlimit="10"/>
<path d="M1091.92 383.716L1074.03 333.133L1251.09 308.517L1091.92 383.716Z" stroke="white" stroke-miterlimit="10"/>
<path d="M1178.61 275.785L1423.7 486.267L1170.41 319.734L1178.61 275.785Z" stroke="white" stroke-miterlimit="10"/>
<path d="M1286.86 53.6654L1178.61 275.785L1361 277.624L1286.86 53.6654Z" stroke="white" stroke-miterlimit="10"/>
<path d="M1125.84 34.4407L1118.28 228.774L1286.86 53.6654L1125.84 34.4407Z" stroke="white" stroke-miterlimit="10"/>
<path d="M1125.84 34.4409L1277.84 -10.4287L1286.86 53.6655L1125.84 34.4409Z" stroke="white" stroke-miterlimit="10"/>
<path d="M1380.23 116.21L1118.28 228.774L984.213 116.216L1380.23 116.21Z" stroke="white" stroke-miterlimit="10"/>
<path d="M1251.09 308.518L997.27 90.7471L1202.88 110.421L1251.09 308.518Z" stroke="white" stroke-miterlimit="10"/>
<path d="M984.213 116.217L1074.03 333.134L1251.09 308.518L984.213 116.217Z" stroke="white" stroke-miterlimit="10"/>
</g>
</g>
<mask id="mask22_28_826" style="mask-type:luminance" maskUnits="userSpaceOnUse" x="739" y="21" width="1404" height="815">
<path d="M2142.95 35.0976L747.111 21.021L739.044 820.98L2134.89 835.057L2142.95 35.0976Z" fill="white"/>
</mask>
<g mask="url(#mask22_28_826)">
<g opacity="0.2">
<path d="M1388.17 145.986L1714.89 93.3497L1605.45 236.246L1388.17 145.986Z" stroke="white" stroke-miterlimit="10"/>
<path d="M1605.45 236.246L1388.17 145.986L1582.61 261.215L1605.45 236.246Z" stroke="white" stroke-miterlimit="10"/>
<path d="M1605.45 236.246L1388.17 145.985L1481.67 13.4943L1605.45 236.246Z" stroke="white" stroke-miterlimit="10"/>
<path d="M1316.11 -70.5796L1388.17 145.985L1481.67 13.4942L1316.11 -70.5796Z" stroke="white" stroke-miterlimit="10"/>
<path d="M1481.67 13.4943L1505.81 79.341L1388.17 145.985" stroke="white" stroke-miterlimit="10"/>
<path d="M1605.45 236.246L1541.59 392.785L1427.87 297.766L1605.45 236.246Z" stroke="white" stroke-miterlimit="10"/>
<path d="M1427.91 -49.4509L1743.52 149.569L1732.85 202.704L1427.91 -49.4509Z" stroke="white" stroke-miterlimit="10"/>
</g>
</g>
<mask id="mask23_28_826" style="mask-type:luminance" maskUnits="userSpaceOnUse" x="739" y="21" width="1404" height="815">
<path d="M2142.95 35.0976L747.111 21.021L739.044 820.98L2134.89 835.057L2142.95 35.0976Z" fill="white"/>
</mask>
<g mask="url(#mask23_28_826)">
<g opacity="0.2">
<path d="M1350.45 662.672L1094.62 685.292L1223.12 615.788L1350.45 662.672Z" stroke="white" stroke-miterlimit="10"/>
<path d="M1150.32 516.654L1094.62 685.292L1223.12 615.788L1150.32 516.654Z" stroke="white" stroke-miterlimit="10"/>
<path d="M1168.27 626.008L1034.88 895.077L1241.46 686.772L1168.27 626.008Z" stroke="white" stroke-miterlimit="10"/>
<path d="M1094.62 685.292L1150.32 516.653L1040.88 659.55L1094.62 685.292Z" stroke="white" stroke-miterlimit="10"/>
<path d="M1094.62 685.292L1015.61 796.745L1040.88 659.55L1094.62 685.292Z" stroke="white" stroke-miterlimit="10"/>
<path d="M1094.62 685.292L1015.61 796.745L1156.67 868.038L1094.62 685.292Z" stroke="white" stroke-miterlimit="10"/>
<path d="M823.598 569.29L1150.32 516.654L1040.88 659.55L823.598 569.29Z" stroke="white" stroke-miterlimit="10"/>
<path d="M1040.88 659.55L823.598 569.29L1018.04 684.519L1040.88 659.55Z" stroke="white" stroke-miterlimit="10"/>
<path d="M1040.88 659.55L823.598 569.29L917.099 436.798L1040.88 659.55Z" stroke="white" stroke-miterlimit="10"/>
<path d="M917.099 436.798L941.236 502.645L823.598 569.29" stroke="white" stroke-miterlimit="10"/>
<path d="M1059.27 328.627L917.099 436.799L905.008 287.069L1059.27 328.627Z" stroke="white" stroke-miterlimit="10"/>
<path d="M1059.27 328.627L944.674 241.066L905.008 287.069L1059.27 328.627Z" stroke="white" stroke-miterlimit="10"/>
<path d="M960.408 514.739L917.099 436.799L905.008 287.069L960.408 514.739Z" stroke="white" stroke-miterlimit="10"/>
<path d="M1040.88 659.55L977.01 816.089L863.295 721.071L1040.88 659.55Z" stroke="white" stroke-miterlimit="10"/>
<path d="M1040.88 659.55L1020.73 870.44L960.743 683.941L1040.88 659.55Z" stroke="white" stroke-miterlimit="10"/>
<path d="M1223.12 615.788L1350.44 662.672L1150.32 516.654L1223.12 615.788Z" stroke="white" stroke-miterlimit="10"/>
<path d="M863.331 373.853L1178.94 572.873L1168.27 626.008L863.331 373.853Z" stroke="white" stroke-miterlimit="10"/>
<path d="M1219.06 709.357L1055.61 691.808L967.708 495.712L1219.06 709.357Z" stroke="white" stroke-miterlimit="10"/>
<path d="M1156.67 868.038L1416.76 711.351L1078.44 780.843L1156.71 864.837L1239.58 872.647" stroke="white" stroke-miterlimit="10"/>
<path d="M1239.58 872.647L1241.46 686.772L1425.55 870.749L1239.58 872.647Z" stroke="white" stroke-miterlimit="10"/>
<path d="M1317.52 556.042L1041.5 597.261L1156.71 864.836L1317.52 556.042Z" stroke="white" stroke-miterlimit="10"/>
<path d="M1041.5 597.261L1094.59 483.391L1317.52 556.042" stroke="white" stroke-miterlimit="10"/>
<path d="M722.618 285.23L967.708 495.712L714.417 329.178L722.618 285.23Z" stroke="white" stroke-miterlimit="10"/>
<path d="M924.237 125.655L662.289 238.219L528.217 125.661L924.237 125.655Z" stroke="white" stroke-miterlimit="10"/>
</g>
</g>
<mask id="mask24_28_826" style="mask-type:luminance" maskUnits="userSpaceOnUse" x="739" y="21" width="1404" height="815">
<path d="M2142.95 35.0976L747.111 21.021L739.044 820.98L2134.89 835.057L2142.95 35.0976Z" fill="white"/>
</mask>
<g mask="url(#mask24_28_826)">
<path d="M1314.59 711.578C1314.61 708.978 1316.74 706.893 1319.34 706.92C1321.94 706.946 1324.02 709.073 1324 711.673C1323.97 714.271 1321.84 716.358 1319.24 716.332C1316.65 716.306 1314.56 714.176 1314.59 711.578Z" fill="white"/>
<path d="M1427.77 806.592C1427.79 803.992 1429.92 801.907 1432.52 801.933C1435.12 801.959 1437.21 804.087 1437.18 806.687C1437.15 809.285 1435.02 811.371 1432.43 811.345C1429.83 811.319 1427.74 809.19 1427.77 806.592Z" fill="white"/>
<path d="M1272.23 559.77C1272.27 555.703 1275.6 552.44 1279.67 552.481C1283.74 552.522 1287 555.851 1286.96 559.918C1286.92 563.986 1283.59 567.25 1279.52 567.209C1275.45 567.168 1272.19 563.838 1272.23 559.77Z" fill="white"/>
<path d="M1419.45 486.225C1419.49 482.158 1422.82 478.893 1426.89 478.934C1430.96 478.975 1434.22 482.306 1434.18 486.373C1434.14 490.44 1430.81 493.705 1426.74 493.664C1422.67 493.623 1419.41 490.292 1419.45 486.225Z" fill="white"/>
<path d="M1307.58 362.09C1307.64 356.808 1311.96 352.569 1317.25 352.622C1322.53 352.676 1326.77 357.002 1326.71 362.283C1326.66 367.564 1322.34 371.805 1317.05 371.752C1311.77 371.698 1307.53 367.372 1307.58 362.09Z" fill="white"/>
<path d="M1355.94 277.573C1355.97 274.776 1358.26 272.531 1361.06 272.56C1363.85 272.588 1366.1 274.879 1366.07 277.675C1366.04 280.473 1363.75 282.718 1360.95 282.69C1358.16 282.661 1355.91 280.371 1355.94 277.573Z" fill="white"/>
<path d="M1397.01 231.585C1397.03 229.562 1398.68 227.938 1400.71 227.958C1402.73 227.979 1404.35 229.636 1404.33 231.659C1404.31 233.682 1402.66 235.307 1400.63 235.287C1398.61 235.266 1396.99 233.608 1397.01 231.585Z" fill="white"/>
<path d="M1275.1 261.757C1275.12 259.402 1277.05 257.513 1279.4 257.536C1281.76 257.56 1283.65 259.488 1283.62 261.843C1283.6 264.197 1281.67 266.089 1279.32 266.065C1276.96 266.041 1275.07 264.111 1275.1 261.757Z" fill="white"/>
<path d="M1202.07 343.224C1202.1 340.207 1204.57 337.786 1207.59 337.816C1210.61 337.847 1213.03 340.318 1213 343.334C1212.97 346.353 1210.5 348.775 1207.48 348.745C1204.46 348.714 1202.04 346.242 1202.07 343.224Z" fill="white"/>
<path d="M1173.15 275.729C1173.18 272.713 1175.65 270.291 1178.67 270.321C1181.69 270.352 1184.11 272.823 1184.08 275.839C1184.05 278.858 1181.58 281.28 1178.56 281.25C1175.54 281.219 1173.12 278.748 1173.15 275.729Z" fill="white"/>
<path d="M1281.39 53.6097C1281.42 50.593 1283.9 48.1714 1286.91 48.2018C1289.93 48.2323 1292.35 50.7032 1292.32 53.7199C1292.29 56.7373 1289.82 59.1605 1286.8 59.1301C1283.79 59.0997 1281.36 56.6271 1281.39 53.6097Z" fill="white"/>
<path d="M1116.06 31.996C1116.1 27.6842 1119.64 24.2245 1123.95 24.268C1128.26 24.3114 1131.72 27.8417 1131.68 32.1535C1131.63 36.4661 1128.1 39.9283 1123.79 39.8848C1119.48 39.8413 1116.02 36.3086 1116.06 31.996Z" fill="white"/>
<path d="M989.462 90.6672C989.506 86.3546 993.037 82.8949 997.349 82.9384C1001.66 82.9818 1005.12 86.5121 1005.08 90.8247C1005.03 95.1373 1001.5 98.5987 997.192 98.5552C992.88 98.5117 989.419 94.9798 989.462 90.6672Z" fill="white"/>
<path d="M1192.69 109.117C1192.74 104.143 1196.81 100.151 1201.79 100.201C1206.76 100.251 1210.75 104.325 1210.7 109.299C1210.65 114.275 1206.58 118.268 1201.6 118.218C1196.63 118.168 1192.64 114.093 1192.69 109.117Z" fill="white"/>
<path d="M1374.77 116.154C1374.8 113.137 1377.27 110.716 1380.29 110.746C1383.3 110.777 1385.73 113.248 1385.7 116.264C1385.67 119.282 1383.19 121.705 1380.18 121.675C1377.16 121.644 1374.74 119.172 1374.77 116.154Z" fill="white"/>
<path d="M1163.3 318.834C1163.34 315.36 1166.18 312.573 1169.66 312.608C1173.13 312.643 1175.92 315.488 1175.89 318.961C1175.85 322.435 1173 325.224 1169.53 325.189C1166.06 325.154 1163.27 322.308 1163.3 318.834Z" fill="white"/>
<path d="M1393.33 493.161C1393.36 491.009 1395.12 489.282 1397.27 489.303C1399.42 489.325 1401.15 491.088 1401.13 493.24C1401.11 495.393 1399.35 497.121 1397.19 497.1C1395.04 497.078 1393.31 495.314 1393.33 493.161Z" fill="white"/>
<path d="M1348.67 518.712C1348.7 516.559 1350.46 514.832 1352.61 514.853C1354.76 514.875 1356.49 516.638 1356.47 518.791C1356.45 520.943 1354.69 522.671 1352.53 522.65C1350.38 522.628 1348.65 520.865 1348.67 518.712Z" fill="white"/>
<path d="M1112.32 228.714C1112.35 225.577 1115.05 223.062 1118.34 223.095C1121.64 223.128 1124.28 225.697 1124.25 228.834C1124.22 231.971 1121.52 234.487 1118.23 234.454C1114.93 234.421 1112.29 231.85 1112.32 228.714Z" fill="white"/>
</g>
<mask id="mask25_28_826" style="mask-type:luminance" maskUnits="userSpaceOnUse" x="739" y="21" width="1404" height="815">
<path d="M2142.95 35.0976L747.111 21.021L739.044 820.98L2134.89 835.057L2142.95 35.0976Z" fill="white"/>
</mask>
<g mask="url(#mask25_28_826)">
<g opacity="0.3">
<path d="M1387.08 256.739C1386.63 259.3 1384.19 261.009 1381.63 260.56C1379.07 260.11 1377.36 257.669 1377.81 255.11C1378.26 252.549 1380.7 250.839 1383.26 251.288C1385.82 251.739 1387.53 254.18 1387.08 256.739Z" fill="white"/>
<path d="M1154.72 254.582C1154.1 258.081 1150.77 260.419 1147.27 259.803C1143.77 259.188 1141.43 255.853 1142.05 252.354C1142.66 248.856 1146 246.517 1149.5 247.132C1153 247.748 1155.34 251.084 1154.72 254.582Z" fill="white"/>
<path d="M1228.24 268.115C1227.76 270.816 1225.19 272.621 1222.48 272.146C1219.78 271.67 1217.98 269.096 1218.45 266.395C1218.93 263.695 1221.5 261.89 1224.2 262.365C1226.91 262.84 1228.71 265.415 1228.24 268.115Z" fill="white"/>
<path d="M1202.09 288.496C1201.62 291.197 1199.04 293.002 1196.34 292.526C1193.64 292.052 1191.84 289.477 1192.31 286.776C1192.79 284.075 1195.36 282.27 1198.06 282.746C1200.76 283.22 1202.57 285.795 1202.09 288.496Z" fill="white"/>
<path d="M1195.68 254.768C1194.93 259.047 1190.85 261.906 1186.57 261.153C1182.29 260.401 1179.43 256.323 1180.19 252.045C1180.94 247.767 1185.02 244.908 1189.3 245.66C1193.57 246.412 1196.43 250.49 1195.68 254.768Z" fill="white"/>
<path d="M1290.92 144.527C1290.47 147.087 1288.03 148.797 1285.47 148.347C1282.91 147.898 1281.2 145.457 1281.65 142.897C1282.1 140.337 1284.54 138.626 1287.1 139.076C1289.66 139.527 1291.37 141.967 1290.92 144.527Z" fill="white"/>
<path d="M1120.79 65.1362C1120.4 67.3724 1118.27 68.8661 1116.03 68.4732C1113.8 68.0794 1112.3 65.9482 1112.7 63.7121C1113.09 61.4767 1115.22 59.983 1117.46 60.3759C1119.69 60.7681 1121.19 62.9001 1120.79 65.1362Z" fill="white"/>
<path d="M1191.5 349.882C1191.01 352.692 1188.33 354.568 1185.52 354.074C1182.71 353.58 1180.84 350.903 1181.33 348.092C1181.82 345.282 1184.5 343.406 1187.31 343.9C1190.12 344.394 1192 347.072 1191.5 349.882Z" fill="white"/>
<path d="M1016.85 301.515C1016.29 304.704 1013.25 306.835 1010.06 306.275C1006.87 305.714 1004.74 302.672 1005.3 299.483C1005.86 296.292 1008.9 294.16 1012.09 294.721C1015.28 295.282 1017.41 298.323 1016.85 301.515Z" fill="white"/>
<path d="M1071.38 300.876C1070.82 304.065 1067.78 306.196 1064.59 305.636C1061.4 305.075 1059.27 302.034 1059.83 298.844C1060.39 295.652 1063.43 293.521 1066.62 294.082C1069.81 294.643 1071.95 297.684 1071.38 300.876Z" fill="white"/>
<path d="M1121.24 453.683C1120.68 456.873 1117.64 459.004 1114.45 458.443C1111.26 457.883 1109.12 454.841 1109.69 451.652C1110.25 448.46 1113.29 446.329 1116.48 446.89C1119.67 447.451 1121.8 450.492 1121.24 453.683Z" fill="white"/>
<path d="M1039.47 413.721C1038.91 416.911 1035.87 419.042 1032.68 418.482C1029.49 417.921 1027.36 414.879 1027.92 411.689C1028.48 408.499 1031.52 406.367 1034.71 406.928C1037.9 407.489 1040.03 410.531 1039.47 413.721Z" fill="white"/>
<path d="M1053.33 347.622C1052.66 351.41 1049.05 353.941 1045.26 353.275C1041.47 352.61 1038.94 348.998 1039.61 345.21C1040.27 341.42 1043.88 338.888 1047.67 339.555C1051.46 340.221 1053.99 343.833 1053.33 347.622Z" fill="white"/>
<path d="M1012.78 229.628C1012.1 233.525 1008.38 236.13 1004.48 235.444C1000.59 234.759 997.98 231.044 998.666 227.146C999.352 223.248 1003.07 220.644 1006.96 221.33C1010.86 222.014 1013.47 225.73 1012.78 229.628Z" fill="white"/>
<path d="M1404.09 413.425C1403.39 417.431 1399.57 420.107 1395.56 419.403C1391.55 418.699 1388.88 414.88 1389.58 410.874C1390.29 406.867 1394.11 404.191 1398.11 404.895C1402.12 405.599 1404.79 409.419 1404.09 413.425Z" fill="white"/>
<path d="M1200.62 495.741C1199.92 499.747 1196.1 502.424 1192.09 501.72C1188.09 501.015 1185.41 497.196 1186.12 493.19C1186.82 489.184 1190.64 486.508 1194.64 487.212C1198.65 487.916 1201.33 491.736 1200.62 495.741Z" fill="white"/>
<path d="M1336.94 602.684C1336.03 607.886 1331.07 611.363 1325.87 610.448C1320.67 609.533 1317.19 604.574 1318.1 599.372C1319.02 594.168 1323.98 590.692 1329.18 591.607C1334.38 592.522 1337.86 597.483 1336.94 602.684Z" fill="white"/>
<path d="M1275.44 678.175C1274.96 680.93 1272.33 682.771 1269.58 682.285C1266.82 681.801 1264.98 679.175 1265.47 676.42C1265.95 673.666 1268.58 671.825 1271.33 672.309C1274.09 672.793 1275.93 675.419 1275.44 678.175Z" fill="white"/>
<path d="M1227.42 716.845C1227.07 718.837 1225.17 720.17 1223.18 719.819C1221.18 719.469 1219.85 717.569 1220.2 715.576C1220.55 713.582 1222.45 712.25 1224.45 712.601C1226.44 712.95 1227.77 714.851 1227.42 716.845Z" fill="white"/>
<path d="M1352.62 706.975C1352.21 709.294 1350 710.844 1347.68 710.436C1345.36 710.029 1343.81 707.817 1344.22 705.498C1344.63 703.179 1346.84 701.629 1349.16 702.036C1351.48 702.444 1353.03 704.655 1352.62 706.975Z" fill="white"/>
<path d="M1437.96 638.519C1437.44 641.491 1434.61 643.476 1431.64 642.954C1428.66 642.43 1426.68 639.597 1427.2 636.626C1427.72 633.652 1430.56 631.667 1433.53 632.189C1436.5 632.712 1438.49 635.546 1437.96 638.519Z" fill="white"/>
<path d="M1375.4 668.675C1374.8 672.098 1371.54 674.384 1368.12 673.782C1364.7 673.18 1362.41 669.918 1363.01 666.498C1363.61 663.075 1366.88 660.788 1370.3 661.389C1373.72 661.991 1376.01 665.253 1375.4 668.675Z" fill="white"/>
<path d="M1133.18 614.332C1132.53 618.04 1129 620.519 1125.29 619.867C1121.58 619.215 1119.1 615.679 1119.75 611.97C1120.4 608.261 1123.94 605.783 1127.65 606.435C1131.36 607.086 1133.83 610.623 1133.18 614.332Z" fill="white"/>
<path d="M1273.74 459.375C1273.36 461.494 1271.34 462.911 1269.22 462.539C1267.1 462.165 1265.69 460.145 1266.06 458.024C1266.43 455.904 1268.45 454.487 1270.57 454.859C1272.69 455.232 1274.11 457.253 1273.74 459.375Z" fill="white"/>
<path d="M1321.97 441.456C1321.6 443.576 1319.57 444.993 1317.46 444.62C1315.33 444.248 1313.92 442.227 1314.29 440.106C1314.66 437.985 1316.68 436.568 1318.81 436.941C1320.92 437.313 1322.34 439.335 1321.97 441.456Z" fill="white"/>
</g>
</g>
<mask id="mask26_28_826" style="mask-type:luminance" maskUnits="userSpaceOnUse" x="739" y="21" width="1404" height="815">
<path d="M2142.95 35.0976L747.111 21.021L739.044 820.98L2134.89 835.057L2142.95 35.0976Z" fill="white"/>
</mask>
<g mask="url(#mask26_28_826)">
<path d="M1416.66 682.677C1421.17 682.722 1424.87 679.097 1424.92 674.58C1424.96 670.062 1421.34 666.363 1416.82 666.318C1412.3 666.272 1408.6 669.897 1408.56 674.415C1408.51 678.932 1412.14 682.631 1416.66 682.677Z" stroke="white" stroke-width="2.4864" stroke-miterlimit="10"/>
<path d="M1416.79 669.302C1419.66 669.331 1421.96 671.684 1421.93 674.549C1421.91 677.415 1419.55 679.723 1416.69 679.694C1413.82 679.665 1411.51 677.31 1411.54 674.445C1411.57 671.579 1413.93 669.273 1416.79 669.302Z" fill="white"/>
<path d="M1418.67 821.331C1418.7 818.142 1421.31 815.582 1424.5 815.614C1427.69 815.646 1430.25 818.259 1430.22 821.447C1430.19 824.638 1427.57 827.198 1424.38 827.166C1421.19 827.133 1418.63 824.521 1418.67 821.331Z" stroke="white" stroke-width="1.7556" stroke-miterlimit="10"/>
<path d="M1424.48 817.721C1426.5 817.741 1428.13 819.405 1428.11 821.426C1428.09 823.449 1426.43 825.08 1424.4 825.059C1422.38 825.039 1420.75 823.375 1420.77 821.352C1420.79 819.331 1422.46 817.7 1424.48 817.721Z" fill="white"/>
<path d="M1251.16 466.687C1253.59 464.302 1253.63 460.397 1251.25 457.963C1248.86 455.53 1244.96 455.491 1242.52 457.875C1240.09 460.26 1240.05 464.166 1242.44 466.599C1244.82 469.032 1248.73 469.071 1251.16 466.687Z" stroke="white" stroke-width="1.8751" stroke-miterlimit="10"/>
<path d="M1246.89 458.363C1249.05 458.384 1250.79 460.16 1250.77 462.32C1250.74 464.481 1248.97 466.221 1246.81 466.199C1244.65 466.177 1242.91 464.402 1242.93 462.241C1242.95 460.081 1244.73 458.341 1246.89 458.363Z" fill="white"/>
<path d="M1061.67 330.075C1061.72 324.851 1066 320.658 1071.22 320.711C1076.45 320.763 1080.64 325.042 1080.59 330.266C1080.53 335.49 1076.25 339.683 1071.03 339.63C1065.81 339.578 1061.61 335.299 1061.67 330.075Z" stroke="white" stroke-width="2.8757" stroke-miterlimit="10"/>
<path d="M1071.19 324.161C1074.5 324.195 1077.17 326.918 1077.14 330.231C1077.1 333.545 1074.38 336.213 1071.07 336.18C1067.75 336.146 1065.08 333.424 1065.12 330.11C1065.15 326.796 1067.87 324.128 1071.19 324.161Z" fill="white"/>
<path d="M1251.01 315.968C1255.13 316.009 1258.5 312.707 1258.54 308.593C1258.58 304.478 1255.28 301.109 1251.16 301.068C1247.05 301.026 1243.68 304.328 1243.64 308.443C1243.6 312.557 1246.9 315.926 1251.01 315.968Z" stroke="white" stroke-width="2.2645" stroke-miterlimit="10"/>
<path d="M1251.13 303.786C1253.74 303.812 1255.85 305.956 1255.82 308.565C1255.79 311.176 1253.65 313.276 1251.04 313.25C1248.43 313.223 1246.33 311.08 1246.35 308.47C1246.38 305.861 1248.53 303.76 1251.13 303.786Z" fill="white"/>
<path d="M976.685 115.95C976.727 111.791 980.132 108.454 984.29 108.496C988.448 108.538 991.786 111.943 991.744 116.101C991.702 120.26 988.296 123.598 984.138 123.556C979.98 123.514 976.643 120.108 976.685 115.95Z" stroke="white" stroke-width="2.2889" stroke-miterlimit="10"/>
<path d="M984.262 111.243C986.9 111.269 989.024 113.436 988.998 116.073C988.971 118.711 986.804 120.834 984.166 120.808C981.528 120.781 979.404 118.614 979.431 115.976C979.458 113.34 981.625 111.216 984.262 111.243Z" fill="white"/>
</g>
<mask id="mask27_28_826" style="mask-type:luminance" maskUnits="userSpaceOnUse" x="739" y="21" width="1404" height="815">
<path d="M2142.95 35.0976L747.111 21.021L739.044 820.98L2134.89 835.057L2142.95 35.0976Z" fill="white"/>
</mask>
<g mask="url(#mask27_28_826)">
<g opacity="0.1">
<path d="M1219.98 164.931C1219.93 171.314 1214.72 176.448 1208.33 176.396C1201.95 176.345 1196.81 171.128 1196.86 164.743C1196.91 158.359 1202.13 153.223 1208.52 153.275C1214.9 153.327 1220.04 158.546 1219.98 164.931Z" fill="white"/>
<path d="M1354.31 167.09C1354.27 172.017 1350.25 175.981 1345.32 175.943C1340.39 175.902 1336.43 171.874 1336.46 166.946C1336.5 162.018 1340.53 158.053 1345.46 158.094C1350.39 158.133 1354.35 162.161 1354.31 167.09Z" fill="white"/>
<path d="M1314.03 210.978C1313.99 215.905 1309.96 219.869 1305.03 219.83C1300.1 219.79 1296.14 215.761 1296.18 210.834C1296.22 205.905 1300.25 201.941 1305.18 201.981C1310.1 202.021 1314.07 206.05 1314.03 210.978Z" fill="white"/>
<path d="M1292.64 153.097C1292.58 160.904 1286.2 167.181 1278.39 167.119C1270.59 167.056 1264.31 160.676 1264.37 152.869C1264.43 145.062 1270.82 138.783 1278.62 138.847C1286.43 138.909 1292.71 145.291 1292.64 153.097Z" fill="white"/>
<path d="M1313.49 322.934C1313.44 328.059 1309.25 332.182 1304.13 332.142C1299 332.1 1294.88 327.91 1294.92 322.783C1294.96 317.656 1299.15 313.534 1304.28 313.574C1309.4 313.617 1313.53 317.806 1313.49 322.934Z" fill="white"/>
<path d="M989.534 289.06C989.487 294.881 984.728 299.563 978.907 299.516C973.086 299.469 968.403 294.712 968.451 288.891C968.497 283.068 973.256 278.387 979.078 278.433C984.899 278.48 989.581 283.237 989.534 289.06Z" fill="white"/>
<path d="M1086.01 271.734C1085.96 277.555 1081.21 282.236 1075.38 282.189C1069.56 282.143 1064.88 277.385 1064.93 271.564C1064.97 265.742 1069.73 261.059 1075.55 261.107C1081.38 261.153 1086.06 265.911 1086.01 271.734Z" fill="white"/>
<path d="M1219.76 527.794C1219.71 533.616 1214.95 538.297 1209.13 538.249C1203.31 538.203 1198.63 533.445 1198.67 527.625C1198.72 521.802 1203.48 517.119 1209.3 517.167C1215.12 517.213 1219.8 521.972 1219.76 527.794Z" fill="white"/>
<path d="M1062.95 481.239C1062.9 487.061 1058.14 491.742 1052.32 491.695C1046.5 491.647 1041.82 486.89 1041.87 481.069C1041.91 475.246 1046.67 470.565 1052.49 470.611C1058.31 470.658 1063 475.416 1062.95 481.239Z" fill="white"/>
<path d="M971.329 377.676C971.274 384.59 965.623 390.148 958.71 390.093C951.797 390.037 946.236 384.388 946.291 377.476C946.348 370.561 951.999 365.001 958.911 365.057C965.825 365.112 971.385 370.762 971.329 377.676Z" fill="white"/>
<path d="M960.976 162.842C960.919 169.955 955.105 175.672 947.994 175.616C940.882 175.559 935.163 169.747 935.22 162.636C935.276 155.522 941.089 149.804 948.201 149.861C955.312 149.918 961.033 155.73 960.976 162.842Z" fill="white"/>
<path d="M1261.03 635.816C1260.97 643.126 1254.99 649.004 1247.68 648.945C1240.37 648.887 1234.49 642.911 1234.55 635.602C1234.61 628.291 1240.58 622.412 1247.89 622.471C1255.21 622.53 1261.08 628.504 1261.03 635.816Z" fill="white"/>
<path d="M1288.63 809.011C1288.58 815.778 1283.04 821.221 1276.28 821.167C1269.51 821.112 1264.06 815.581 1264.12 808.813C1264.17 802.046 1269.71 796.601 1276.47 796.657C1283.24 796.711 1288.69 802.242 1288.63 809.011Z" fill="white"/>
</g>
</g>
</g>
<defs>
<clipPath id="clip0_28_826">
<rect width="1400" height="800" fill="white" transform="translate(-546 480.999)"/>
</clipPath>
<clipPath id="clip1_28_826">
<rect width="856.253" height="800" fill="white" transform="translate(931.269 22.8777) rotate(0.57779)"/>
</clipPath>
</defs>
</svg>
