<svg width="249" height="248" viewBox="0 0 249 248" fill="none" xmlns="http://www.w3.org/2000/svg">
<path d="M0.559937 -0.00012207H248.44V247.88H0.559937V-0.00012207Z" fill="white"/>
<path d="M151.518 79.8391C151.518 90.7459 145.074 100.165 135.657 104.627C133.425 105.62 132.185 107.85 132.185 110.082V111.567H116.571V110.082C116.571 107.85 115.331 105.62 113.098 104.627C103.679 100.165 96.9845 90.4984 97.2345 79.3442C97.482 65.2128 108.636 53.811 122.518 52.8211C138.382 51.8287 151.518 64.2228 151.518 79.8391Z" fill="white"/>
<path d="M178.785 66.4567C183.987 66.4567 188.205 70.6763 188.205 75.8785C188.205 81.0807 183.987 85.2979 178.785 85.2979C173.583 85.2979 169.366 81.0807 169.366 75.8785C169.366 70.6763 173.583 66.4567 178.785 66.4567Z" fill="#FAE12C"/>
<path d="M70.2138 86.747C73.6835 86.747 76.4084 89.4719 76.4084 92.9416C76.4084 96.4114 73.6835 99.1411 70.2138 99.1411C66.744 99.1411 64.0143 96.4114 64.0143 92.9416C64.0143 89.4719 66.744 86.747 70.2138 86.747Z" fill="#FAE12C"/>
<path d="M174.076 173.524V185.918L124.499 195.34V182.943L174.076 173.524Z" fill="#FAE12C"/>
<path d="M174.076 145.729V173.492L124.499 182.912V127.138L140.116 151.929L174.076 145.484V145.729Z" fill="white"/>
<path d="M124.497 182.943V195.34L74.923 185.918V173.524L124.497 182.943Z" fill="#FAE12C"/>
<path d="M124.497 127.138V182.912L74.923 173.492V145.484L109.128 151.929L124.497 127.138Z" fill="white"/>
<path d="M174.076 117.72L189.692 142.508C189.692 142.508 140.116 151.678 140.116 151.928L124.499 127.137L174.076 117.72Z" fill="#FAE12C"/>
<path d="M124.499 127.137L108.883 151.928C108.883 151.928 59.3065 142.753 59.3065 142.508L74.9254 117.72L124.499 127.137Z" fill="#FAE12C"/>
<path d="M116.814 111.555H132.431V117.754H116.814V111.555Z" fill="#FAE12C"/>
<path d="M190.433 99.1496C191.666 99.1496 192.666 100.147 192.666 101.379C192.666 102.612 191.666 103.609 190.433 103.609C189.201 103.609 188.203 102.612 188.203 101.379C188.203 100.147 189.201 99.1496 190.433 99.1496Z" fill="#112152"/>
<path d="M162.424 92.9602C163.655 92.9602 164.654 93.9624 164.654 95.1925C164.654 96.4226 163.655 97.4248 162.424 97.4248C161.192 97.4248 160.192 96.4226 160.192 95.1925C160.192 93.9624 161.192 92.9602 162.424 92.9602Z" fill="#112152"/>
<path d="M157.717 54.2659C158.949 54.2659 159.947 55.2632 159.947 56.4957C159.947 57.7283 158.949 58.7256 157.717 58.7256C156.484 58.7256 155.484 57.7283 155.484 56.4957C155.484 55.2632 156.484 54.2659 157.717 54.2659Z" fill="#112152"/>
<path d="M83.3526 55.7912C84.5852 55.7912 85.5824 56.791 85.5824 58.0211C85.5824 59.2537 84.5852 60.2534 83.3526 60.2534C82.12 60.2534 81.1227 59.2537 81.1227 58.0211C81.1227 56.791 82.12 55.7912 83.3526 55.7912Z" fill="#112152"/>
<path d="M60.2975 111.518C61.5301 111.518 62.5298 112.52 62.5298 113.751C62.5298 114.981 61.5301 115.983 60.2975 115.983C59.065 115.983 58.0677 114.981 58.0677 113.751C58.0677 112.52 59.065 111.518 60.2975 111.518Z" fill="#112152"/>
<path d="M124.499 196.81C123.756 196.81 123.014 196.315 123.014 195.57C122.764 194.828 123.509 193.835 124.251 193.835L172.588 184.663V145.746C172.588 145.004 173.333 144.261 174.075 144.261C174.818 144.261 175.563 145.004 175.563 145.746V185.903C175.563 186.648 175.068 187.391 174.323 187.391L124.749 196.81H124.499Z" fill="#112152"/>
<path d="M126.979 128.172L140.611 150.233L186.965 141.556L173.334 119.496L126.979 128.172ZM139.869 153.453C139.371 153.453 138.876 153.206 138.631 152.711L123.015 127.922C122.765 127.427 122.765 126.932 123.015 126.435C123.26 125.938 123.757 125.693 124.252 125.443L173.829 116.026C174.574 116.026 175.069 116.271 175.316 116.768L190.933 141.556C191.18 142.051 191.18 142.549 190.933 143.044C190.685 143.539 190.19 143.789 189.693 144.034L140.116 153.453C140.116 153.453 140.116 153.453 139.869 153.453Z" fill="#112152"/>
<path d="M118.304 116.25H130.696V110.055C130.696 107.08 132.431 104.353 135.16 103.113C144.33 98.8986 150.032 89.7292 150.032 79.8124C150.032 65.6834 138.63 54.2817 124.499 54.2817C124.004 54.2817 123.259 54.2817 122.764 54.2817C109.627 55.0242 99.2181 66.1809 98.9681 79.3174C98.7182 89.4792 104.668 98.8986 113.84 103.113C116.569 104.353 118.304 107.08 118.304 110.055V116.25ZM132.183 119.225H116.569C115.824 119.225 115.08 118.482 115.08 117.74V110.055C115.08 108.32 114.09 106.585 112.6 106.088C102.19 101.378 95.4983 90.9691 95.7458 79.5649C95.9933 64.691 107.892 52.5468 122.516 51.5544C123.259 51.5544 123.756 51.5544 124.499 51.5544C140.365 51.5544 153.252 64.446 153.252 80.3074C153.252 91.464 146.56 101.626 136.395 106.335C134.911 107.08 133.921 108.565 133.921 110.3V117.985C133.921 118.482 133.176 119.225 132.183 119.225Z" fill="#112152"/>
<path d="M144.826 82.2998C144.084 82.2998 143.339 81.5549 143.339 80.81C143.339 75.6053 141.109 70.6482 137.392 66.9309C133.425 63.2137 128.468 61.4788 123.26 61.9738C113.596 62.7187 105.909 70.6482 105.662 80.5649C105.662 81.3074 104.919 82.0499 104.174 82.0499C103.429 82.0499 102.689 81.3074 102.689 80.5649C102.934 69.1608 111.859 59.7439 123.26 58.999C129.458 58.504 135.162 60.7339 139.622 64.9486C144.084 69.1608 146.561 74.8629 146.561 81.0599C146.561 81.8048 145.819 82.2998 144.826 82.2998Z" fill="#112152"/>
<path d="M119.788 76.6159C118.053 76.6159 116.568 78.1008 116.568 79.5882C116.568 81.323 118.053 82.8104 119.788 82.8104C121.523 82.8104 123.013 81.323 123.013 79.5882C123.013 78.1008 121.523 76.6159 119.788 76.6159ZM119.788 86.0327C116.318 86.0327 113.593 83.3054 113.593 79.8356C113.593 76.3659 116.318 73.6386 119.788 73.6386C123.258 73.6386 125.985 76.3659 125.985 79.8356C125.985 83.3054 123.258 86.0327 119.788 86.0327Z" fill="#112152"/>
<path d="M129.21 76.6159C127.475 76.6159 125.988 78.1008 125.988 79.5882C125.988 81.323 127.475 82.8104 129.21 82.8104C130.947 82.8104 132.432 81.323 132.432 79.5882C132.185 78.1008 130.947 76.6159 129.21 76.6159ZM129.21 86.0327C125.74 86.0327 123.015 83.3054 123.015 79.8356C123.015 76.3659 125.74 73.6386 129.21 73.6386C132.682 73.6386 135.407 76.3659 135.407 79.8356C135.407 83.3054 132.682 86.0327 129.21 86.0327Z" fill="#112152"/>
<path d="M124.5 104.591C123.758 104.591 123.015 103.849 123.015 103.104V79.8031C123.015 79.0581 123.758 78.3181 124.5 78.3181C125.245 78.3181 125.988 79.0581 125.988 79.8031V103.104C125.988 103.849 125.245 104.591 124.5 104.591Z" fill="#112152"/>
<path d="M124.5 196.81H124.253L74.6763 187.391C73.9338 187.143 73.4364 186.648 73.4364 185.903V145.746C73.4364 145.004 74.1813 144.261 74.9263 144.261C75.6687 144.261 76.4112 145.004 76.4112 145.746V184.663L123.015 193.34V127.155C123.015 126.412 123.758 125.67 124.5 125.67C125.245 125.67 125.988 126.412 125.988 127.155V195.325C125.988 195.82 125.74 196.315 125.493 196.565C125.245 196.565 124.75 196.81 124.5 196.81Z" fill="#112152"/>
<path d="M124.499 184.439C123.756 184.439 123.014 183.942 123.014 183.2C122.764 182.455 123.509 181.465 124.251 181.465L173.828 172.043C174.573 171.795 175.563 172.54 175.563 173.283C175.81 174.025 175.068 175.02 174.323 175.02L124.749 184.439H124.499Z" fill="#112152"/>
<path d="M124.498 184.439H124.25L74.6739 175.02C73.9314 174.77 73.1889 174.025 73.434 173.283C73.6839 172.54 74.4263 171.795 75.1712 172.043L124.748 181.465C125.49 181.71 126.233 182.455 125.985 183.2C125.985 183.942 125.243 184.439 124.498 184.439Z" fill="#112152"/>
<path d="M62.0317 141.556L108.386 150.233L122.018 128.172L75.6656 119.496L62.0317 141.556ZM109.128 153.453H108.881L59.3043 144.034C58.8093 144.034 58.3143 143.539 58.0669 143.044C57.8169 142.549 57.8169 142.051 58.0669 141.556L73.6833 116.768C73.9308 116.271 74.6732 116.026 75.1706 116.026L124.747 125.443C125.242 125.443 125.737 125.938 125.985 126.435C126.232 126.932 126.232 127.427 125.985 127.922L110.368 152.711C110.121 153.206 109.626 153.453 109.128 153.453Z" fill="#112152"/>
<path d="M74.9238 119.225C74.1789 119.225 73.434 118.73 73.434 117.985C73.1889 117.242 73.9314 116.25 74.6739 116.25L99.4622 111.54C100.207 111.295 101.197 112.035 101.197 112.78C101.197 113.525 100.702 114.515 99.9571 114.515L75.1712 119.225H74.9238Z" fill="#112152"/>
<path d="M174.077 119.225H173.829L149.041 114.515C148.298 114.27 147.553 113.525 147.801 112.78C148.048 112.035 148.793 111.295 149.538 111.54L174.324 116.25C175.069 116.5 175.812 117.242 175.564 117.985C175.564 118.73 174.819 119.225 174.077 119.225Z" fill="#112152"/>
<path d="M65.7525 184.439C65.01 184.439 64.2675 183.695 64.2675 182.95V158.164C64.2675 157.419 65.01 156.674 65.7525 156.674C66.4974 156.674 67.2423 157.419 67.2423 158.164V182.95C67.2423 183.695 66.4974 184.439 65.7525 184.439Z" fill="#112152"/>
<path d="M56.3338 190.624C55.5889 190.624 54.8439 189.882 54.8439 189.137V176.745C54.8439 176 55.5889 175.255 56.3338 175.255C57.0763 175.255 57.8188 176 57.8188 176.745V189.137C57.8188 189.882 57.0763 190.624 56.3338 190.624Z" fill="#112152"/>
<path d="M183.494 184.439C182.75 184.439 182.007 183.695 182.007 182.95V158.164C182.007 157.419 182.75 156.674 183.494 156.674C184.239 156.674 184.982 157.419 184.982 158.164V182.95C184.982 183.695 184.239 184.439 183.494 184.439Z" fill="#112152"/>
<path d="M192.665 190.624C191.923 190.624 191.178 189.882 191.178 189.137V176.745C191.178 176 191.923 175.255 192.665 175.255C193.408 175.255 194.152 176 194.152 176.745V189.137C194.152 189.882 193.408 190.624 192.665 190.624Z" fill="#112152"/>
<path d="M132.184 113.04H116.57C115.826 113.04 115.081 112.295 115.081 111.55C115.081 110.807 115.826 110.065 116.57 110.065H132.184C132.927 110.065 133.672 110.807 133.672 111.55C133.922 112.295 133.177 113.04 132.184 113.04Z" fill="#112152"/>
<path d="M70.2147 88.2201C67.7349 88.2201 65.5051 90.2025 65.5051 92.9274C65.5051 95.6571 67.485 97.637 70.2147 97.637C72.9396 97.637 74.9244 95.6571 74.9244 92.9274C74.9244 90.2025 72.9396 88.2201 70.2147 88.2201ZM70.2147 100.612C66 100.612 62.5303 97.142 62.5303 92.9274C62.5303 88.7151 66 85.2453 70.2147 85.2453C74.427 85.2453 77.8968 88.7151 77.8968 92.9274C77.8968 97.142 74.427 100.612 70.2147 100.612Z" fill="#112152"/>
<path d="M178.784 68.1779C174.572 68.1779 171.102 71.6476 171.102 75.8623C171.102 80.077 174.572 83.5468 178.784 83.5468C182.999 83.5468 186.468 80.077 186.468 75.8623C186.468 71.6476 182.999 68.1779 178.784 68.1779ZM178.784 86.769C172.837 86.769 167.877 81.8119 167.877 75.8623C167.877 69.9128 172.837 64.9556 178.784 64.9556C184.734 64.9556 189.691 69.9128 189.691 75.8623C189.691 81.8119 184.734 86.769 178.784 86.769Z" fill="#112152"/>
<path d="M151.518 79.8391C151.518 90.7459 145.074 100.165 135.657 104.627C133.425 105.62 132.185 107.85 132.185 110.082V111.567H116.571V110.082C116.571 107.85 115.331 105.62 113.098 104.627C103.679 100.165 96.9845 90.4984 97.2345 79.3442C97.482 65.2128 108.636 53.811 122.518 52.8211C138.382 51.8287 151.518 64.2228 151.518 79.8391Z" fill="white"/>
<path d="M178.785 66.4567C183.987 66.4567 188.205 70.6763 188.205 75.8785C188.205 81.0807 183.987 85.2979 178.785 85.2979C173.583 85.2979 169.366 81.0807 169.366 75.8785C169.366 70.6763 173.583 66.4567 178.785 66.4567Z" fill="#FAE12C"/>
<path d="M70.2138 86.747C73.6835 86.747 76.4084 89.4719 76.4084 92.9416C76.4084 96.4114 73.6835 99.1411 70.2138 99.1411C66.744 99.1411 64.0143 96.4114 64.0143 92.9416C64.0143 89.4719 66.744 86.747 70.2138 86.747Z" fill="#FAE12C"/>
<path d="M174.076 173.524V185.918L124.499 195.34V182.943L174.076 173.524Z" fill="#FAE12C"/>
<path d="M174.076 145.729V173.492L124.499 182.912V127.138L140.116 151.929L174.076 145.484V145.729Z" fill="white"/>
<path d="M124.497 182.943V195.34L74.923 185.918V173.524L124.497 182.943Z" fill="#FAE12C"/>
<path d="M124.497 127.138V182.912L74.923 173.492V145.484L109.128 151.929L124.497 127.138Z" fill="white"/>
<path d="M174.076 117.72L189.692 142.508C189.692 142.508 140.116 151.678 140.116 151.928L124.499 127.137L174.076 117.72Z" fill="#FAE12C"/>
<path d="M124.499 127.137L108.883 151.928C108.883 151.928 59.3065 142.753 59.3065 142.508L74.9254 117.72L124.499 127.137Z" fill="#FAE12C"/>
<path d="M116.814 111.555H132.431V117.754H116.814V111.555Z" fill="#FAE12C"/>
<path d="M190.433 99.1496C191.666 99.1496 192.666 100.147 192.666 101.379C192.666 102.612 191.666 103.609 190.433 103.609C189.201 103.609 188.203 102.612 188.203 101.379C188.203 100.147 189.201 99.1496 190.433 99.1496Z" fill="#112152"/>
<path d="M162.424 92.9602C163.655 92.9602 164.654 93.9624 164.654 95.1925C164.654 96.4226 163.655 97.4248 162.424 97.4248C161.192 97.4248 160.192 96.4226 160.192 95.1925C160.192 93.9624 161.192 92.9602 162.424 92.9602Z" fill="#112152"/>
<path d="M157.717 54.2659C158.949 54.2659 159.947 55.2632 159.947 56.4957C159.947 57.7283 158.949 58.7256 157.717 58.7256C156.484 58.7256 155.484 57.7283 155.484 56.4957C155.484 55.2632 156.484 54.2659 157.717 54.2659Z" fill="#112152"/>
<path d="M83.3526 55.7912C84.5852 55.7912 85.5824 56.791 85.5824 58.0211C85.5824 59.2537 84.5852 60.2534 83.3526 60.2534C82.12 60.2534 81.1227 59.2537 81.1227 58.0211C81.1227 56.791 82.12 55.7912 83.3526 55.7912Z" fill="#112152"/>
<path d="M60.2975 111.518C61.5301 111.518 62.5298 112.52 62.5298 113.751C62.5298 114.981 61.5301 115.983 60.2975 115.983C59.065 115.983 58.0677 114.981 58.0677 113.751C58.0677 112.52 59.065 111.518 60.2975 111.518Z" fill="#112152"/>
<path d="M124.499 196.81C123.756 196.81 123.014 196.315 123.014 195.57C122.764 194.828 123.509 193.835 124.251 193.835L172.588 184.663V145.746C172.588 145.004 173.333 144.261 174.075 144.261C174.818 144.261 175.563 145.004 175.563 145.746V185.903C175.563 186.648 175.068 187.391 174.323 187.391L124.749 196.81H124.499Z" fill="#112152"/>
<path d="M126.979 128.172L140.611 150.233L186.965 141.556L173.334 119.496L126.979 128.172ZM139.869 153.453C139.371 153.453 138.876 153.206 138.631 152.711L123.015 127.922C122.765 127.427 122.765 126.932 123.015 126.435C123.26 125.938 123.757 125.693 124.252 125.443L173.829 116.026C174.574 116.026 175.069 116.271 175.316 116.768L190.933 141.556C191.18 142.051 191.18 142.549 190.933 143.044C190.685 143.539 190.19 143.789 189.693 144.034L140.116 153.453C140.116 153.453 140.116 153.453 139.869 153.453Z" fill="#112152"/>
<path d="M118.304 116.25H130.696V110.055C130.696 107.08 132.431 104.353 135.16 103.113C144.33 98.8986 150.032 89.7292 150.032 79.8124C150.032 65.6834 138.63 54.2817 124.499 54.2817C124.004 54.2817 123.259 54.2817 122.764 54.2817C109.627 55.0242 99.2181 66.1809 98.9681 79.3174C98.7182 89.4792 104.668 98.8986 113.84 103.113C116.569 104.353 118.304 107.08 118.304 110.055V116.25ZM132.183 119.225H116.569C115.824 119.225 115.08 118.482 115.08 117.74V110.055C115.08 108.32 114.09 106.585 112.6 106.088C102.19 101.378 95.4983 90.9691 95.7458 79.5649C95.9933 64.691 107.892 52.5468 122.516 51.5544C123.259 51.5544 123.756 51.5544 124.499 51.5544C140.365 51.5544 153.252 64.446 153.252 80.3074C153.252 91.464 146.56 101.626 136.395 106.335C134.911 107.08 133.921 108.565 133.921 110.3V117.985C133.921 118.482 133.176 119.225 132.183 119.225Z" fill="#112152"/>
<path d="M144.826 82.2998C144.084 82.2998 143.339 81.5549 143.339 80.81C143.339 75.6053 141.109 70.6482 137.392 66.9309C133.425 63.2137 128.468 61.4788 123.26 61.9738C113.596 62.7187 105.909 70.6482 105.662 80.5649C105.662 81.3074 104.919 82.0499 104.174 82.0499C103.429 82.0499 102.689 81.3074 102.689 80.5649C102.934 69.1608 111.859 59.7439 123.26 58.999C129.458 58.504 135.162 60.7339 139.622 64.9486C144.084 69.1608 146.561 74.8629 146.561 81.0599C146.561 81.8048 145.819 82.2998 144.826 82.2998Z" fill="#112152"/>
<path d="M119.788 76.6159C118.053 76.6159 116.568 78.1008 116.568 79.5882C116.568 81.323 118.053 82.8104 119.788 82.8104C121.523 82.8104 123.013 81.323 123.013 79.5882C123.013 78.1008 121.523 76.6159 119.788 76.6159ZM119.788 86.0327C116.318 86.0327 113.593 83.3054 113.593 79.8356C113.593 76.3659 116.318 73.6386 119.788 73.6386C123.258 73.6386 125.985 76.3659 125.985 79.8356C125.985 83.3054 123.258 86.0327 119.788 86.0327Z" fill="#112152"/>
<path d="M129.21 76.6159C127.475 76.6159 125.988 78.1008 125.988 79.5882C125.988 81.323 127.475 82.8104 129.21 82.8104C130.947 82.8104 132.432 81.323 132.432 79.5882C132.185 78.1008 130.947 76.6159 129.21 76.6159ZM129.21 86.0327C125.74 86.0327 123.015 83.3054 123.015 79.8356C123.015 76.3659 125.74 73.6386 129.21 73.6386C132.682 73.6386 135.407 76.3659 135.407 79.8356C135.407 83.3054 132.682 86.0327 129.21 86.0327Z" fill="#112152"/>
<path d="M124.5 104.591C123.758 104.591 123.015 103.849 123.015 103.104V79.8031C123.015 79.0581 123.758 78.3181 124.5 78.3181C125.245 78.3181 125.988 79.0581 125.988 79.8031V103.104C125.988 103.849 125.245 104.591 124.5 104.591Z" fill="#112152"/>
<path d="M124.5 196.81H124.253L74.6763 187.391C73.9338 187.143 73.4364 186.648 73.4364 185.903V145.746C73.4364 145.004 74.1813 144.261 74.9263 144.261C75.6687 144.261 76.4112 145.004 76.4112 145.746V184.663L123.015 193.34V127.155C123.015 126.412 123.758 125.67 124.5 125.67C125.245 125.67 125.988 126.412 125.988 127.155V195.325C125.988 195.82 125.74 196.315 125.493 196.565C125.245 196.565 124.75 196.81 124.5 196.81Z" fill="#112152"/>
<path d="M124.499 184.439C123.756 184.439 123.014 183.942 123.014 183.2C122.764 182.455 123.509 181.465 124.251 181.465L173.828 172.043C174.573 171.795 175.563 172.54 175.563 173.283C175.81 174.025 175.068 175.02 174.323 175.02L124.749 184.439H124.499Z" fill="#112152"/>
<path d="M124.498 184.439H124.25L74.6739 175.02C73.9314 174.77 73.1889 174.025 73.434 173.283C73.6839 172.54 74.4263 171.795 75.1712 172.043L124.748 181.465C125.49 181.71 126.233 182.455 125.985 183.2C125.985 183.942 125.243 184.439 124.498 184.439Z" fill="#112152"/>
<path d="M62.0317 141.556L108.386 150.233L122.018 128.172L75.6656 119.496L62.0317 141.556ZM109.128 153.453H108.881L59.3043 144.034C58.8093 144.034 58.3143 143.539 58.0669 143.044C57.8169 142.549 57.8169 142.051 58.0669 141.556L73.6833 116.768C73.9308 116.271 74.6732 116.026 75.1706 116.026L124.747 125.443C125.242 125.443 125.737 125.938 125.985 126.435C126.232 126.932 126.232 127.427 125.985 127.922L110.368 152.711C110.121 153.206 109.626 153.453 109.128 153.453Z" fill="#112152"/>
</svg>
