<svg width="250" height="250" viewBox="0 0 250 250" fill="none" xmlns="http://www.w3.org/2000/svg">
<path d="M0.559937 0.879761H249.44V249.76H0.559937V0.879761Z" fill="white"/>
<path d="M185.728 59.8772C189.212 59.8772 191.948 62.613 191.948 66.0967C191.948 69.5829 189.212 72.3213 185.728 72.3213C182.244 72.3213 179.504 69.5829 179.504 66.0967C179.504 62.613 182.244 59.8772 185.728 59.8772Z" fill="#FAE12C"/>
<path d="M71.2412 176.829C75.9157 176.829 79.7046 180.615 79.7046 185.29C79.7046 189.962 75.9157 193.75 71.2412 193.75C66.5691 193.75 62.7802 189.962 62.7802 185.29C62.7802 180.615 66.5691 176.829 71.2412 176.829Z" fill="#FAE12C"/>
<path d="M129.974 164.896V165.89C129.974 169.126 127.487 171.615 124.251 171.615H122.509C119.274 171.615 116.784 169.126 116.784 165.89V164.896H117.035H129.974Z" fill="white"/>
<path d="M135.454 158.195V158.941C135.454 162.176 132.964 164.666 129.732 164.666H117.039C113.801 164.666 111.311 162.176 111.311 158.941V158.195H135.454Z" fill="#FAE12C"/>
<path d="M111.311 151.929H135.454V158.154H111.311V151.929Z" fill="#FAE12C"/>
<path d="M184.979 142.485C186.217 142.485 187.218 143.486 187.218 144.724C187.218 145.961 186.217 146.962 184.979 146.962C183.742 146.962 182.74 145.961 182.74 144.724C182.74 143.486 183.742 142.485 184.979 142.485Z" fill="#112152"/>
<path d="M178.759 183.059C179.994 183.059 181 184.063 181 185.301C181 186.536 179.994 187.54 178.759 187.54C177.521 187.54 176.518 186.536 176.518 185.301C176.518 184.063 177.521 183.059 178.759 183.059Z" fill="#112152"/>
<path d="M163.326 56.8938C164.571 56.8938 165.565 58.1387 165.565 59.3811C165.565 60.6261 164.32 61.6226 163.075 61.6226C161.835 61.6226 160.836 60.3776 160.836 59.1327C160.836 57.8903 161.835 56.8938 163.326 56.8938Z" fill="#112152"/>
<path d="M159.592 110.132C159.592 125.811 149.64 139.249 135.452 144.229V151.942H111.309V144.229C97.3717 139.249 87.1689 125.811 87.1689 110.132C87.1689 90.2206 103.348 74.0442 123.256 74.0442C143.167 74.0442 159.592 90.2206 159.592 110.132Z" fill="white"/>
<path d="M142.921 102.174L114.052 130.546L122.762 112.625H112.556L121.268 93.2135H132.964L128.735 102.174H142.921Z" fill="#FAE12C"/>
<path d="M69.9979 94.2162C71.2428 94.2162 72.2392 95.4586 72.2392 96.7035C72.2392 97.9484 70.9942 98.9424 69.7493 98.9424C68.5044 98.9424 67.5104 97.6999 67.5104 96.4549C67.5104 95.21 68.5045 94.2162 69.9979 94.2162Z" fill="#112152"/>
<path d="M62.0334 63.1053C63.2783 63.1053 64.2722 64.3477 64.2722 65.5926C64.2722 66.8375 63.0298 67.834 61.7873 67.834C60.5424 67.834 59.5435 66.589 59.5435 65.3441C59.7945 64.0992 60.7885 63.1053 62.0334 63.1053Z" fill="#112152"/>
<path d="M59.0463 159.693C60.2912 159.693 61.2852 160.935 61.2852 162.18C61.2852 163.425 60.0427 164.419 58.8002 164.419C57.5553 164.419 56.559 163.177 56.559 161.932C56.559 160.438 57.8014 159.442 59.0463 159.693Z" fill="#112152"/>
<path d="M129.731 166.39C128.983 166.39 128.235 165.642 128.235 164.896C128.235 164.148 128.983 163.403 129.731 163.403C131.969 163.403 133.962 161.661 133.962 159.171V158.426C133.962 157.678 134.705 156.932 135.453 156.932C136.201 156.932 136.947 157.678 136.947 158.426V159.171C136.947 163.154 133.711 166.39 129.731 166.39Z" fill="#112152"/>
<path d="M117.036 166.39C113.051 166.39 109.818 163.154 109.818 159.171V158.426C109.818 157.678 110.566 156.932 111.309 156.932C112.057 156.932 112.805 157.678 112.805 158.426V159.171C112.805 161.413 114.547 163.403 117.036 163.403C117.782 163.403 118.527 164.148 118.527 164.896C118.527 165.642 118.03 166.39 117.036 166.39Z" fill="#112152"/>
<path d="M118.527 166.376C118.778 168.367 120.52 169.86 122.51 169.86H124.252C126.243 169.86 127.987 168.367 128.233 166.376H118.527ZM124.252 172.847H122.51C118.527 172.847 115.294 169.609 115.294 165.628V164.634C115.294 163.886 116.037 163.141 116.785 163.141H129.975C130.723 163.141 131.471 163.886 131.471 164.634V165.628C131.471 169.611 128.233 172.847 124.252 172.847Z" fill="#112152"/>
<path d="M135.452 153.419H111.309C110.566 153.419 109.818 152.673 109.818 151.925C109.818 151.18 110.566 150.432 111.309 150.432H135.452C136.2 150.432 136.945 151.18 136.945 151.925C136.945 152.673 136.448 153.419 135.452 153.419Z" fill="#112152"/>
<path d="M113.052 156.7H133.962V144.256C133.962 143.508 134.459 143.011 134.956 142.762C148.642 137.783 158.102 124.841 158.102 110.158C158.102 90.9951 142.423 75.5642 123.506 75.5642C104.343 75.5642 88.9142 90.9951 88.9142 110.158C88.9142 124.841 98.1207 138.033 112.058 142.762C112.555 143.011 113.052 143.508 113.052 144.256V156.7ZM135.453 159.687H111.31C110.567 159.687 109.819 158.939 109.819 158.193V145.249C95.3848 139.775 85.679 125.589 85.679 110.158C85.679 89.2532 102.601 72.3289 123.506 72.3289C144.413 72.3289 161.335 89.2532 161.335 110.158C161.335 125.838 151.629 139.775 137.195 145.249V158.193C136.946 159.187 136.449 159.687 135.453 159.687Z" fill="#112152"/>
<path d="M123.505 189.017C105.587 189.017 88.9136 182.049 76.221 169.354C66.0157 159.151 59.2967 145.962 57.3038 131.525C57.3038 130.779 57.8008 129.783 58.5488 129.783C59.2967 129.783 60.2907 130.282 60.2907 131.028C62.2835 144.717 68.5031 157.161 78.2089 167.115C103.1 192.003 143.416 192.003 168.305 167.115C168.804 166.618 169.798 166.618 170.546 167.115C171.043 167.612 171.043 168.608 170.546 169.354C158.102 182.049 141.426 189.017 123.505 189.017Z" fill="#112152"/>
<path d="M188.216 114.375C187.47 114.375 186.723 113.878 186.723 113.132C184.73 99.4431 178.51 86.9989 168.804 77.0446C143.913 52.1564 103.597 52.1564 78.7084 77.0446C78.2089 77.5416 77.215 77.5416 76.4671 77.0446C75.9701 76.5452 75.9701 75.5513 76.4671 74.8033C89.1622 62.1107 105.836 55.1432 123.756 55.1432C141.675 55.1432 158.35 62.1107 171.043 74.8033C181.246 85.0086 187.967 98.1981 189.958 112.633C189.709 113.629 189.212 114.375 188.216 114.375Z" fill="#112152"/>
<path d="M169.549 183.052C168.803 183.052 168.055 182.306 168.055 181.558V169.862H156.359C155.611 169.862 154.866 169.114 154.866 168.369C154.866 167.621 155.611 166.875 156.359 166.875H169.549C170.294 166.875 171.042 167.621 171.042 168.369V181.558C171.29 182.555 170.545 183.052 169.549 183.052Z" fill="#112152"/>
<path d="M90.4049 77.5469H77.2153C76.4674 77.5469 75.722 76.8015 75.722 76.0535V62.8614C75.722 62.116 76.4674 61.3705 77.2153 61.3705C77.9633 61.3705 78.7087 62.116 78.7087 62.8614V74.5602H90.4049C91.1528 74.5602 91.9008 75.3081 91.9008 76.0535C91.9008 76.8015 91.4013 77.5469 90.4049 77.5469Z" fill="#112152"/>
<path d="M71.2425 178.055C67.2617 178.055 64.2724 181.291 64.2724 185.023C64.2724 188.757 67.5102 191.993 71.2425 191.993C75.2232 191.993 78.21 188.757 78.21 185.023C78.21 181.291 75.2232 178.055 71.2425 178.055ZM71.2425 195.228C65.7683 195.228 61.0396 190.748 61.0396 185.023C61.0396 179.549 65.5174 174.82 71.2425 174.82C76.7191 174.82 81.4477 179.3 81.4477 185.023C81.4477 190.748 76.9651 195.228 71.2425 195.228Z" fill="#112152"/>
<path d="M185.729 61.6008C183.239 61.6008 181 63.5911 181 66.3294C181 68.8167 182.988 71.0581 185.729 71.0581C188.465 71.0581 190.455 69.0652 190.455 66.3294C190.455 63.5911 188.217 61.6008 185.729 61.6008ZM185.729 74.0449C181.498 74.0449 178.014 70.5611 178.014 66.3294C178.014 62.0977 181.498 58.614 185.729 58.614C189.958 58.614 193.442 62.0977 193.442 66.3294C193.442 70.5611 189.958 74.0449 185.729 74.0449Z" fill="#112152"/>
<path d="M115.044 111.113H122.759C123.256 111.113 123.756 111.364 124.004 111.861C124.253 112.358 124.253 112.855 124.004 113.355L119.275 123.309L138.935 103.897H128.484C127.987 103.897 127.488 103.649 127.239 103.15C126.988 102.653 126.988 102.156 127.239 101.656L130.475 95.1856H122.262L115.044 111.113ZM114.05 132.27C113.799 132.27 113.302 132.269 113.051 132.021C112.554 131.522 112.308 130.776 112.554 130.028L120.269 114.1H112.554C112.057 114.1 111.56 113.852 111.309 113.355C111.063 112.855 111.063 112.358 111.309 111.861L120.021 92.6982C120.269 92.1988 120.769 91.7018 121.514 91.7018H133.213C133.71 91.7018 134.207 91.9503 134.458 92.4498C134.704 92.9468 134.704 93.4437 134.458 93.9407L131.22 100.411H142.919C143.667 100.411 144.164 100.911 144.412 101.408C144.661 101.905 144.412 102.653 144.164 103.15L115.044 131.77C114.795 132.021 114.296 132.27 114.05 132.27Z" fill="#112152"/>
<path d="M185.728 59.8772C189.212 59.8772 191.948 62.613 191.948 66.0967C191.948 69.5829 189.212 72.3213 185.728 72.3213C182.244 72.3213 179.504 69.5829 179.504 66.0967C179.504 62.613 182.244 59.8772 185.728 59.8772Z" fill="#FAE12C"/>
<path d="M71.2412 176.829C75.9157 176.829 79.7046 180.615 79.7046 185.29C79.7046 189.962 75.9157 193.75 71.2412 193.75C66.5691 193.75 62.7802 189.962 62.7802 185.29C62.7802 180.615 66.5691 176.829 71.2412 176.829Z" fill="#FAE12C"/>
<path d="M129.974 164.896V165.89C129.974 169.126 127.487 171.615 124.251 171.615H122.509C119.274 171.615 116.784 169.126 116.784 165.89V164.896H117.035H129.974Z" fill="white"/>
<path d="M135.454 158.195V158.941C135.454 162.176 132.964 164.666 129.732 164.666H117.039C113.801 164.666 111.311 162.176 111.311 158.941V158.195H135.454Z" fill="#FAE12C"/>
<path d="M111.311 151.929H135.454V158.154H111.311V151.929Z" fill="#FAE12C"/>
<path d="M184.979 142.485C186.217 142.485 187.218 143.486 187.218 144.724C187.218 145.961 186.217 146.962 184.979 146.962C183.742 146.962 182.74 145.961 182.74 144.724C182.74 143.486 183.742 142.485 184.979 142.485Z" fill="#112152"/>
<path d="M178.759 183.059C179.994 183.059 181 184.063 181 185.301C181 186.536 179.994 187.54 178.759 187.54C177.521 187.54 176.518 186.536 176.518 185.301C176.518 184.063 177.521 183.059 178.759 183.059Z" fill="#112152"/>
<path d="M163.326 56.8938C164.571 56.8938 165.565 58.1387 165.565 59.3811C165.565 60.6261 164.32 61.6226 163.075 61.6226C161.835 61.6226 160.836 60.3776 160.836 59.1327C160.836 57.8903 161.835 56.8938 163.326 56.8938Z" fill="#112152"/>
<path d="M159.592 110.132C159.592 125.811 149.64 139.249 135.452 144.229V151.942H111.309V144.229C97.3717 139.249 87.1689 125.811 87.1689 110.132C87.1689 90.2206 103.348 74.0442 123.256 74.0442C143.167 74.0442 159.592 90.2206 159.592 110.132Z" fill="white"/>
<path d="M142.921 102.174L114.052 130.546L122.762 112.625H112.556L121.268 93.2135H132.964L128.735 102.174H142.921Z" fill="#FAE12C"/>
<path d="M69.9979 94.2162C71.2428 94.2162 72.2392 95.4586 72.2392 96.7035C72.2392 97.9484 70.9942 98.9424 69.7493 98.9424C68.5044 98.9424 67.5104 97.6999 67.5104 96.4549C67.5104 95.21 68.5045 94.2162 69.9979 94.2162Z" fill="#112152"/>
<path d="M62.0334 63.1053C63.2783 63.1053 64.2722 64.3477 64.2722 65.5926C64.2722 66.8375 63.0298 67.834 61.7873 67.834C60.5424 67.834 59.5435 66.589 59.5435 65.3441C59.7945 64.0992 60.7885 63.1053 62.0334 63.1053Z" fill="#112152"/>
<path d="M59.0463 159.693C60.2912 159.693 61.2852 160.935 61.2852 162.18C61.2852 163.425 60.0427 164.419 58.8002 164.419C57.5553 164.419 56.559 163.177 56.559 161.932C56.559 160.438 57.8014 159.442 59.0463 159.693Z" fill="#112152"/>
<path d="M129.731 166.39C128.983 166.39 128.235 165.642 128.235 164.896C128.235 164.148 128.983 163.403 129.731 163.403C131.969 163.403 133.962 161.661 133.962 159.171V158.426C133.962 157.678 134.705 156.932 135.453 156.932C136.201 156.932 136.947 157.678 136.947 158.426V159.171C136.947 163.154 133.711 166.39 129.731 166.39Z" fill="#112152"/>
<path d="M117.036 166.39C113.051 166.39 109.818 163.154 109.818 159.171V158.426C109.818 157.678 110.566 156.932 111.309 156.932C112.057 156.932 112.805 157.678 112.805 158.426V159.171C112.805 161.413 114.547 163.403 117.036 163.403C117.782 163.403 118.527 164.148 118.527 164.896C118.527 165.642 118.03 166.39 117.036 166.39Z" fill="#112152"/>
<path d="M118.527 166.376C118.778 168.367 120.52 169.86 122.51 169.86H124.252C126.243 169.86 127.987 168.367 128.233 166.376H118.527ZM124.252 172.847H122.51C118.527 172.847 115.294 169.609 115.294 165.628V164.634C115.294 163.886 116.037 163.141 116.785 163.141H129.975C130.723 163.141 131.471 163.886 131.471 164.634V165.628C131.471 169.611 128.233 172.847 124.252 172.847Z" fill="#112152"/>
<path d="M135.452 153.419H111.309C110.566 153.419 109.818 152.673 109.818 151.925C109.818 151.18 110.566 150.432 111.309 150.432H135.452C136.2 150.432 136.945 151.18 136.945 151.925C136.945 152.673 136.448 153.419 135.452 153.419Z" fill="#112152"/>
<path d="M113.052 156.7H133.962V144.256C133.962 143.508 134.459 143.011 134.956 142.762C148.642 137.783 158.102 124.841 158.102 110.158C158.102 90.9951 142.423 75.5642 123.506 75.5642C104.343 75.5642 88.9142 90.9951 88.9142 110.158C88.9142 124.841 98.1207 138.033 112.058 142.762C112.555 143.011 113.052 143.508 113.052 144.256V156.7ZM135.453 159.687H111.31C110.567 159.687 109.819 158.939 109.819 158.193V145.249C95.3848 139.775 85.679 125.589 85.679 110.158C85.679 89.2533 102.601 72.3289 123.506 72.3289C144.413 72.3289 161.335 89.2533 161.335 110.158C161.335 125.838 151.629 139.775 137.195 145.249V158.193C136.946 159.187 136.449 159.687 135.453 159.687Z" fill="#112152"/>
<path d="M123.505 189.017C105.587 189.017 88.9136 182.049 76.221 169.354C66.0157 159.151 59.2967 145.962 57.3038 131.525C57.3038 130.779 57.8008 129.783 58.5488 129.783C59.2967 129.783 60.2907 130.282 60.2907 131.028C62.2835 144.717 68.5031 157.161 78.2089 167.115C103.1 192.003 143.416 192.003 168.305 167.115C168.804 166.618 169.798 166.618 170.546 167.115C171.043 167.612 171.043 168.608 170.546 169.354C158.102 182.049 141.426 189.017 123.505 189.017Z" fill="#112152"/>
<path d="M188.216 114.375C187.47 114.375 186.723 113.878 186.723 113.132C184.73 99.4431 178.51 86.9989 168.804 77.0446C143.913 52.1564 103.597 52.1564 78.7084 77.0446C78.2089 77.5416 77.215 77.5416 76.4671 77.0446C75.9701 76.5452 75.9701 75.5513 76.4671 74.8033C89.1622 62.1107 105.836 55.1432 123.756 55.1432C141.675 55.1432 158.35 62.1107 171.043 74.8033C181.246 85.0086 187.967 98.1981 189.958 112.633C189.709 113.629 189.212 114.375 188.216 114.375Z" fill="#112152"/>
<path d="M169.549 183.052C168.803 183.052 168.055 182.306 168.055 181.558V169.862H156.359C155.611 169.862 154.866 169.114 154.866 168.369C154.866 167.621 155.611 166.875 156.359 166.875H169.549C170.294 166.875 171.042 167.621 171.042 168.369V181.558C171.29 182.555 170.545 183.052 169.549 183.052Z" fill="#112152"/>
<path d="M90.4049 77.5469H77.2153C76.4674 77.5469 75.722 76.8015 75.722 76.0535V62.8614C75.722 62.116 76.4674 61.3705 77.2153 61.3705C77.9633 61.3705 78.7087 62.116 78.7087 62.8614V74.5602H90.4049C91.1528 74.5602 91.9008 75.3081 91.9008 76.0535C91.9008 76.8015 91.4013 77.5469 90.4049 77.5469Z" fill="#112152"/>
<path d="M71.2425 178.055C67.2617 178.055 64.2724 181.291 64.2724 185.023C64.2724 188.757 67.5102 191.993 71.2425 191.993C75.2232 191.993 78.21 188.757 78.21 185.023C78.21 181.291 75.2232 178.055 71.2425 178.055ZM71.2425 195.228C65.7683 195.228 61.0396 190.748 61.0396 185.023C61.0396 179.549 65.5174 174.82 71.2425 174.82C76.7191 174.82 81.4477 179.3 81.4477 185.023C81.4477 190.748 76.9651 195.228 71.2425 195.228Z" fill="#112152"/>
<path d="M185.729 61.6008C183.239 61.6008 181 63.5911 181 66.3294C181 68.8167 182.988 71.0581 185.729 71.0581C188.465 71.0581 190.455 69.0652 190.455 66.3294C190.455 63.5911 188.217 61.6008 185.729 61.6008ZM185.729 74.0449C181.498 74.0449 178.014 70.5611 178.014 66.3294C178.014 62.0977 181.498 58.614 185.729 58.614C189.958 58.614 193.442 62.0977 193.442 66.3294C193.442 70.5611 189.958 74.0449 185.729 74.0449Z" fill="#112152"/>
<path d="M115.044 111.113H122.759C123.256 111.113 123.756 111.364 124.004 111.861C124.253 112.358 124.253 112.855 124.004 113.355L119.275 123.309L138.935 103.897H128.484C127.987 103.897 127.488 103.649 127.239 103.15C126.988 102.653 126.988 102.156 127.239 101.656L130.475 95.1856H122.262L115.044 111.113ZM114.05 132.27C113.799 132.27 113.302 132.269 113.051 132.021C112.554 131.522 112.308 130.776 112.554 130.028L120.269 114.1H112.554C112.057 114.1 111.56 113.852 111.309 113.355C111.063 112.855 111.063 112.358 111.309 111.861L120.021 92.6982C120.269 92.1988 120.769 91.7018 121.514 91.7018H133.213C133.71 91.7018 134.207 91.9503 134.458 92.4498C134.704 92.9468 134.704 93.4437 134.458 93.9407L131.22 100.411H142.919C143.667 100.411 144.164 100.911 144.412 101.408C144.661 101.905 144.412 102.653 144.164 103.15L115.044 131.77C114.795 132.021 114.296 132.27 114.05 132.27Z" fill="#112152"/>
</svg>
