<svg width="249" height="249" viewBox="0 0 249 249" fill="none" xmlns="http://www.w3.org/2000/svg">
<path d="M0.559937 0.759766H248.56V248.76H0.559937V0.759766Z" fill="white"/>
<path d="M103.727 150.554C108.439 149.808 113.649 149.561 118.856 149.561C146.633 149.561 169.2 159.73 169.2 172.127C169.2 184.528 146.633 194.694 118.856 194.694C91.0797 194.694 68.5129 184.528 68.5129 172.127C68.5129 161.961 83.144 153.527 103.727 150.554Z" fill="white"/>
<path d="M69.5035 78.1364C75.5319 78.1364 80.4155 83.0224 80.4155 89.0484C80.4155 95.0769 75.5319 99.9604 69.5035 99.9604C63.4775 99.9604 58.5939 95.0769 58.5939 89.0484C58.5939 83.0224 63.4775 78.1364 69.5035 78.1364Z" fill="white"/>
<path d="M182.593 138.649C186.809 138.649 190.281 142.12 190.281 146.337C190.281 150.553 186.809 154.025 182.593 154.025C178.376 154.025 174.904 150.553 174.904 146.337C174.904 142.12 178.376 138.649 182.593 138.649Z" fill="white"/>
<path d="M103.728 163.449C104.223 163.449 104.473 163.449 104.968 163.449C111.416 163.449 116.625 166.673 116.625 170.392C116.625 174.113 111.416 177.334 104.968 177.334C98.5203 177.334 93.3132 174.113 93.3132 170.392C93.3132 166.92 97.7751 163.944 103.728 163.449Z" fill="#FAE12C"/>
<path d="M145.392 103.185L135.226 117.073V103.185H145.392Z" fill="#FAE12C"/>
<path d="M180.607 71.9366L162.502 94.5034L180.607 117.073H135.226L145.392 103.185V71.9366H180.607Z" fill="#FAE12C"/>
<path d="M103.728 62.7604H145.64C145.64 68.2176 145.64 98.7202 145.64 103.185C131.009 103.185 118.606 103.185 103.728 103.185C103.728 99.4655 103.728 67.97 103.728 62.7604Z" fill="#FAE12C"/>
<path d="M188.047 75.1626C189.281 75.1626 190.281 76.1605 190.281 77.3936C190.281 78.6268 189.281 79.6245 188.047 79.6245C186.814 79.6245 185.816 78.6268 185.816 77.3936C185.816 76.1605 186.814 75.1626 188.047 75.1626Z" fill="#112152"/>
<path d="M180.362 185.273C181.592 185.273 182.593 186.274 182.593 187.504C182.593 188.738 181.592 189.738 180.362 189.738C179.129 189.738 178.128 188.738 178.128 187.504C178.128 186.274 179.129 185.273 180.362 185.273Z" fill="#112152"/>
<path d="M164.983 126.496C166.216 126.496 167.216 127.494 167.216 128.727C167.216 129.96 166.216 130.96 164.983 130.96C163.75 130.96 162.752 129.96 162.752 128.727C162.752 127.494 163.75 126.496 164.983 126.496Z" fill="#112152"/>
<path d="M154.071 53.5835C155.304 53.5835 156.304 54.5837 156.304 55.8169C156.304 57.0476 155.304 58.0479 154.071 58.0479C152.838 58.0479 151.84 57.0476 151.84 55.8169C151.84 54.5837 152.838 53.5835 154.071 53.5835Z" fill="#112152"/>
<path d="M123.071 131.954C124.304 131.954 125.304 132.952 125.304 134.185C125.304 135.418 124.304 136.418 123.071 136.418C121.84 136.418 120.84 135.418 120.84 134.185C120.84 132.952 121.84 131.954 123.071 131.954Z" fill="#112152"/>
<path d="M88.8489 106.161C90.0796 106.161 91.0798 107.159 91.0798 108.392C91.0798 109.625 90.0796 110.623 88.8489 110.623C87.6157 110.623 86.6155 109.625 86.6155 108.392C86.6155 107.159 87.6157 106.161 88.8489 106.161Z" fill="#112152"/>
<path d="M82.6464 59.7837C83.8795 59.7837 84.8797 60.7839 84.8797 62.0171C84.8797 63.2502 83.8795 64.248 82.6464 64.248C81.4157 64.248 80.4154 63.2502 80.4154 62.0171C80.4154 60.7839 81.4157 59.7837 82.6464 59.7837Z" fill="#112152"/>
<path d="M67.2724 132.696C68.5055 132.696 69.5033 133.697 69.5033 134.927C69.5033 136.16 68.5055 137.161 67.2724 137.161C66.0392 137.161 65.0415 136.16 65.0415 134.927C65.0415 133.697 66.0392 132.696 67.2724 132.696Z" fill="#112152"/>
<path d="M65.7844 188.497C67.0151 188.497 68.0154 189.495 68.0154 190.728C68.0154 191.961 67.0151 192.959 65.7844 192.959C64.5513 192.959 63.5511 191.961 63.5511 190.728C63.5511 189.495 64.5513 188.497 65.7844 188.497Z" fill="#112152"/>
<path d="M180.607 118.561H135.226C134.48 118.561 133.735 117.818 133.735 117.073V102.937C133.735 102.194 134.48 101.449 135.226 101.449C135.968 101.449 136.711 102.194 136.711 102.937V115.337H177.135L161.016 95.2489C160.521 94.7537 160.521 93.7608 161.016 93.2631L177.135 73.1773H145.392C144.647 73.1773 143.904 72.432 143.904 71.6892C143.904 70.9464 144.647 70.201 145.392 70.201H180.607C181.102 70.201 181.847 70.4486 182.097 71.1915C182.343 71.6891 182.343 72.432 181.847 72.9272L164.488 94.5036L181.847 116.08C182.343 116.578 182.343 117.073 182.097 117.818C181.847 118.313 181.102 118.561 180.607 118.561Z" fill="#112152"/>
<path d="M145.392 104.672H103.728C102.985 104.672 102.24 103.93 102.24 103.184C102.24 102.441 102.985 101.696 103.728 101.696H144.152V64.4958H103.728C102.985 64.4958 102.24 63.753 102.24 63.0101C102.24 62.2649 102.985 61.5219 103.728 61.5219H145.64C146.383 61.5219 147.128 62.2649 147.128 63.0101V103.432C147.128 103.93 146.383 104.672 145.392 104.672Z" fill="#112152"/>
<path d="M130.759 73.6724H103.48C102.737 73.6724 101.992 72.9271 101.992 72.1867C101.992 71.4414 102.737 70.6961 103.48 70.6961H130.759C131.504 70.6961 132.249 71.4414 132.249 72.1867C132.249 72.9271 131.752 73.6724 130.759 73.6724Z" fill="#112152"/>
<path d="M135.226 118.561C134.976 118.561 134.48 118.561 134.23 118.313C133.49 117.818 133.49 116.825 133.985 116.08L144.152 101.944C144.647 101.201 145.64 101.201 146.383 101.697C147.128 102.194 147.128 103.185 146.633 103.93L136.464 118.066C136.216 118.313 135.721 118.561 135.226 118.561Z" fill="#112152"/>
<path d="M103.728 171.385C102.985 171.385 102.24 170.642 102.24 169.897V59.7837C102.24 59.0409 102.985 58.2956 103.728 58.2956C104.473 58.2956 105.216 59.0409 105.216 59.7837V169.897C105.216 170.642 104.473 171.385 103.728 171.385Z" fill="#112152"/>
<path d="M118.856 151.048C113.649 151.048 108.687 151.296 103.728 152.041C83.887 154.768 70.0013 162.951 70.0013 171.88C70.0013 177.089 74.9583 182.544 83.8869 186.265C93.3133 190.48 105.711 192.713 118.856 192.713C131.999 192.713 144.402 190.48 153.823 186.265C162.502 182.296 167.712 177.089 167.712 171.88C167.712 166.672 162.752 161.215 153.823 157.496C144.647 153.279 131.999 151.048 118.856 151.048ZM118.856 196.185C105.216 196.185 92.3205 193.704 82.6465 189.487C72.4798 185.025 67.025 178.825 67.025 172.127C67.025 166.672 70.744 161.71 77.6894 157.496C84.1371 153.527 93.0633 150.801 103.48 149.313C108.44 148.567 113.649 148.32 118.856 148.32C132.495 148.32 145.392 150.801 155.064 155.018C165.233 159.479 170.688 165.68 170.688 172.377C170.688 179.07 165.233 185.273 155.064 189.737C145.392 193.704 132.495 196.185 118.856 196.185Z" fill="#112152"/>
<path d="M104.968 165.185C104.473 165.185 104.223 165.185 103.728 165.185C98.7681 165.433 94.799 167.914 94.799 170.642C94.799 173.368 98.7681 176.095 104.968 176.095C110.918 176.095 115.135 173.368 115.135 170.642C115.135 167.914 110.918 165.185 104.968 165.185ZM104.968 179.071C97.53 179.071 91.8227 175.354 91.8227 170.642C91.8227 166.178 96.7847 162.706 103.728 162.209C104.223 162.209 104.72 162.209 105.216 162.209C112.654 162.209 118.361 165.928 118.361 170.642C118.111 175.354 112.409 179.071 104.968 179.071Z" fill="#112152"/>
<path d="M69.5033 79.8718C64.2962 79.8718 60.0795 84.0885 60.0795 89.2957C60.0795 94.5029 64.2962 98.7197 69.5033 98.7197C74.713 98.7197 78.9297 94.5029 78.9297 89.2957C78.9297 84.0885 74.713 79.8718 69.5033 79.8718ZM69.5033 101.448C62.5605 101.448 57.1032 95.9934 57.1032 89.0481C57.1032 82.1052 62.5605 76.648 69.5033 76.648C76.4487 76.648 81.9035 82.1052 81.9035 89.0481C81.9035 95.9934 76.4487 101.448 69.5033 101.448Z" fill="#112152"/>
<path d="M182.593 140.384C179.121 140.384 176.392 143.111 176.392 146.584C176.392 150.056 179.121 152.785 182.593 152.785C186.064 152.785 188.793 150.056 188.793 146.584C188.793 143.111 186.064 140.384 182.593 140.384ZM182.593 155.761C177.385 155.761 173.169 151.544 173.169 146.337C173.169 141.13 177.385 136.913 182.593 136.913C187.8 136.913 192.016 141.13 192.016 146.337C192.016 151.544 187.8 155.761 182.593 155.761Z" fill="#112152"/>
<path d="M103.727 150.554C108.439 149.808 113.649 149.561 118.856 149.561C146.633 149.561 169.2 159.73 169.2 172.127C169.2 184.528 146.633 194.694 118.856 194.694C91.0797 194.694 68.5129 184.528 68.5129 172.127C68.5129 161.961 83.144 153.527 103.727 150.554Z" fill="white"/>
<path d="M69.5035 78.1364C75.5319 78.1364 80.4155 83.0224 80.4155 89.0484C80.4155 95.0769 75.5319 99.9604 69.5035 99.9604C63.4775 99.9604 58.5939 95.0769 58.5939 89.0484C58.5939 83.0224 63.4775 78.1364 69.5035 78.1364Z" fill="white"/>
<path d="M182.593 138.649C186.809 138.649 190.281 142.12 190.281 146.337C190.281 150.553 186.809 154.025 182.593 154.025C178.376 154.025 174.904 150.553 174.904 146.337C174.904 142.12 178.376 138.649 182.593 138.649Z" fill="white"/>
<path d="M103.728 163.449C104.223 163.449 104.473 163.449 104.968 163.449C111.416 163.449 116.625 166.673 116.625 170.392C116.625 174.113 111.416 177.334 104.968 177.334C98.5203 177.334 93.3132 174.113 93.3132 170.392C93.3132 166.92 97.7751 163.944 103.728 163.449Z" fill="#FAE12C"/>
<path d="M145.392 103.185L135.226 117.073V103.185H145.392Z" fill="#FAE12C"/>
<path d="M180.607 71.9366L162.502 94.5034L180.607 117.073H135.226L145.392 103.185V71.9366H180.607Z" fill="#FAE12C"/>
<path d="M103.728 62.7604H145.64C145.64 68.2176 145.64 98.7202 145.64 103.185C131.009 103.185 118.606 103.185 103.728 103.185C103.728 99.4655 103.728 67.97 103.728 62.7604Z" fill="#FAE12C"/>
<path d="M188.047 75.1626C189.281 75.1626 190.281 76.1605 190.281 77.3936C190.281 78.6268 189.281 79.6245 188.047 79.6245C186.814 79.6245 185.816 78.6268 185.816 77.3936C185.816 76.1605 186.814 75.1626 188.047 75.1626Z" fill="#112152"/>
<path d="M180.362 185.273C181.592 185.273 182.593 186.274 182.593 187.504C182.593 188.738 181.592 189.738 180.362 189.738C179.129 189.738 178.128 188.738 178.128 187.504C178.128 186.274 179.129 185.273 180.362 185.273Z" fill="#112152"/>
<path d="M164.983 126.496C166.216 126.496 167.216 127.494 167.216 128.727C167.216 129.96 166.216 130.96 164.983 130.96C163.75 130.96 162.752 129.96 162.752 128.727C162.752 127.494 163.75 126.496 164.983 126.496Z" fill="#112152"/>
<path d="M154.071 53.5835C155.304 53.5835 156.304 54.5837 156.304 55.8169C156.304 57.0476 155.304 58.0479 154.071 58.0479C152.838 58.0479 151.84 57.0476 151.84 55.8169C151.84 54.5837 152.838 53.5835 154.071 53.5835Z" fill="#112152"/>
<path d="M123.071 131.954C124.304 131.954 125.304 132.952 125.304 134.185C125.304 135.418 124.304 136.418 123.071 136.418C121.84 136.418 120.84 135.418 120.84 134.185C120.84 132.952 121.84 131.954 123.071 131.954Z" fill="#112152"/>
<path d="M88.8489 106.161C90.0796 106.161 91.0798 107.159 91.0798 108.392C91.0798 109.625 90.0796 110.623 88.8489 110.623C87.6157 110.623 86.6155 109.625 86.6155 108.392C86.6155 107.159 87.6157 106.161 88.8489 106.161Z" fill="#112152"/>
<path d="M82.6464 59.7837C83.8795 59.7837 84.8797 60.7839 84.8797 62.0171C84.8797 63.2502 83.8795 64.248 82.6464 64.248C81.4157 64.248 80.4154 63.2502 80.4154 62.0171C80.4154 60.7839 81.4157 59.7837 82.6464 59.7837Z" fill="#112152"/>
<path d="M67.2724 132.696C68.5055 132.696 69.5033 133.697 69.5033 134.927C69.5033 136.16 68.5055 137.161 67.2724 137.161C66.0392 137.161 65.0415 136.16 65.0415 134.927C65.0415 133.697 66.0392 132.696 67.2724 132.696Z" fill="#112152"/>
<path d="M65.7844 188.497C67.0151 188.497 68.0154 189.495 68.0154 190.728C68.0154 191.961 67.0151 192.959 65.7844 192.959C64.5513 192.959 63.5511 191.961 63.5511 190.728C63.5511 189.495 64.5513 188.497 65.7844 188.497Z" fill="#112152"/>
<path d="M180.607 118.561H135.226C134.48 118.561 133.735 117.818 133.735 117.073V102.937C133.735 102.194 134.48 101.449 135.226 101.449C135.968 101.449 136.711 102.194 136.711 102.937V115.337H177.135L161.016 95.2489C160.521 94.7537 160.521 93.7608 161.016 93.2631L177.135 73.1773H145.392C144.647 73.1773 143.904 72.432 143.904 71.6892C143.904 70.9464 144.647 70.201 145.392 70.201H180.607C181.102 70.201 181.847 70.4486 182.097 71.1915C182.343 71.6891 182.343 72.432 181.847 72.9272L164.488 94.5036L181.847 116.08C182.343 116.578 182.343 117.073 182.097 117.818C181.847 118.313 181.102 118.561 180.607 118.561Z" fill="#112152"/>
<path d="M145.392 104.672H103.728C102.985 104.672 102.24 103.93 102.24 103.184C102.24 102.441 102.985 101.696 103.728 101.696H144.152V64.4958H103.728C102.985 64.4958 102.24 63.753 102.24 63.0101C102.24 62.2649 102.985 61.5219 103.728 61.5219H145.64C146.383 61.5219 147.128 62.2649 147.128 63.0101V103.432C147.128 103.93 146.383 104.672 145.392 104.672Z" fill="#112152"/>
<path d="M130.759 73.6724H103.48C102.737 73.6724 101.992 72.9271 101.992 72.1867C101.992 71.4414 102.737 70.6961 103.48 70.6961H130.759C131.504 70.6961 132.249 71.4414 132.249 72.1867C132.249 72.9271 131.752 73.6724 130.759 73.6724Z" fill="#112152"/>
<path d="M135.226 118.561C134.976 118.561 134.48 118.561 134.23 118.313C133.49 117.818 133.49 116.825 133.985 116.08L144.152 101.944C144.647 101.201 145.64 101.201 146.383 101.697C147.128 102.194 147.128 103.185 146.633 103.93L136.464 118.066C136.216 118.313 135.721 118.561 135.226 118.561Z" fill="#112152"/>
<path d="M103.728 171.385C102.985 171.385 102.24 170.642 102.24 169.897V59.7837C102.24 59.0409 102.985 58.2956 103.728 58.2956C104.473 58.2956 105.216 59.0409 105.216 59.7837V169.897C105.216 170.642 104.473 171.385 103.728 171.385Z" fill="#112152"/>
<path d="M118.856 151.048C113.649 151.048 108.687 151.296 103.728 152.041C83.887 154.768 70.0013 162.951 70.0013 171.88C70.0013 177.089 74.9583 182.544 83.8869 186.265C93.3133 190.48 105.711 192.713 118.856 192.713C131.999 192.713 144.402 190.48 153.823 186.265C162.502 182.296 167.712 177.089 167.712 171.88C167.712 166.672 162.752 161.215 153.823 157.496C144.647 153.279 131.999 151.048 118.856 151.048ZM118.856 196.185C105.216 196.185 92.3205 193.704 82.6465 189.487C72.4798 185.025 67.025 178.825 67.025 172.127C67.025 166.672 70.744 161.71 77.6894 157.496C84.1371 153.527 93.0633 150.801 103.48 149.313C108.44 148.567 113.649 148.32 118.856 148.32C132.495 148.32 145.392 150.801 155.064 155.018C165.233 159.479 170.688 165.68 170.688 172.377C170.688 179.07 165.233 185.273 155.064 189.737C145.392 193.704 132.495 196.185 118.856 196.185Z" fill="#112152"/>
<path d="M104.968 165.185C104.473 165.185 104.223 165.185 103.728 165.185C98.7681 165.433 94.799 167.914 94.799 170.642C94.799 173.368 98.7681 176.095 104.968 176.095C110.918 176.095 115.135 173.368 115.135 170.642C115.135 167.914 110.918 165.185 104.968 165.185ZM104.968 179.071C97.53 179.071 91.8227 175.354 91.8227 170.642C91.8227 166.178 96.7847 162.706 103.728 162.209C104.223 162.209 104.72 162.209 105.216 162.209C112.654 162.209 118.361 165.928 118.361 170.642C118.111 175.354 112.409 179.071 104.968 179.071Z" fill="#112152"/>
<path d="M69.5033 79.8718C64.2962 79.8718 60.0795 84.0885 60.0795 89.2957C60.0795 94.5029 64.2962 98.7197 69.5033 98.7197C74.713 98.7197 78.9297 94.5029 78.9297 89.2957C78.9297 84.0885 74.713 79.8718 69.5033 79.8718ZM69.5033 101.448C62.5605 101.448 57.1032 95.9934 57.1032 89.0481C57.1032 82.1052 62.5605 76.648 69.5033 76.648C76.4487 76.648 81.9035 82.1052 81.9035 89.0481C81.9035 95.9934 76.4487 101.448 69.5033 101.448Z" fill="#112152"/>
<path d="M182.593 140.384C179.121 140.384 176.392 143.111 176.392 146.584C176.392 150.056 179.121 152.785 182.593 152.785C186.064 152.785 188.793 150.056 188.793 146.584C188.793 143.111 186.064 140.384 182.593 140.384ZM182.593 155.761C177.385 155.761 173.169 151.544 173.169 146.337C173.169 141.13 177.385 136.913 182.593 136.913C187.8 136.913 192.016 141.13 192.016 146.337C192.016 151.544 187.8 155.761 182.593 155.761Z" fill="#112152"/>
</svg>
