<svg width="249" height="249" viewBox="0 0 249 249" fill="none" xmlns="http://www.w3.org/2000/svg">
<path d="M0.559937 0.759766H248.56V248.76H0.559937V0.759766Z" fill="white"/>
<path d="M178.128 148.818C184.978 148.818 190.528 154.369 190.528 161.216C190.528 168.066 184.978 173.619 178.128 173.619C171.281 173.619 165.728 168.066 165.728 161.216C165.728 154.369 171.281 148.818 178.128 148.818Z" fill="#FAE12C"/>
<path d="M72.7272 165.928C76.944 165.928 80.4154 169.402 80.4154 173.619C80.4154 177.833 76.944 181.305 72.7272 181.305C68.513 181.305 65.0415 177.833 65.0415 173.619C65.0415 169.402 68.2654 165.928 72.7272 165.928Z" fill="#FAE12C"/>
<path d="M119.849 87.3126C120.84 97.977 116.128 108.641 107.449 114.839L89.3441 127.984C85.8727 125.506 74.9607 117.568 71.2416 114.839C62.5606 108.391 57.601 97.977 58.839 87.3126L60.3272 70.2005C77.6893 69.9529 89.3441 55.817 89.3441 55.817C89.3441 55.817 92.8156 60.0339 98.768 64.0005C103.728 67.2243 110.425 70.2005 118.361 70.4481L119.849 87.3126Z" fill="white"/>
<path d="M105.216 88.3061C105.713 90.0419 106.208 91.7776 106.208 93.7609C106.208 103.432 98.2727 111.368 88.6012 111.368C78.9272 111.368 70.9915 103.432 70.9915 93.7609C70.9915 84.0894 78.9272 76.1536 88.6012 76.1536C93.5607 76.1536 97.7775 78.1369 101.001 81.3608L90.0893 92.2728L87.3607 89.5466C85.8726 88.056 83.1439 88.056 81.6558 89.5466C80.913 90.287 80.4154 91.2824 80.4154 92.2728C80.4154 93.2632 80.913 94.2585 81.6558 95.0014L84.3845 97.73L90.0893 103.432L95.7917 97.73L105.216 88.3061Z" fill="#FAE12C"/>
<path d="M111.416 76.4005C112.904 77.8886 112.904 80.6172 111.416 82.1053L105.216 88.3054L95.7917 97.7293L90.0894 103.432L84.3845 97.7293L81.6559 95.0006C80.913 94.2578 80.4154 93.2625 80.4154 92.272C80.4154 91.2816 80.913 90.2862 81.6559 89.5458C83.144 88.0553 85.8726 88.0553 87.3607 89.5458L90.0894 92.272L101.001 81.36L105.713 76.6481C106.456 75.9028 107.449 75.4076 108.439 75.4076C109.68 75.4076 110.673 75.6576 111.416 76.4005Z" fill="white"/>
<path d="M132.992 184.528V188.247C132.992 191.474 130.514 193.955 127.287 193.955H120.097C116.873 193.955 114.392 191.474 114.392 188.247V184.528H132.992Z" fill="#FAE12C"/>
<path d="M106.704 165.928H140.928V175.354H106.704V165.928Z" fill="white"/>
<path d="M140.928 175.104V178.825C140.928 182.047 138.449 184.528 135.225 184.528H133.24H114.64H112.656C109.432 184.528 106.951 182.047 106.951 178.825V175.104H140.928Z" fill="white"/>
<path d="M106.704 156.754H140.928V165.928H106.704V156.754Z" fill="white"/>
<path d="M174.904 108.391C174.904 130.713 160.769 149.56 140.68 156.753H106.704C89.3442 150.553 76.1987 135.177 73.225 116.577L89.3441 128.232L107.449 115.089C116.128 108.641 121.09 98.2243 119.849 87.5599L118.361 70.2001C110.425 69.9525 103.728 66.9763 98.768 63.7525C106.209 59.5358 114.64 57.3049 123.816 57.3049C152.09 57.3049 174.904 80.1193 174.904 108.391Z" fill="#FAE12C"/>
<path d="M188.05 96.2388C189.28 96.2388 190.281 97.2391 190.281 98.4722C190.281 99.7054 189.28 100.706 188.05 100.706C186.817 100.706 185.816 99.7054 185.816 98.4722C185.816 97.2391 186.817 96.2388 188.05 96.2388Z" fill="#112152"/>
<path d="M164.738 57.5528C165.969 57.5528 166.969 58.553 166.969 59.7837C166.969 61.0169 165.969 62.0171 164.738 62.0171C163.505 62.0171 162.504 61.0169 162.504 59.7837C162.504 58.553 163.505 57.5528 164.738 57.5528Z" fill="#112152"/>
<path d="M150.85 178.331C152.083 178.331 153.08 179.328 153.08 180.562C153.08 181.795 152.083 182.792 150.85 182.792C149.616 182.792 148.616 181.795 148.616 180.562C148.616 179.328 149.616 178.331 150.85 178.331Z" fill="#112152"/>
<path d="M92.0727 179.815C93.3059 179.815 94.3037 180.816 94.3037 182.046C94.3037 183.28 93.3059 184.28 92.0727 184.28C90.8396 184.28 89.8394 183.28 89.8394 182.046C89.8394 180.816 90.8396 179.815 92.0727 179.815Z" fill="#112152"/>
<path d="M70.2487 59.041C71.4818 59.041 72.4796 60.0413 72.4796 61.2744C72.4796 62.5051 71.4818 63.5054 70.2487 63.5054C69.0155 63.5054 68.0177 62.5051 68.0177 61.2744C68.0177 60.0413 69.0155 59.041 70.2487 59.041Z" fill="#112152"/>
<path d="M65.5368 141.13C66.77 141.13 67.7702 142.128 67.7702 143.361C67.7702 144.594 66.77 145.592 65.5368 145.592C64.3037 145.592 63.3059 144.594 63.3059 143.361C63.3059 142.128 64.3037 141.13 65.5368 141.13Z" fill="#112152"/>
<path d="M140.928 176.595C140.185 176.595 139.44 175.849 139.44 175.104V165.68C139.44 164.937 140.185 164.192 140.928 164.192C141.673 164.192 142.416 164.937 142.416 165.68V175.104C142.416 176.095 141.673 176.595 140.928 176.595Z" fill="#112152"/>
<path d="M106.704 176.595C105.961 176.595 105.216 175.849 105.216 175.104V165.68C105.216 164.937 105.961 164.192 106.704 164.192C107.449 164.192 108.192 164.937 108.192 165.68V175.104C108.192 176.095 107.697 176.595 106.704 176.595Z" fill="#112152"/>
<path d="M135.226 186.016H133.24C132.497 186.016 131.752 185.273 131.752 184.528C131.752 183.785 132.497 183.04 133.24 183.04H135.226C137.457 183.04 139.44 181.304 139.44 178.826V176.84H108.192V178.826C108.192 181.057 109.928 183.04 112.409 183.04H114.392C115.137 183.04 115.88 183.785 115.88 184.528C115.88 185.273 115.137 186.016 114.392 186.016H112.409C108.44 186.016 105.216 182.792 105.216 178.826V175.104C105.216 174.359 105.961 173.618 106.704 173.618H140.928C141.673 173.618 142.416 174.359 142.416 175.104V178.826C142.416 182.792 139.192 186.016 135.226 186.016Z" fill="#112152"/>
<path d="M116.128 186.017V188.002C116.128 190.233 117.866 192.219 120.344 192.219H127.535C129.768 192.219 131.752 190.481 131.752 188.002V186.017H116.128ZM127.287 195.193H120.097C116.128 195.193 112.904 191.969 112.904 188.002V184.281C112.904 183.538 113.649 182.793 114.392 182.793H132.992C133.737 182.793 134.48 183.538 134.48 184.281V188.002C134.73 191.969 131.504 195.193 127.287 195.193Z" fill="#112152"/>
<path d="M151.592 158.239H95.7918C95.049 158.239 94.3037 157.496 94.3037 156.754C94.3037 156.008 95.049 155.263 95.7918 155.263H151.592C152.338 155.263 153.08 156.008 153.08 156.754C153.08 157.496 152.585 158.239 151.592 158.239Z" fill="#112152"/>
<path d="M72.7273 167.416C69.2559 167.416 66.5297 170.145 66.5297 173.619C66.5297 177.09 69.2559 179.816 72.7273 179.816C76.1987 179.816 78.9274 177.09 78.9274 173.619C78.9274 170.145 75.9511 167.416 72.7273 167.416ZM72.7273 182.792C67.5201 182.792 63.3059 178.576 63.3059 173.369C63.3059 168.161 67.5201 163.945 72.7273 163.945C77.9369 163.945 82.1536 168.161 82.1536 173.369C82.1536 178.576 77.6893 182.792 72.7273 182.792Z" fill="#112152"/>
<path d="M178.128 150.304C172.176 150.304 167.216 155.264 167.216 161.216C167.216 167.169 172.176 172.128 178.128 172.128C184.081 172.128 189.04 167.169 189.04 161.216C188.793 155.264 184.081 150.304 178.128 150.304ZM178.128 175.104C170.44 175.104 164.24 168.904 164.24 161.216C164.24 153.528 170.44 147.328 178.128 147.328C185.816 147.328 192.017 153.528 192.017 161.216C192.017 168.904 185.816 175.104 178.128 175.104Z" fill="#112152"/>
<path d="M140.928 167.416H106.704C105.961 167.416 105.216 166.673 105.216 165.927V157.994C87.3607 151.296 74.713 135.672 71.7367 116.825C71.4891 116.079 72.2319 115.089 72.9772 115.089C73.7201 114.839 74.7129 115.584 74.7129 116.329C77.4391 134.432 90.0893 149.313 107.199 155.263C107.697 155.513 108.192 156.008 108.192 156.754V164.442H139.192V156.754C139.192 156.008 139.687 155.513 140.185 155.263C160.023 148.32 173.169 129.472 173.169 108.391C173.169 81.1124 150.849 58.7931 123.568 58.7931C115.137 58.7931 106.704 61.024 99.2656 65.2407C98.5203 65.736 97.5274 65.4883 97.0322 64.7455C96.537 64.0002 96.7845 63.0098 97.5274 62.5122C105.463 58.0478 114.392 55.8169 123.321 55.8169C152.338 55.8169 176.145 79.3766 176.145 108.641C176.145 130.463 162.504 150.303 141.921 157.994V165.927C142.416 166.673 141.673 167.416 140.928 167.416Z" fill="#112152"/>
<path d="M159.033 111.123C158.288 111.123 157.545 110.378 157.545 109.633C157.545 94.5038 147.376 81.1132 132.745 77.3942C132.002 77.1441 131.504 76.4013 131.752 75.4084C132.002 74.6631 132.745 74.1679 133.738 74.4179C149.609 78.6346 160.769 93.2633 160.769 109.883C160.521 110.378 159.776 111.123 159.033 111.123Z" fill="#112152"/>
<path d="M88.3537 113.104C77.6893 113.104 69.0082 104.425 69.0082 93.7605C69.0082 83.0961 77.6893 74.4175 88.3537 74.4175C93.5608 74.4175 98.2728 76.4008 101.992 80.1199C102.49 80.6175 102.49 81.608 101.992 82.3533C101.497 83.0961 100.504 82.8485 99.7609 82.3533C96.7847 79.3771 92.568 77.6389 88.3537 77.6389C79.425 77.6389 72.2321 84.8319 72.2321 93.7605C72.2321 102.689 79.425 109.882 88.3537 109.882C97.2799 109.882 104.473 102.689 104.473 93.7605C104.473 92.0224 104.225 90.2866 103.728 88.8009C103.48 88.0556 103.978 87.0652 104.72 86.8152C105.463 86.57 106.456 87.0652 106.704 87.8105C107.449 89.7914 107.697 91.7772 107.697 93.7605C107.697 104.425 99.0181 113.104 88.3537 113.104Z" fill="#112152"/>
<path d="M84.3845 89.5455C83.6417 89.5455 83.144 89.7907 82.6488 90.2859C82.1536 90.786 81.906 91.2812 81.906 92.0216C81.906 92.7669 82.1536 93.2621 82.6488 93.7598L90.0894 101.2L110.425 80.8644C110.92 80.3692 111.168 79.8715 111.168 79.1287C111.168 78.3834 110.92 77.8882 110.425 77.393C109.928 76.8978 109.432 76.6477 108.687 76.6477C107.944 76.6477 107.449 76.8978 106.951 77.393L91.3274 93.017C90.8322 93.5122 89.8393 93.5122 89.0965 93.017L86.3679 90.2859C85.6251 89.7907 85.1298 89.5455 84.3845 89.5455ZM90.0894 105.169C89.5917 105.169 89.3441 104.919 89.0965 104.672L80.6655 96.2383C79.6726 95.2479 78.9273 93.7598 78.9273 92.2717C78.9273 90.786 79.425 89.2955 80.6655 88.305C81.6559 87.3121 83.144 86.5693 84.6322 86.5693C86.1203 86.5693 87.6084 87.0645 88.6013 88.305L90.337 90.0407L104.968 75.4072C105.961 74.4168 107.449 73.6715 108.937 73.6715C110.425 73.6715 111.911 74.1667 112.904 75.4072C113.897 76.4001 114.64 77.8882 114.64 79.3763C114.64 80.8644 114.144 82.3526 112.904 83.343L91.5751 104.672C90.8322 104.919 90.5846 105.169 90.0894 105.169Z" fill="#112152"/>
<path d="M61.8152 71.6892L60.3271 87.5608C59.3367 97.73 64.0486 107.897 72.232 113.849L89.3441 126.247L106.456 113.849C114.64 107.897 119.354 97.73 118.361 87.5608L116.873 71.6892C110.425 71.1916 103.978 69.2106 98.0252 65.2415C93.8084 62.5129 91.0798 59.7843 89.5917 58.0486C86.1203 61.5225 75.9511 70.9464 61.8152 71.6892ZM89.3441 129.721C89.0965 129.721 88.6013 129.721 88.3537 129.473L70.2487 116.33C61.0724 109.632 56.1129 98.4728 57.1033 87.3132L58.5914 70.201C58.5914 69.4558 59.3367 68.713 60.0795 68.713C76.6964 68.4654 87.856 54.8248 87.856 54.8248C88.1036 54.5772 88.6013 54.3295 89.0965 54.3295C89.5917 54.3295 90.0894 54.5772 90.337 54.8248C90.337 54.8248 93.8084 58.7939 99.2657 62.5129C105.216 66.482 111.663 68.4654 118.113 68.713C118.856 68.713 119.602 69.4558 119.602 70.201L121.09 87.3132C122.08 98.4728 117.121 109.632 107.944 116.33L89.8393 129.473C90.0894 129.473 89.5917 129.721 89.3441 129.721Z" fill="#112152"/>
<path d="M178.128 148.818C184.978 148.818 190.528 154.369 190.528 161.216C190.528 168.066 184.978 173.619 178.128 173.619C171.281 173.619 165.728 168.066 165.728 161.216C165.728 154.369 171.281 148.818 178.128 148.818Z" fill="#FAE12C"/>
<path d="M72.7272 165.928C76.944 165.928 80.4154 169.402 80.4154 173.619C80.4154 177.833 76.944 181.305 72.7272 181.305C68.513 181.305 65.0415 177.833 65.0415 173.619C65.0415 169.402 68.2654 165.928 72.7272 165.928Z" fill="#FAE12C"/>
<path d="M119.849 87.3126C120.84 97.977 116.128 108.641 107.449 114.839L89.3441 127.984C85.8727 125.506 74.9607 117.568 71.2416 114.839C62.5606 108.391 57.601 97.977 58.839 87.3126L60.3272 70.2005C77.6893 69.9529 89.3441 55.817 89.3441 55.817C89.3441 55.817 92.8156 60.0339 98.768 64.0005C103.728 67.2243 110.425 70.2005 118.361 70.4481L119.849 87.3126Z" fill="white"/>
<path d="M105.216 88.3061C105.713 90.0419 106.208 91.7776 106.208 93.7609C106.208 103.432 98.2727 111.368 88.6012 111.368C78.9272 111.368 70.9915 103.432 70.9915 93.7609C70.9915 84.0894 78.9272 76.1536 88.6012 76.1536C93.5607 76.1536 97.7775 78.1369 101.001 81.3608L90.0893 92.2728L87.3607 89.5466C85.8726 88.056 83.1439 88.056 81.6558 89.5466C80.913 90.287 80.4154 91.2824 80.4154 92.2728C80.4154 93.2632 80.913 94.2585 81.6558 95.0014L84.3845 97.73L90.0893 103.432L95.7917 97.73L105.216 88.3061Z" fill="#FAE12C"/>
<path d="M111.416 76.4005C112.904 77.8886 112.904 80.6172 111.416 82.1053L105.216 88.3054L95.7917 97.7293L90.0894 103.432L84.3845 97.7293L81.6559 95.0006C80.913 94.2578 80.4154 93.2625 80.4154 92.272C80.4154 91.2816 80.913 90.2862 81.6559 89.5458C83.144 88.0553 85.8726 88.0553 87.3607 89.5458L90.0894 92.272L101.001 81.36L105.713 76.6481C106.456 75.9028 107.449 75.4076 108.439 75.4076C109.68 75.4076 110.673 75.6576 111.416 76.4005Z" fill="white"/>
<path d="M132.992 184.528V188.247C132.992 191.474 130.514 193.955 127.287 193.955H120.097C116.873 193.955 114.392 191.474 114.392 188.247V184.528H132.992Z" fill="#FAE12C"/>
<path d="M106.704 165.928H140.928V175.354H106.704V165.928Z" fill="white"/>
<path d="M140.928 175.104V178.825C140.928 182.047 138.449 184.528 135.225 184.528H133.24H114.64H112.656C109.432 184.528 106.951 182.047 106.951 178.825V175.104H140.928Z" fill="white"/>
<path d="M106.704 156.754H140.928V165.928H106.704V156.754Z" fill="white"/>
<path d="M174.904 108.391C174.904 130.713 160.769 149.56 140.68 156.753H106.704C89.3442 150.553 76.1987 135.177 73.225 116.577L89.3441 128.232L107.449 115.089C116.128 108.641 121.09 98.2243 119.849 87.5599L118.361 70.2001C110.425 69.9525 103.728 66.9763 98.768 63.7525C106.209 59.5358 114.64 57.3049 123.816 57.3049C152.09 57.3049 174.904 80.1193 174.904 108.391Z" fill="#FAE12C"/>
<path d="M188.05 96.2388C189.28 96.2388 190.281 97.2391 190.281 98.4722C190.281 99.7054 189.28 100.706 188.05 100.706C186.817 100.706 185.816 99.7054 185.816 98.4722C185.816 97.2391 186.817 96.2388 188.05 96.2388Z" fill="#112152"/>
<path d="M164.738 57.5528C165.969 57.5528 166.969 58.553 166.969 59.7837C166.969 61.0169 165.969 62.0171 164.738 62.0171C163.505 62.0171 162.504 61.0169 162.504 59.7837C162.504 58.553 163.505 57.5528 164.738 57.5528Z" fill="#112152"/>
<path d="M150.85 178.331C152.083 178.331 153.08 179.328 153.08 180.562C153.08 181.795 152.083 182.792 150.85 182.792C149.616 182.792 148.616 181.795 148.616 180.562C148.616 179.328 149.616 178.331 150.85 178.331Z" fill="#112152"/>
<path d="M92.0727 179.815C93.3059 179.815 94.3037 180.816 94.3037 182.046C94.3037 183.28 93.3059 184.28 92.0727 184.28C90.8396 184.28 89.8394 183.28 89.8394 182.046C89.8394 180.816 90.8396 179.815 92.0727 179.815Z" fill="#112152"/>
<path d="M70.2487 59.041C71.4818 59.041 72.4796 60.0413 72.4796 61.2744C72.4796 62.5051 71.4818 63.5054 70.2487 63.5054C69.0155 63.5054 68.0177 62.5051 68.0177 61.2744C68.0177 60.0413 69.0155 59.041 70.2487 59.041Z" fill="#112152"/>
<path d="M65.5368 141.13C66.77 141.13 67.7702 142.128 67.7702 143.361C67.7702 144.594 66.77 145.592 65.5368 145.592C64.3037 145.592 63.3059 144.594 63.3059 143.361C63.3059 142.128 64.3037 141.13 65.5368 141.13Z" fill="#112152"/>
<path d="M140.928 176.595C140.185 176.595 139.44 175.849 139.44 175.104V165.68C139.44 164.937 140.185 164.192 140.928 164.192C141.673 164.192 142.416 164.937 142.416 165.68V175.104C142.416 176.095 141.673 176.595 140.928 176.595Z" fill="#112152"/>
<path d="M106.704 176.595C105.961 176.595 105.216 175.849 105.216 175.104V165.68C105.216 164.937 105.961 164.192 106.704 164.192C107.449 164.192 108.192 164.937 108.192 165.68V175.104C108.192 176.095 107.697 176.595 106.704 176.595Z" fill="#112152"/>
<path d="M135.226 186.016H133.24C132.497 186.016 131.752 185.273 131.752 184.528C131.752 183.785 132.497 183.04 133.24 183.04H135.226C137.457 183.04 139.44 181.304 139.44 178.826V176.84H108.192V178.826C108.192 181.057 109.928 183.04 112.409 183.04H114.392C115.137 183.04 115.88 183.785 115.88 184.528C115.88 185.273 115.137 186.016 114.392 186.016H112.409C108.44 186.016 105.216 182.792 105.216 178.826V175.104C105.216 174.359 105.961 173.618 106.704 173.618H140.928C141.673 173.618 142.416 174.359 142.416 175.104V178.826C142.416 182.792 139.192 186.016 135.226 186.016Z" fill="#112152"/>
<path d="M116.128 186.017V188.002C116.128 190.233 117.866 192.219 120.344 192.219H127.535C129.768 192.219 131.752 190.481 131.752 188.002V186.017H116.128ZM127.287 195.193H120.097C116.128 195.193 112.904 191.969 112.904 188.002V184.281C112.904 183.538 113.649 182.793 114.392 182.793H132.992C133.737 182.793 134.48 183.538 134.48 184.281V188.002C134.73 191.969 131.504 195.193 127.287 195.193Z" fill="#112152"/>
<path d="M151.592 158.239H95.7918C95.049 158.239 94.3037 157.496 94.3037 156.754C94.3037 156.008 95.049 155.263 95.7918 155.263H151.592C152.338 155.263 153.08 156.008 153.08 156.754C153.08 157.496 152.585 158.239 151.592 158.239Z" fill="#112152"/>
<path d="M72.7273 167.416C69.2559 167.416 66.5297 170.145 66.5297 173.619C66.5297 177.09 69.2559 179.816 72.7273 179.816C76.1987 179.816 78.9274 177.09 78.9274 173.619C78.9274 170.145 75.9511 167.416 72.7273 167.416ZM72.7273 182.792C67.5201 182.792 63.3059 178.576 63.3059 173.369C63.3059 168.161 67.5201 163.945 72.7273 163.945C77.9369 163.945 82.1536 168.161 82.1536 173.369C82.1536 178.576 77.6893 182.792 72.7273 182.792Z" fill="#112152"/>
<path d="M178.128 150.304C172.176 150.304 167.216 155.264 167.216 161.216C167.216 167.169 172.176 172.128 178.128 172.128C184.081 172.128 189.04 167.169 189.04 161.216C188.793 155.264 184.081 150.304 178.128 150.304ZM178.128 175.104C170.44 175.104 164.24 168.904 164.24 161.216C164.24 153.528 170.44 147.328 178.128 147.328C185.816 147.328 192.017 153.528 192.017 161.216C192.017 168.904 185.816 175.104 178.128 175.104Z" fill="#112152"/>
<path d="M140.928 167.416H106.704C105.961 167.416 105.216 166.673 105.216 165.927V157.994C87.3607 151.296 74.713 135.672 71.7367 116.825C71.4891 116.079 72.2319 115.089 72.9772 115.089C73.7201 114.839 74.7129 115.584 74.7129 116.329C77.4391 134.432 90.0893 149.313 107.199 155.263C107.697 155.513 108.192 156.008 108.192 156.754V164.442H139.192V156.754C139.192 156.008 139.687 155.513 140.185 155.263C160.023 148.32 173.169 129.472 173.169 108.391C173.169 81.1124 150.849 58.7931 123.568 58.7931C115.137 58.7931 106.704 61.024 99.2656 65.2407C98.5203 65.736 97.5274 65.4883 97.0322 64.7455C96.537 64.0002 96.7845 63.0098 97.5274 62.5122C105.463 58.0478 114.392 55.8169 123.321 55.8169C152.338 55.8169 176.145 79.3766 176.145 108.641C176.145 130.463 162.504 150.303 141.921 157.994V165.927C142.416 166.673 141.673 167.416 140.928 167.416Z" fill="#112152"/>
<path d="M159.033 111.123C158.288 111.123 157.545 110.378 157.545 109.633C157.545 94.5038 147.376 81.1132 132.745 77.3942C132.002 77.1441 131.504 76.4013 131.752 75.4084C132.002 74.6631 132.745 74.1679 133.738 74.4179C149.609 78.6346 160.769 93.2633 160.769 109.883C160.521 110.378 159.776 111.123 159.033 111.123Z" fill="#112152"/>
<path d="M88.3537 113.104C77.6893 113.104 69.0082 104.425 69.0082 93.7605C69.0082 83.0961 77.6893 74.4175 88.3537 74.4175C93.5608 74.4175 98.2728 76.4008 101.992 80.1199C102.49 80.6175 102.49 81.608 101.992 82.3533C101.497 83.0961 100.504 82.8485 99.7609 82.3533C96.7847 79.3771 92.568 77.6389 88.3537 77.6389C79.425 77.6389 72.2321 84.8319 72.2321 93.7605C72.2321 102.689 79.425 109.882 88.3537 109.882C97.2799 109.882 104.473 102.689 104.473 93.7605C104.473 92.0224 104.225 90.2866 103.728 88.8009C103.48 88.0556 103.978 87.0652 104.72 86.8152C105.463 86.57 106.456 87.0652 106.704 87.8105C107.449 89.7914 107.697 91.7772 107.697 93.7605C107.697 104.425 99.0181 113.104 88.3537 113.104Z" fill="#112152"/>
<path d="M84.3845 89.5455C83.6417 89.5455 83.144 89.7907 82.6488 90.2859C82.1536 90.786 81.906 91.2812 81.906 92.0216C81.906 92.7669 82.1536 93.2621 82.6488 93.7598L90.0894 101.2L110.425 80.8644C110.92 80.3692 111.168 79.8715 111.168 79.1287C111.168 78.3834 110.92 77.8882 110.425 77.393C109.928 76.8978 109.432 76.6477 108.687 76.6477C107.944 76.6477 107.449 76.8978 106.951 77.393L91.3274 93.017C90.8322 93.5122 89.8393 93.5122 89.0965 93.017L86.3679 90.2859C85.6251 89.7907 85.1298 89.5455 84.3845 89.5455ZM90.0894 105.169C89.5917 105.169 89.3441 104.919 89.0965 104.672L80.6655 96.2383C79.6726 95.2479 78.9273 93.7598 78.9273 92.2717C78.9273 90.786 79.425 89.2955 80.6655 88.305C81.6559 87.3121 83.144 86.5693 84.6322 86.5693C86.1203 86.5693 87.6084 87.0645 88.6013 88.305L90.337 90.0407L104.968 75.4072C105.961 74.4168 107.449 73.6715 108.937 73.6715C110.425 73.6715 111.911 74.1667 112.904 75.4072C113.897 76.4001 114.64 77.8882 114.64 79.3763C114.64 80.8644 114.144 82.3526 112.904 83.343L91.5751 104.672C90.8322 104.919 90.5846 105.169 90.0894 105.169Z" fill="#112152"/>
<path d="M61.8152 71.6892L60.3271 87.5608C59.3367 97.73 64.0486 107.897 72.232 113.849L89.3441 126.247L106.456 113.849C114.64 107.897 119.354 97.73 118.361 87.5608L116.873 71.6892C110.425 71.1916 103.978 69.2106 98.0252 65.2415C93.8084 62.5129 91.0798 59.7843 89.5917 58.0486C86.1203 61.5225 75.9511 70.9464 61.8152 71.6892ZM89.3441 129.721C89.0965 129.721 88.6013 129.721 88.3537 129.473L70.2487 116.33C61.0724 109.632 56.1129 98.4728 57.1033 87.3132L58.5914 70.201C58.5914 69.4558 59.3367 68.713 60.0795 68.713C76.6964 68.4654 87.856 54.8248 87.856 54.8248C88.1036 54.5772 88.6013 54.3295 89.0965 54.3295C89.5917 54.3295 90.0894 54.5772 90.337 54.8248C90.337 54.8248 93.8084 58.7939 99.2657 62.5129C105.216 66.482 111.663 68.4654 118.113 68.713C118.856 68.713 119.602 69.4558 119.602 70.201L121.09 87.3132C122.08 98.4728 117.121 109.632 107.944 116.33L89.8393 129.473C90.0894 129.473 89.5917 129.721 89.3441 129.721Z" fill="#112152"/>
</svg>
